<svg width="15" height="15" fill="none" xmlns="http://www.w3.org/2000/svg"><path d="M6.975 0.899 C 6.136 0.969,5.317 1.197,4.578 1.564 C 3.935 1.883,3.428 2.238,2.920 2.723 C 1.343 4.229,0.611 6.418,0.965 8.575 C 1.391 11.173,3.343 13.289,5.900 13.925 C 6.970 14.191,8.030 14.191,9.100 13.925 C 11.656 13.289,13.609 11.172,14.035 8.575 C 14.389 6.419,13.657 4.229,12.080 2.723 C 11.077 1.766,9.818 1.150,8.456 0.951 C 8.062 0.893,7.339 0.868,6.975 0.899 M8.295 1.887 C 9.278 2.035,10.117 2.383,10.909 2.969 C 11.234 3.211,11.789 3.766,12.031 4.091 C 12.632 4.903,12.989 5.784,13.128 6.800 C 13.170 7.105,13.170 7.922,13.128 8.213 C 12.943 9.492,12.432 10.550,11.569 11.441 C 10.893 12.139,10.118 12.620,9.201 12.910 C 7.372 13.489,5.357 13.092,3.875 11.862 C 3.603 11.636,3.177 11.186,2.965 10.902 C 2.477 10.246,2.127 9.483,1.966 8.725 C 1.863 8.242,1.839 8.009,1.839 7.500 C 1.839 6.613,2.012 5.833,2.376 5.079 C 2.684 4.439,2.997 3.998,3.498 3.498 C 3.998 2.997,4.439 2.684,5.079 2.376 C 5.686 2.083,6.315 1.917,7.113 1.839 C 7.315 1.820,8.045 1.849,8.295 1.887 M7.200 2.915 C 6.931 2.987,6.623 3.235,6.499 3.478 C 6.152 4.158,6.574 4.979,7.336 5.105 C 7.990 5.214,8.623 4.670,8.625 3.999 C 8.626 3.266,7.914 2.724,7.200 2.915 M4.173 5.358 C 3.848 5.529,3.822 5.984,4.124 6.199 C 4.184 6.242,4.797 6.416,6.156 6.777 L 6.250 6.802 6.250 7.561 C 6.250 8.200,6.242 8.365,6.201 8.606 C 6.121 9.072,5.818 10.212,5.474 11.343 C 5.406 11.566,5.350 11.788,5.350 11.837 C 5.350 12.193,5.734 12.428,6.067 12.276 C 6.255 12.191,6.297 12.102,6.486 11.372 C 6.581 11.009,6.762 10.324,6.890 9.850 C 7.166 8.823,7.135 8.875,7.475 8.875 C 7.597 8.875,7.725 8.886,7.760 8.899 C 7.869 8.941,7.832 8.822,8.360 10.818 C 8.532 11.467,8.690 12.031,8.711 12.071 C 8.880 12.400,9.387 12.404,9.570 12.079 C 9.670 11.901,9.665 11.826,9.528 11.375 C 9.185 10.245,8.866 9.046,8.788 8.590 C 8.759 8.424,8.750 8.174,8.750 7.586 C 8.750 6.862,8.753 6.802,8.794 6.790 C 8.818 6.783,9.265 6.664,9.788 6.525 C 10.310 6.385,10.777 6.252,10.825 6.227 C 11.005 6.136,11.108 5.895,11.064 5.664 C 11.030 5.482,10.798 5.300,10.600 5.300 C 10.543 5.300,10.320 5.355,10.104 5.423 C 9.594 5.582,9.056 5.730,8.712 5.803 C 8.451 5.860,8.391 5.863,7.500 5.863 C 6.609 5.863,6.549 5.860,6.288 5.803 C 5.944 5.730,5.406 5.582,4.896 5.423 C 4.451 5.284,4.333 5.273,4.173 5.358 " fill="currentColor" stroke="none" fill-rule="evenodd"></path></svg>