<svg width="15" height="15" fill="none" xmlns="http://www.w3.org/2000/svg"><path d="M0.342 1.025 C 0.151 1.084,-0.000 1.295,0.000 1.504 C 0.000 1.655,0.089 1.818,0.223 1.913 L 0.329 1.988 1.496 1.988 L 2.663 1.988 2.758 1.928 C 2.810 1.896,2.884 1.823,2.920 1.767 C 2.976 1.683,2.988 1.638,2.988 1.500 C 2.988 1.362,2.976 1.317,2.920 1.233 C 2.884 1.177,2.810 1.104,2.758 1.072 L 2.663 1.012 1.538 1.008 C 0.919 1.005,0.381 1.013,0.342 1.025 M4.342 1.025 C 4.152 1.083,4.000 1.295,4.000 1.504 C 4.000 1.655,4.089 1.818,4.223 1.913 L 4.329 1.988 9.496 1.988 L 14.663 1.988 14.758 1.928 C 14.810 1.896,14.884 1.823,14.920 1.767 C 14.976 1.683,14.988 1.638,14.988 1.500 C 14.988 1.362,14.976 1.317,14.920 1.233 C 14.884 1.177,14.810 1.104,14.758 1.072 L 14.663 1.012 9.537 1.008 C 6.719 1.006,4.381 1.014,4.342 1.025 M4.342 4.025 C 4.151 4.083,4.000 4.295,4.000 4.504 C 4.000 4.655,4.089 4.818,4.223 4.913 L 4.329 4.988 7.996 4.988 L 11.663 4.988 11.758 4.928 C 11.810 4.896,11.884 4.823,11.920 4.767 C 11.976 4.683,11.988 4.638,11.988 4.500 C 11.988 4.362,11.976 4.317,11.920 4.233 C 11.884 4.177,11.810 4.104,11.758 4.072 L 11.663 4.013 8.037 4.008 C 6.044 4.006,4.381 4.014,4.342 4.025 M0.342 7.025 C 0.151 7.084,-0.000 7.295,0.000 7.504 C 0.000 7.655,0.089 7.818,0.223 7.913 L 0.329 7.988 1.496 7.988 L 2.663 7.988 2.758 7.928 C 2.810 7.896,2.884 7.823,2.920 7.767 C 2.976 7.683,2.988 7.638,2.988 7.500 C 2.988 7.362,2.976 7.317,2.920 7.233 C 2.884 7.177,2.810 7.104,2.758 7.072 L 2.663 7.013 1.538 7.008 C 0.919 7.005,0.381 7.013,0.342 7.025 M4.342 7.025 C 4.152 7.083,4.000 7.295,4.000 7.504 C 4.000 7.655,4.089 7.818,4.223 7.913 L 4.329 7.988 9.496 7.988 L 14.663 7.988 14.758 7.928 C 14.810 7.896,14.884 7.823,14.920 7.767 C 14.976 7.683,14.988 7.638,14.988 7.500 C 14.988 7.362,14.976 7.317,14.920 7.233 C 14.884 7.177,14.810 7.104,14.758 7.072 L 14.663 7.013 9.537 7.008 C 6.719 7.006,4.381 7.014,4.342 7.025 M4.342 10.025 C 4.151 10.083,4.000 10.295,4.000 10.504 C 4.000 10.655,4.089 10.818,4.223 10.913 L 4.329 10.988 7.996 10.988 L 11.663 10.988 11.758 10.928 C 11.810 10.896,11.884 10.823,11.920 10.767 C 11.976 10.683,11.988 10.638,11.988 10.500 C 11.988 10.362,11.976 10.317,11.920 10.233 C 11.884 10.177,11.810 10.104,11.758 10.072 L 11.663 10.013 8.037 10.008 C 6.044 10.006,4.381 10.014,4.342 10.025 M0.342 13.025 C 0.151 13.084,-0.000 13.295,0.000 13.504 C 0.000 13.655,0.089 13.818,0.223 13.913 L 0.329 13.988 1.496 13.988 L 2.663 13.988 2.758 13.928 C 2.810 13.896,2.884 13.823,2.920 13.767 C 2.976 13.683,2.988 13.638,2.988 13.500 C 2.988 13.362,2.976 13.317,2.920 13.233 C 2.884 13.177,2.810 13.104,2.758 13.072 L 2.663 13.013 1.538 13.008 C 0.919 13.005,0.381 13.013,0.342 13.025 M4.342 13.025 C 4.152 13.083,4.000 13.295,4.000 13.504 C 4.000 13.655,4.089 13.818,4.223 13.913 L 4.329 13.988 9.496 13.988 L 14.663 13.988 14.758 13.928 C 14.810 13.896,14.884 13.823,14.920 13.767 C 14.976 13.683,14.988 13.638,14.988 13.500 C 14.988 13.362,14.976 13.317,14.920 13.233 C 14.884 13.177,14.810 13.104,14.758 13.072 L 14.663 13.013 9.537 13.008 C 6.719 13.006,4.381 13.014,4.342 13.025 " fill="currentColor" stroke="none" fill-rule="evenodd"></path></svg>