<svg width="15" height="15" fill="none" xmlns="http://www.w3.org/2000/svg"><path d="M10.280 1.815 C 10.209 1.850,10.128 1.910,10.102 1.948 C 10.063 2.003,7.163 9.990,7.033 10.400 C 6.967 10.607,7.052 10.844,7.236 10.971 C 7.421 11.097,7.722 11.058,7.871 10.889 C 7.956 10.791,7.907 10.918,8.485 9.313 L 8.945 8.037 10.500 8.037 L 12.056 8.037 12.555 9.425 C 12.854 10.254,13.080 10.846,13.118 10.896 C 13.233 11.048,13.504 11.120,13.692 11.048 C 13.858 10.986,14.000 10.776,14.000 10.593 C 14.000 10.511,13.614 9.413,12.474 6.250 C 11.634 3.922,10.924 1.984,10.895 1.943 C 10.831 1.853,10.620 1.751,10.499 1.750 C 10.450 1.750,10.351 1.779,10.280 1.815 M2.338 2.138 C 2.296 2.160,2.241 2.197,2.215 2.220 C 2.096 2.327,2.100 2.196,2.100 5.980 L 2.100 9.537 1.406 8.845 C 1.025 8.464,0.681 8.141,0.642 8.126 C 0.460 8.058,0.232 8.138,0.146 8.300 C 0.091 8.403,0.086 8.576,0.136 8.670 C 0.155 8.707,0.653 9.218,1.242 9.805 C 2.179 10.738,2.324 10.874,2.406 10.889 C 2.636 10.930,2.600 10.959,3.747 9.817 C 4.883 8.685,4.920 8.641,4.887 8.444 C 4.863 8.306,4.722 8.155,4.588 8.125 C 4.373 8.076,4.349 8.093,3.594 8.845 L 2.900 9.536 2.900 5.980 C 2.900 2.995,2.894 2.410,2.865 2.340 C 2.786 2.151,2.509 2.045,2.338 2.138 M11.107 5.407 C 11.435 6.317,11.709 7.088,11.717 7.119 L 11.731 7.175 10.503 7.175 C 9.828 7.175,9.275 7.167,9.274 7.156 C 9.273 7.124,10.487 3.751,10.500 3.751 C 10.507 3.751,10.780 4.496,11.107 5.407 M0.331 13.141 C 0.089 13.261,0.027 13.562,0.204 13.763 C 0.245 13.810,0.321 13.861,0.371 13.876 C 0.435 13.894,2.634 13.900,7.554 13.895 L 14.646 13.888 14.715 13.836 C 14.824 13.755,14.880 13.665,14.893 13.546 C 14.909 13.401,14.855 13.275,14.736 13.185 L 14.641 13.113 7.527 13.107 C 1.015 13.101,0.406 13.104,0.331 13.141 " fill="currentColor" stroke="none" fill-rule="evenodd"></path></svg>