<svg width="15" height="15" fill="none" xmlns="http://www.w3.org/2000/svg"><path d="M1.342 0.025 C 1.152 0.083,1.000 0.295,1.000 0.504 C 1.000 0.655,1.089 0.818,1.223 0.913 L 1.329 0.988 3.664 0.994 L 5.999 1.001 6.006 6.619 C 6.012 12.153,6.013 12.239,6.062 12.357 C 6.169 12.615,6.404 12.845,6.657 12.939 C 6.775 12.983,6.856 12.988,7.514 12.988 L 8.240 12.988 8.429 12.894 C 8.657 12.782,8.798 12.637,8.908 12.404 L 8.988 12.238 8.994 6.619 L 9.001 1.001 11.332 0.994 L 13.663 0.988 13.758 0.928 C 13.810 0.896,13.884 0.823,13.920 0.767 C 13.976 0.683,13.988 0.638,13.988 0.500 C 13.988 0.362,13.976 0.317,13.920 0.233 C 13.884 0.177,13.810 0.104,13.758 0.072 L 13.663 0.013 7.538 0.008 C 4.169 0.006,1.381 0.014,1.342 0.025 " fill="currentColor" stroke="none" fill-rule="evenodd"></path></svg>