<svg width="15" height="15" fill="none" xmlns="http://www.w3.org/2000/svg"><path d="M6.765 2.027 C 6.412 2.113,6.108 2.423,6.026 2.780 C 6.010 2.849,6.001 4.868,6.001 8.443 L 6.000 13.999 3.665 14.006 L 1.329 14.013 1.223 14.088 C 0.929 14.294,0.929 14.706,1.223 14.913 L 1.329 14.988 7.496 14.988 L 13.663 14.988 13.758 14.928 C 13.810 14.896,13.884 14.823,13.920 14.767 C 13.976 14.683,13.988 14.638,13.988 14.502 C 13.988 14.305,13.924 14.183,13.768 14.080 L 13.666 14.013 11.333 14.006 L 9.001 13.999 8.994 8.381 L 8.988 2.763 8.908 2.596 C 8.798 2.363,8.657 2.218,8.429 2.106 L 8.240 2.013 7.551 2.008 C 7.173 2.005,6.819 2.014,6.765 2.027 " fill="currentColor" stroke="none" fill-rule="evenodd"></path></svg>