<svg width="15" height="15" fill="none" xmlns="http://www.w3.org/2000/svg"><path d="M0.342 1.024 C 0.227 1.061,0.109 1.166,0.053 1.282 L 0.000 1.391 -0.000 7.504 L -0.000 13.617 0.058 13.727 C 0.090 13.788,0.164 13.871,0.223 13.913 C 0.315 13.978,0.351 13.988,0.496 13.988 C 0.695 13.988,0.816 13.925,0.920 13.768 L 0.988 13.666 0.994 11.333 L 1.001 9.001 6.621 8.994 L 12.240 8.988 12.429 8.894 C 12.657 8.782,12.798 8.637,12.908 8.404 L 12.988 8.238 12.988 7.500 L 12.988 6.763 12.908 6.596 C 12.798 6.363,12.657 6.218,12.429 6.106 L 12.240 6.013 6.621 6.006 L 1.001 5.999 0.994 3.668 L 0.988 1.338 0.928 1.242 C 0.843 1.106,0.708 1.024,0.546 1.012 C 0.473 1.006,0.381 1.012,0.342 1.024 " fill="currentColor" stroke="none" fill-rule="evenodd"></path></svg>