<svg width="15" height="15" fill="none" xmlns="http://www.w3.org/2000/svg"><path d="M7.342 1.024 C 7.227 1.061,7.109 1.166,7.053 1.282 C 7.000 1.390,7.000 1.404,7.000 3.695 L 7.000 5.999 4.380 6.006 L 1.760 6.013 1.569 6.107 C 1.276 6.252,1.090 6.488,1.023 6.799 C 1.006 6.876,1.000 7.175,1.006 7.580 C 1.014 8.158,1.021 8.252,1.063 8.357 C 1.163 8.605,1.392 8.834,1.643 8.938 C 1.759 8.986,1.837 8.988,4.381 8.994 L 7.000 9.001 7.000 11.309 L 7.000 13.617 7.058 13.727 C 7.090 13.788,7.164 13.871,7.223 13.913 C 7.315 13.978,7.351 13.988,7.496 13.988 C 7.695 13.988,7.816 13.925,7.920 13.768 L 7.988 13.666 7.994 11.334 L 8.001 9.001 10.621 8.994 L 13.240 8.988 13.429 8.894 C 13.657 8.782,13.798 8.637,13.908 8.404 L 13.988 8.238 13.988 7.500 L 13.988 6.763 13.908 6.596 C 13.798 6.363,13.657 6.218,13.429 6.106 L 13.240 6.013 10.621 6.006 L 8.001 5.999 7.994 3.668 L 7.988 1.338 7.928 1.242 C 7.843 1.106,7.708 1.024,7.546 1.012 C 7.473 1.006,7.381 1.012,7.342 1.024 " fill="currentColor" stroke="none" fill-rule="evenodd"></path></svg>