<svg width="15" height="15" fill="none" xmlns="http://www.w3.org/2000/svg"><path d="M14.342 1.024 C 14.227 1.061,14.109 1.166,14.053 1.282 C 14.000 1.390,14.000 1.404,14.000 3.695 L 14.000 5.999 8.380 6.006 L 2.760 6.013 2.569 6.107 C 2.276 6.252,2.090 6.488,2.023 6.799 C 2.006 6.876,2.000 7.175,2.006 7.580 C 2.014 8.158,2.021 8.252,2.063 8.357 C 2.163 8.605,2.392 8.834,2.643 8.938 C 2.761 8.987,2.847 8.988,8.381 8.994 L 14.000 9.001 14.000 11.309 L 14.000 13.617 14.058 13.727 C 14.090 13.788,14.164 13.871,14.223 13.913 C 14.315 13.978,14.351 13.988,14.496 13.988 C 14.695 13.988,14.816 13.925,14.920 13.767 L 14.988 13.666 14.988 7.500 L 14.988 1.334 14.920 1.233 C 14.884 1.177,14.813 1.106,14.765 1.076 C 14.666 1.015,14.452 0.989,14.342 1.024 " fill="currentColor" stroke="none" fill-rule="evenodd"></path></svg>