<svg width="15" height="15" fill="none" xmlns="http://www.w3.org/2000/svg"><path d="M6.388 1.875 L 5.263 3.000 7.513 3.000 L 9.762 3.000 8.638 1.875 C 8.019 1.256,7.513 0.750,7.513 0.750 C 7.512 0.750,7.006 1.256,6.388 1.875 M12.000 7.500 L 12.000 9.762 13.131 8.631 L 14.262 7.500 13.131 6.369 L 12.000 5.238 12.000 7.500 M1.875 6.388 L 0.763 7.500 1.881 8.619 L 3.000 9.737 3.000 7.506 C 3.000 6.279,2.997 5.275,2.994 5.275 C 2.990 5.275,2.487 5.776,1.875 6.388 M6.388 13.125 L 7.512 14.250 8.631 13.131 C 9.247 12.516,9.750 12.010,9.750 12.006 C 9.750 12.003,8.740 12.000,7.506 12.000 L 5.263 12.000 6.388 13.125 " fill="currentColor" stroke="none" fill-rule="evenodd"></path></svg>