<svg width="15" height="15" fill="none" xmlns="http://www.w3.org/2000/svg"><path d="M8.385 2.160 C 8.259 2.219,8.218 2.274,4.683 7.203 C 2.717 9.945,1.087 12.221,1.061 12.261 C 1.026 12.315,1.012 12.379,1.012 12.499 C 1.012 12.695,1.076 12.817,1.233 12.920 L 1.334 12.988 7.500 12.988 L 13.666 12.988 13.767 12.920 C 13.924 12.817,13.988 12.695,13.988 12.500 C 13.988 12.305,13.924 12.183,13.767 12.080 L 13.666 12.013 8.075 12.000 L 2.484 11.988 5.765 7.413 C 8.062 4.209,9.055 2.806,9.076 2.731 C 9.142 2.500,9.041 2.275,8.822 2.166 C 8.659 2.085,8.550 2.083,8.385 2.160 M10.242 4.024 C 10.049 4.086,9.900 4.295,9.900 4.504 C 9.900 4.655,9.989 4.818,10.123 4.913 C 10.216 4.978,10.251 4.988,10.398 4.988 C 10.539 4.988,10.583 4.977,10.667 4.920 C 10.824 4.817,10.888 4.695,10.888 4.500 C 10.888 4.308,10.824 4.183,10.675 4.084 C 10.570 4.015,10.360 3.986,10.242 4.024 M11.442 6.024 C 11.249 6.086,11.100 6.295,11.100 6.504 C 11.100 6.655,11.189 6.818,11.323 6.913 C 11.416 6.978,11.451 6.988,11.598 6.988 C 11.739 6.988,11.783 6.977,11.867 6.920 C 12.024 6.817,12.088 6.695,12.088 6.500 C 12.088 6.308,12.024 6.183,11.875 6.084 C 11.770 6.015,11.560 5.986,11.442 6.024 M12.442 8.024 C 12.249 8.086,12.100 8.295,12.100 8.504 C 12.100 8.655,12.189 8.818,12.323 8.912 C 12.416 8.978,12.451 8.988,12.598 8.988 C 12.739 8.988,12.783 8.977,12.867 8.920 C 13.024 8.817,13.088 8.695,13.088 8.500 C 13.088 8.308,13.024 8.183,12.875 8.084 C 12.770 8.015,12.560 7.986,12.442 8.024 M13.242 10.024 C 13.049 10.086,12.900 10.295,12.900 10.504 C 12.900 10.655,12.989 10.818,13.123 10.913 C 13.216 10.978,13.251 10.988,13.398 10.988 C 13.539 10.988,13.583 10.977,13.667 10.920 C 13.824 10.817,13.888 10.695,13.888 10.500 C 13.888 10.308,13.824 10.183,13.675 10.084 C 13.570 10.015,13.360 9.986,13.242 10.024 " fill="currentColor" stroke="none" fill-rule="evenodd"></path></svg>