<svg width="15" height="15" fill="none" xmlns="http://www.w3.org/2000/svg"><path d="M3.051 1.040 C 2.975 1.060,2.864 1.106,2.802 1.142 C 2.546 1.292,2.520 1.335,1.735 2.905 L 0.999 4.377 1.006 8.807 C 1.012 13.157,1.013 13.240,1.062 13.357 C 1.169 13.615,1.404 13.845,1.657 13.939 C 1.785 13.987,1.904 13.988,7.514 13.988 L 13.240 13.988 13.429 13.894 C 13.657 13.782,13.798 13.637,13.908 13.404 L 13.988 13.238 13.994 8.807 L 14.001 4.376 13.264 2.903 C 12.475 1.328,12.453 1.292,12.192 1.139 C 11.943 0.993,12.178 1.000,7.488 1.002 C 3.785 1.003,3.168 1.008,3.051 1.040 M7.000 3.000 L 7.000 4.000 4.663 4.000 C 3.377 4.000,2.325 3.994,2.325 3.988 C 2.325 3.981,2.547 3.531,2.819 2.988 L 3.312 2.000 5.156 2.000 L 7.000 2.000 7.000 3.000 M12.181 2.988 C 12.453 3.531,12.675 3.981,12.675 3.988 C 12.675 3.994,11.623 4.000,10.338 4.000 L 8.000 4.000 8.000 3.000 L 8.000 2.000 9.844 2.000 L 11.688 2.000 12.181 2.988 M13.000 9.000 L 13.000 13.000 7.500 13.000 L 2.000 13.000 2.000 9.000 L 2.000 5.000 7.500 5.000 L 13.000 5.000 13.000 9.000 M5.342 7.025 C 5.151 7.083,5.000 7.295,5.000 7.504 C 5.000 7.655,5.089 7.818,5.223 7.913 L 5.329 7.988 7.498 7.988 L 9.666 7.988 9.767 7.920 C 9.924 7.817,9.988 7.695,9.988 7.500 C 9.988 7.305,9.924 7.183,9.768 7.080 L 9.666 7.013 7.539 7.008 C 6.370 7.006,5.381 7.013,5.342 7.025 " fill="currentColor" stroke="none" fill-rule="evenodd"></path></svg>