<svg width="15" height="15" fill="none" xmlns="http://www.w3.org/2000/svg"><path d="M7.342 2.024 C 7.227 2.061,7.109 2.166,7.053 2.282 L 7.000 2.391 7.000 6.839 L 7.000 11.287 5.419 9.710 C 4.549 8.842,3.798 8.105,3.750 8.072 C 3.680 8.024,3.631 8.013,3.500 8.013 C 3.363 8.013,3.321 8.025,3.231 8.085 C 3.040 8.214,2.964 8.422,3.024 8.650 C 3.051 8.753,3.227 8.936,5.108 10.820 C 6.238 11.952,7.198 12.899,7.241 12.926 C 7.345 12.991,7.513 13.012,7.650 12.976 C 7.753 12.949,7.936 12.773,9.820 10.892 C 10.952 9.762,11.902 8.798,11.932 8.750 C 11.975 8.683,11.988 8.624,11.988 8.500 C 11.988 8.304,11.929 8.193,11.769 8.085 C 11.679 8.025,11.637 8.013,11.500 8.013 C 11.357 8.013,11.324 8.022,11.225 8.092 C 11.163 8.136,10.415 8.870,9.563 9.723 L 8.013 11.275 8.000 6.806 L 7.988 2.337 7.928 2.242 C 7.843 2.106,7.708 2.024,7.546 2.012 C 7.473 2.006,7.381 2.012,7.342 2.024 " fill="currentColor" stroke="none" fill-rule="evenodd"></path></svg>