<svg width="15" height="15" fill="none" xmlns="http://www.w3.org/2000/svg"><path d="M3.864 3.517 C 3.604 3.591,3.452 3.874,3.524 4.150 C 3.551 4.254,3.816 4.525,6.920 7.631 L 10.286 10.999 8.058 11.006 L 5.829 11.013 5.723 11.088 C 5.429 11.294,5.429 11.706,5.723 11.913 L 5.829 11.988 8.748 11.988 L 11.666 11.988 11.767 11.920 C 11.823 11.884,11.896 11.810,11.928 11.758 L 11.988 11.663 11.988 8.748 L 11.988 5.834 11.920 5.733 C 11.816 5.575,11.695 5.513,11.496 5.513 C 11.351 5.513,11.315 5.522,11.223 5.588 C 11.164 5.629,11.090 5.712,11.058 5.773 L 11.000 5.883 11.000 8.085 L 11.000 10.287 7.656 6.948 C 5.817 5.111,4.281 3.589,4.242 3.565 C 4.169 3.520,3.951 3.492,3.864 3.517 " fill="currentColor" stroke="none" fill-rule="evenodd"></path></svg>