<svg width="15" height="15" fill="none" xmlns="http://www.w3.org/2000/svg"><path d="M10.864 3.517 C 10.837 3.524,10.775 3.556,10.726 3.588 C 10.677 3.620,9.147 5.137,7.325 6.960 L 4.013 10.275 4.000 8.054 L 3.988 5.834 3.920 5.732 C 3.816 5.575,3.695 5.513,3.496 5.513 C 3.351 5.513,3.315 5.522,3.223 5.588 C 3.164 5.629,3.090 5.712,3.058 5.773 L 3.000 5.883 3.000 8.750 L 3.000 11.617 3.058 11.727 C 3.090 11.788,3.164 11.871,3.223 11.913 L 3.329 11.988 6.248 11.988 L 9.166 11.988 9.267 11.920 C 9.424 11.817,9.488 11.695,9.488 11.500 C 9.488 11.305,9.424 11.183,9.268 11.080 L 9.166 11.013 6.940 11.006 L 4.714 10.999 8.080 7.631 C 11.184 4.525,11.449 4.254,11.476 4.150 C 11.560 3.829,11.360 3.534,11.041 3.512 C 10.970 3.507,10.891 3.509,10.864 3.517 " fill="currentColor" stroke="none" fill-rule="evenodd"></path></svg>