<svg width="15" height="15" fill="none" xmlns="http://www.w3.org/2000/svg"><path d="M3.342 3.025 C 3.228 3.060,3.109 3.166,3.053 3.282 C 3.000 3.391,3.000 3.395,3.000 6.254 L 3.000 9.117 3.058 9.227 C 3.090 9.288,3.164 9.371,3.223 9.412 C 3.316 9.478,3.351 9.488,3.498 9.488 C 3.639 9.488,3.683 9.477,3.767 9.420 C 3.823 9.384,3.896 9.310,3.928 9.258 L 3.988 9.162 3.994 6.938 L 4.001 4.714 7.369 8.080 C 10.475 11.184,10.746 11.449,10.850 11.476 C 11.248 11.580,11.580 11.248,11.476 10.850 C 11.449 10.746,11.184 10.475,8.080 7.369 L 4.714 4.001 6.940 3.994 L 9.166 3.988 9.268 3.920 C 9.424 3.817,9.488 3.695,9.488 3.498 C 9.488 3.362,9.476 3.317,9.420 3.233 C 9.384 3.177,9.310 3.104,9.258 3.072 L 9.162 3.013 6.288 3.008 C 4.706 3.006,3.381 3.013,3.342 3.025 " fill="currentColor" stroke="none" fill-rule="evenodd"></path></svg>