<svg width="15" height="15" fill="none" xmlns="http://www.w3.org/2000/svg"><path d="M6.364 3.017 C 6.337 3.024,6.275 3.056,6.226 3.088 C 6.177 3.120,5.219 4.066,4.096 5.191 C 2.226 7.065,2.051 7.247,2.024 7.350 C 1.988 7.487,2.009 7.655,2.074 7.759 C 2.101 7.802,3.048 8.762,4.180 9.892 C 6.064 11.773,6.247 11.949,6.350 11.976 C 6.748 12.080,7.080 11.748,6.976 11.350 C 6.949 11.247,6.803 11.095,5.330 9.619 L 3.714 8.001 8.188 7.994 L 12.663 7.988 12.758 7.928 C 12.810 7.896,12.884 7.823,12.920 7.767 C 12.976 7.683,12.988 7.638,12.988 7.500 C 12.988 7.362,12.976 7.317,12.920 7.233 C 12.884 7.177,12.810 7.104,12.758 7.072 L 12.663 7.013 8.188 7.006 L 3.714 6.999 5.330 5.381 C 6.803 3.905,6.949 3.753,6.976 3.650 C 7.060 3.329,6.860 3.034,6.541 3.012 C 6.470 3.007,6.391 3.009,6.364 3.017 " fill="currentColor" stroke="none" fill-rule="evenodd"></path></svg>