<svg width="15" height="15" fill="none" xmlns="http://www.w3.org/2000/svg"><path d="M8.364 3.017 C 8.104 3.091,7.952 3.374,8.024 3.650 C 8.051 3.753,8.197 3.905,9.670 5.381 L 11.286 6.999 6.808 7.006 L 2.329 7.013 2.223 7.088 C 1.929 7.294,1.929 7.706,2.223 7.913 L 2.329 7.988 6.808 7.994 L 11.286 8.001 9.670 9.619 C 8.197 11.095,8.051 11.247,8.024 11.350 C 7.920 11.748,8.252 12.080,8.650 11.976 C 8.753 11.949,8.936 11.773,10.820 9.892 C 11.952 8.762,12.899 7.802,12.926 7.759 C 12.991 7.655,13.012 7.487,12.976 7.350 C 12.949 7.247,12.774 7.065,10.904 5.191 C 9.781 4.066,8.819 3.117,8.766 3.083 C 8.669 3.021,8.467 2.987,8.364 3.017 " fill="currentColor" stroke="none" fill-rule="evenodd"></path></svg>