<svg width="15" height="15" fill="none" xmlns="http://www.w3.org/2000/svg"><path d="M7.364 2.017 C 7.337 2.024,7.275 2.056,7.226 2.088 C 7.177 2.120,6.219 3.066,5.096 4.191 C 3.226 6.065,3.051 6.247,3.024 6.350 C 2.920 6.748,3.252 7.080,3.650 6.976 C 3.753 6.949,3.905 6.803,5.381 5.330 L 7.000 3.713 7.000 8.165 L 7.000 12.617 7.058 12.727 C 7.090 12.788,7.164 12.871,7.223 12.913 C 7.316 12.978,7.351 12.988,7.498 12.988 C 7.639 12.988,7.683 12.977,7.767 12.920 C 7.823 12.884,7.896 12.810,7.928 12.758 L 7.988 12.663 7.994 8.188 L 8.001 3.714 9.619 5.330 C 11.095 6.803,11.247 6.949,11.350 6.976 C 11.748 7.080,12.080 6.748,11.976 6.350 C 11.949 6.247,11.774 6.065,9.904 4.191 C 8.781 3.066,7.819 2.117,7.766 2.083 C 7.669 2.021,7.467 1.987,7.364 2.017 " fill="currentColor" stroke="none" fill-rule="evenodd"></path></svg>