<svg width="15" height="15" fill="none" xmlns="http://www.w3.org/2000/svg"><path d="M5.842 3.025 C 5.651 3.083,5.500 3.295,5.500 3.504 C 5.500 3.655,5.589 3.818,5.723 3.913 L 5.829 3.988 8.058 3.994 L 10.286 4.001 6.920 7.369 C 3.816 10.475,3.551 10.746,3.524 10.850 C 3.420 11.248,3.752 11.580,4.150 11.476 C 4.254 11.449,4.525 11.184,7.631 8.080 L 11.000 4.713 11.000 6.915 L 11.000 9.117 11.058 9.227 C 11.090 9.288,11.164 9.371,11.223 9.412 C 11.316 9.478,11.351 9.488,11.498 9.488 C 11.639 9.488,11.683 9.477,11.767 9.420 C 11.823 9.384,11.896 9.310,11.928 9.258 L 11.988 9.162 11.988 6.248 L 11.988 3.334 11.920 3.233 C 11.884 3.177,11.810 3.104,11.758 3.072 L 11.663 3.013 8.787 3.008 C 7.206 3.006,5.881 3.013,5.842 3.025 " fill="currentColor" stroke="none" fill-rule="evenodd"></path></svg>