<svg width="15" height="15" fill="none" xmlns="http://www.w3.org/2000/svg"><path d="M2.175 1.039 C 1.902 1.098,1.663 1.233,1.449 1.448 C 1.233 1.666,1.121 1.859,1.049 2.140 C 1.001 2.329,1.000 2.436,1.000 7.500 C 1.000 12.564,1.001 12.671,1.049 12.860 C 1.122 13.143,1.233 13.334,1.449 13.551 C 1.666 13.767,1.857 13.878,2.140 13.951 C 2.329 13.999,2.436 14.000,7.500 14.000 C 12.564 14.000,12.671 13.999,12.860 13.951 C 13.143 13.878,13.334 13.767,13.551 13.551 C 13.767 13.334,13.878 13.143,13.951 12.860 C 13.999 12.671,14.000 12.564,14.000 7.500 C 14.000 2.436,13.999 2.329,13.951 2.140 C 13.879 1.859,13.767 1.666,13.551 1.448 C 13.334 1.229,13.096 1.097,12.813 1.038 C 12.556 0.984,2.425 0.985,2.175 1.039 M12.758 2.072 C 12.810 2.104,12.884 2.177,12.920 2.233 L 12.988 2.334 12.988 7.498 L 12.988 12.663 12.928 12.758 C 12.896 12.810,12.823 12.884,12.767 12.920 L 12.666 12.988 7.500 12.988 L 2.334 12.988 2.233 12.920 C 2.177 12.884,2.104 12.810,2.072 12.758 L 2.013 12.663 2.006 7.554 C 2.002 4.007,2.008 2.414,2.026 2.346 C 2.058 2.226,2.216 2.061,2.330 2.028 C 2.381 2.013,4.350 2.006,7.538 2.008 L 12.663 2.013 12.758 2.072 M7.342 3.024 C 7.149 3.086,7.000 3.295,7.000 3.504 C 7.000 3.655,7.089 3.818,7.223 3.913 C 7.316 3.978,7.351 3.988,7.498 3.988 C 7.639 3.988,7.683 3.977,7.767 3.920 C 7.924 3.817,7.988 3.695,7.988 3.500 C 7.988 3.308,7.924 3.183,7.775 3.084 C 7.670 3.015,7.460 2.986,7.342 3.024 M7.342 5.024 C 7.149 5.086,7.000 5.295,7.000 5.504 C 7.000 5.655,7.089 5.818,7.223 5.913 C 7.316 5.978,7.351 5.988,7.498 5.988 C 7.639 5.988,7.683 5.977,7.767 5.920 C 7.924 5.817,7.988 5.695,7.988 5.500 C 7.988 5.308,7.924 5.183,7.775 5.084 C 7.670 5.015,7.460 4.986,7.342 5.024 M7.342 7.024 C 7.149 7.086,7.000 7.295,7.000 7.504 C 7.000 7.655,7.089 7.818,7.223 7.913 C 7.316 7.978,7.351 7.988,7.498 7.988 C 7.639 7.988,7.683 7.977,7.767 7.920 C 7.924 7.817,7.988 7.695,7.988 7.500 C 7.988 7.308,7.924 7.183,7.775 7.084 C 7.670 7.015,7.460 6.986,7.342 7.024 M9.342 7.024 C 9.149 7.086,9.000 7.295,9.000 7.504 C 9.000 7.655,9.089 7.818,9.223 7.913 C 9.316 7.978,9.351 7.988,9.498 7.988 C 9.639 7.988,9.683 7.977,9.767 7.920 C 9.924 7.817,9.988 7.695,9.988 7.500 C 9.988 7.308,9.924 7.183,9.775 7.084 C 9.670 7.015,9.460 6.986,9.342 7.024 M11.342 7.024 C 11.149 7.086,11.000 7.295,11.000 7.504 C 11.000 7.655,11.089 7.818,11.223 7.913 C 11.316 7.978,11.351 7.988,11.498 7.988 C 11.639 7.988,11.683 7.977,11.767 7.920 C 11.924 7.817,11.988 7.695,11.988 7.500 C 11.988 7.308,11.924 7.183,11.775 7.084 C 11.670 7.015,11.460 6.986,11.342 7.024 " fill="currentColor" stroke="none" fill-rule="evenodd"></path></svg>