<svg width="15" height="15" fill="none" xmlns="http://www.w3.org/2000/svg"><path d="M6.975 0.899 C 6.136 0.969,5.317 1.197,4.578 1.564 C 3.935 1.883,3.428 2.238,2.920 2.723 C 1.343 4.229,0.611 6.418,0.965 8.575 C 1.391 11.173,3.343 13.289,5.900 13.925 C 6.970 14.191,8.030 14.191,9.100 13.925 C 11.656 13.289,13.609 11.172,14.035 8.575 C 14.389 6.419,13.657 4.229,12.080 2.723 C 11.077 1.766,9.818 1.150,8.456 0.951 C 8.062 0.893,7.339 0.868,6.975 0.899 M8.311 1.888 C 8.923 1.980,9.427 2.137,9.988 2.412 C 11.152 2.981,12.052 3.888,12.612 5.055 C 12.991 5.844,13.160 6.599,13.159 7.500 C 13.159 8.207,13.052 8.834,12.826 9.450 C 12.707 9.776,12.424 10.333,12.229 10.625 C 12.037 10.913,11.734 11.300,11.700 11.300 C 11.689 11.300,11.618 11.213,11.543 11.106 C 10.995 10.327,10.162 9.689,9.231 9.335 C 8.993 9.245,8.455 9.111,8.175 9.072 C 7.873 9.030,7.130 9.029,6.838 9.070 C 5.477 9.262,4.223 10.017,3.457 11.106 C 3.382 11.213,3.311 11.300,3.300 11.300 C 3.288 11.300,3.204 11.207,3.112 11.094 C 2.586 10.441,2.190 9.649,1.998 8.864 C 1.879 8.375,1.840 8.043,1.840 7.500 C 1.840 6.597,2.009 5.843,2.388 5.055 C 2.745 4.310,3.297 3.605,3.913 3.108 C 4.785 2.402,5.892 1.949,6.980 1.851 C 7.314 1.821,7.995 1.840,8.311 1.888 M7.275 4.166 C 6.693 4.238,6.184 4.486,5.812 4.879 C 5.391 5.323,5.182 5.815,5.157 6.425 C 5.114 7.448,5.751 8.379,6.725 8.720 C 7.028 8.826,7.271 8.859,7.619 8.843 C 8.215 8.815,8.725 8.592,9.145 8.176 C 9.744 7.584,9.982 6.731,9.775 5.925 C 9.556 5.072,8.851 4.392,8.001 4.213 C 7.815 4.174,7.418 4.148,7.275 4.166 M7.957 5.187 C 8.182 5.265,8.342 5.371,8.522 5.563 C 8.696 5.749,8.811 5.968,8.862 6.213 C 8.932 6.546,8.900 6.802,8.746 7.122 C 8.337 7.975,7.195 8.169,6.525 7.500 C 6.089 7.065,5.982 6.430,6.252 5.881 C 6.338 5.706,6.551 5.461,6.719 5.346 C 7.065 5.108,7.546 5.046,7.957 5.187 M7.920 10.002 C 8.861 10.105,9.674 10.495,10.338 11.161 C 10.595 11.419,10.912 11.822,10.963 11.956 C 10.979 11.997,10.582 12.278,10.253 12.460 C 8.593 13.376,6.594 13.409,4.912 12.548 C 4.549 12.362,4.018 12.005,4.036 11.958 C 4.088 11.822,4.403 11.420,4.662 11.161 C 5.527 10.293,6.718 9.870,7.920 10.002 " fill="currentColor" stroke="none" fill-rule="evenodd"></path></svg>