<svg width="15" height="15" fill="none" xmlns="http://www.w3.org/2000/svg"><path d="M5.765 0.027 C 5.502 0.090,5.216 0.321,5.103 0.561 C 5.015 0.749,5.001 0.866,5.001 1.443 L 5.000 1.999 2.880 2.006 L 0.760 2.013 0.569 2.107 C 0.283 2.248,0.095 2.481,0.026 2.780 C 0.011 2.845,0.001 3.554,0.001 4.578 C -0.000 6.430,0.004 6.493,0.150 6.930 C 0.299 7.374,0.568 7.814,0.873 8.112 L 1.000 8.236 1.000 9.951 C 1.000 11.578,1.003 11.677,1.049 11.860 C 1.122 12.143,1.233 12.334,1.449 12.551 C 1.666 12.767,1.857 12.878,2.140 12.951 C 2.329 12.999,2.436 13.000,7.500 13.000 C 12.564 13.000,12.671 12.999,12.860 12.951 C 13.143 12.878,13.334 12.767,13.551 12.551 C 13.767 12.334,13.878 12.143,13.951 11.860 C 13.997 11.677,14.000 11.578,14.000 9.951 L 14.000 8.236 14.127 8.112 C 14.428 7.818,14.703 7.369,14.849 6.933 C 14.997 6.490,15.003 6.393,14.995 4.486 L 14.988 2.760 14.894 2.571 C 14.782 2.343,14.637 2.202,14.404 2.092 L 14.238 2.013 12.121 2.006 L 10.004 1.999 9.996 1.379 L 9.988 0.760 9.894 0.571 C 9.782 0.343,9.637 0.202,9.404 0.092 L 9.238 0.013 7.550 0.008 C 6.582 0.006,5.821 0.014,5.765 0.027 M9.000 1.500 L 9.000 2.000 7.500 2.000 L 6.000 2.000 6.000 1.500 L 6.000 1.000 7.500 1.000 L 9.000 1.000 9.000 1.500 M13.994 4.669 C 13.986 6.316,13.985 6.340,13.929 6.525 C 13.724 7.209,13.256 7.689,12.575 7.917 L 12.363 7.988 10.184 7.995 L 8.005 8.002 7.996 7.668 C 7.988 7.355,7.983 7.327,7.920 7.232 C 7.816 7.075,7.695 7.013,7.496 7.013 C 7.351 7.013,7.315 7.022,7.223 7.088 C 7.164 7.129,7.090 7.212,7.058 7.273 C 7.006 7.371,7.000 7.417,7.000 7.692 L 7.000 8.002 4.819 7.995 L 2.638 7.988 2.425 7.917 C 1.751 7.692,1.288 7.225,1.083 6.563 L 1.014 6.338 1.006 4.669 L 0.998 3.000 7.500 3.000 L 14.002 3.000 13.994 4.669 M2.535 8.963 C 2.723 8.993,3.134 9.000,4.881 9.000 L 7.000 9.000 7.000 9.309 C 7.000 9.583,7.006 9.629,7.058 9.727 C 7.090 9.788,7.164 9.871,7.223 9.913 C 7.315 9.978,7.351 9.988,7.496 9.988 C 7.695 9.988,7.816 9.925,7.920 9.768 C 7.983 9.673,7.988 9.645,7.996 9.333 L 8.005 9.000 10.121 9.000 C 12.367 9.000,12.470 8.995,12.847 8.878 L 13.002 8.830 12.995 10.248 L 12.988 11.666 12.920 11.768 C 12.884 11.823,12.810 11.896,12.758 11.928 L 12.663 11.988 7.498 11.988 L 2.334 11.988 2.233 11.920 C 2.177 11.884,2.104 11.810,2.072 11.758 L 2.013 11.663 2.005 10.246 L 1.998 8.830 2.153 8.878 C 2.238 8.904,2.410 8.943,2.535 8.963 " fill="currentColor" stroke="none" fill-rule="evenodd"></path></svg>