<svg width="15" height="15" fill="none" xmlns="http://www.w3.org/2000/svg"><path d="M11.342 1.024 C 11.227 1.061,11.109 1.166,11.053 1.282 L 11.000 1.391 11.000 7.504 L 11.000 13.617 11.058 13.727 C 11.090 13.788,11.164 13.871,11.223 13.913 C 11.315 13.978,11.351 13.988,11.496 13.988 C 11.695 13.988,11.816 13.925,11.920 13.767 L 11.988 13.666 11.988 7.502 L 11.988 1.338 11.928 1.242 C 11.843 1.106,11.708 1.024,11.546 1.012 C 11.473 1.006,11.381 1.012,11.342 1.024 M9.342 3.024 C 9.227 3.061,9.109 3.166,9.053 3.282 L 9.000 3.391 9.000 8.504 L 9.000 13.617 9.058 13.727 C 9.090 13.788,9.164 13.871,9.223 13.913 C 9.316 13.978,9.351 13.988,9.498 13.988 C 9.639 13.988,9.683 13.977,9.767 13.920 C 9.823 13.884,9.896 13.810,9.928 13.758 L 9.988 13.663 9.988 8.500 L 9.988 3.338 9.928 3.242 C 9.843 3.106,9.708 3.024,9.546 3.012 C 9.473 3.006,9.381 3.012,9.342 3.024 M13.342 3.024 C 13.227 3.061,13.109 3.166,13.053 3.282 L 13.000 3.391 13.000 8.504 L 13.000 13.617 13.058 13.727 C 13.090 13.788,13.164 13.871,13.223 13.913 C 13.316 13.978,13.351 13.988,13.498 13.988 C 13.639 13.988,13.683 13.977,13.767 13.920 C 13.823 13.884,13.896 13.810,13.928 13.758 L 13.988 13.663 13.988 8.500 L 13.988 3.338 13.928 3.242 C 13.843 3.106,13.708 3.024,13.546 3.012 C 13.473 3.006,13.381 3.012,13.342 3.024 M5.342 4.024 C 5.227 4.061,5.109 4.166,5.053 4.282 L 5.000 4.391 5.000 9.004 L 5.000 13.617 5.058 13.727 C 5.090 13.788,5.164 13.871,5.223 13.913 C 5.316 13.978,5.351 13.988,5.498 13.988 C 5.639 13.988,5.683 13.977,5.767 13.920 C 5.823 13.884,5.896 13.810,5.928 13.758 L 5.988 13.663 5.988 9.000 L 5.988 4.338 5.928 4.242 C 5.843 4.106,5.708 4.024,5.546 4.012 C 5.473 4.006,5.381 4.012,5.342 4.024 M1.342 5.024 C 1.227 5.061,1.109 5.166,1.053 5.282 L 1.000 5.391 1.000 9.504 L 1.000 13.617 1.058 13.727 C 1.090 13.788,1.164 13.871,1.223 13.913 C 1.316 13.978,1.351 13.988,1.498 13.988 C 1.639 13.988,1.683 13.977,1.767 13.920 C 1.823 13.884,1.896 13.810,1.928 13.758 L 1.988 13.663 1.988 9.500 L 1.988 5.338 1.928 5.242 C 1.843 5.106,1.708 5.024,1.546 5.012 C 1.473 5.006,1.381 5.012,1.342 5.024 M7.342 5.024 C 7.227 5.061,7.109 5.166,7.053 5.282 L 7.000 5.391 7.000 9.504 L 7.000 13.617 7.058 13.727 C 7.090 13.788,7.164 13.871,7.223 13.913 C 7.316 13.978,7.351 13.988,7.498 13.988 C 7.639 13.988,7.683 13.977,7.767 13.920 C 7.823 13.884,7.896 13.810,7.928 13.758 L 7.988 13.663 7.988 9.500 L 7.988 5.338 7.928 5.242 C 7.843 5.106,7.708 5.024,7.546 5.012 C 7.473 5.006,7.381 5.012,7.342 5.024 M3.342 7.024 C 3.227 7.061,3.109 7.166,3.053 7.282 C 3.000 7.391,3.000 7.391,3.000 10.504 L 3.000 13.617 3.058 13.727 C 3.090 13.788,3.164 13.871,3.223 13.913 C 3.316 13.978,3.351 13.988,3.498 13.988 C 3.639 13.988,3.683 13.977,3.767 13.920 C 3.823 13.884,3.896 13.810,3.928 13.758 L 3.988 13.663 3.988 10.500 L 3.988 7.338 3.928 7.242 C 3.843 7.106,3.708 7.024,3.546 7.012 C 3.473 7.006,3.381 7.012,3.342 7.024 " fill="currentColor" stroke="none" fill-rule="evenodd"></path></svg>