<svg width="15" height="15" fill="none" xmlns="http://www.w3.org/2000/svg"><path d="M6.642 2.331 C 5.825 3.145,5.499 3.496,5.072 4.025 C 3.914 5.457,3.309 6.678,3.071 8.065 C 2.998 8.491,2.990 9.385,3.057 9.738 C 3.274 10.881,3.825 11.816,4.689 12.509 C 6.670 14.096,9.568 13.729,11.099 11.697 C 12.069 10.410,12.259 8.741,11.641 6.938 C 11.237 5.758,10.488 4.604,9.216 3.203 C 8.901 2.855,7.532 1.500,7.497 1.500 C 7.485 1.500,7.101 1.874,6.642 2.331 M7.995 3.369 C 8.256 3.640,8.569 3.975,8.691 4.112 C 9.929 5.507,10.645 6.761,10.888 7.963 C 10.924 8.138,10.948 8.285,10.943 8.291 C 10.937 8.296,10.886 8.284,10.828 8.264 C 10.498 8.147,9.848 8.112,9.412 8.188 C 8.788 8.296,8.281 8.478,7.063 9.032 C 5.765 9.622,5.285 9.791,4.735 9.853 C 4.459 9.884,4.134 9.856,4.099 9.798 C 4.050 9.719,4.013 9.331,4.015 8.925 C 4.018 8.439,4.072 8.048,4.200 7.591 C 4.500 6.523,5.203 5.361,6.288 4.136 C 6.606 3.778,7.473 2.875,7.500 2.875 C 7.511 2.875,7.734 3.097,7.995 3.369 " fill="currentColor" stroke="none" fill-rule="evenodd"></path></svg>