<svg width="15" height="15" fill="none" xmlns="http://www.w3.org/2000/svg"><path d="M3.342 2.025 C 3.228 2.060,3.109 2.166,3.053 2.282 L 3.000 2.391 3.000 8.004 L 3.000 13.617 3.058 13.727 C 3.090 13.788,3.164 13.871,3.223 13.913 C 3.316 13.978,3.351 13.987,3.497 13.987 L 3.665 13.987 5.564 12.801 C 6.608 12.148,7.479 11.614,7.500 11.614 C 7.521 11.614,8.389 12.146,9.430 12.797 C 11.265 13.943,11.327 13.980,11.467 13.992 C 11.650 14.008,11.802 13.934,11.913 13.777 L 11.988 13.671 11.988 8.002 L 11.988 2.334 11.920 2.233 C 11.884 2.177,11.810 2.104,11.758 2.072 L 11.663 2.013 7.538 2.008 C 5.269 2.006,3.381 2.014,3.342 2.025 " fill="currentColor" stroke="none" fill-rule="evenodd"></path></svg>