<svg width="15" height="15" fill="none" xmlns="http://www.w3.org/2000/svg"><path d="M1.342 3.025 C 1.152 3.083,1.000 3.295,1.000 3.504 C 1.000 3.655,1.089 3.818,1.223 3.913 L 1.329 3.988 7.496 3.988 L 13.663 3.988 13.758 3.928 C 13.810 3.896,13.884 3.823,13.920 3.767 C 13.976 3.683,13.988 3.638,13.988 3.500 C 13.988 3.362,13.976 3.317,13.920 3.233 C 13.884 3.177,13.810 3.104,13.758 3.072 L 13.663 3.013 7.538 3.008 C 4.169 3.006,1.381 3.014,1.342 3.025 M1.342 7.025 C 1.151 7.084,1.000 7.295,1.000 7.504 C 1.000 7.655,1.089 7.818,1.223 7.913 L 1.329 7.988 2.496 7.988 L 3.663 7.988 3.758 7.928 C 3.810 7.896,3.884 7.823,3.920 7.767 C 3.976 7.683,3.988 7.638,3.988 7.500 C 3.988 7.362,3.976 7.317,3.920 7.233 C 3.884 7.177,3.810 7.104,3.758 7.072 L 3.663 7.013 2.538 7.008 C 1.919 7.005,1.381 7.013,1.342 7.025 M6.342 7.025 C 6.151 7.084,6.000 7.295,6.000 7.504 C 6.000 7.655,6.089 7.818,6.223 7.913 L 6.329 7.988 7.496 7.988 L 8.662 7.988 8.758 7.928 C 8.810 7.896,8.884 7.823,8.920 7.767 C 8.976 7.683,8.988 7.638,8.988 7.500 C 8.988 7.362,8.976 7.317,8.920 7.233 C 8.884 7.177,8.810 7.104,8.758 7.072 L 8.662 7.013 7.538 7.008 C 6.919 7.005,6.381 7.013,6.342 7.025 M11.342 7.025 C 11.151 7.084,11.000 7.295,11.000 7.504 C 11.000 7.655,11.089 7.818,11.223 7.913 L 11.329 7.988 12.496 7.988 L 13.663 7.988 13.758 7.928 C 13.810 7.896,13.884 7.823,13.920 7.767 C 13.976 7.683,13.988 7.638,13.988 7.500 C 13.988 7.362,13.976 7.317,13.920 7.233 C 13.884 7.177,13.810 7.104,13.758 7.072 L 13.663 7.013 12.538 7.008 C 11.919 7.005,11.381 7.013,11.342 7.025 M1.342 11.024 C 1.149 11.086,1.000 11.295,1.000 11.504 C 1.000 11.655,1.089 11.818,1.223 11.913 C 1.316 11.978,1.351 11.988,1.498 11.988 C 1.639 11.988,1.683 11.977,1.767 11.920 C 1.924 11.817,1.988 11.695,1.988 11.500 C 1.988 11.308,1.924 11.183,1.775 11.084 C 1.670 11.015,1.460 10.986,1.342 11.024 M3.342 11.024 C 3.149 11.086,3.000 11.295,3.000 11.504 C 3.000 11.655,3.089 11.818,3.223 11.913 C 3.316 11.978,3.351 11.988,3.498 11.988 C 3.639 11.988,3.683 11.977,3.767 11.920 C 3.924 11.817,3.988 11.695,3.988 11.500 C 3.988 11.308,3.924 11.183,3.775 11.084 C 3.670 11.015,3.460 10.986,3.342 11.024 M5.342 11.024 C 5.149 11.086,5.000 11.295,5.000 11.504 C 5.000 11.655,5.089 11.818,5.223 11.913 C 5.316 11.978,5.351 11.988,5.498 11.988 C 5.639 11.988,5.683 11.977,5.767 11.920 C 5.924 11.817,5.988 11.695,5.988 11.500 C 5.988 11.308,5.924 11.183,5.775 11.084 C 5.670 11.015,5.460 10.986,5.342 11.024 M7.342 11.024 C 7.149 11.086,7.000 11.295,7.000 11.504 C 7.000 11.655,7.089 11.818,7.223 11.913 C 7.316 11.978,7.351 11.988,7.498 11.988 C 7.639 11.988,7.683 11.977,7.767 11.920 C 7.924 11.817,7.988 11.695,7.988 11.500 C 7.988 11.308,7.924 11.183,7.775 11.084 C 7.670 11.015,7.460 10.986,7.342 11.024 M9.342 11.024 C 9.149 11.086,9.000 11.295,9.000 11.504 C 9.000 11.655,9.089 11.818,9.223 11.913 C 9.316 11.978,9.351 11.988,9.498 11.988 C 9.639 11.988,9.683 11.977,9.767 11.920 C 9.924 11.817,9.988 11.695,9.988 11.500 C 9.988 11.308,9.924 11.183,9.775 11.084 C 9.670 11.015,9.460 10.986,9.342 11.024 M11.342 11.024 C 11.149 11.086,11.000 11.295,11.000 11.504 C 11.000 11.655,11.089 11.818,11.223 11.913 C 11.316 11.978,11.351 11.988,11.498 11.988 C 11.639 11.988,11.683 11.977,11.767 11.920 C 11.924 11.817,11.988 11.695,11.988 11.500 C 11.988 11.308,11.924 11.183,11.775 11.084 C 11.670 11.015,11.460 10.986,11.342 11.024 M13.342 11.024 C 13.149 11.086,13.000 11.295,13.000 11.504 C 13.000 11.655,13.089 11.818,13.223 11.913 C 13.316 11.978,13.351 11.988,13.498 11.988 C 13.639 11.988,13.683 11.977,13.767 11.920 C 13.924 11.817,13.988 11.695,13.988 11.500 C 13.988 11.308,13.924 11.183,13.775 11.084 C 13.670 11.015,13.460 10.986,13.342 11.024 " fill="currentColor" stroke="none" fill-rule="evenodd"></path></svg>