<svg width="15" height="15" fill="none" xmlns="http://www.w3.org/2000/svg"><path d="M0.758 0.296 C 0.527 0.376,0.373 0.532,0.288 0.772 C 0.254 0.869,0.250 1.607,0.250 7.502 L 0.250 14.123 0.304 14.266 C 0.375 14.457,0.543 14.625,0.734 14.696 L 0.877 14.750 7.500 14.750 L 14.123 14.750 14.266 14.696 C 14.457 14.625,14.625 14.457,14.696 14.266 L 14.750 14.123 14.750 7.500 C 14.750 0.929,14.750 0.876,14.700 0.743 C 14.632 0.561,14.502 0.417,14.331 0.333 L 14.188 0.263 7.538 0.257 C 1.205 0.252,0.881 0.254,0.758 0.296 M13.250 7.500 L 13.250 13.250 7.500 13.250 L 1.750 13.250 1.750 7.500 L 1.750 1.750 7.500 1.750 L 13.250 1.750 13.250 7.500 M7.342 3.024 C 7.149 3.086,7.000 3.295,7.000 3.504 C 7.000 3.655,7.089 3.818,7.223 3.913 C 7.316 3.978,7.351 3.988,7.498 3.988 C 7.639 3.988,7.683 3.977,7.767 3.920 C 7.924 3.817,7.988 3.695,7.988 3.500 C 7.988 3.308,7.924 3.183,7.775 3.084 C 7.670 3.015,7.460 2.986,7.342 3.024 M7.342 5.024 C 7.149 5.086,7.000 5.295,7.000 5.504 C 7.000 5.655,7.089 5.818,7.223 5.913 C 7.316 5.978,7.351 5.988,7.498 5.988 C 7.639 5.988,7.683 5.977,7.767 5.920 C 7.924 5.817,7.988 5.695,7.988 5.500 C 7.988 5.308,7.924 5.183,7.775 5.084 C 7.670 5.015,7.460 4.986,7.342 5.024 M3.342 7.024 C 3.149 7.086,3.000 7.295,3.000 7.504 C 3.000 7.655,3.089 7.818,3.223 7.913 C 3.316 7.978,3.351 7.988,3.498 7.988 C 3.639 7.988,3.683 7.977,3.767 7.920 C 3.924 7.817,3.988 7.695,3.988 7.500 C 3.988 7.308,3.924 7.183,3.775 7.084 C 3.670 7.015,3.460 6.986,3.342 7.024 M5.342 7.024 C 5.149 7.086,5.000 7.295,5.000 7.504 C 5.000 7.655,5.089 7.818,5.223 7.913 C 5.316 7.978,5.351 7.988,5.498 7.988 C 5.639 7.988,5.683 7.977,5.767 7.920 C 5.924 7.817,5.988 7.695,5.988 7.500 C 5.988 7.308,5.924 7.183,5.775 7.084 C 5.670 7.015,5.460 6.986,5.342 7.024 M7.342 7.024 C 7.149 7.086,7.000 7.295,7.000 7.504 C 7.000 7.655,7.089 7.818,7.223 7.913 C 7.316 7.978,7.351 7.988,7.498 7.988 C 7.639 7.988,7.683 7.977,7.767 7.920 C 7.924 7.817,7.988 7.695,7.988 7.500 C 7.988 7.308,7.924 7.183,7.775 7.084 C 7.670 7.015,7.460 6.986,7.342 7.024 M9.342 7.024 C 9.149 7.086,9.000 7.295,9.000 7.504 C 9.000 7.655,9.089 7.818,9.223 7.913 C 9.316 7.978,9.351 7.988,9.498 7.988 C 9.639 7.988,9.683 7.977,9.767 7.920 C 9.924 7.817,9.988 7.695,9.988 7.500 C 9.988 7.308,9.924 7.183,9.775 7.084 C 9.670 7.015,9.460 6.986,9.342 7.024 M11.342 7.024 C 11.149 7.086,11.000 7.295,11.000 7.504 C 11.000 7.655,11.089 7.818,11.223 7.913 C 11.316 7.978,11.351 7.988,11.498 7.988 C 11.639 7.988,11.683 7.977,11.767 7.920 C 11.924 7.817,11.988 7.695,11.988 7.500 C 11.988 7.308,11.924 7.183,11.775 7.084 C 11.670 7.015,11.460 6.986,11.342 7.024 M7.342 9.024 C 7.149 9.086,7.000 9.295,7.000 9.504 C 7.000 9.655,7.089 9.818,7.223 9.913 C 7.316 9.978,7.351 9.988,7.498 9.988 C 7.639 9.988,7.683 9.977,7.767 9.920 C 7.924 9.817,7.988 9.695,7.988 9.500 C 7.988 9.308,7.924 9.183,7.775 9.084 C 7.670 9.015,7.460 8.986,7.342 9.024 M7.342 11.024 C 7.149 11.086,7.000 11.295,7.000 11.504 C 7.000 11.655,7.089 11.818,7.223 11.913 C 7.316 11.978,7.351 11.988,7.498 11.988 C 7.639 11.988,7.683 11.977,7.767 11.920 C 7.924 11.817,7.988 11.695,7.988 11.500 C 7.988 11.308,7.924 11.183,7.775 11.084 C 7.670 11.015,7.460 10.986,7.342 11.024 " fill="currentColor" stroke="none" fill-rule="evenodd"></path></svg>