<svg width="15" height="15" fill="none" xmlns="http://www.w3.org/2000/svg"><path d="M1.342 1.049 C 1.149 1.111,1.000 1.320,1.000 1.529 C 1.000 1.680,1.089 1.843,1.223 1.938 C 1.316 2.003,1.351 2.013,1.498 2.013 C 1.639 2.013,1.683 2.002,1.767 1.945 C 1.924 1.842,1.988 1.720,1.988 1.525 C 1.988 1.333,1.924 1.208,1.775 1.109 C 1.670 1.040,1.460 1.011,1.342 1.049 M3.342 1.049 C 3.149 1.111,3.000 1.320,3.000 1.529 C 3.000 1.680,3.089 1.843,3.223 1.938 C 3.316 2.003,3.351 2.013,3.498 2.013 C 3.639 2.013,3.683 2.002,3.767 1.945 C 3.924 1.842,3.988 1.720,3.988 1.525 C 3.988 1.333,3.924 1.208,3.775 1.109 C 3.670 1.040,3.460 1.011,3.342 1.049 M5.342 1.049 C 5.149 1.111,5.000 1.320,5.000 1.529 C 5.000 1.680,5.089 1.843,5.223 1.938 C 5.316 2.003,5.351 2.013,5.498 2.013 C 5.639 2.013,5.683 2.002,5.767 1.945 C 5.924 1.842,5.988 1.720,5.988 1.525 C 5.988 1.333,5.924 1.208,5.775 1.109 C 5.670 1.040,5.460 1.011,5.342 1.049 M7.342 1.049 C 7.149 1.111,7.000 1.320,7.000 1.529 C 7.000 1.680,7.089 1.843,7.223 1.938 C 7.316 2.003,7.351 2.013,7.498 2.013 C 7.639 2.013,7.683 2.002,7.767 1.945 C 7.924 1.842,7.988 1.720,7.988 1.525 C 7.988 1.333,7.924 1.208,7.775 1.109 C 7.670 1.040,7.460 1.011,7.342 1.049 M9.342 1.049 C 9.149 1.111,9.000 1.320,9.000 1.529 C 9.000 1.680,9.089 1.843,9.223 1.938 C 9.316 2.003,9.351 2.013,9.498 2.013 C 9.639 2.013,9.683 2.002,9.767 1.945 C 9.924 1.842,9.988 1.720,9.988 1.525 C 9.988 1.333,9.924 1.208,9.775 1.109 C 9.670 1.040,9.460 1.011,9.342 1.049 M11.342 1.049 C 11.149 1.111,11.000 1.320,11.000 1.529 C 11.000 1.680,11.089 1.843,11.223 1.938 C 11.316 2.003,11.351 2.013,11.498 2.013 C 11.639 2.013,11.683 2.002,11.767 1.945 C 11.924 1.842,11.988 1.720,11.988 1.525 C 11.988 1.333,11.924 1.208,11.775 1.109 C 11.670 1.040,11.460 1.011,11.342 1.049 M13.342 1.049 C 13.149 1.111,13.000 1.320,13.000 1.529 C 13.000 1.680,13.089 1.843,13.223 1.938 C 13.316 2.003,13.351 2.013,13.498 2.013 C 13.639 2.013,13.683 2.002,13.767 1.945 C 13.924 1.842,13.988 1.720,13.988 1.525 C 13.988 1.333,13.924 1.208,13.775 1.109 C 13.670 1.040,13.460 1.011,13.342 1.049 M1.342 3.049 C 1.149 3.111,1.000 3.320,1.000 3.529 C 1.000 3.680,1.089 3.843,1.223 3.938 C 1.316 4.003,1.351 4.013,1.498 4.013 C 1.639 4.013,1.683 4.002,1.767 3.945 C 1.924 3.842,1.988 3.720,1.988 3.525 C 1.988 3.333,1.924 3.208,1.775 3.109 C 1.670 3.040,1.460 3.011,1.342 3.049 M7.342 3.049 C 7.149 3.111,7.000 3.320,7.000 3.529 C 7.000 3.680,7.089 3.843,7.223 3.938 C 7.316 4.003,7.351 4.013,7.498 4.013 C 7.639 4.013,7.683 4.002,7.767 3.945 C 7.924 3.842,7.988 3.720,7.988 3.525 C 7.988 3.333,7.924 3.208,7.775 3.109 C 7.670 3.040,7.460 3.011,7.342 3.049 M13.342 3.049 C 13.149 3.111,13.000 3.320,13.000 3.529 C 13.000 3.680,13.089 3.843,13.223 3.938 C 13.316 4.003,13.351 4.013,13.498 4.013 C 13.639 4.013,13.683 4.002,13.767 3.945 C 13.924 3.842,13.988 3.720,13.988 3.525 C 13.988 3.333,13.924 3.208,13.775 3.109 C 13.670 3.040,13.460 3.011,13.342 3.049 M1.342 5.049 C 1.149 5.111,1.000 5.320,1.000 5.529 C 1.000 5.680,1.089 5.843,1.223 5.938 C 1.316 6.003,1.351 6.013,1.498 6.013 C 1.639 6.013,1.683 6.002,1.767 5.945 C 1.924 5.842,1.988 5.720,1.988 5.525 C 1.988 5.333,1.924 5.208,1.775 5.109 C 1.670 5.040,1.460 5.011,1.342 5.049 M7.342 5.049 C 7.149 5.111,7.000 5.320,7.000 5.529 C 7.000 5.680,7.089 5.843,7.223 5.938 C 7.316 6.003,7.351 6.013,7.498 6.013 C 7.639 6.013,7.683 6.002,7.767 5.945 C 7.924 5.842,7.988 5.720,7.988 5.525 C 7.988 5.333,7.924 5.208,7.775 5.109 C 7.670 5.040,7.460 5.011,7.342 5.049 M13.342 5.049 C 13.149 5.111,13.000 5.320,13.000 5.529 C 13.000 5.680,13.089 5.843,13.223 5.938 C 13.316 6.003,13.351 6.013,13.498 6.013 C 13.639 6.013,13.683 6.002,13.767 5.945 C 13.924 5.842,13.988 5.720,13.988 5.525 C 13.988 5.333,13.924 5.208,13.775 5.109 C 13.670 5.040,13.460 5.011,13.342 5.049 M1.342 7.049 C 1.149 7.111,1.000 7.320,1.000 7.529 C 1.000 7.680,1.089 7.843,1.223 7.938 C 1.316 8.003,1.351 8.013,1.498 8.013 C 1.639 8.013,1.683 8.002,1.767 7.945 C 1.924 7.842,1.988 7.720,1.988 7.525 C 1.988 7.333,1.924 7.208,1.775 7.109 C 1.670 7.040,1.460 7.011,1.342 7.049 M3.342 7.049 C 3.149 7.111,3.000 7.320,3.000 7.529 C 3.000 7.680,3.089 7.843,3.223 7.938 C 3.316 8.003,3.351 8.013,3.498 8.013 C 3.639 8.013,3.683 8.002,3.767 7.945 C 3.924 7.842,3.988 7.720,3.988 7.525 C 3.988 7.333,3.924 7.208,3.775 7.109 C 3.670 7.040,3.460 7.011,3.342 7.049 M5.342 7.049 C 5.149 7.111,5.000 7.320,5.000 7.529 C 5.000 7.680,5.089 7.843,5.223 7.938 C 5.316 8.003,5.351 8.013,5.498 8.013 C 5.639 8.013,5.683 8.002,5.767 7.945 C 5.924 7.842,5.988 7.720,5.988 7.525 C 5.988 7.333,5.924 7.208,5.775 7.109 C 5.670 7.040,5.460 7.011,5.342 7.049 M7.342 7.049 C 7.149 7.111,7.000 7.320,7.000 7.529 C 7.000 7.680,7.089 7.843,7.223 7.938 C 7.316 8.003,7.351 8.013,7.498 8.013 C 7.639 8.013,7.683 8.002,7.767 7.945 C 7.924 7.842,7.988 7.720,7.988 7.525 C 7.988 7.333,7.924 7.208,7.775 7.109 C 7.670 7.040,7.460 7.011,7.342 7.049 M9.342 7.049 C 9.149 7.111,9.000 7.320,9.000 7.529 C 9.000 7.680,9.089 7.843,9.223 7.938 C 9.316 8.003,9.351 8.013,9.498 8.013 C 9.639 8.013,9.683 8.002,9.767 7.945 C 9.924 7.842,9.988 7.720,9.988 7.525 C 9.988 7.333,9.924 7.208,9.775 7.109 C 9.670 7.040,9.460 7.011,9.342 7.049 M11.342 7.049 C 11.149 7.111,11.000 7.320,11.000 7.529 C 11.000 7.680,11.089 7.843,11.223 7.938 C 11.316 8.003,11.351 8.013,11.498 8.013 C 11.639 8.013,11.683 8.002,11.767 7.945 C 11.924 7.842,11.988 7.720,11.988 7.525 C 11.988 7.333,11.924 7.208,11.775 7.109 C 11.670 7.040,11.460 7.011,11.342 7.049 M13.342 7.049 C 13.149 7.111,13.000 7.320,13.000 7.529 C 13.000 7.680,13.089 7.843,13.223 7.938 C 13.316 8.003,13.351 8.013,13.498 8.013 C 13.639 8.013,13.683 8.002,13.767 7.945 C 13.924 7.842,13.988 7.720,13.988 7.525 C 13.988 7.333,13.924 7.208,13.775 7.109 C 13.670 7.040,13.460 7.011,13.342 7.049 M1.342 9.049 C 1.149 9.111,1.000 9.320,1.000 9.529 C 1.000 9.680,1.089 9.843,1.223 9.938 C 1.316 10.003,1.351 10.013,1.498 10.013 C 1.639 10.013,1.683 10.002,1.767 9.945 C 1.924 9.842,1.988 9.720,1.988 9.525 C 1.988 9.333,1.924 9.208,1.775 9.109 C 1.670 9.040,1.460 9.011,1.342 9.049 M7.342 9.049 C 7.149 9.111,7.000 9.320,7.000 9.529 C 7.000 9.680,7.089 9.843,7.223 9.938 C 7.316 10.003,7.351 10.013,7.498 10.013 C 7.639 10.013,7.683 10.002,7.767 9.945 C 7.924 9.842,7.988 9.720,7.988 9.525 C 7.988 9.333,7.924 9.208,7.775 9.109 C 7.670 9.040,7.460 9.011,7.342 9.049 M13.342 9.049 C 13.149 9.111,13.000 9.320,13.000 9.529 C 13.000 9.680,13.089 9.843,13.223 9.938 C 13.316 10.003,13.351 10.013,13.498 10.013 C 13.639 10.013,13.683 10.002,13.767 9.945 C 13.924 9.842,13.988 9.720,13.988 9.525 C 13.988 9.333,13.924 9.208,13.775 9.109 C 13.670 9.040,13.460 9.011,13.342 9.049 M1.342 11.049 C 1.149 11.111,1.000 11.320,1.000 11.529 C 1.000 11.680,1.089 11.843,1.223 11.938 C 1.316 12.003,1.351 12.013,1.498 12.013 C 1.639 12.013,1.683 12.002,1.767 11.945 C 1.924 11.842,1.988 11.720,1.988 11.525 C 1.988 11.333,1.924 11.208,1.775 11.109 C 1.670 11.040,1.460 11.011,1.342 11.049 M7.342 11.049 C 7.149 11.111,7.000 11.320,7.000 11.529 C 7.000 11.680,7.089 11.843,7.223 11.938 C 7.316 12.003,7.351 12.013,7.498 12.013 C 7.639 12.013,7.683 12.002,7.767 11.945 C 7.924 11.842,7.988 11.720,7.988 11.525 C 7.988 11.333,7.924 11.208,7.775 11.109 C 7.670 11.040,7.460 11.011,7.342 11.049 M13.342 11.049 C 13.149 11.111,13.000 11.320,13.000 11.529 C 13.000 11.680,13.089 11.843,13.223 11.938 C 13.316 12.003,13.351 12.013,13.498 12.013 C 13.639 12.013,13.683 12.002,13.767 11.945 C 13.924 11.842,13.988 11.720,13.988 11.525 C 13.988 11.333,13.924 11.208,13.775 11.109 C 13.670 11.040,13.460 11.011,13.342 11.049 M1.342 13.049 C 1.149 13.111,1.000 13.320,1.000 13.529 C 1.000 13.680,1.089 13.843,1.223 13.938 C 1.316 14.003,1.351 14.013,1.498 14.013 C 1.639 14.013,1.683 14.002,1.767 13.945 C 1.924 13.842,1.988 13.720,1.988 13.525 C 1.988 13.333,1.924 13.208,1.775 13.109 C 1.670 13.040,1.460 13.011,1.342 13.049 M3.342 13.049 C 3.149 13.111,3.000 13.320,3.000 13.529 C 3.000 13.680,3.089 13.843,3.223 13.938 C 3.316 14.003,3.351 14.013,3.498 14.013 C 3.639 14.013,3.683 14.002,3.767 13.945 C 3.924 13.842,3.988 13.720,3.988 13.525 C 3.988 13.333,3.924 13.208,3.775 13.109 C 3.670 13.040,3.460 13.011,3.342 13.049 M5.342 13.049 C 5.149 13.111,5.000 13.320,5.000 13.529 C 5.000 13.680,5.089 13.843,5.223 13.938 C 5.316 14.003,5.351 14.013,5.498 14.013 C 5.639 14.013,5.683 14.002,5.767 13.945 C 5.924 13.842,5.988 13.720,5.988 13.525 C 5.988 13.333,5.924 13.208,5.775 13.109 C 5.670 13.040,5.460 13.011,5.342 13.049 M7.342 13.049 C 7.149 13.111,7.000 13.320,7.000 13.529 C 7.000 13.680,7.089 13.843,7.223 13.938 C 7.316 14.003,7.351 14.013,7.498 14.013 C 7.639 14.013,7.683 14.002,7.767 13.945 C 7.924 13.842,7.988 13.720,7.988 13.525 C 7.988 13.333,7.924 13.208,7.775 13.109 C 7.670 13.040,7.460 13.011,7.342 13.049 M9.342 13.049 C 9.149 13.111,9.000 13.320,9.000 13.529 C 9.000 13.680,9.089 13.843,9.223 13.938 C 9.316 14.003,9.351 14.013,9.498 14.013 C 9.639 14.013,9.683 14.002,9.767 13.945 C 9.924 13.842,9.988 13.720,9.988 13.525 C 9.988 13.333,9.924 13.208,9.775 13.109 C 9.670 13.040,9.460 13.011,9.342 13.049 M11.342 13.049 C 11.149 13.111,11.000 13.320,11.000 13.529 C 11.000 13.680,11.089 13.843,11.223 13.938 C 11.316 14.003,11.351 14.013,11.498 14.013 C 11.639 14.013,11.683 14.002,11.767 13.945 C 11.924 13.842,11.988 13.720,11.988 13.525 C 11.988 13.333,11.924 13.208,11.775 13.109 C 11.670 13.040,11.460 13.011,11.342 13.049 M13.342 13.049 C 13.149 13.111,13.000 13.320,13.000 13.529 C 13.000 13.680,13.089 13.843,13.223 13.938 C 13.316 14.003,13.351 14.013,13.498 14.013 C 13.639 14.013,13.683 14.002,13.767 13.945 C 13.924 13.842,13.988 13.720,13.988 13.525 C 13.988 13.333,13.924 13.208,13.775 13.109 C 13.670 13.040,13.460 13.011,13.342 13.049 " stroke="none" fill="black" fill-rule="evenodd"></path></svg>