<svg width="15" height="15" fill="none" xmlns="http://www.w3.org/2000/svg"><path d="M1.000 1.000 L 1.000 1.750 7.500 1.750 L 14.000 1.750 14.000 1.000 L 14.000 0.250 7.500 0.250 L 1.000 0.250 1.000 1.000 M1.342 3.024 C 1.149 3.086,1.000 3.295,1.000 3.504 C 1.000 3.655,1.089 3.818,1.223 3.913 C 1.316 3.978,1.351 3.988,1.498 3.988 C 1.639 3.988,1.683 3.977,1.767 3.920 C 1.924 3.817,1.988 3.695,1.988 3.500 C 1.988 3.308,1.924 3.183,1.775 3.084 C 1.670 3.015,1.460 2.986,1.342 3.024 M7.342 3.024 C 7.149 3.086,7.000 3.295,7.000 3.504 C 7.000 3.655,7.089 3.818,7.223 3.913 C 7.316 3.978,7.351 3.988,7.498 3.988 C 7.639 3.988,7.683 3.977,7.767 3.920 C 7.924 3.817,7.988 3.695,7.988 3.500 C 7.988 3.308,7.924 3.183,7.775 3.084 C 7.670 3.015,7.460 2.986,7.342 3.024 M13.342 3.024 C 13.149 3.086,13.000 3.295,13.000 3.504 C 13.000 3.655,13.089 3.818,13.223 3.913 C 13.316 3.978,13.351 3.988,13.498 3.988 C 13.639 3.988,13.683 3.977,13.767 3.920 C 13.924 3.817,13.988 3.695,13.988 3.500 C 13.988 3.308,13.924 3.183,13.775 3.084 C 13.670 3.015,13.460 2.986,13.342 3.024 M1.342 5.024 C 1.149 5.086,1.000 5.295,1.000 5.504 C 1.000 5.655,1.089 5.818,1.223 5.913 C 1.316 5.978,1.351 5.988,1.498 5.988 C 1.639 5.988,1.683 5.977,1.767 5.920 C 1.924 5.817,1.988 5.695,1.988 5.500 C 1.988 5.308,1.924 5.183,1.775 5.084 C 1.670 5.015,1.460 4.986,1.342 5.024 M7.342 5.024 C 7.149 5.086,7.000 5.295,7.000 5.504 C 7.000 5.655,7.089 5.818,7.223 5.913 C 7.316 5.978,7.351 5.988,7.498 5.988 C 7.639 5.988,7.683 5.977,7.767 5.920 C 7.924 5.817,7.988 5.695,7.988 5.500 C 7.988 5.308,7.924 5.183,7.775 5.084 C 7.670 5.015,7.460 4.986,7.342 5.024 M13.342 5.024 C 13.149 5.086,13.000 5.295,13.000 5.504 C 13.000 5.655,13.089 5.818,13.223 5.913 C 13.316 5.978,13.351 5.988,13.498 5.988 C 13.639 5.988,13.683 5.977,13.767 5.920 C 13.924 5.817,13.988 5.695,13.988 5.500 C 13.988 5.308,13.924 5.183,13.775 5.084 C 13.670 5.015,13.460 4.986,13.342 5.024 M1.342 7.024 C 1.149 7.086,1.000 7.295,1.000 7.504 C 1.000 7.655,1.089 7.818,1.223 7.913 C 1.316 7.978,1.351 7.988,1.498 7.988 C 1.639 7.988,1.683 7.977,1.767 7.920 C 1.924 7.817,1.988 7.695,1.988 7.500 C 1.988 7.308,1.924 7.183,1.775 7.084 C 1.670 7.015,1.460 6.986,1.342 7.024 M3.342 7.024 C 3.149 7.086,3.000 7.295,3.000 7.504 C 3.000 7.655,3.089 7.818,3.223 7.913 C 3.316 7.978,3.351 7.988,3.498 7.988 C 3.639 7.988,3.683 7.977,3.767 7.920 C 3.924 7.817,3.988 7.695,3.988 7.500 C 3.988 7.308,3.924 7.183,3.775 7.084 C 3.670 7.015,3.460 6.986,3.342 7.024 M5.342 7.024 C 5.149 7.086,5.000 7.295,5.000 7.504 C 5.000 7.655,5.089 7.818,5.223 7.913 C 5.316 7.978,5.351 7.988,5.498 7.988 C 5.639 7.988,5.683 7.977,5.767 7.920 C 5.924 7.817,5.988 7.695,5.988 7.500 C 5.988 7.308,5.924 7.183,5.775 7.084 C 5.670 7.015,5.460 6.986,5.342 7.024 M7.342 7.024 C 7.149 7.086,7.000 7.295,7.000 7.504 C 7.000 7.655,7.089 7.818,7.223 7.913 C 7.316 7.978,7.351 7.988,7.498 7.988 C 7.639 7.988,7.683 7.977,7.767 7.920 C 7.924 7.817,7.988 7.695,7.988 7.500 C 7.988 7.308,7.924 7.183,7.775 7.084 C 7.670 7.015,7.460 6.986,7.342 7.024 M9.342 7.024 C 9.149 7.086,9.000 7.295,9.000 7.504 C 9.000 7.655,9.089 7.818,9.223 7.913 C 9.316 7.978,9.351 7.988,9.498 7.988 C 9.639 7.988,9.683 7.977,9.767 7.920 C 9.924 7.817,9.988 7.695,9.988 7.500 C 9.988 7.308,9.924 7.183,9.775 7.084 C 9.670 7.015,9.460 6.986,9.342 7.024 M11.342 7.024 C 11.149 7.086,11.000 7.295,11.000 7.504 C 11.000 7.655,11.089 7.818,11.223 7.913 C 11.316 7.978,11.351 7.988,11.498 7.988 C 11.639 7.988,11.683 7.977,11.767 7.920 C 11.924 7.817,11.988 7.695,11.988 7.500 C 11.988 7.308,11.924 7.183,11.775 7.084 C 11.670 7.015,11.460 6.986,11.342 7.024 M13.342 7.024 C 13.149 7.086,13.000 7.295,13.000 7.504 C 13.000 7.655,13.089 7.818,13.223 7.913 C 13.316 7.978,13.351 7.988,13.498 7.988 C 13.639 7.988,13.683 7.977,13.767 7.920 C 13.924 7.817,13.988 7.695,13.988 7.500 C 13.988 7.308,13.924 7.183,13.775 7.084 C 13.670 7.015,13.460 6.986,13.342 7.024 M1.342 9.024 C 1.149 9.086,1.000 9.295,1.000 9.504 C 1.000 9.655,1.089 9.818,1.223 9.913 C 1.316 9.978,1.351 9.988,1.498 9.988 C 1.639 9.988,1.683 9.977,1.767 9.920 C 1.924 9.817,1.988 9.695,1.988 9.500 C 1.988 9.308,1.924 9.183,1.775 9.084 C 1.670 9.015,1.460 8.986,1.342 9.024 M7.342 9.024 C 7.149 9.086,7.000 9.295,7.000 9.504 C 7.000 9.655,7.089 9.818,7.223 9.913 C 7.316 9.978,7.351 9.988,7.498 9.988 C 7.639 9.988,7.683 9.977,7.767 9.920 C 7.924 9.817,7.988 9.695,7.988 9.500 C 7.988 9.308,7.924 9.183,7.775 9.084 C 7.670 9.015,7.460 8.986,7.342 9.024 M13.342 9.024 C 13.149 9.086,13.000 9.295,13.000 9.504 C 13.000 9.655,13.089 9.818,13.223 9.913 C 13.316 9.978,13.351 9.988,13.498 9.988 C 13.639 9.988,13.683 9.977,13.767 9.920 C 13.924 9.817,13.988 9.695,13.988 9.500 C 13.988 9.308,13.924 9.183,13.775 9.084 C 13.670 9.015,13.460 8.986,13.342 9.024 M1.342 11.024 C 1.149 11.086,1.000 11.295,1.000 11.504 C 1.000 11.655,1.089 11.818,1.223 11.913 C 1.316 11.978,1.351 11.988,1.498 11.988 C 1.639 11.988,1.683 11.977,1.767 11.920 C 1.924 11.817,1.988 11.695,1.988 11.500 C 1.988 11.308,1.924 11.183,1.775 11.084 C 1.670 11.015,1.460 10.986,1.342 11.024 M7.342 11.024 C 7.149 11.086,7.000 11.295,7.000 11.504 C 7.000 11.655,7.089 11.818,7.223 11.913 C 7.316 11.978,7.351 11.988,7.498 11.988 C 7.639 11.988,7.683 11.977,7.767 11.920 C 7.924 11.817,7.988 11.695,7.988 11.500 C 7.988 11.308,7.924 11.183,7.775 11.084 C 7.670 11.015,7.460 10.986,7.342 11.024 M13.342 11.024 C 13.149 11.086,13.000 11.295,13.000 11.504 C 13.000 11.655,13.089 11.818,13.223 11.913 C 13.316 11.978,13.351 11.988,13.498 11.988 C 13.639 11.988,13.683 11.977,13.767 11.920 C 13.924 11.817,13.988 11.695,13.988 11.500 C 13.988 11.308,13.924 11.183,13.775 11.084 C 13.670 11.015,13.460 10.986,13.342 11.024 M1.342 13.024 C 1.149 13.086,1.000 13.295,1.000 13.504 C 1.000 13.655,1.089 13.818,1.223 13.913 C 1.316 13.978,1.351 13.988,1.498 13.988 C 1.639 13.988,1.683 13.977,1.767 13.920 C 1.924 13.817,1.988 13.695,1.988 13.500 C 1.988 13.308,1.924 13.183,1.775 13.084 C 1.670 13.015,1.460 12.986,1.342 13.024 M3.342 13.024 C 3.149 13.086,3.000 13.295,3.000 13.504 C 3.000 13.655,3.089 13.818,3.223 13.913 C 3.316 13.978,3.351 13.988,3.498 13.988 C 3.639 13.988,3.683 13.977,3.767 13.920 C 3.924 13.817,3.988 13.695,3.988 13.500 C 3.988 13.308,3.924 13.183,3.775 13.084 C 3.670 13.015,3.460 12.986,3.342 13.024 M5.342 13.024 C 5.149 13.086,5.000 13.295,5.000 13.504 C 5.000 13.655,5.089 13.818,5.223 13.913 C 5.316 13.978,5.351 13.988,5.498 13.988 C 5.639 13.988,5.683 13.977,5.767 13.920 C 5.924 13.817,5.988 13.695,5.988 13.500 C 5.988 13.308,5.924 13.183,5.775 13.084 C 5.670 13.015,5.460 12.986,5.342 13.024 M7.342 13.024 C 7.149 13.086,7.000 13.295,7.000 13.504 C 7.000 13.655,7.089 13.818,7.223 13.913 C 7.316 13.978,7.351 13.988,7.498 13.988 C 7.639 13.988,7.683 13.977,7.767 13.920 C 7.924 13.817,7.988 13.695,7.988 13.500 C 7.988 13.308,7.924 13.183,7.775 13.084 C 7.670 13.015,7.460 12.986,7.342 13.024 M9.342 13.024 C 9.149 13.086,9.000 13.295,9.000 13.504 C 9.000 13.655,9.089 13.818,9.223 13.913 C 9.316 13.978,9.351 13.988,9.498 13.988 C 9.639 13.988,9.683 13.977,9.767 13.920 C 9.924 13.817,9.988 13.695,9.988 13.500 C 9.988 13.308,9.924 13.183,9.775 13.084 C 9.670 13.015,9.460 12.986,9.342 13.024 M11.342 13.024 C 11.149 13.086,11.000 13.295,11.000 13.504 C 11.000 13.655,11.089 13.818,11.223 13.913 C 11.316 13.978,11.351 13.988,11.498 13.988 C 11.639 13.988,11.683 13.977,11.767 13.920 C 11.924 13.817,11.988 13.695,11.988 13.500 C 11.988 13.308,11.924 13.183,11.775 13.084 C 11.670 13.015,11.460 12.986,11.342 13.024 M13.342 13.024 C 13.149 13.086,13.000 13.295,13.000 13.504 C 13.000 13.655,13.089 13.818,13.223 13.913 C 13.316 13.978,13.351 13.988,13.498 13.988 C 13.639 13.988,13.683 13.977,13.767 13.920 C 13.924 13.817,13.988 13.695,13.988 13.500 C 13.988 13.308,13.924 13.183,13.775 13.084 C 13.670 13.015,13.460 12.986,13.342 13.024 " fill="currentColor" stroke="none" fill-rule="evenodd"></path></svg>