<svg width="15" height="15" fill="none" xmlns="http://www.w3.org/2000/svg"><path d="M1.273 6.658 C 1.014 6.731,0.820 6.898,0.703 7.149 C 0.648 7.264,0.638 7.323,0.638 7.501 C 0.638 7.690,0.646 7.731,0.719 7.879 C 0.814 8.072,0.949 8.204,1.147 8.297 C 1.264 8.352,1.323 8.363,1.500 8.363 C 1.677 8.363,1.736 8.352,1.853 8.297 C 2.051 8.204,2.186 8.072,2.281 7.879 C 2.354 7.731,2.363 7.690,2.363 7.501 C 2.363 7.253,2.297 7.080,2.138 6.903 C 1.942 6.687,1.556 6.577,1.273 6.658 M5.273 6.658 C 5.014 6.731,4.820 6.898,4.703 7.149 C 4.648 7.264,4.638 7.323,4.638 7.501 C 4.638 7.690,4.646 7.731,4.719 7.879 C 4.814 8.072,4.949 8.204,5.147 8.297 C 5.264 8.352,5.323 8.363,5.500 8.363 C 5.677 8.363,5.736 8.352,5.853 8.297 C 6.051 8.204,6.186 8.072,6.281 7.879 C 6.354 7.731,6.363 7.690,6.363 7.501 C 6.363 7.253,6.297 7.080,6.138 6.903 C 5.942 6.687,5.556 6.577,5.273 6.658 M9.273 6.658 C 9.014 6.731,8.820 6.898,8.703 7.149 C 8.648 7.264,8.638 7.323,8.638 7.501 C 8.638 7.690,8.646 7.731,8.719 7.879 C 8.814 8.072,8.949 8.204,9.147 8.297 C 9.264 8.352,9.323 8.363,9.500 8.363 C 9.677 8.363,9.736 8.352,9.853 8.297 C 10.051 8.204,10.186 8.072,10.281 7.879 C 10.354 7.731,10.363 7.690,10.363 7.501 C 10.363 7.253,10.297 7.080,10.138 6.903 C 9.942 6.687,9.556 6.577,9.273 6.658 M13.273 6.658 C 13.014 6.731,12.820 6.898,12.703 7.149 C 12.648 7.264,12.638 7.323,12.638 7.501 C 12.638 7.690,12.646 7.731,12.719 7.879 C 12.814 8.072,12.949 8.204,13.147 8.297 C 13.264 8.352,13.323 8.363,13.500 8.363 C 13.677 8.363,13.736 8.352,13.853 8.297 C 14.051 8.204,14.186 8.072,14.281 7.879 C 14.354 7.731,14.363 7.690,14.363 7.501 C 14.363 7.253,14.297 7.080,14.138 6.903 C 13.942 6.687,13.556 6.577,13.273 6.658 " fill="currentColor" stroke="none" fill-rule="evenodd"></path></svg>