<svg width="15" height="15" fill="none" xmlns="http://www.w3.org/2000/svg"><path d="M0.342 7.025 C 0.151 7.083,-0.000 7.295,0.000 7.504 C 0.000 7.655,0.089 7.818,0.223 7.913 L 0.329 7.988 1.746 7.988 L 3.163 7.988 3.258 7.928 C 3.310 7.896,3.384 7.823,3.420 7.767 C 3.476 7.683,3.488 7.638,3.488 7.500 C 3.488 7.362,3.476 7.317,3.420 7.233 C 3.384 7.177,3.310 7.104,3.258 7.072 L 3.163 7.013 1.788 7.008 C 1.031 7.006,0.381 7.013,0.342 7.025 M6.092 7.025 C 5.901 7.083,5.750 7.295,5.750 7.504 C 5.750 7.655,5.839 7.818,5.973 7.913 L 6.079 7.988 7.496 7.988 L 8.912 7.988 9.008 7.928 C 9.060 7.896,9.134 7.823,9.170 7.767 C 9.226 7.683,9.238 7.638,9.238 7.500 C 9.238 7.362,9.226 7.317,9.170 7.233 C 9.134 7.177,9.060 7.104,9.008 7.072 L 8.912 7.013 7.538 7.008 C 6.781 7.006,6.131 7.013,6.092 7.025 M11.842 7.025 C 11.651 7.083,11.500 7.295,11.500 7.504 C 11.500 7.655,11.589 7.818,11.723 7.913 L 11.829 7.988 13.246 7.988 L 14.663 7.988 14.758 7.928 C 14.810 7.896,14.884 7.823,14.920 7.767 C 14.976 7.683,14.988 7.638,14.988 7.500 C 14.988 7.362,14.976 7.317,14.920 7.233 C 14.884 7.177,14.810 7.104,14.758 7.072 L 14.663 7.013 13.288 7.008 C 12.531 7.006,11.881 7.013,11.842 7.025 " fill="currentColor" stroke="none" fill-rule="evenodd"></path></svg>