<svg width="15" height="15" fill="none" xmlns="http://www.w3.org/2000/svg"><path d="M1.765 1.028 C 1.409 1.112,1.102 1.430,1.024 1.794 C 1.008 1.872,1.001 3.852,1.006 7.575 C 1.012 13.153,1.013 13.239,1.062 13.357 C 1.169 13.615,1.404 13.845,1.657 13.939 C 1.785 13.987,1.904 13.988,7.514 13.988 L 13.240 13.988 13.429 13.894 C 13.657 13.782,13.798 13.637,13.908 13.404 L 13.988 13.238 13.988 7.500 L 13.988 1.763 13.908 1.596 C 13.798 1.363,13.657 1.218,13.429 1.106 L 13.240 1.012 7.551 1.009 C 4.175 1.006,1.823 1.014,1.765 1.028 M13.000 7.500 L 13.000 13.000 7.500 13.000 L 2.000 13.000 2.000 7.500 L 2.000 2.000 7.500 2.000 L 13.000 2.000 13.000 7.500 M4.342 4.025 C 4.228 4.060,4.109 4.166,4.053 4.282 C 4.000 4.391,4.000 4.391,4.000 7.504 L 4.000 10.617 4.058 10.727 C 4.090 10.788,4.164 10.871,4.223 10.913 L 4.329 10.988 7.496 10.988 L 10.663 10.988 10.758 10.928 C 10.810 10.896,10.884 10.823,10.920 10.767 L 10.988 10.666 10.988 7.500 L 10.988 4.334 10.920 4.233 C 10.884 4.177,10.810 4.104,10.758 4.072 L 10.663 4.013 7.538 4.008 C 5.819 4.006,4.381 4.014,4.342 4.025 M10.000 7.500 L 10.000 10.000 7.500 10.000 L 5.000 10.000 5.000 7.500 L 5.000 5.000 7.500 5.000 L 10.000 5.000 10.000 7.500 " fill="currentColor" stroke="none" fill-rule="evenodd"></path></svg>