<svg width="15" height="15" fill="none" xmlns="http://www.w3.org/2000/svg"><path d="M1.675 4.028 C 0.859 4.162,0.213 4.788,0.037 5.616 C -0.016 5.869,-0.016 9.131,0.037 9.384 C 0.194 10.124,0.689 10.671,1.425 10.917 L 1.638 10.988 7.500 10.988 L 13.363 10.988 13.575 10.917 C 14.242 10.694,14.694 10.242,14.917 9.575 L 14.988 9.363 14.988 7.500 L 14.988 5.638 14.917 5.425 C 14.662 4.662,14.067 4.147,13.300 4.026 C 13.094 3.993,1.875 3.996,1.675 4.028 M13.429 5.106 C 13.657 5.218,13.798 5.363,13.908 5.596 L 13.988 5.763 13.988 7.500 L 13.988 9.238 13.908 9.404 C 13.798 9.637,13.657 9.782,13.429 9.894 L 13.240 9.988 7.576 9.994 C 3.852 9.999,1.872 9.992,1.794 9.976 C 1.489 9.911,1.251 9.722,1.107 9.431 L 1.012 9.240 1.012 7.501 L 1.012 5.763 1.092 5.596 C 1.135 5.504,1.217 5.379,1.273 5.318 C 1.383 5.198,1.610 5.064,1.765 5.028 C 1.823 5.014,4.175 5.006,7.551 5.009 L 13.240 5.013 13.429 5.106 M4.258 6.795 C 3.731 6.983,3.581 7.633,3.974 8.026 C 4.534 8.587,5.477 7.984,5.200 7.243 C 5.058 6.865,4.631 6.662,4.258 6.795 M7.258 6.795 C 6.731 6.983,6.581 7.633,6.974 8.026 C 7.534 8.587,8.477 7.984,8.200 7.243 C 8.058 6.865,7.631 6.662,7.258 6.795 M10.258 6.795 C 9.731 6.983,9.581 7.633,9.974 8.026 C 10.534 8.587,11.477 7.984,11.200 7.243 C 11.058 6.865,10.631 6.662,10.258 6.795 " fill="currentColor" stroke="none" fill-rule="evenodd"></path></svg>