<svg width="15" height="15" fill="none" xmlns="http://www.w3.org/2000/svg"><path d="M4.342 1.024 C 4.227 1.061,4.109 1.166,4.053 1.282 C 4.008 1.374,4.000 1.437,4.000 1.695 L 4.000 2.000 3.181 2.000 C 2.255 2.001,2.132 2.016,1.825 2.166 C 1.687 2.234,1.587 2.308,1.449 2.448 C 1.233 2.666,1.121 2.859,1.049 3.140 C 1.001 3.329,1.000 3.434,1.000 8.000 C 1.000 12.566,1.001 12.671,1.049 12.860 C 1.122 13.143,1.233 13.334,1.449 13.551 C 1.666 13.767,1.857 13.878,2.140 13.951 C 2.329 13.999,2.436 14.000,7.500 14.000 C 12.564 14.000,12.671 13.999,12.860 13.951 C 13.143 13.878,13.334 13.767,13.551 13.551 C 13.767 13.334,13.878 13.143,13.951 12.860 C 13.999 12.671,14.000 12.566,14.000 8.000 C 14.000 3.434,13.999 3.329,13.951 3.140 C 13.879 2.859,13.767 2.666,13.551 2.448 C 13.413 2.308,13.313 2.234,13.175 2.166 C 12.869 2.016,12.744 2.001,11.821 2.000 L 11.005 2.000 10.996 1.667 C 10.988 1.355,10.983 1.327,10.920 1.232 C 10.816 1.075,10.695 1.012,10.496 1.012 C 10.351 1.012,10.315 1.022,10.223 1.088 C 10.164 1.129,10.090 1.212,10.058 1.273 C 10.006 1.371,10.000 1.417,10.000 1.691 L 10.000 2.000 7.502 2.000 L 5.005 2.000 4.996 1.669 C 4.988 1.372,4.981 1.328,4.928 1.242 C 4.843 1.106,4.708 1.024,4.546 1.012 C 4.473 1.006,4.381 1.012,4.342 1.024 M4.000 3.309 C 4.000 3.583,4.006 3.629,4.058 3.727 C 4.090 3.788,4.164 3.871,4.223 3.913 C 4.315 3.978,4.351 3.988,4.496 3.988 C 4.695 3.988,4.816 3.925,4.920 3.768 C 4.983 3.673,4.988 3.645,4.996 3.333 L 5.005 3.000 7.502 3.000 L 10.000 3.000 10.000 3.309 C 10.000 3.583,10.006 3.629,10.058 3.727 C 10.090 3.788,10.164 3.871,10.223 3.913 C 10.315 3.978,10.351 3.988,10.496 3.988 C 10.695 3.988,10.816 3.925,10.920 3.768 C 10.983 3.673,10.988 3.645,10.996 3.332 L 11.005 2.998 11.834 3.005 C 12.656 3.012,12.663 3.013,12.758 3.072 C 12.810 3.104,12.884 3.177,12.920 3.232 L 12.988 3.334 12.995 4.167 L 13.003 5.000 7.501 5.000 L 2.000 5.000 2.000 4.219 C 2.000 3.746,2.011 3.400,2.027 3.342 C 2.059 3.226,2.219 3.060,2.330 3.028 C 2.376 3.015,2.770 3.003,3.206 3.002 L 4.000 3.000 4.000 3.309 M12.994 9.333 L 12.988 12.666 12.920 12.768 C 12.884 12.823,12.810 12.896,12.758 12.928 L 12.663 12.988 7.498 12.988 L 2.334 12.988 2.233 12.920 C 2.177 12.884,2.104 12.810,2.072 12.758 L 2.013 12.663 2.006 9.331 L 1.999 6.000 7.500 6.000 L 13.001 6.000 12.994 9.333 M7.342 7.024 C 7.149 7.086,7.000 7.295,7.000 7.504 C 7.000 7.655,7.089 7.818,7.223 7.913 C 7.316 7.978,7.351 7.988,7.498 7.988 C 7.639 7.988,7.683 7.977,7.767 7.920 C 7.924 7.817,7.988 7.695,7.988 7.500 C 7.988 7.308,7.924 7.183,7.775 7.084 C 7.670 7.015,7.460 6.986,7.342 7.024 M9.342 7.024 C 9.149 7.086,9.000 7.295,9.000 7.504 C 9.000 7.655,9.089 7.818,9.223 7.913 C 9.316 7.978,9.351 7.988,9.498 7.988 C 9.639 7.988,9.683 7.977,9.767 7.920 C 9.924 7.817,9.988 7.695,9.988 7.500 C 9.988 7.308,9.924 7.183,9.775 7.084 C 9.670 7.015,9.460 6.986,9.342 7.024 M11.342 7.024 C 11.149 7.086,11.000 7.295,11.000 7.504 C 11.000 7.655,11.089 7.818,11.223 7.913 C 11.316 7.978,11.351 7.988,11.498 7.988 C 11.639 7.988,11.683 7.977,11.767 7.920 C 11.924 7.817,11.988 7.695,11.988 7.500 C 11.988 7.308,11.924 7.183,11.775 7.084 C 11.670 7.015,11.460 6.986,11.342 7.024 M3.342 9.024 C 3.149 9.086,3.000 9.295,3.000 9.504 C 3.000 9.655,3.089 9.818,3.223 9.913 C 3.316 9.978,3.351 9.988,3.498 9.988 C 3.639 9.988,3.683 9.977,3.767 9.920 C 3.924 9.817,3.988 9.695,3.988 9.500 C 3.988 9.308,3.924 9.183,3.775 9.084 C 3.670 9.015,3.460 8.986,3.342 9.024 M5.342 9.024 C 5.149 9.086,5.000 9.295,5.000 9.504 C 5.000 9.655,5.089 9.818,5.223 9.913 C 5.316 9.978,5.351 9.988,5.498 9.988 C 5.639 9.988,5.683 9.977,5.767 9.920 C 5.924 9.817,5.988 9.695,5.988 9.500 C 5.988 9.308,5.924 9.183,5.775 9.084 C 5.670 9.015,5.460 8.986,5.342 9.024 M7.342 9.024 C 7.149 9.086,7.000 9.295,7.000 9.504 C 7.000 9.655,7.089 9.818,7.223 9.913 C 7.316 9.978,7.351 9.988,7.498 9.988 C 7.639 9.988,7.683 9.977,7.767 9.920 C 7.924 9.817,7.988 9.695,7.988 9.500 C 7.988 9.308,7.924 9.183,7.775 9.084 C 7.670 9.015,7.460 8.986,7.342 9.024 M9.342 9.024 C 9.149 9.086,9.000 9.295,9.000 9.504 C 9.000 9.655,9.089 9.818,9.223 9.913 C 9.316 9.978,9.351 9.988,9.498 9.988 C 9.639 9.988,9.683 9.977,9.767 9.920 C 9.924 9.817,9.988 9.695,9.988 9.500 C 9.988 9.308,9.924 9.183,9.775 9.084 C 9.670 9.015,9.460 8.986,9.342 9.024 M11.342 9.024 C 11.149 9.086,11.000 9.295,11.000 9.504 C 11.000 9.655,11.089 9.818,11.223 9.913 C 11.316 9.978,11.351 9.988,11.498 9.988 C 11.639 9.988,11.683 9.977,11.767 9.920 C 11.924 9.817,11.988 9.695,11.988 9.500 C 11.988 9.308,11.924 9.183,11.775 9.084 C 11.670 9.015,11.460 8.986,11.342 9.024 M3.342 11.024 C 3.149 11.086,3.000 11.295,3.000 11.504 C 3.000 11.655,3.089 11.818,3.223 11.913 C 3.316 11.978,3.351 11.988,3.498 11.988 C 3.639 11.988,3.683 11.977,3.767 11.920 C 3.924 11.817,3.988 11.695,3.988 11.500 C 3.988 11.308,3.924 11.183,3.775 11.084 C 3.670 11.015,3.460 10.986,3.342 11.024 M5.342 11.024 C 5.149 11.086,5.000 11.295,5.000 11.504 C 5.000 11.655,5.089 11.818,5.223 11.913 C 5.316 11.978,5.351 11.988,5.498 11.988 C 5.639 11.988,5.683 11.977,5.767 11.920 C 5.924 11.817,5.988 11.695,5.988 11.500 C 5.988 11.308,5.924 11.183,5.775 11.084 C 5.670 11.015,5.460 10.986,5.342 11.024 M7.342 11.024 C 7.149 11.086,7.000 11.295,7.000 11.504 C 7.000 11.655,7.089 11.818,7.223 11.913 C 7.316 11.978,7.351 11.988,7.498 11.988 C 7.639 11.988,7.683 11.977,7.767 11.920 C 7.924 11.817,7.988 11.695,7.988 11.500 C 7.988 11.308,7.924 11.183,7.775 11.084 C 7.670 11.015,7.460 10.986,7.342 11.024 M9.342 11.024 C 9.149 11.086,9.000 11.295,9.000 11.504 C 9.000 11.655,9.089 11.818,9.223 11.913 C 9.316 11.978,9.351 11.988,9.498 11.988 C 9.639 11.988,9.683 11.977,9.767 11.920 C 9.924 11.817,9.988 11.695,9.988 11.500 C 9.988 11.308,9.924 11.183,9.775 11.084 C 9.670 11.015,9.460 10.986,9.342 11.024 " fill="currentColor" stroke="none" fill-rule="evenodd"></path></svg>