<svg width="15" height="15" fill="none" xmlns="http://www.w3.org/2000/svg"><path d="M1.675 2.028 C 0.859 2.162,0.213 2.788,0.037 3.616 C -0.017 3.873,-0.017 11.127,0.037 11.384 C 0.194 12.124,0.689 12.671,1.425 12.917 L 1.638 12.988 7.500 12.988 L 13.363 12.988 13.575 12.917 C 14.242 12.694,14.694 12.242,14.917 11.575 L 14.988 11.363 14.988 7.500 L 14.988 3.638 14.917 3.425 C 14.662 2.662,14.067 2.147,13.300 2.026 C 13.094 1.993,1.875 1.996,1.675 2.028 M13.429 3.106 C 13.657 3.218,13.798 3.363,13.908 3.596 L 13.988 3.763 13.988 7.500 L 13.988 11.238 13.908 11.404 C 13.798 11.637,13.657 11.782,13.429 11.894 L 13.240 11.988 7.576 11.994 C 3.852 11.999,1.872 11.992,1.794 11.976 C 1.489 11.911,1.251 11.722,1.107 11.431 L 1.012 11.240 1.012 7.501 L 1.012 3.763 1.092 3.596 C 1.135 3.504,1.217 3.379,1.273 3.318 C 1.383 3.198,1.610 3.064,1.765 3.028 C 1.823 3.014,4.175 3.006,7.551 3.009 L 13.240 3.013 13.429 3.106 M9.184 4.002 C 7.776 4.108,6.520 5.105,6.077 6.468 C 5.946 6.872,5.914 7.091,5.913 7.588 C 5.913 8.080,5.939 8.259,6.080 8.699 C 6.391 9.679,7.175 10.524,8.134 10.915 C 9.152 11.329,10.351 11.251,11.288 10.709 C 12.053 10.265,12.633 9.555,12.910 8.724 C 13.060 8.272,13.088 8.093,13.086 7.575 C 13.085 7.197,13.075 7.068,13.031 6.870 C 12.774 5.711,12.076 4.828,11.017 4.324 C 10.467 4.062,9.842 3.952,9.184 4.002 M2.122 4.037 C 2.003 4.102,1.997 4.153,2.005 5.047 L 2.013 5.879 2.083 5.940 L 2.153 6.000 3.500 6.000 L 4.847 6.000 4.917 5.940 L 4.988 5.879 4.995 5.047 C 5.003 4.146,4.997 4.101,4.873 4.036 C 4.770 3.983,2.221 3.984,2.122 4.037 M10.013 5.041 C 11.022 5.232,11.850 6.062,12.053 7.088 C 12.074 7.194,12.086 7.404,12.085 7.625 C 12.082 7.930,12.071 8.027,12.016 8.236 C 11.858 8.835,11.470 9.389,10.970 9.728 C 9.654 10.622,7.857 10.143,7.162 8.715 C 6.984 8.350,6.919 8.061,6.915 7.625 C 6.912 7.232,6.942 7.023,7.044 6.738 C 7.187 6.335,7.403 5.999,7.703 5.712 C 8.328 5.115,9.148 4.877,10.013 5.041 " fill="currentColor" stroke="none" fill-rule="evenodd"></path></svg>