<svg width="15" height="15" fill="none" xmlns="http://www.w3.org/2000/svg"><path d="M2.175 2.039 C 1.625 2.158,1.162 2.623,1.038 3.181 C 1.003 3.343,0.999 3.705,1.005 6.588 L 1.012 9.813 1.078 9.981 C 1.114 10.074,1.182 10.213,1.228 10.290 C 1.349 10.492,1.634 10.750,1.834 10.839 L 1.999 10.913 1.999 11.290 C 2.000 11.909,2.107 12.209,2.449 12.551 C 2.666 12.767,2.857 12.878,3.140 12.951 C 3.328 12.999,3.432 13.000,7.500 13.000 C 11.568 13.000,11.672 12.999,11.860 12.951 C 12.143 12.878,12.334 12.767,12.551 12.551 C 12.893 12.209,13.000 11.909,13.001 11.290 L 13.001 10.913 13.166 10.839 C 13.366 10.750,13.651 10.492,13.772 10.290 C 13.818 10.213,13.886 10.074,13.922 9.981 L 13.988 9.813 13.995 6.588 C 14.001 3.705,13.997 3.343,13.962 3.181 C 13.837 2.617,13.373 2.155,12.813 2.038 C 12.556 1.984,2.425 1.985,2.175 2.039 M12.758 3.072 C 12.810 3.104,12.884 3.177,12.920 3.233 L 12.988 3.334 12.988 6.500 L 12.988 9.666 12.920 9.767 C 12.884 9.823,12.810 9.896,12.758 9.928 L 12.663 9.988 7.498 9.988 L 2.334 9.988 2.233 9.920 C 2.177 9.884,2.104 9.810,2.072 9.758 L 2.013 9.663 2.006 6.554 C 2.001 4.408,2.008 3.415,2.026 3.347 C 2.058 3.226,2.216 3.061,2.330 3.028 C 2.381 3.013,4.350 3.006,7.538 3.008 L 12.663 3.013 12.758 3.072 M7.342 4.024 C 7.227 4.061,7.109 4.166,7.053 4.282 C 7.002 4.386,7.000 4.429,7.000 5.194 L 7.000 5.997 6.165 6.005 L 5.329 6.013 5.223 6.088 C 4.929 6.294,4.929 6.706,5.223 6.913 L 5.329 6.988 6.165 6.995 L 7.000 7.003 7.000 7.810 C 7.000 8.607,7.001 8.619,7.058 8.727 C 7.090 8.788,7.164 8.871,7.223 8.912 C 7.316 8.978,7.351 8.988,7.498 8.988 C 7.639 8.988,7.683 8.977,7.767 8.920 C 7.823 8.884,7.896 8.810,7.928 8.758 C 7.987 8.663,7.988 8.656,7.995 7.832 L 8.002 7.002 8.834 6.995 L 9.666 6.988 9.768 6.920 C 9.924 6.817,9.988 6.695,9.988 6.498 C 9.988 6.362,9.976 6.317,9.920 6.233 C 9.884 6.177,9.810 6.104,9.758 6.072 C 9.663 6.013,9.656 6.012,8.832 6.005 L 8.002 5.998 7.995 5.168 C 7.988 4.344,7.987 4.337,7.928 4.242 C 7.843 4.106,7.708 4.024,7.546 4.012 C 7.473 4.006,7.381 4.012,7.342 4.024 M11.996 11.333 C 11.988 11.645,11.983 11.673,11.920 11.768 C 11.884 11.823,11.810 11.896,11.758 11.928 L 11.663 11.988 7.498 11.988 L 3.334 11.988 3.233 11.920 C 3.177 11.884,3.104 11.810,3.072 11.758 C 3.019 11.672,3.012 11.628,3.004 11.331 L 2.995 11.000 7.500 11.000 L 12.005 11.000 11.996 11.333 " fill="currentColor" stroke="none" fill-rule="evenodd"></path></svg>