<svg width="15" height="15" fill="none" xmlns="http://www.w3.org/2000/svg"><path d="M6.313 4.097 C 6.194 4.152,6.140 4.207,6.088 4.331 C 6.040 4.448,6.040 4.552,6.088 4.670 C 6.115 4.734,6.547 5.183,7.494 6.131 L 8.862 7.500 7.482 8.881 C 6.664 9.700,6.091 10.293,6.074 10.338 C 5.943 10.686,6.230 11.017,6.600 10.943 C 6.707 10.922,6.796 10.838,8.284 9.354 C 9.353 8.288,9.870 7.756,9.902 7.688 C 9.959 7.565,9.962 7.453,9.912 7.330 C 9.859 7.202,6.829 4.164,6.688 4.098 C 6.561 4.039,6.440 4.038,6.313 4.097 " fill="currentColor" stroke="none" fill-rule="evenodd"></path></svg>