<svg width="15" height="15" fill="none" xmlns="http://www.w3.org/2000/svg"><path d="M8.313 4.098 C 8.171 4.164,5.141 7.202,5.088 7.330 C 5.038 7.453,5.041 7.565,5.098 7.688 C 5.130 7.756,5.647 8.288,6.716 9.354 C 8.204 10.838,8.293 10.922,8.400 10.943 C 8.770 11.017,9.057 10.686,8.926 10.338 C 8.909 10.293,8.336 9.700,7.518 8.881 L 6.138 7.500 7.506 6.131 C 8.453 5.183,8.885 4.734,8.912 4.670 C 8.962 4.547,8.959 4.435,8.903 4.313 C 8.848 4.194,8.793 4.140,8.669 4.088 C 8.547 4.038,8.435 4.041,8.313 4.098 " fill="currentColor" stroke="none" fill-rule="evenodd"></path></svg>