<svg width="15" height="15" fill="none" xmlns="http://www.w3.org/2000/svg"><path d="M7.313 3.098 C 7.245 3.129,6.823 3.536,6.021 4.341 C 4.899 5.467,4.828 5.544,4.807 5.650 C 4.733 6.020,5.064 6.307,5.413 6.176 C 5.456 6.159,5.909 5.727,6.494 5.143 L 7.500 4.139 8.506 5.141 C 9.436 6.067,9.521 6.145,9.628 6.171 C 9.957 6.251,10.251 5.958,10.171 5.628 C 10.145 5.521,10.060 5.429,8.965 4.329 C 8.172 3.531,7.755 3.129,7.688 3.098 C 7.561 3.039,7.439 3.039,7.313 3.098 M5.075 8.853 C 4.891 8.926,4.778 9.164,4.829 9.372 C 4.855 9.479,4.941 9.572,6.035 10.671 C 6.828 11.469,7.245 11.871,7.313 11.902 C 7.439 11.961,7.561 11.961,7.688 11.902 C 7.755 11.871,8.172 11.469,8.965 10.671 C 10.059 9.572,10.145 9.479,10.171 9.372 C 10.223 9.159,10.108 8.924,9.917 8.852 C 9.827 8.818,9.648 8.817,9.558 8.851 C 9.519 8.866,9.040 9.324,8.494 9.870 L 7.500 10.862 6.506 9.870 C 5.960 9.324,5.481 8.866,5.442 8.851 C 5.355 8.819,5.159 8.820,5.075 8.853 " fill="currentColor" stroke="none" fill-rule="evenodd"></path></svg>