<svg width="15" height="15" fill="none" xmlns="http://www.w3.org/2000/svg"><path d="M7.313 5.098 C 7.171 5.164,4.141 8.202,4.088 8.330 C 4.038 8.453,4.041 8.565,4.097 8.688 C 4.152 8.806,4.207 8.860,4.331 8.912 C 4.448 8.960,4.552 8.960,4.670 8.912 C 4.734 8.885,5.183 8.453,6.131 7.506 L 7.500 6.138 8.881 7.516 C 10.170 8.801,10.270 8.895,10.378 8.921 C 10.708 9.001,11.001 8.708,10.921 8.378 C 10.895 8.270,10.794 8.163,9.340 6.704 C 8.283 5.642,7.756 5.130,7.688 5.098 C 7.560 5.038,7.439 5.038,7.313 5.098 " fill="currentColor" stroke="none" fill-rule="evenodd"></path></svg>