<svg width="15" height="15" fill="none" xmlns="http://www.w3.org/2000/svg"><path d="M4.313 6.097 C 4.194 6.152,4.140 6.207,4.088 6.331 C 4.038 6.453,4.041 6.565,4.098 6.688 C 4.164 6.829,7.202 9.859,7.330 9.912 C 7.453 9.962,7.565 9.959,7.688 9.902 C 7.756 9.870,8.283 9.358,9.340 8.296 C 10.792 6.839,10.895 6.730,10.921 6.622 C 10.973 6.409,10.857 6.173,10.667 6.102 C 10.577 6.068,10.398 6.067,10.308 6.101 C 10.269 6.116,9.622 6.743,8.869 7.495 L 7.500 8.862 6.131 7.494 C 5.183 6.547,4.734 6.115,4.670 6.088 C 4.547 6.038,4.435 6.041,4.313 6.097 " fill="currentColor" stroke="none" fill-rule="evenodd"></path></svg>