<svg width="15" height="15" fill="none" xmlns="http://www.w3.org/2000/svg"><path d="M2.145 2.027 C 1.787 2.080,1.390 2.236,1.082 2.445 C 0.597 2.774,0.248 3.271,0.081 3.868 L 0.013 4.112 0.013 7.000 L 0.013 9.888 0.082 10.136 C 0.345 11.079,1.067 11.755,2.016 11.948 C 2.263 11.999,2.341 12.000,4.779 12.000 L 7.287 12.000 8.750 13.461 C 9.763 14.474,10.241 14.935,10.305 14.961 C 10.522 15.051,10.773 14.975,10.913 14.777 L 10.988 14.671 10.995 13.337 L 11.002 12.003 11.945 11.994 C 12.872 11.985,12.891 11.984,13.132 11.919 C 14.068 11.665,14.755 10.933,14.949 9.981 C 15.000 9.727,15.001 9.681,14.994 6.918 L 14.987 4.112 14.921 3.872 C 14.757 3.278,14.403 2.774,13.918 2.445 C 13.706 2.301,13.346 2.136,13.099 2.070 L 12.888 2.013 7.588 2.010 C 4.672 2.007,2.224 2.015,2.145 2.027 M12.813 3.038 C 13.375 3.156,13.844 3.625,13.962 4.188 C 14.017 4.449,14.017 9.551,13.962 9.813 C 13.855 10.323,13.460 10.759,12.950 10.931 C 12.794 10.984,12.738 10.986,11.558 10.999 L 10.329 11.013 10.223 11.088 C 10.164 11.129,10.090 11.212,10.058 11.273 C 10.000 11.382,10.000 11.387,10.000 12.335 L 10.000 13.287 8.919 12.210 C 8.324 11.617,7.798 11.105,7.750 11.072 L 7.663 11.013 4.938 11.000 L 2.212 10.988 2.050 10.932 C 1.537 10.757,1.145 10.322,1.038 9.813 C 0.983 9.551,0.983 4.449,1.038 4.188 C 1.154 3.631,1.623 3.158,2.175 3.039 C 2.425 2.985,12.556 2.984,12.813 3.038 " fill="currentColor" stroke="none" fill-rule="evenodd"></path></svg>