<svg width="15" height="15" fill="none" xmlns="http://www.w3.org/2000/svg"><path d="M2.765 2.028 C 2.409 2.112,2.102 2.430,2.024 2.794 C 2.008 2.872,2.001 4.518,2.006 7.575 C 2.012 12.156,2.013 12.240,2.062 12.357 C 2.169 12.615,2.404 12.845,2.657 12.939 C 2.785 12.986,2.895 12.988,7.514 12.988 L 12.240 12.988 12.429 12.894 C 12.657 12.782,12.798 12.637,12.908 12.404 L 12.988 12.238 12.988 7.500 L 12.988 2.763 12.908 2.596 C 12.798 2.363,12.657 2.218,12.429 2.106 L 12.240 2.013 7.551 2.009 C 4.777 2.006,2.823 2.014,2.765 2.028 M12.000 7.500 L 12.000 12.000 7.500 12.000 L 3.000 12.000 3.000 7.500 L 3.000 3.000 7.500 3.000 L 12.000 3.000 12.000 7.500 M9.764 4.762 C 9.711 4.781,9.635 4.829,9.597 4.867 C 9.559 4.906,8.883 5.878,8.095 7.027 C 7.307 8.176,6.653 9.119,6.642 9.122 C 6.631 9.125,6.287 8.724,5.878 8.231 C 5.070 7.258,5.050 7.239,4.812 7.242 C 4.525 7.245,4.324 7.447,4.326 7.730 C 4.327 7.803,4.341 7.894,4.357 7.932 C 4.374 7.970,4.830 8.535,5.371 9.187 C 6.432 10.466,6.441 10.476,6.677 10.474 C 6.806 10.474,6.965 10.407,7.040 10.322 C 7.069 10.289,7.834 9.183,8.739 7.863 C 9.986 6.045,10.393 5.434,10.416 5.344 C 10.462 5.169,10.411 4.994,10.280 4.871 C 10.131 4.732,9.954 4.695,9.764 4.762 " fill="currentColor" stroke="none" fill-rule="evenodd"></path></svg>