<svg width="15" height="15" fill="none" xmlns="http://www.w3.org/2000/svg"><path d="M10.924 3.664 C 10.861 3.683,10.769 3.735,10.718 3.781 C 10.665 3.829,9.827 5.086,8.700 6.813 C 7.640 8.435,6.764 9.766,6.753 9.769 C 6.743 9.773,6.279 9.363,5.722 8.857 C 4.422 7.675,4.460 7.707,4.316 7.659 C 3.789 7.485,3.306 8.067,3.578 8.549 C 3.648 8.674,6.427 11.210,6.588 11.297 C 6.798 11.409,7.051 11.391,7.247 11.249 C 7.319 11.197,7.857 10.391,9.509 7.865 C 10.702 6.041,11.694 4.503,11.714 4.446 C 11.791 4.228,11.732 3.981,11.563 3.812 C 11.393 3.641,11.166 3.589,10.924 3.664 " fill="currentColor" stroke="none" fill-rule="evenodd"></path></svg>