<svg width="15" height="15" fill="none" xmlns="http://www.w3.org/2000/svg"><path d="M6.975 0.899 C 6.136 0.969,5.317 1.197,4.578 1.564 C 3.935 1.883,3.428 2.238,2.920 2.723 C 1.343 4.229,0.611 6.418,0.965 8.575 C 1.391 11.173,3.343 13.289,5.900 13.925 C 6.970 14.191,8.030 14.191,9.100 13.925 C 11.656 13.289,13.609 11.172,14.035 8.575 C 14.389 6.419,13.657 4.229,12.080 2.723 C 11.077 1.766,9.818 1.150,8.456 0.951 C 8.062 0.893,7.339 0.868,6.975 0.899 M8.295 1.887 C 9.278 2.035,10.117 2.383,10.909 2.969 C 11.234 3.211,11.789 3.766,12.031 4.091 C 12.632 4.903,12.989 5.784,13.128 6.800 C 13.170 7.105,13.170 7.922,13.128 8.213 C 12.943 9.492,12.432 10.550,11.569 11.441 C 10.893 12.139,10.118 12.620,9.201 12.910 C 7.372 13.489,5.357 13.092,3.875 11.862 C 3.603 11.636,3.177 11.186,2.965 10.902 C 2.477 10.246,2.127 9.483,1.966 8.725 C 1.863 8.242,1.839 8.009,1.839 7.500 C 1.839 6.613,2.012 5.833,2.376 5.079 C 2.684 4.439,2.997 3.998,3.498 3.498 C 3.998 2.997,4.439 2.684,5.079 2.376 C 5.686 2.083,6.315 1.917,7.113 1.839 C 7.315 1.820,8.045 1.849,8.295 1.887 M9.578 4.782 C 9.532 4.797,9.459 4.843,9.415 4.886 C 9.372 4.928,8.703 5.864,7.929 6.965 L 6.522 8.968 5.907 8.347 C 5.232 7.665,5.187 7.633,4.949 7.656 C 4.790 7.671,4.637 7.773,4.565 7.913 C 4.501 8.034,4.497 8.252,4.556 8.364 C 4.625 8.495,6.275 10.152,6.388 10.203 C 6.596 10.298,6.827 10.237,6.979 10.047 C 7.206 9.764,10.206 5.466,10.227 5.395 C 10.340 5.001,9.974 4.655,9.578 4.782 " fill="currentColor" stroke="none" fill-rule="evenodd"></path></svg>