<svg width="15" height="15" fill="none" xmlns="http://www.w3.org/2000/svg"><path d="M7.279 4.319 C 7.194 4.364,6.466 5.030,5.126 6.288 C 3.517 7.797,3.089 8.211,3.047 8.300 C 2.940 8.526,3.039 8.819,3.263 8.935 C 3.397 9.006,3.633 9.007,3.742 8.937 C 3.784 8.910,4.641 8.117,5.646 7.175 C 6.650 6.233,7.485 5.463,7.500 5.463 C 7.515 5.463,8.350 6.233,9.354 7.175 C 10.359 8.117,11.216 8.910,11.259 8.938 C 11.382 9.016,11.636 9.008,11.767 8.920 C 11.919 8.820,11.987 8.694,11.987 8.513 C 11.987 8.419,11.971 8.330,11.944 8.275 C 11.881 8.150,7.888 4.409,7.721 4.319 C 7.647 4.278,7.555 4.250,7.500 4.250 C 7.445 4.250,7.353 4.278,7.279 4.319 " fill="currentColor" stroke="none" fill-rule="evenodd"></path></svg>