<svg width="15" height="15" fill="none" xmlns="http://www.w3.org/2000/svg"><path d="M6.280 3.065 C 5.984 3.212,5.913 3.557,6.124 3.818 C 6.177 3.884,6.970 4.735,7.885 5.711 C 8.801 6.686,9.550 7.491,9.550 7.500 C 9.550 7.509,8.777 8.341,7.831 9.349 C 6.886 10.356,6.090 11.216,6.063 11.259 C 6.026 11.316,6.013 11.380,6.013 11.500 C 6.013 11.695,6.076 11.817,6.233 11.920 C 6.317 11.976,6.361 11.987,6.498 11.987 C 6.614 11.987,6.685 11.973,6.740 11.940 C 6.826 11.889,10.608 7.865,10.688 7.741 C 10.724 7.683,10.738 7.620,10.738 7.500 C 10.738 7.380,10.724 7.317,10.688 7.259 C 10.660 7.216,9.777 6.263,8.725 5.141 C 7.097 3.404,6.795 3.093,6.695 3.050 C 6.540 2.983,6.436 2.987,6.280 3.065 " fill="currentColor" stroke="none" fill-rule="evenodd"></path></svg>