<svg width="15" height="15" fill="none" xmlns="http://www.w3.org/2000/svg"><path d="M8.300 3.050 C 8.209 3.091,7.830 3.483,6.275 5.141 C 5.223 6.263,4.340 7.216,4.313 7.259 C 4.276 7.317,4.263 7.380,4.263 7.500 C 4.263 7.620,4.276 7.683,4.313 7.741 C 4.392 7.865,8.174 11.889,8.260 11.940 C 8.315 11.973,8.386 11.987,8.504 11.987 C 8.649 11.987,8.684 11.978,8.777 11.913 C 8.922 11.810,8.988 11.677,8.987 11.487 C 8.987 11.379,8.972 11.313,8.937 11.258 C 8.910 11.216,8.117 10.359,7.175 9.354 C 6.233 8.350,5.463 7.515,5.463 7.500 C 5.463 7.485,6.233 6.650,7.175 5.646 C 8.117 4.641,8.910 3.784,8.937 3.742 C 9.007 3.633,9.006 3.397,8.935 3.263 C 8.823 3.048,8.524 2.948,8.300 3.050 " fill="currentColor" stroke="none" fill-rule="evenodd"></path></svg>