<svg width="15" height="15" fill="none" xmlns="http://www.w3.org/2000/svg"><path d="M3.283 6.061 C 3.118 6.138,3.027 6.268,3.008 6.454 C 2.982 6.711,2.908 6.633,5.141 8.725 C 6.263 9.777,7.216 10.660,7.259 10.688 C 7.317 10.724,7.380 10.738,7.500 10.738 C 7.620 10.738,7.683 10.724,7.741 10.688 C 7.895 10.589,11.899 6.813,11.944 6.725 C 12.008 6.596,12.002 6.362,11.931 6.247 C 11.852 6.119,11.696 6.023,11.541 6.008 C 11.433 5.997,11.392 6.006,11.282 6.066 C 11.194 6.114,10.554 6.698,9.334 7.844 C 8.334 8.782,7.509 9.550,7.500 9.550 C 7.491 9.550,6.665 8.782,5.666 7.844 C 4.467 6.718,3.805 6.114,3.721 6.069 C 3.565 5.984,3.452 5.982,3.283 6.061 " fill="currentColor" stroke="none" fill-rule="evenodd"></path></svg>