<svg width="15" height="15" fill="none" xmlns="http://www.w3.org/2000/svg"><path d="M6.975 0.899 C 6.136 0.969,5.317 1.197,4.578 1.564 C 3.935 1.883,3.428 2.238,2.920 2.723 C 1.343 4.229,0.611 6.418,0.965 8.575 C 1.391 11.173,3.343 13.289,5.900 13.925 C 6.970 14.191,8.030 14.191,9.100 13.925 C 11.656 13.289,13.609 11.172,14.035 8.575 C 14.389 6.419,13.657 4.229,12.080 2.723 C 11.077 1.766,9.818 1.150,8.456 0.951 C 8.062 0.893,7.339 0.868,6.975 0.899 M8.325 1.889 C 10.491 2.219,12.234 3.702,12.908 5.789 C 13.089 6.350,13.162 6.844,13.161 7.513 C 13.160 8.448,12.995 9.158,12.587 9.992 C 12.416 10.341,12.107 10.836,11.926 11.050 L 11.852 11.138 7.863 7.150 C 5.670 4.957,3.875 3.156,3.875 3.148 C 3.875 3.141,3.973 3.060,4.094 2.969 C 4.910 2.353,5.926 1.957,6.963 1.851 C 7.270 1.820,8.006 1.840,8.325 1.889 M7.150 7.863 L 11.138 11.852 11.050 11.926 C 11.002 11.967,10.850 12.077,10.713 12.172 C 9.573 12.953,8.211 13.295,6.864 13.137 C 5.021 12.922,3.427 11.854,2.529 10.232 C 1.458 8.301,1.633 5.864,2.969 4.094 C 3.060 3.973,3.141 3.875,3.148 3.875 C 3.156 3.875,4.957 5.670,7.150 7.863 " fill="currentColor" stroke="none" fill-rule="evenodd"></path></svg>