<svg width="15" height="15" fill="none" xmlns="http://www.w3.org/2000/svg"><path d="M4.508 0.046 C 4.180 0.160,4.000 0.432,4.000 0.816 L 4.000 1.000 3.681 1.000 C 3.099 1.001,2.776 1.118,2.449 1.448 C 2.233 1.666,2.121 1.859,2.049 2.140 C 2.001 2.329,2.000 2.436,2.000 7.500 C 2.000 12.564,2.001 12.671,2.049 12.860 C 2.122 13.143,2.233 13.334,2.449 13.551 C 2.666 13.767,2.857 13.878,3.140 13.951 C 3.324 13.998,3.422 14.000,5.166 14.000 L 7.000 14.000 7.000 13.501 L 7.000 13.001 5.169 12.994 L 3.338 12.988 3.242 12.928 C 3.190 12.896,3.116 12.823,3.080 12.767 L 3.013 12.666 3.013 7.500 L 3.013 2.334 3.080 2.233 C 3.116 2.177,3.190 2.104,3.242 2.072 C 3.328 2.019,3.372 2.012,3.669 2.004 L 4.000 1.995 4.000 2.184 C 4.000 2.550,4.179 2.832,4.484 2.946 L 4.627 3.000 7.500 3.000 L 10.373 3.000 10.516 2.946 C 10.821 2.832,11.000 2.550,11.000 2.184 L 11.000 1.995 11.331 2.004 C 11.628 2.012,11.672 2.019,11.758 2.072 C 11.810 2.104,11.884 2.177,11.920 2.232 L 11.988 2.334 11.994 4.667 L 12.001 7.000 12.501 7.000 L 13.000 7.000 13.000 4.666 C 13.000 2.424,12.998 2.325,12.951 2.140 C 12.879 1.859,12.767 1.666,12.551 1.448 C 12.224 1.118,11.901 1.001,11.319 1.000 L 11.000 1.000 11.000 0.813 C 11.000 0.473,10.853 0.216,10.581 0.083 L 10.438 0.013 7.538 0.007 C 4.805 0.002,4.630 0.004,4.508 0.046 M10.000 1.500 L 10.000 2.000 7.500 2.000 L 5.000 2.000 5.000 1.500 L 5.000 1.000 7.500 1.000 L 10.000 1.000 10.000 1.500 M8.342 8.024 C 8.149 8.086,8.000 8.295,8.000 8.504 C 8.000 8.655,8.089 8.818,8.223 8.912 C 8.316 8.978,8.351 8.988,8.498 8.988 C 8.639 8.988,8.683 8.977,8.767 8.920 C 8.924 8.817,8.988 8.695,8.988 8.500 C 8.988 8.308,8.924 8.183,8.775 8.084 C 8.670 8.015,8.460 7.986,8.342 8.024 M10.342 8.024 C 10.149 8.086,10.000 8.295,10.000 8.504 C 10.000 8.655,10.089 8.818,10.223 8.912 C 10.316 8.978,10.351 8.988,10.498 8.988 C 10.639 8.988,10.683 8.977,10.767 8.920 C 10.924 8.817,10.988 8.695,10.988 8.500 C 10.988 8.308,10.924 8.183,10.775 8.084 C 10.670 8.015,10.460 7.986,10.342 8.024 M12.342 8.024 C 12.149 8.086,12.000 8.295,12.000 8.504 C 12.000 8.655,12.089 8.818,12.223 8.912 C 12.316 8.978,12.351 8.988,12.498 8.988 C 12.639 8.988,12.683 8.977,12.767 8.920 C 12.924 8.817,12.988 8.695,12.988 8.500 C 12.988 8.308,12.924 8.183,12.775 8.084 C 12.670 8.015,12.460 7.986,12.342 8.024 M14.342 8.024 C 14.149 8.086,14.000 8.295,14.000 8.504 C 14.000 8.655,14.089 8.818,14.223 8.912 C 14.316 8.978,14.351 8.988,14.498 8.988 C 14.639 8.988,14.683 8.977,14.767 8.920 C 14.924 8.817,14.988 8.695,14.988 8.500 C 14.988 8.308,14.924 8.183,14.775 8.084 C 14.670 8.015,14.460 7.986,14.342 8.024 M8.342 10.024 C 8.149 10.086,8.000 10.295,8.000 10.504 C 8.000 10.655,8.089 10.818,8.223 10.913 C 8.316 10.978,8.351 10.988,8.498 10.988 C 8.639 10.988,8.683 10.977,8.767 10.920 C 8.924 10.817,8.988 10.695,8.988 10.500 C 8.988 10.308,8.924 10.183,8.775 10.084 C 8.670 10.015,8.460 9.986,8.342 10.024 M14.342 10.024 C 14.149 10.086,14.000 10.295,14.000 10.504 C 14.000 10.655,14.089 10.818,14.223 10.913 C 14.316 10.978,14.351 10.988,14.498 10.988 C 14.639 10.988,14.683 10.977,14.767 10.920 C 14.924 10.817,14.988 10.695,14.988 10.500 C 14.988 10.308,14.924 10.183,14.775 10.084 C 14.670 10.015,14.460 9.986,14.342 10.024 M8.342 12.024 C 8.149 12.086,8.000 12.295,8.000 12.504 C 8.000 12.655,8.089 12.818,8.223 12.913 C 8.316 12.978,8.351 12.988,8.498 12.988 C 8.639 12.988,8.683 12.977,8.767 12.920 C 8.924 12.817,8.988 12.695,8.988 12.500 C 8.988 12.308,8.924 12.183,8.775 12.084 C 8.670 12.015,8.460 11.986,8.342 12.024 M14.342 12.024 C 14.149 12.086,14.000 12.295,14.000 12.504 C 14.000 12.655,14.089 12.818,14.223 12.913 C 14.316 12.978,14.351 12.988,14.498 12.988 C 14.639 12.988,14.683 12.977,14.767 12.920 C 14.924 12.817,14.988 12.695,14.988 12.500 C 14.988 12.308,14.924 12.183,14.775 12.084 C 14.670 12.015,14.460 11.986,14.342 12.024 M8.342 14.024 C 8.149 14.086,8.000 14.295,8.000 14.504 C 8.000 14.655,8.089 14.818,8.223 14.913 C 8.316 14.978,8.351 14.988,8.498 14.988 C 8.639 14.988,8.683 14.977,8.767 14.920 C 8.924 14.817,8.988 14.695,8.988 14.500 C 8.988 14.308,8.924 14.183,8.775 14.084 C 8.670 14.015,8.460 13.986,8.342 14.024 M10.342 14.024 C 10.149 14.086,10.000 14.295,10.000 14.504 C 10.000 14.655,10.089 14.818,10.223 14.913 C 10.316 14.978,10.351 14.988,10.498 14.988 C 10.639 14.988,10.683 14.977,10.767 14.920 C 10.924 14.817,10.988 14.695,10.988 14.500 C 10.988 14.308,10.924 14.183,10.775 14.084 C 10.670 14.015,10.460 13.986,10.342 14.024 M12.342 14.024 C 12.149 14.086,12.000 14.295,12.000 14.504 C 12.000 14.655,12.089 14.818,12.223 14.913 C 12.316 14.978,12.351 14.988,12.498 14.988 C 12.639 14.988,12.683 14.977,12.767 14.920 C 12.924 14.817,12.988 14.695,12.988 14.500 C 12.988 14.308,12.924 14.183,12.775 14.084 C 12.670 14.015,12.460 13.986,12.342 14.024 M14.342 14.024 C 14.149 14.086,14.000 14.295,14.000 14.504 C 14.000 14.655,14.089 14.818,14.223 14.913 C 14.316 14.978,14.351 14.988,14.498 14.988 C 14.639 14.988,14.683 14.977,14.767 14.920 C 14.924 14.817,14.988 14.695,14.988 14.500 C 14.988 14.308,14.924 14.183,14.775 14.084 C 14.670 14.015,14.460 13.986,14.342 14.024 " fill="currentColor" stroke="none" fill-rule="evenodd"></path></svg>