<svg width="15" height="15" fill="none" xmlns="http://www.w3.org/2000/svg"><path d="M9.270 2.050 C 9.219 2.077,9.150 2.136,9.116 2.181 C 9.082 2.226,8.142 4.543,7.027 7.331 C 5.440 11.300,5.000 12.423,5.001 12.506 C 5.002 12.699,5.140 12.910,5.308 12.973 C 5.503 13.047,5.764 12.977,5.884 12.819 C 5.918 12.774,6.858 10.457,7.973 7.669 C 9.556 3.711,10.000 2.576,10.000 2.493 C 10.000 2.354,9.914 2.186,9.792 2.090 C 9.711 2.025,9.673 2.013,9.530 2.007 C 9.400 2.001,9.342 2.011,9.270 2.050 M3.364 5.017 C 3.245 5.051,3.076 5.207,2.096 6.191 C 1.158 7.133,1.051 7.249,1.025 7.350 C 0.988 7.487,1.008 7.655,1.074 7.759 C 1.100 7.802,1.598 8.312,2.180 8.892 C 3.133 9.841,3.249 9.949,3.350 9.975 C 3.747 10.081,4.081 9.747,3.975 9.350 C 3.949 9.249,3.854 9.146,3.080 8.369 L 2.214 7.500 3.080 6.631 C 3.854 5.854,3.949 5.751,3.975 5.650 C 4.061 5.329,3.860 5.034,3.541 5.012 C 3.470 5.007,3.391 5.009,3.364 5.017 M11.364 5.017 C 11.103 5.091,10.951 5.375,11.025 5.650 C 11.051 5.751,11.146 5.854,11.920 6.631 L 12.786 7.500 11.920 8.369 C 11.146 9.146,11.051 9.249,11.025 9.350 C 10.919 9.747,11.253 10.081,11.650 9.975 C 11.751 9.949,11.867 9.841,12.820 8.892 C 13.402 8.312,13.900 7.802,13.926 7.759 C 13.992 7.655,14.012 7.487,13.975 7.350 C 13.949 7.249,13.842 7.133,12.904 6.191 C 12.331 5.616,11.819 5.117,11.766 5.083 C 11.669 5.021,11.467 4.987,11.364 5.017 " fill="currentColor" stroke="none" fill-rule="evenodd"></path></svg>