<svg width="15" height="15" fill="none" xmlns="http://www.w3.org/2000/svg"><path d="M7.300 0.796 C 7.163 0.853,1.553 3.472,1.325 3.586 C 1.211 3.642,1.140 3.699,1.088 3.773 L 1.012 3.879 1.006 7.442 C 1.001 9.906,1.008 11.035,1.026 11.104 C 1.083 11.314,1.023 11.283,4.288 12.808 C 7.336 14.232,7.338 14.233,7.500 14.233 C 7.662 14.233,7.664 14.232,10.713 12.808 C 13.065 11.709,13.783 11.363,13.852 11.296 C 13.906 11.244,13.953 11.165,13.971 11.098 C 13.995 11.013,14.000 10.166,13.995 7.438 L 13.988 3.888 13.928 3.792 C 13.896 3.740,13.828 3.672,13.778 3.641 C 13.728 3.610,12.328 2.951,10.667 2.176 C 8.305 1.075,7.620 0.765,7.529 0.758 C 7.454 0.753,7.372 0.766,7.300 0.796 M8.231 2.141 C 8.633 2.329,8.972 2.490,8.983 2.500 C 8.999 2.515,7.655 3.107,7.525 3.142 C 7.481 3.154,5.991 2.525,6.013 2.503 C 6.024 2.492,7.464 1.809,7.493 1.802 C 7.496 1.801,7.828 1.954,8.231 2.141 M6.100 3.651 C 7.228 4.135,7.351 4.182,7.488 4.185 C 7.630 4.187,7.703 4.160,8.925 3.640 C 9.633 3.338,10.224 3.092,10.237 3.092 C 10.269 3.093,12.205 3.995,12.231 4.021 C 12.255 4.045,7.582 6.035,7.500 6.035 C 7.417 6.036,2.745 4.045,2.770 4.020 C 2.780 4.010,3.233 3.794,3.775 3.541 C 4.526 3.191,4.774 3.085,4.812 3.101 C 4.840 3.112,5.419 3.359,6.100 3.651 M6.406 6.679 L 7.000 6.931 7.000 9.942 C 7.000 12.833,6.998 12.953,6.955 12.939 C 6.930 12.931,6.370 12.673,5.711 12.364 L 4.513 11.804 4.500 10.646 C 4.488 9.494,4.487 9.487,4.427 9.338 C 4.383 9.227,4.323 9.144,4.202 9.025 C 4.039 8.865,4.028 8.859,3.025 8.399 L 2.013 7.935 2.006 6.371 L 2.000 4.806 3.906 5.616 C 4.955 6.062,6.080 6.540,6.406 6.679 M12.981 7.929 C 12.970 7.940,12.573 8.127,12.099 8.345 C 11.625 8.564,11.174 8.772,11.097 8.809 C 10.929 8.889,10.744 9.046,10.658 9.182 C 10.512 9.414,10.514 9.392,10.500 10.646 L 10.488 11.805 9.287 12.365 C 8.628 12.673,8.068 12.932,8.044 12.939 C 8.002 12.953,8.000 12.799,8.000 9.942 L 8.000 6.930 8.569 6.689 C 8.882 6.556,10.004 6.080,11.063 5.630 L 12.988 4.812 12.994 6.361 C 12.997 7.213,12.992 7.918,12.981 7.929 M3.494 10.520 C 3.498 10.963,3.496 11.325,3.491 11.325 C 3.485 11.325,3.150 11.170,2.747 10.980 L 2.013 10.635 2.006 9.833 L 1.999 9.030 2.743 9.373 L 3.488 9.716 3.494 10.520 M12.999 9.831 L 12.998 10.638 12.272 10.975 C 11.872 11.161,11.534 11.316,11.522 11.321 C 11.509 11.326,11.502 10.999,11.506 10.522 L 11.513 9.715 12.250 9.373 C 12.656 9.184,12.990 9.029,12.994 9.028 C 12.997 9.026,13.000 9.388,12.999 9.831 " fill="currentColor" stroke="none" fill-rule="evenodd"></path></svg>