<svg width="15" height="15" fill="none" xmlns="http://www.w3.org/2000/svg"><path d="M6.975 0.899 C 6.136 0.969,5.317 1.197,4.578 1.564 C 3.935 1.883,3.428 2.238,2.920 2.723 C 1.343 4.229,0.611 6.418,0.965 8.575 C 1.391 11.173,3.343 13.289,5.900 13.925 C 6.970 14.191,8.030 14.191,9.100 13.925 C 11.656 13.289,13.609 11.172,14.035 8.575 C 14.389 6.419,13.657 4.229,12.080 2.723 C 11.077 1.766,9.818 1.150,8.456 0.951 C 8.062 0.893,7.339 0.868,6.975 0.899 M7.100 4.194 L 7.100 6.537 5.450 4.887 C 4.542 3.980,3.804 3.226,3.808 3.213 C 3.813 3.199,3.883 3.133,3.964 3.067 C 4.424 2.693,5.131 2.310,5.717 2.118 C 6.155 1.975,6.700 1.861,6.994 1.853 L 7.100 1.850 7.100 4.194 M8.322 1.889 C 9.134 2.010,9.969 2.329,10.628 2.772 C 10.906 2.959,11.179 3.172,11.192 3.213 C 11.196 3.226,10.458 3.980,9.550 4.887 L 7.900 6.537 7.900 4.194 L 7.900 1.850 7.978 1.850 C 8.021 1.850,8.176 1.868,8.322 1.889 M4.888 5.450 L 6.537 7.100 4.194 7.100 L 1.850 7.100 1.850 7.022 C 1.850 6.904,1.922 6.440,1.978 6.200 C 2.144 5.485,2.520 4.685,2.970 4.088 C 3.096 3.920,3.202 3.800,3.223 3.800 C 3.231 3.800,3.980 4.542,4.888 5.450 M11.933 3.964 C 12.265 4.370,12.673 5.104,12.849 5.609 C 12.990 6.017,13.104 6.531,13.141 6.930 L 13.157 7.100 10.810 7.100 L 8.463 7.100 10.113 5.450 C 11.020 4.542,11.774 3.804,11.787 3.808 C 11.801 3.813,11.867 3.883,11.933 3.964 M4.878 9.560 L 3.218 11.219 3.151 11.141 C 2.670 10.578,2.248 9.779,2.041 9.037 C 1.961 8.750,1.883 8.342,1.861 8.094 L 1.843 7.900 4.190 7.900 L 6.537 7.900 4.878 9.560 M13.150 7.978 C 13.150 8.096,13.078 8.560,13.022 8.800 C 12.885 9.391,12.572 10.111,12.229 10.625 C 12.044 10.903,11.829 11.178,11.787 11.192 C 11.774 11.196,11.020 10.458,10.113 9.550 L 8.463 7.900 10.806 7.900 L 13.150 7.900 13.150 7.978 M7.100 10.816 L 7.100 13.157 6.894 13.140 C 6.248 13.087,5.375 12.812,4.763 12.469 C 4.475 12.308,4.073 12.035,3.913 11.890 L 3.788 11.778 5.437 10.127 C 6.345 9.218,7.090 8.475,7.094 8.475 C 7.097 8.475,7.100 9.528,7.100 10.816 M11.192 11.787 C 11.161 11.881,10.463 12.357,10.060 12.559 C 9.430 12.874,8.701 13.090,8.103 13.140 L 7.900 13.157 7.900 10.810 L 7.900 8.463 9.550 10.113 C 10.458 11.020,11.196 11.774,11.192 11.787 " fill="currentColor" stroke="none" fill-rule="evenodd"></path></svg>