<svg width="15" height="15" fill="none" xmlns="http://www.w3.org/2000/svg"><path d="M0.850 7.500 L 0.850 14.000 1.500 14.000 L 2.150 14.000 2.150 7.500 L 2.150 1.000 1.500 1.000 L 0.850 1.000 0.850 7.500 M4.850 7.500 L 4.850 14.000 5.500 14.000 L 6.150 14.000 6.150 7.500 L 6.150 1.000 5.500 1.000 L 4.850 1.000 4.850 7.500 M8.850 7.500 L 8.850 14.000 9.500 14.000 L 10.150 14.000 10.150 7.500 L 10.150 1.000 9.500 1.000 L 8.850 1.000 8.850 7.500 M12.850 7.500 L 12.850 14.000 13.500 14.000 L 14.150 14.000 14.150 7.500 L 14.150 1.000 13.500 1.000 L 12.850 1.000 12.850 7.500 " fill="currentColor" stroke="none" fill-rule="evenodd"></path></svg>