<svg width="15" height="15" fill="none" xmlns="http://www.w3.org/2000/svg"><path d="M7.342 1.024 C 7.227 1.061,7.109 1.166,7.053 1.282 L 7.000 1.391 7.000 7.504 L 7.000 13.617 7.058 13.727 C 7.090 13.788,7.164 13.871,7.223 13.913 C 7.315 13.978,7.351 13.988,7.496 13.988 C 7.695 13.988,7.816 13.925,7.920 13.767 L 7.988 13.666 7.988 7.502 L 7.988 1.338 7.928 1.242 C 7.843 1.106,7.708 1.024,7.546 1.012 C 7.473 1.006,7.381 1.012,7.342 1.024 M2.813 5.091 C 2.688 5.156,0.651 7.199,0.598 7.313 C 0.539 7.439,0.538 7.560,0.598 7.688 C 0.629 7.754,0.999 8.140,1.716 8.854 C 2.722 9.855,2.794 9.922,2.900 9.943 C 3.270 10.017,3.557 9.686,3.425 9.338 C 3.410 9.296,3.108 8.972,2.743 8.606 L 2.089 7.950 3.839 7.950 L 5.589 7.950 5.701 7.894 C 6.029 7.728,6.029 7.272,5.701 7.106 L 5.589 7.050 3.839 7.050 L 2.090 7.050 2.755 6.381 C 3.369 5.764,3.422 5.704,3.443 5.600 C 3.486 5.384,3.401 5.190,3.224 5.099 C 3.107 5.040,2.918 5.036,2.813 5.091 M11.771 5.101 C 11.598 5.192,11.514 5.387,11.557 5.600 C 11.578 5.704,11.631 5.764,12.245 6.381 L 12.910 7.050 11.161 7.050 L 9.411 7.050 9.299 7.106 C 8.971 7.272,8.971 7.728,9.299 7.894 L 9.411 7.950 11.160 7.950 L 12.910 7.950 12.259 8.606 C 11.667 9.202,11.605 9.273,11.579 9.378 C 11.499 9.707,11.792 10.001,12.122 9.921 C 12.229 9.895,12.317 9.815,13.297 8.840 C 14.006 8.135,14.371 7.755,14.402 7.688 C 14.459 7.565,14.462 7.453,14.412 7.330 C 14.364 7.215,12.333 5.170,12.195 5.098 C 12.075 5.036,11.891 5.037,11.771 5.101 " fill="currentColor" stroke="none" fill-rule="evenodd"></path></svg>