<svg width="15" height="15" fill="none" xmlns="http://www.w3.org/2000/svg"><path d="M7.082 4.126 C 5.655 4.306,4.480 5.383,4.177 6.788 L 4.134 6.988 2.231 7.000 L 0.329 7.013 0.223 7.088 C -0.071 7.294,-0.071 7.706,0.223 7.913 L 0.329 7.988 2.235 7.994 L 4.140 8.001 4.169 8.169 C 4.185 8.262,4.227 8.428,4.263 8.537 C 4.648 9.718,5.640 10.596,6.870 10.842 C 7.170 10.903,7.830 10.903,8.130 10.842 C 9.361 10.595,10.351 9.720,10.736 8.537 C 10.772 8.428,10.815 8.262,10.831 8.169 L 10.860 8.001 12.761 7.994 L 14.663 7.988 14.758 7.928 C 14.810 7.896,14.884 7.823,14.920 7.767 C 14.976 7.683,14.988 7.638,14.988 7.502 C 14.988 7.305,14.924 7.183,14.768 7.080 L 14.666 7.013 12.763 7.006 L 10.860 6.999 10.831 6.831 C 10.726 6.229,10.371 5.571,9.898 5.098 C 9.428 4.629,8.847 4.315,8.188 4.173 C 7.924 4.117,7.349 4.092,7.082 4.126 M7.841 5.077 C 8.774 5.207,9.550 5.867,9.836 6.774 C 10.231 8.027,9.538 9.391,8.290 9.816 C 6.984 10.260,5.580 9.546,5.164 8.226 C 4.760 6.945,5.488 5.563,6.775 5.165 C 7.132 5.054,7.474 5.026,7.841 5.077 " fill="currentColor" stroke="none" fill-rule="evenodd"></path></svg>