<svg width="15" height="15" fill="none" xmlns="http://www.w3.org/2000/svg"><path d="M7.288 1.398 C 7.145 1.465,1.442 7.176,1.388 7.305 C 1.337 7.430,1.341 7.591,1.398 7.713 C 1.465 7.855,7.176 13.558,7.305 13.612 C 7.424 13.661,7.576 13.661,7.695 13.612 C 7.824 13.558,13.535 7.855,13.602 7.713 C 13.659 7.591,13.663 7.430,13.612 7.305 C 13.558 7.176,7.855 1.465,7.713 1.398 C 7.585 1.338,7.415 1.338,7.288 1.398 M9.987 9.975 L 7.512 12.450 5.038 9.975 L 2.563 7.500 5.038 5.025 L 7.512 2.550 9.987 5.025 L 12.462 7.500 9.987 9.975 " fill="currentColor" stroke="none" fill-rule="evenodd"></path></svg>