<svg width="15" height="15" fill="none" xmlns="http://www.w3.org/2000/svg"><path d="M7.363 0.543 C 7.248 0.572,7.053 0.756,5.846 1.967 C 4.519 3.299,4.525 3.291,4.525 3.500 C 4.525 3.709,4.520 3.703,5.821 5.009 C 6.504 5.694,7.116 6.298,7.182 6.351 C 7.324 6.466,7.469 6.496,7.645 6.449 C 7.754 6.420,7.861 6.319,9.090 5.090 C 10.481 3.698,10.475 3.705,10.475 3.497 C 10.474 3.291,10.479 3.297,9.129 1.943 C 8.148 0.960,7.808 0.633,7.714 0.587 C 7.597 0.529,7.479 0.514,7.363 0.543 M8.388 2.625 L 9.262 3.500 8.381 4.381 L 7.500 5.262 6.619 4.381 L 5.738 3.500 6.612 2.625 C 7.094 2.144,7.493 1.750,7.500 1.750 C 7.507 1.750,7.906 2.144,8.388 2.625 M3.286 4.587 C 3.192 4.634,2.850 4.961,1.871 5.943 C 0.517 7.300,0.525 7.291,0.525 7.500 C 0.525 7.709,0.520 7.703,1.821 9.009 C 2.504 9.694,3.116 10.298,3.182 10.351 C 3.324 10.466,3.469 10.497,3.645 10.449 C 3.753 10.420,3.863 10.318,5.045 9.140 C 5.750 8.437,6.354 7.823,6.388 7.774 C 6.465 7.664,6.489 7.496,6.450 7.350 C 6.424 7.248,6.300 7.117,5.129 5.943 C 3.778 4.589,3.705 4.525,3.500 4.525 C 3.450 4.525,3.354 4.553,3.286 4.587 M11.364 4.543 C 11.247 4.573,11.068 4.741,9.870 5.941 C 8.999 6.814,8.590 7.242,8.564 7.305 C 8.511 7.432,8.515 7.589,8.574 7.711 C 8.607 7.778,9.065 8.253,9.931 9.117 C 11.313 10.496,11.288 10.474,11.514 10.475 C 11.702 10.475,11.796 10.392,13.105 9.082 C 14.428 7.757,14.473 7.705,14.474 7.499 C 14.476 7.297,14.408 7.219,13.082 5.895 C 12.119 4.933,11.785 4.615,11.700 4.577 C 11.593 4.528,11.470 4.516,11.364 4.543 M4.388 6.625 L 5.262 7.500 4.381 8.381 L 3.500 9.262 2.619 8.381 L 1.738 7.500 2.612 6.625 C 3.094 6.144,3.493 5.750,3.500 5.750 C 3.507 5.750,3.906 6.144,4.388 6.625 M12.388 6.625 L 13.262 7.500 12.381 8.381 L 11.500 9.262 10.619 8.381 L 9.738 7.500 10.612 6.625 C 11.094 6.144,11.493 5.750,11.500 5.750 C 11.507 5.750,11.906 6.144,12.388 6.625 M7.364 8.543 C 7.247 8.573,7.068 8.741,5.870 9.941 C 4.999 10.814,4.590 11.242,4.564 11.305 C 4.511 11.432,4.515 11.589,4.574 11.711 C 4.607 11.778,5.065 12.253,5.931 13.117 C 7.313 14.496,7.288 14.474,7.514 14.475 C 7.702 14.475,7.796 14.392,9.105 13.082 C 10.428 11.757,10.473 11.705,10.474 11.499 C 10.476 11.297,10.408 11.219,9.082 9.895 C 8.119 8.933,7.785 8.615,7.700 8.577 C 7.593 8.528,7.470 8.516,7.364 8.543 M8.388 10.625 L 9.262 11.500 8.381 12.381 L 7.500 13.262 6.619 12.381 L 5.738 11.500 6.612 10.625 C 7.094 10.144,7.493 9.750,7.500 9.750 C 7.507 9.750,7.906 10.144,8.388 10.625 " fill="currentColor" stroke="none" fill-rule="evenodd"></path></svg>