<svg width="15" height="15" fill="none" xmlns="http://www.w3.org/2000/svg"><path d="M7.288 1.397 C 6.958 1.550,6.904 1.972,7.183 2.218 C 7.266 2.291,7.408 2.350,7.500 2.350 C 7.592 2.350,7.734 2.291,7.817 2.218 C 8.171 1.907,7.964 1.348,7.495 1.351 C 7.436 1.351,7.343 1.372,7.288 1.397 M5.887 2.795 C 5.705 2.880,5.576 3.081,5.575 3.276 C 5.575 3.311,5.603 3.397,5.638 3.467 C 5.874 3.940,6.572 3.776,6.574 3.248 C 6.576 2.905,6.192 2.652,5.887 2.795 M8.741 2.785 C 8.410 2.908,8.303 3.306,8.532 3.567 C 8.842 3.920,9.397 3.717,9.399 3.249 C 9.401 2.915,9.052 2.670,8.741 2.785 M4.463 4.209 C 4.110 4.370,4.068 4.870,4.389 5.074 C 4.528 5.161,4.645 5.185,4.771 5.151 C 5.196 5.037,5.298 4.504,4.943 4.258 C 4.826 4.176,4.586 4.152,4.463 4.209 M10.113 4.217 C 9.871 4.344,9.762 4.619,9.861 4.853 C 9.897 4.941,10.026 5.076,10.113 5.119 C 10.369 5.245,10.717 5.086,10.802 4.804 C 10.868 4.584,10.748 4.317,10.542 4.224 C 10.415 4.166,10.215 4.163,10.113 4.217 M3.098 5.608 C 2.926 5.672,2.830 5.769,2.776 5.934 C 2.704 6.154,2.810 6.405,3.023 6.517 C 3.244 6.634,3.516 6.565,3.662 6.354 C 3.728 6.260,3.737 6.224,3.737 6.079 C 3.737 5.911,3.689 5.799,3.576 5.706 C 3.445 5.597,3.241 5.556,3.098 5.608 M11.579 5.603 C 11.451 5.640,11.289 5.818,11.253 5.960 C 11.228 6.059,11.230 6.103,11.260 6.209 C 11.370 6.587,11.836 6.697,12.105 6.409 C 12.352 6.144,12.219 5.700,11.863 5.603 C 11.746 5.571,11.693 5.571,11.579 5.603 M1.707 7.024 C 1.427 7.091,1.271 7.438,1.397 7.713 C 1.550 8.043,1.972 8.096,2.218 7.817 C 2.403 7.606,2.381 7.320,2.164 7.130 C 2.034 7.016,1.887 6.982,1.707 7.024 M12.963 7.047 C 12.793 7.126,12.650 7.325,12.650 7.480 C 12.651 7.670,12.784 7.873,12.962 7.953 C 13.287 8.101,13.649 7.862,13.649 7.500 C 13.649 7.138,13.285 6.898,12.963 7.047 M3.030 8.477 C 2.824 8.582,2.712 8.822,2.773 9.029 C 2.842 9.263,3.030 9.407,3.265 9.407 C 3.741 9.407,3.925 8.788,3.531 8.514 C 3.387 8.414,3.184 8.399,3.030 8.477 M11.536 8.472 C 11.263 8.596,11.167 8.954,11.340 9.203 C 11.418 9.316,11.620 9.425,11.749 9.424 C 12.032 9.423,12.274 9.147,12.241 8.865 C 12.201 8.531,11.845 8.332,11.536 8.472 M4.396 9.922 C 4.239 10.022,4.165 10.175,4.180 10.374 C 4.199 10.634,4.366 10.801,4.626 10.820 C 4.823 10.834,4.978 10.761,5.075 10.608 C 5.197 10.416,5.195 10.236,5.068 10.048 C 4.930 9.842,4.615 9.783,4.396 9.922 M10.095 9.901 C 9.921 9.993,9.804 10.226,9.839 10.412 C 9.922 10.852,10.498 10.975,10.751 10.606 C 10.838 10.479,10.848 10.264,10.774 10.111 C 10.692 9.941,10.539 9.850,10.339 9.851 C 10.239 9.852,10.156 9.869,10.095 9.901 M5.851 11.317 C 5.740 11.376,5.701 11.414,5.645 11.522 C 5.563 11.678,5.557 11.797,5.623 11.938 C 5.804 12.328,6.319 12.351,6.517 11.977 C 6.681 11.666,6.471 11.284,6.120 11.256 C 6.010 11.247,5.964 11.258,5.851 11.317 M8.751 11.278 C 8.469 11.390,8.345 11.715,8.483 11.977 C 8.681 12.351,9.196 12.328,9.377 11.938 C 9.443 11.797,9.437 11.678,9.355 11.522 C 9.299 11.415,9.260 11.376,9.153 11.320 C 9.013 11.247,8.867 11.232,8.751 11.278 M7.438 12.662 C 7.424 12.667,7.382 12.677,7.344 12.686 C 7.248 12.707,7.100 12.844,7.047 12.962 C 6.900 13.286,7.140 13.650,7.500 13.650 C 7.852 13.650,8.094 13.298,7.961 12.980 C 7.917 12.874,7.816 12.760,7.725 12.713 C 7.659 12.679,7.479 12.647,7.438 12.662 " fill="currentColor" stroke="none" fill-rule="evenodd"></path></svg>