<svg width="15" height="15" fill="none" xmlns="http://www.w3.org/2000/svg"><path d="M2.871 1.026 C 2.438 1.065,2.202 1.140,1.908 1.331 C 1.464 1.619,1.171 2.048,1.058 2.575 C 1.015 2.776,1.012 3.033,1.012 7.500 C 1.012 11.967,1.015 12.224,1.058 12.425 C 1.143 12.822,1.309 13.128,1.590 13.410 C 1.872 13.691,2.178 13.857,2.575 13.942 C 2.776 13.985,3.033 13.988,7.500 13.988 C 11.967 13.988,12.224 13.985,12.425 13.942 C 12.822 13.857,13.128 13.691,13.410 13.410 C 13.691 13.128,13.857 12.822,13.942 12.425 C 13.985 12.224,13.988 11.967,13.988 7.500 C 13.988 3.033,13.985 2.776,13.942 2.575 C 13.857 2.178,13.692 1.873,13.409 1.589 C 13.135 1.313,12.806 1.137,12.420 1.058 C 12.230 1.019,11.829 1.015,7.650 1.011 C 5.141 1.008,2.990 1.015,2.871 1.026 M7.000 4.500 L 7.000 7.000 4.500 7.000 L 2.000 7.000 2.001 5.094 C 2.001 4.045,2.012 3.075,2.025 2.938 C 2.044 2.743,2.066 2.654,2.125 2.534 C 2.271 2.237,2.540 2.062,2.906 2.027 C 3.019 2.016,3.987 2.005,5.056 2.003 L 7.000 2.000 7.000 4.500 M12.060 2.025 C 12.624 2.080,12.920 2.375,12.975 2.938 C 12.988 3.075,12.999 4.045,12.999 5.094 L 13.000 7.000 10.500 7.000 L 8.000 7.000 8.000 4.500 L 8.000 2.000 9.906 2.001 C 10.955 2.001,11.924 2.012,12.060 2.025 M7.000 10.501 L 7.000 13.003 4.906 12.994 C 2.593 12.985,2.678 12.991,2.436 12.824 C 2.180 12.648,2.061 12.426,2.025 12.060 C 2.012 11.924,2.001 10.955,2.001 9.906 L 2.000 8.000 4.500 8.000 L 7.000 8.000 7.000 10.501 M12.999 9.906 C 12.999 10.955,12.988 11.924,12.975 12.060 C 12.946 12.350,12.880 12.517,12.724 12.686 C 12.576 12.846,12.364 12.945,12.100 12.975 C 11.979 12.989,11.046 13.000,9.944 13.000 L 8.000 13.000 8.000 10.500 L 8.000 8.000 10.500 8.000 L 13.000 8.000 12.999 9.906 " fill="currentColor" stroke="none" fill-rule="evenodd"></path></svg>