<svg width="15" height="15" fill="none" xmlns="http://www.w3.org/2000/svg"><path d="M7.288 1.398 C 7.145 1.465,1.442 7.176,1.388 7.305 C 1.339 7.424,1.339 7.576,1.388 7.695 C 1.415 7.759,1.819 8.180,2.694 9.056 L 3.962 10.324 2.758 11.531 C 1.669 12.623,1.551 12.748,1.525 12.850 C 1.419 13.248,1.752 13.581,2.150 13.475 C 2.252 13.449,2.377 13.331,3.469 12.242 L 4.676 11.038 5.944 12.306 C 6.820 13.181,7.241 13.585,7.305 13.612 C 7.424 13.661,7.576 13.661,7.695 13.612 C 7.824 13.558,13.535 7.855,13.602 7.713 C 13.659 7.591,13.663 7.430,13.612 7.305 C 13.585 7.241,13.181 6.820,12.306 5.944 L 11.038 4.676 12.242 3.469 C 13.331 2.377,13.449 2.252,13.475 2.150 C 13.536 1.922,13.460 1.714,13.269 1.585 C 13.179 1.525,13.137 1.513,13.000 1.513 C 12.869 1.513,12.820 1.524,12.750 1.572 C 12.702 1.605,12.137 2.156,11.494 2.797 L 10.325 3.962 9.056 2.695 C 8.180 1.819,7.759 1.415,7.695 1.388 C 7.570 1.337,7.409 1.341,7.288 1.398 M8.563 3.625 L 9.612 4.675 7.144 7.144 L 4.675 9.612 3.619 8.556 L 2.563 7.500 5.025 5.038 C 6.379 3.683,7.493 2.575,7.500 2.575 C 7.507 2.575,7.985 3.048,8.563 3.625 M9.987 9.975 C 8.626 11.336,7.507 12.447,7.500 12.444 C 7.493 12.440,7.015 11.962,6.438 11.381 L 5.389 10.324 7.863 7.849 L 10.337 5.375 11.400 6.437 L 12.462 7.500 9.987 9.975 " fill="currentColor" stroke="none" fill-rule="evenodd"></path></svg>