<svg width="15" height="15" fill="none" xmlns="http://www.w3.org/2000/svg"><path d="M11.194 0.877 C 11.051 0.952,10.964 1.101,10.963 1.272 C 10.962 1.449,11.022 1.575,11.180 1.729 C 11.375 1.920,11.679 2.001,11.882 1.916 C 12.059 1.843,12.198 1.592,12.161 1.417 C 12.115 1.197,11.930 0.982,11.699 0.876 C 11.551 0.809,11.321 0.809,11.194 0.877 M14.292 0.950 C 14.107 1.006,13.955 1.213,13.900 1.486 C 13.846 1.750,13.926 2.041,14.085 2.162 C 14.224 2.269,14.439 2.287,14.588 2.206 C 14.842 2.068,14.988 1.630,14.891 1.296 C 14.813 1.029,14.545 0.874,14.292 0.950 M7.125 1.066 C 6.567 1.120,6.266 1.171,5.788 1.292 C 4.639 1.584,3.641 2.123,2.878 2.862 C 2.297 3.425,2.001 3.886,1.617 4.825 C 0.918 6.536,0.830 7.692,1.267 9.436 C 1.460 10.207,1.979 11.663,2.216 12.098 C 2.678 12.946,3.753 13.531,5.503 13.885 C 7.590 14.308,9.490 14.157,10.530 13.486 C 10.728 13.359,10.824 13.282,11.225 12.938 C 11.570 12.641,11.943 12.285,12.309 11.900 C 13.827 10.307,14.380 8.748,13.908 7.391 C 13.798 7.075,13.722 6.925,13.609 6.800 C 13.485 6.662,13.408 6.621,13.033 6.490 C 12.112 6.169,11.187 5.578,10.971 5.171 C 10.885 5.012,10.890 4.634,10.982 4.286 C 11.070 3.952,11.087 3.790,11.051 3.618 C 11.009 3.416,10.895 3.260,10.688 3.120 C 10.473 2.977,10.327 2.818,10.149 2.537 C 9.811 2.003,9.700 1.849,9.514 1.655 C 9.166 1.291,8.819 1.124,8.311 1.076 C 8.060 1.052,7.334 1.046,7.125 1.066 M8.488 2.126 C 8.708 2.209,8.958 2.472,9.198 2.876 C 9.451 3.302,9.593 3.490,9.828 3.711 C 10.002 3.874,10.024 3.905,10.001 3.948 C 9.958 4.028,9.878 4.398,9.861 4.600 C 9.821 5.056,10.004 5.593,10.348 6.025 C 10.723 6.495,11.335 6.884,12.296 7.262 C 12.532 7.354,12.762 7.455,12.807 7.485 C 13.007 7.620,13.122 7.974,13.090 8.362 C 12.995 9.500,12.283 10.641,10.875 11.913 C 10.068 12.642,9.834 12.794,9.298 12.936 C 8.335 13.192,7.055 13.183,5.729 12.913 C 4.747 12.713,4.065 12.475,3.622 12.178 C 3.247 11.926,3.138 11.765,2.847 11.026 C 2.449 10.021,2.182 9.113,2.071 8.388 C 1.995 7.896,1.994 7.137,2.070 6.725 C 2.212 5.952,2.680 4.740,3.042 4.207 C 3.829 3.050,5.319 2.259,7.062 2.075 C 7.172 2.063,7.504 2.057,7.800 2.062 C 8.284 2.069,8.352 2.075,8.488 2.126 M6.488 2.811 C 6.474 2.816,6.431 2.828,6.392 2.836 C 6.274 2.862,6.084 3.061,6.023 3.221 C 5.797 3.817,6.284 4.590,6.753 4.381 C 6.876 4.327,7.047 4.153,7.121 4.007 C 7.188 3.876,7.250 3.630,7.250 3.495 C 7.250 3.334,7.184 3.137,7.097 3.038 C 7.056 2.991,6.963 2.924,6.892 2.889 C 6.773 2.832,6.547 2.788,6.488 2.811 M12.238 2.979 C 12.083 3.065,11.975 3.239,11.975 3.404 C 11.975 3.817,12.605 4.197,12.984 4.013 C 13.103 3.956,13.215 3.806,13.238 3.674 C 13.277 3.440,13.086 3.162,12.788 3.021 C 12.666 2.964,12.604 2.950,12.463 2.951 C 12.366 2.951,12.265 2.964,12.238 2.979 M14.080 4.327 C 14.021 4.357,13.942 4.421,13.905 4.470 C 13.848 4.544,13.838 4.584,13.838 4.715 C 13.838 4.855,13.846 4.880,13.912 4.949 C 14.139 5.186,14.630 5.112,14.772 4.819 C 14.835 4.688,14.839 4.599,14.785 4.485 C 14.722 4.354,14.601 4.293,14.378 4.282 C 14.219 4.273,14.170 4.281,14.080 4.327 M4.362 4.924 C 4.043 4.998,3.891 5.299,4.024 5.593 C 4.093 5.746,4.285 5.940,4.415 5.990 C 4.718 6.105,5.043 5.907,5.070 5.591 C 5.100 5.227,4.697 4.847,4.362 4.924 M7.288 5.997 C 6.848 6.197,6.799 6.727,7.200 6.948 C 7.600 7.170,8.190 6.789,8.096 6.371 C 8.039 6.114,7.823 5.950,7.545 5.951 C 7.447 5.951,7.350 5.968,7.288 5.997 M3.373 6.750 C 3.117 6.794,2.893 6.965,2.860 7.141 C 2.795 7.490,3.006 7.874,3.350 8.035 C 3.508 8.109,3.892 8.110,4.037 8.037 C 4.213 7.949,4.293 7.729,4.247 7.463 C 4.162 6.974,3.797 6.676,3.373 6.750 M7.369 7.786 C 7.153 7.863,7.028 8.013,6.960 8.275 C 6.928 8.402,6.925 8.460,6.946 8.566 C 7.000 8.835,7.180 9.076,7.397 9.169 C 7.447 9.191,7.560 9.209,7.650 9.209 C 8.035 9.212,8.250 8.952,8.250 8.486 C 8.250 8.239,8.189 8.063,8.059 7.933 C 7.895 7.768,7.596 7.704,7.369 7.786 M10.472 8.810 C 10.174 8.916,9.880 9.210,9.787 9.495 C 9.751 9.604,9.749 9.643,9.775 9.749 C 9.856 10.086,10.252 10.345,10.581 10.276 C 10.989 10.191,11.451 9.690,11.454 9.329 C 11.456 9.003,11.154 8.773,10.727 8.776 C 10.636 8.777,10.522 8.792,10.472 8.810 M4.284 9.905 C 4.158 9.946,3.971 10.104,3.908 10.223 C 3.800 10.428,3.848 10.665,4.036 10.856 C 4.210 11.034,4.452 11.111,4.641 11.049 C 4.776 11.004,5.013 10.792,5.061 10.672 C 5.170 10.399,5.032 10.054,4.763 9.928 C 4.641 9.870,4.424 9.860,4.284 9.905 M7.263 10.824 C 7.140 10.853,7.044 10.914,6.921 11.042 C 6.712 11.258,6.632 11.490,6.689 11.715 C 6.752 11.962,6.995 12.088,7.414 12.088 C 7.649 12.088,7.674 12.083,7.773 12.017 C 7.916 11.922,7.985 11.769,7.981 11.550 C 7.974 11.090,7.624 10.738,7.263 10.824 " fill="currentColor" stroke="none" fill-rule="evenodd"></path></svg>