<svg width="15" height="15" fill="none" xmlns="http://www.w3.org/2000/svg"><path d="M2.175 1.039 C 1.902 1.098,1.663 1.233,1.449 1.448 C 1.233 1.666,1.121 1.859,1.049 2.140 C 1.001 2.328,1.000 2.430,1.000 6.000 C 1.000 9.570,1.001 9.672,1.049 9.860 C 1.122 10.143,1.233 10.334,1.449 10.551 C 1.666 10.767,1.857 10.878,2.140 10.951 C 2.313 10.995,2.418 11.000,3.166 11.000 L 4.000 11.000 4.000 11.834 C 4.000 12.582,4.005 12.687,4.049 12.860 C 4.122 13.143,4.233 13.334,4.449 13.551 C 4.666 13.767,4.857 13.878,5.140 13.951 C 5.328 13.999,5.430 14.000,9.000 14.000 C 12.570 14.000,12.672 13.999,12.860 13.951 C 13.143 13.878,13.334 13.767,13.551 13.551 C 13.767 13.334,13.878 13.143,13.951 12.860 C 13.999 12.672,14.000 12.570,14.000 9.000 C 14.000 5.430,13.999 5.328,13.951 5.140 C 13.879 4.859,13.767 4.666,13.551 4.448 C 13.413 4.308,13.313 4.234,13.175 4.166 C 12.868 4.016,12.745 4.001,11.819 4.000 L 11.000 4.000 11.000 3.166 C 11.000 2.234,10.983 2.102,10.820 1.792 C 10.701 1.564,10.409 1.281,10.175 1.166 C 9.820 0.992,10.034 1.001,5.988 1.002 C 2.956 1.004,2.310 1.010,2.175 1.039 M9.758 2.072 C 9.810 2.104,9.884 2.177,9.920 2.232 L 9.988 2.334 9.995 3.167 L 10.003 4.000 7.683 4.000 C 5.106 4.001,5.170 3.997,4.825 4.166 C 4.687 4.234,4.587 4.308,4.449 4.448 C 4.233 4.666,4.121 4.859,4.049 5.140 C 4.002 5.325,4.000 5.425,4.000 7.668 L 4.000 10.003 3.167 9.995 L 2.334 9.988 2.232 9.920 C 2.177 9.884,2.104 9.810,2.072 9.758 L 2.013 9.663 2.006 6.054 C 2.001 3.558,2.008 2.415,2.026 2.346 C 2.058 2.226,2.216 2.061,2.330 2.028 C 2.381 2.013,3.795 2.006,6.038 2.008 L 9.663 2.013 9.758 2.072 M12.758 5.072 C 12.810 5.104,12.884 5.177,12.920 5.233 L 12.988 5.334 12.988 8.998 L 12.988 12.663 12.928 12.758 C 12.896 12.810,12.823 12.884,12.767 12.920 L 12.666 12.988 9.000 12.988 L 5.334 12.988 5.233 12.920 C 5.177 12.884,5.104 12.810,5.072 12.758 L 5.013 12.663 5.006 9.054 C 5.001 6.558,5.008 5.415,5.026 5.346 C 5.058 5.226,5.216 5.061,5.330 5.028 C 5.381 5.013,6.795 5.006,9.037 5.008 L 12.663 5.013 12.758 5.072 " fill="currentColor" stroke="none" fill-rule="evenodd"></path></svg>