<svg width="15" height="15" fill="none" xmlns="http://www.w3.org/2000/svg"><path d="M3.342 3.025 C 3.152 3.083,3.000 3.295,3.000 3.504 C 3.000 3.655,3.089 3.818,3.223 3.913 L 3.329 3.988 5.308 4.003 C 7.317 4.019,7.712 4.036,8.238 4.125 C 8.941 4.245,9.435 4.505,9.965 5.035 C 10.499 5.569,10.758 6.065,10.876 6.775 C 10.966 7.322,10.982 7.707,10.997 9.702 L 11.013 11.666 11.080 11.768 C 11.183 11.924,11.305 11.988,11.502 11.988 C 11.638 11.988,11.683 11.976,11.767 11.920 C 11.823 11.884,11.896 11.810,11.928 11.758 L 11.988 11.663 11.987 9.675 C 11.987 7.606,11.975 7.284,11.874 6.663 C 11.848 6.497,11.797 6.256,11.762 6.125 C 11.471 5.050,10.608 4.029,9.537 3.494 C 8.928 3.189,8.333 3.074,7.113 3.026 C 6.362 2.996,3.442 2.996,3.342 3.025 " fill="currentColor" stroke="none" fill-rule="evenodd"></path></svg>