<svg width="15" height="15" fill="none" xmlns="http://www.w3.org/2000/svg"><path d="M7.811 3.026 C 6.700 3.070,6.051 3.199,5.470 3.490 C 4.386 4.033,3.528 5.046,3.238 6.126 C 3.044 6.849,3.021 7.194,3.008 9.575 L 2.996 11.613 3.056 11.725 C 3.089 11.787,3.164 11.871,3.223 11.913 C 3.316 11.978,3.351 11.988,3.498 11.988 C 3.639 11.988,3.683 11.977,3.767 11.920 C 3.823 11.884,3.896 11.810,3.928 11.758 L 3.988 11.663 4.003 9.688 C 4.019 7.684,4.036 7.288,4.125 6.762 C 4.245 6.057,4.504 5.564,5.034 5.034 C 5.564 4.504,6.057 4.245,6.762 4.125 C 7.288 4.036,7.684 4.019,9.689 4.003 L 11.666 3.988 11.768 3.920 C 11.924 3.817,11.988 3.695,11.988 3.500 C 11.988 3.305,11.924 3.183,11.768 3.080 L 11.666 3.013 9.977 3.010 C 9.048 3.008,8.073 3.016,7.811 3.026 " fill="currentColor" stroke="none" fill-rule="evenodd"></path></svg>