<svg width="15" height="15" fill="none" xmlns="http://www.w3.org/2000/svg"><path d="M3.342 3.024 C 3.225 3.061,3.108 3.167,3.050 3.287 L 2.995 3.401 3.007 5.432 C 3.020 7.525,3.032 7.821,3.136 8.413 C 3.295 9.325,3.668 10.028,4.349 10.700 C 5.030 11.373,5.719 11.722,6.663 11.874 C 7.284 11.975,7.606 11.987,9.677 11.987 L 11.666 11.988 11.767 11.920 C 11.924 11.817,11.988 11.695,11.988 11.498 C 11.988 11.362,11.976 11.317,11.920 11.233 C 11.884 11.177,11.810 11.104,11.758 11.072 L 11.663 11.013 9.638 10.997 C 7.635 10.982,7.370 10.972,6.800 10.885 C 6.108 10.780,5.566 10.498,5.035 9.966 C 4.505 9.434,4.245 8.940,4.125 8.238 C 4.036 7.712,4.019 7.316,4.003 5.313 L 3.988 3.338 3.928 3.242 C 3.843 3.106,3.708 3.024,3.546 3.012 C 3.473 3.006,3.381 3.012,3.342 3.024 " fill="currentColor" stroke="none" fill-rule="evenodd"></path></svg>