<svg width="15" height="15" fill="none" xmlns="http://www.w3.org/2000/svg"><path d="M11.342 3.024 C 11.227 3.061,11.108 3.167,11.055 3.281 C 11.005 3.384,11.004 3.445,10.992 5.350 C 10.985 6.515,10.968 7.439,10.952 7.625 C 10.910 8.078,10.838 8.483,10.751 8.752 C 10.519 9.474,9.829 10.244,9.075 10.625 C 8.757 10.785,8.331 10.884,7.663 10.954 C 7.496 10.971,6.584 10.988,5.358 10.997 L 3.329 11.013 3.223 11.088 C 2.929 11.294,2.929 11.706,3.223 11.913 L 3.329 11.988 5.321 11.987 C 7.394 11.987,7.716 11.975,8.338 11.874 C 9.288 11.721,9.992 11.361,10.676 10.676 C 11.361 9.992,11.721 9.288,11.874 8.338 C 11.975 7.716,11.987 7.394,11.987 5.325 L 11.988 3.338 11.928 3.242 C 11.843 3.106,11.708 3.024,11.546 3.012 C 11.473 3.006,11.381 3.012,11.342 3.024 " fill="currentColor" stroke="none" fill-rule="evenodd"></path></svg>