<svg width="15" height="15" fill="none" xmlns="http://www.w3.org/2000/svg"><path d="M7.063 0.867 C 6.198 0.937,5.507 1.127,4.792 1.493 C 3.756 2.022,2.776 2.988,2.096 4.148 L 2.002 4.308 1.995 3.321 L 1.988 2.334 1.920 2.232 C 1.816 2.075,1.695 2.013,1.496 2.013 C 1.351 2.013,1.315 2.022,1.223 2.087 C 1.164 2.129,1.090 2.212,1.058 2.273 L 1.000 2.383 1.000 4.000 L 1.000 5.617 1.058 5.727 C 1.090 5.788,1.164 5.871,1.223 5.913 L 1.329 5.988 2.998 5.988 L 4.666 5.988 4.767 5.920 C 4.924 5.817,4.988 5.695,4.988 5.498 C 4.988 5.362,4.976 5.317,4.920 5.233 C 4.884 5.177,4.810 5.104,4.758 5.072 C 4.663 5.013,4.662 5.012,3.719 5.005 C 3.200 5.001,2.775 4.992,2.775 4.984 C 2.775 4.955,3.064 4.477,3.219 4.250 C 3.469 3.884,3.717 3.590,4.041 3.274 C 4.362 2.962,4.521 2.832,4.850 2.618 C 5.413 2.252,6.037 2.016,6.735 1.907 C 7.120 1.847,7.927 1.848,8.338 1.910 C 9.944 2.151,11.296 3.004,12.176 4.331 C 13.231 5.923,13.436 7.860,12.735 9.607 C 12.346 10.575,11.697 11.431,10.897 12.030 C 10.536 12.301,10.338 12.422,9.963 12.602 C 9.157 12.988,8.219 13.178,7.288 13.142 C 6.421 13.109,5.724 12.937,4.988 12.576 C 4.231 12.206,3.630 11.715,3.070 11.013 C 2.844 10.729,2.635 10.389,2.425 9.963 C 2.317 9.742,2.203 9.536,2.173 9.503 C 1.950 9.264,1.531 9.329,1.381 9.624 C 1.294 9.797,1.306 9.919,1.445 10.238 C 1.818 11.098,2.485 11.986,3.236 12.624 C 5.097 14.203,7.831 14.597,10.150 13.620 C 11.531 13.039,12.726 11.901,13.427 10.499 C 14.583 8.190,14.335 5.540,12.764 3.429 C 12.515 3.094,11.845 2.423,11.510 2.172 C 10.502 1.416,9.356 0.985,8.067 0.877 C 7.772 0.852,7.301 0.847,7.063 0.867 M7.000 7.500 L 7.000 10.000 7.500 10.000 L 8.000 10.000 8.000 7.500 L 8.000 5.000 7.500 5.000 L 7.000 5.000 7.000 7.500 " fill="currentColor" stroke="none" fill-rule="evenodd"></path></svg>