<svg width="15" height="15" fill="none" xmlns="http://www.w3.org/2000/svg"><path d="M3.342 0.024 C 3.227 0.061,3.109 0.166,3.053 0.282 C 3.001 0.388,3.000 0.421,3.000 1.695 L 3.000 2.998 1.665 3.005 L 0.329 3.013 0.223 3.088 C -0.071 3.294,-0.071 3.706,0.223 3.913 L 0.329 3.988 1.665 3.995 L 3.000 4.002 3.000 7.809 L 3.000 11.617 3.058 11.727 C 3.090 11.788,3.164 11.871,3.223 11.913 L 3.329 11.988 7.165 11.994 L 11.000 12.001 11.000 13.309 L 11.000 14.617 11.058 14.727 C 11.090 14.788,11.164 14.871,11.223 14.913 C 11.315 14.978,11.351 14.988,11.496 14.988 C 11.695 14.988,11.816 14.925,11.920 14.768 L 11.988 14.666 11.995 13.334 L 12.002 12.002 13.334 11.995 L 14.666 11.988 14.768 11.920 C 14.924 11.817,14.988 11.695,14.988 11.498 C 14.988 11.362,14.976 11.317,14.920 11.233 C 14.884 11.177,14.810 11.104,14.758 11.072 L 14.663 11.013 13.332 11.005 L 12.001 10.998 11.994 7.168 L 11.988 3.338 11.928 3.242 C 11.896 3.190,11.823 3.116,11.768 3.080 L 11.666 3.013 7.834 3.006 L 4.002 2.999 3.995 1.668 L 3.988 0.338 3.928 0.242 C 3.843 0.106,3.708 0.024,3.546 0.012 C 3.473 0.006,3.381 0.012,3.342 0.024 M11.000 7.500 L 11.000 11.000 7.500 11.000 L 4.000 11.000 4.000 7.500 L 4.000 4.000 7.500 4.000 L 11.000 4.000 11.000 7.500 " fill="currentColor" stroke="none" fill-rule="evenodd"></path></svg>