<svg width="15" height="15" fill="none" xmlns="http://www.w3.org/2000/svg"><path d="M2.364 2.017 C 2.274 2.042,2.125 2.156,2.075 2.238 C 2.009 2.345,1.988 2.512,2.024 2.650 C 2.051 2.753,2.248 2.957,4.420 5.131 L 6.787 7.500 4.420 9.869 C 2.248 12.043,2.051 12.247,2.024 12.350 C 1.920 12.748,2.252 13.080,2.650 12.976 C 2.753 12.949,2.957 12.752,5.131 10.580 L 7.500 8.213 9.869 10.580 C 12.043 12.752,12.247 12.949,12.350 12.976 C 12.748 13.080,13.080 12.748,12.976 12.350 C 12.949 12.247,12.752 12.043,10.580 9.869 L 8.213 7.500 10.580 5.131 C 12.752 2.957,12.949 2.753,12.976 2.650 C 13.036 2.422,12.959 2.214,12.769 2.085 C 12.679 2.025,12.637 2.013,12.500 2.013 C 12.369 2.013,12.320 2.024,12.250 2.072 C 12.202 2.105,11.113 3.180,9.831 4.460 L 7.500 6.787 5.169 4.460 C 3.887 3.180,2.801 2.107,2.756 2.077 C 2.674 2.021,2.463 1.989,2.364 2.017 " fill="currentColor" stroke="none" fill-rule="evenodd"></path></svg>