<svg width="15" height="15" fill="none" xmlns="http://www.w3.org/2000/svg"><path d="M3.388 3.109 C 3.239 3.180,3.171 3.249,3.102 3.400 C 3.037 3.543,3.037 3.706,3.102 3.850 C 3.140 3.937,3.557 4.368,4.920 5.731 L 6.687 7.500 4.920 9.269 C 3.557 10.632,3.140 11.063,3.102 11.150 C 2.937 11.517,3.220 11.950,3.625 11.950 C 3.862 11.950,3.794 12.010,5.706 10.103 L 7.500 8.313 9.294 10.103 C 11.206 12.010,11.138 11.950,11.375 11.950 C 11.780 11.950,12.063 11.517,11.898 11.150 C 11.860 11.063,11.443 10.632,10.080 9.269 L 8.313 7.500 10.080 5.731 C 11.959 3.851,11.949 3.863,11.949 3.625 C 11.949 3.502,11.878 3.321,11.792 3.228 C 11.709 3.138,11.504 3.050,11.375 3.051 C 11.137 3.051,11.149 3.041,9.269 4.920 L 7.500 6.687 5.731 4.920 C 4.368 3.557,3.937 3.140,3.850 3.102 C 3.699 3.034,3.542 3.037,3.388 3.109 " fill="currentColor" stroke="none" fill-rule="evenodd"></path></svg>