<svg width="15" height="15" fill="none" xmlns="http://www.w3.org/2000/svg"><path d="M7.342 0.024 C 7.227 0.061,7.109 0.166,7.053 0.282 C 7.003 0.385,7.000 0.431,7.000 1.092 L 7.000 1.793 6.806 1.810 C 6.222 1.863,5.512 2.068,4.938 2.349 C 3.782 2.916,2.886 3.816,2.335 4.961 C 2.062 5.528,1.849 6.274,1.808 6.800 L 1.793 6.997 1.061 7.005 L 0.329 7.013 0.223 7.088 C -0.071 7.294,-0.071 7.706,0.223 7.913 L 0.329 7.988 1.058 7.995 C 1.587 8.001,1.792 8.011,1.805 8.033 C 1.816 8.049,1.824 8.095,1.825 8.135 C 1.825 8.279,1.957 8.845,2.066 9.175 C 2.579 10.724,3.780 12.003,5.291 12.609 C 5.770 12.801,6.359 12.949,6.806 12.989 L 7.000 13.007 7.000 13.812 C 7.000 14.607,7.001 14.619,7.058 14.727 C 7.090 14.788,7.164 14.871,7.223 14.913 C 7.315 14.978,7.351 14.988,7.496 14.988 C 7.695 14.988,7.816 14.925,7.920 14.768 L 7.988 14.666 8.000 13.828 L 8.013 12.990 8.228 12.959 C 10.038 12.698,11.656 11.504,12.464 9.835 C 12.694 9.358,12.886 8.737,12.959 8.228 L 12.990 8.013 13.828 8.000 L 14.666 7.988 14.768 7.920 C 14.924 7.817,14.988 7.695,14.988 7.498 C 14.988 7.362,14.976 7.317,14.920 7.233 C 14.884 7.177,14.810 7.104,14.758 7.072 C 14.663 7.013,14.656 7.012,13.836 7.005 L 13.010 6.998 12.981 6.736 C 12.835 5.430,12.176 4.148,11.191 3.252 C 10.364 2.500,9.304 1.993,8.250 1.844 L 8.013 1.810 8.000 1.074 C 7.988 0.353,7.986 0.335,7.928 0.242 C 7.843 0.106,7.708 0.024,7.546 0.012 C 7.473 0.006,7.381 0.012,7.342 0.024 M7.000 4.184 L 7.000 5.617 7.058 5.727 C 7.090 5.788,7.164 5.871,7.223 5.913 C 7.316 5.978,7.351 5.988,7.498 5.988 C 7.639 5.988,7.683 5.977,7.767 5.920 C 7.823 5.884,7.896 5.810,7.928 5.758 L 7.988 5.663 7.995 4.219 C 8.002 2.780,8.002 2.775,8.053 2.775 C 8.163 2.775,8.618 2.881,8.871 2.966 C 9.921 3.317,10.812 4.028,11.389 4.975 C 11.727 5.530,11.963 6.215,12.037 6.855 L 12.053 6.998 10.691 7.005 L 9.329 7.013 9.223 7.088 C 8.929 7.294,8.929 7.706,9.223 7.913 L 9.329 7.988 10.677 7.995 C 11.879 8.001,12.025 8.006,12.025 8.041 C 12.025 8.144,11.912 8.619,11.824 8.882 C 11.370 10.246,10.294 11.335,8.930 11.810 C 8.685 11.895,8.156 12.025,8.054 12.025 L 8.002 12.025 7.995 10.681 L 7.988 9.338 7.928 9.242 C 7.896 9.190,7.823 9.116,7.767 9.080 C 7.683 9.023,7.639 9.013,7.498 9.013 C 7.351 9.013,7.316 9.022,7.223 9.088 C 7.164 9.129,7.090 9.212,7.058 9.273 L 7.000 9.383 7.000 10.720 L 7.000 12.056 6.844 12.039 C 6.602 12.013,6.145 11.905,5.865 11.809 C 4.500 11.336,3.426 10.249,2.966 8.871 C 2.881 8.618,2.775 8.163,2.775 8.053 C 2.775 8.002,2.779 8.002,4.221 7.995 L 5.666 7.988 5.768 7.920 C 5.924 7.817,5.988 7.695,5.988 7.498 C 5.988 7.362,5.976 7.317,5.920 7.233 C 5.884 7.177,5.810 7.104,5.758 7.072 L 5.663 7.013 4.203 7.005 L 2.744 6.998 2.761 6.843 C 2.859 5.949,3.277 5.016,3.897 4.309 C 4.467 3.658,5.266 3.151,6.100 2.911 C 6.349 2.839,6.780 2.756,6.919 2.752 L 7.000 2.750 7.000 4.184 " fill="currentColor" stroke="none" fill-rule="evenodd"></path></svg>