<svg width="15" height="15" fill="none" xmlns="http://www.w3.org/2000/svg"><path d="M6.950 0.901 C 6.106 0.976,5.351 1.187,4.588 1.562 C 4.152 1.776,3.876 1.946,3.475 2.246 C 3.164 2.479,2.601 3.023,2.358 3.325 C 0.533 5.594,0.382 8.751,1.983 11.163 C 2.240 11.549,2.448 11.800,2.837 12.189 C 3.952 13.306,5.327 13.948,6.938 14.103 C 7.300 14.138,8.055 14.118,8.420 14.064 C 10.084 13.818,11.563 12.988,12.611 11.713 C 13.399 10.753,13.880 9.662,14.064 8.420 C 14.118 8.055,14.138 7.300,14.103 6.938 C 13.979 5.654,13.551 4.535,12.797 3.526 C 11.905 2.331,10.544 1.431,9.088 1.073 C 8.448 0.916,7.576 0.846,6.950 0.901 M7.000 3.234 L 7.000 4.617 7.058 4.727 C 7.090 4.788,7.164 4.871,7.223 4.913 C 7.316 4.978,7.351 4.988,7.498 4.988 C 7.639 4.988,7.683 4.977,7.767 4.920 C 7.823 4.884,7.896 4.810,7.928 4.758 L 7.988 4.663 7.995 3.255 L 8.002 1.847 8.120 1.863 C 9.055 1.987,9.805 2.250,10.529 2.707 C 11.191 3.125,11.799 3.720,12.233 4.375 C 12.567 4.880,12.890 5.623,13.024 6.200 C 13.071 6.400,13.150 6.880,13.150 6.962 C 13.150 6.994,12.963 6.999,11.740 7.005 L 10.329 7.013 10.223 7.088 C 9.929 7.294,9.929 7.706,10.223 7.913 L 10.329 7.988 11.740 7.995 C 12.963 8.001,13.150 8.006,13.150 8.038 C 13.150 8.059,13.133 8.191,13.112 8.331 C 12.777 10.574,11.138 12.411,8.963 12.983 C 8.708 13.050,8.168 13.150,8.061 13.150 L 8.002 13.150 7.995 11.744 L 7.988 10.338 7.928 10.242 C 7.896 10.190,7.823 10.116,7.767 10.080 C 7.683 10.023,7.639 10.013,7.498 10.013 C 7.351 10.013,7.316 10.022,7.223 10.088 C 7.164 10.129,7.090 10.212,7.058 10.273 L 7.000 10.383 7.000 11.770 L 7.000 13.156 6.844 13.139 C 6.560 13.108,6.072 13.000,5.752 12.896 C 4.840 12.600,4.109 12.141,3.425 11.434 C 2.538 10.518,2.042 9.465,1.863 8.120 L 1.847 8.002 3.257 7.995 L 4.666 7.988 4.768 7.920 C 4.924 7.817,4.988 7.695,4.988 7.500 C 4.988 7.305,4.924 7.183,4.768 7.080 L 4.666 7.013 3.257 7.005 L 1.847 6.998 1.863 6.880 C 1.991 5.925,2.277 5.128,2.759 4.390 C 3.182 3.741,3.845 3.095,4.509 2.683 C 4.790 2.509,5.315 2.255,5.602 2.154 C 5.979 2.022,6.659 1.871,6.956 1.853 C 6.997 1.850,7.000 1.932,7.000 3.234 " fill="currentColor" stroke="none" fill-rule="evenodd"></path></svg>