<svg width="15" height="15" fill="none" xmlns="http://www.w3.org/2000/svg"><path d="M4.311 0.097 C 4.254 0.123,4.185 0.173,4.157 0.210 C 4.128 0.246,3.895 0.801,3.638 1.444 C 3.381 2.087,3.158 2.626,3.142 2.642 C 3.126 2.658,2.587 2.881,1.944 3.138 C 1.301 3.395,0.746 3.628,0.710 3.657 C 0.572 3.765,0.516 3.994,0.585 4.160 C 0.604 4.206,0.926 4.652,1.301 5.151 C 1.675 5.650,1.987 6.077,1.992 6.099 C 1.998 6.121,1.789 6.996,1.526 8.044 C 1.264 9.092,1.050 9.981,1.051 10.018 C 1.051 10.107,1.128 10.274,1.196 10.334 C 1.225 10.360,1.913 10.659,2.725 10.998 L 4.202 11.615 4.945 12.726 C 5.630 13.752,5.696 13.842,5.799 13.894 C 5.860 13.925,5.945 13.950,5.987 13.950 C 6.029 13.950,6.833 13.730,7.775 13.462 C 9.114 13.080,9.841 12.856,11.107 12.434 C 12.228 12.061,12.749 11.876,12.799 11.834 C 12.839 11.801,12.889 11.726,12.910 11.668 C 12.962 11.530,13.950 7.071,13.949 6.981 C 13.949 6.943,13.928 6.865,13.901 6.808 C 13.860 6.717,13.731 6.611,12.902 5.989 L 11.950 5.274 11.950 4.099 C 11.950 2.853,11.947 2.822,11.830 2.692 C 11.807 2.666,11.082 2.291,10.219 1.860 L 8.651 1.075 6.601 0.563 C 5.473 0.281,4.519 0.050,4.481 0.051 C 4.444 0.051,4.367 0.072,4.311 0.097 M7.697 1.765 C 7.717 1.782,6.341 3.477,6.315 3.468 C 6.300 3.462,5.804 3.297,5.213 3.101 C 4.621 2.904,4.129 2.736,4.119 2.727 C 4.109 2.718,4.242 2.357,4.416 1.924 C 4.589 1.491,4.740 1.113,4.751 1.084 C 4.771 1.031,4.793 1.036,6.230 1.394 C 7.031 1.594,7.692 1.761,7.697 1.765 M9.850 2.675 L 11.050 3.275 11.050 4.235 L 11.050 5.195 9.906 5.652 C 9.020 6.006,8.745 6.126,8.685 6.186 C 8.620 6.251,8.565 6.393,8.329 7.100 C 8.176 7.561,8.050 7.971,8.051 8.013 C 8.051 8.104,8.126 8.272,8.191 8.330 C 8.262 8.393,8.412 8.450,8.505 8.449 C 8.607 8.449,8.771 8.376,8.837 8.301 C 8.865 8.271,8.994 7.929,9.125 7.542 L 9.363 6.839 10.375 6.433 C 10.932 6.210,11.402 6.027,11.419 6.026 C 11.436 6.026,11.749 6.249,12.114 6.523 L 12.777 7.020 11.453 8.121 C 10.158 9.198,10.129 9.224,10.081 9.355 C 10.055 9.428,9.861 9.999,9.650 10.625 C 9.439 11.251,9.259 11.772,9.249 11.783 C 9.239 11.795,8.879 11.584,8.448 11.315 C 8.018 11.046,7.628 10.819,7.583 10.810 C 7.389 10.774,7.197 10.870,7.106 11.049 C 7.075 11.110,7.050 11.200,7.051 11.249 C 7.051 11.352,7.122 11.520,7.190 11.578 C 7.216 11.601,7.494 11.779,7.808 11.975 C 8.122 12.171,8.370 12.339,8.358 12.349 C 8.335 12.370,6.197 12.981,6.188 12.970 C 6.184 12.966,5.877 12.506,5.505 11.947 C 5.012 11.206,4.807 10.918,4.746 10.881 C 4.700 10.853,4.089 10.592,3.388 10.300 C 2.686 10.009,2.094 9.760,2.072 9.748 C 2.035 9.729,2.074 9.553,2.417 8.182 C 2.629 7.332,2.814 6.595,2.827 6.544 L 2.852 6.450 3.971 6.450 C 5.081 6.450,5.090 6.450,5.201 6.394 C 5.529 6.228,5.529 5.772,5.201 5.606 C 5.090 5.550,5.084 5.550,3.907 5.550 L 2.725 5.550 2.225 4.883 C 1.949 4.516,1.733 4.208,1.743 4.197 C 1.754 4.187,2.158 4.021,2.641 3.828 L 3.520 3.477 4.978 3.964 C 5.781 4.231,6.471 4.450,6.512 4.449 C 6.712 4.448,6.739 4.421,7.701 3.216 C 8.202 2.589,8.621 2.076,8.631 2.075 C 8.642 2.075,9.190 2.345,9.850 2.675 M12.441 9.686 L 12.113 11.159 11.180 11.469 C 10.667 11.640,10.241 11.774,10.233 11.767 C 10.226 11.759,10.368 11.307,10.550 10.762 L 10.881 9.771 11.821 8.987 C 12.338 8.556,12.763 8.205,12.766 8.208 C 12.768 8.210,12.622 8.875,12.441 9.686 " fill="currentColor" stroke="none" fill-rule="evenodd"></path></svg>