<svg width="15" height="15" fill="none" xmlns="http://www.w3.org/2000/svg"><path d="M7.300 0.796 C 7.163 0.853,1.553 3.472,1.325 3.586 C 1.211 3.642,1.140 3.699,1.088 3.773 L 1.012 3.879 1.006 7.442 C 1.001 9.906,1.008 11.035,1.026 11.104 C 1.083 11.314,1.023 11.283,4.288 12.808 C 7.336 14.232,7.338 14.233,7.500 14.233 C 7.662 14.233,7.664 14.232,10.713 12.808 C 13.065 11.709,13.783 11.363,13.852 11.296 C 13.906 11.244,13.953 11.165,13.971 11.098 C 13.995 11.013,14.000 10.166,13.995 7.438 L 13.988 3.888 13.928 3.792 C 13.896 3.740,13.828 3.672,13.778 3.641 C 13.728 3.610,12.328 2.951,10.667 2.176 C 8.305 1.075,7.620 0.765,7.529 0.758 C 7.454 0.753,7.372 0.766,7.300 0.796 M9.853 2.901 C 11.150 3.506,12.220 4.010,12.230 4.020 C 12.255 4.045,7.583 6.035,7.500 6.035 C 7.417 6.036,2.745 4.045,2.770 4.020 C 2.780 4.010,3.846 3.507,5.138 2.902 C 6.430 2.298,7.489 1.803,7.491 1.802 C 7.493 1.801,8.556 2.295,9.853 2.901 M6.406 6.679 L 7.000 6.931 7.000 9.943 C 7.000 12.801,6.998 12.955,6.956 12.939 C 6.932 12.931,5.808 12.409,4.457 11.780 L 2.002 10.638 2.001 7.722 L 2.000 4.806 3.906 5.616 C 4.955 6.062,6.080 6.540,6.406 6.679 M12.999 7.719 L 12.998 10.638 10.543 11.780 C 9.192 12.409,8.068 12.931,8.044 12.939 C 8.002 12.955,8.000 12.801,8.000 9.943 L 8.000 6.930 8.569 6.689 C 8.967 6.520,12.901 4.843,12.994 4.803 C 12.997 4.801,13.000 6.113,12.999 7.719 " fill="currentColor" stroke="none" fill-rule="evenodd"></path></svg>