<svg width="15" height="15" fill="none" xmlns="http://www.w3.org/2000/svg"><path d="M2.249 1.026 C 1.707 1.108,1.255 1.507,1.060 2.075 C 1.015 2.205,1.012 2.313,1.012 4.000 C 1.012 5.984,1.003 5.853,1.182 6.213 C 1.282 6.412,1.588 6.718,1.788 6.818 C 2.147 6.997,2.016 6.988,4.000 6.988 C 5.984 6.988,5.853 6.997,6.213 6.818 C 6.412 6.718,6.718 6.412,6.818 6.213 C 6.997 5.853,6.988 5.984,6.988 4.000 C 6.988 2.313,6.985 2.205,6.940 2.075 C 6.771 1.584,6.422 1.228,5.950 1.069 C 5.789 1.014,5.767 1.014,4.088 1.009 C 3.152 1.007,2.325 1.014,2.249 1.026 M9.249 1.026 C 8.707 1.108,8.255 1.507,8.060 2.075 C 8.015 2.205,8.013 2.313,8.013 4.000 C 8.013 5.984,8.003 5.853,8.182 6.213 C 8.282 6.412,8.588 6.718,8.787 6.818 C 9.147 6.997,9.016 6.988,11.000 6.988 C 12.984 6.988,12.853 6.997,13.213 6.818 C 13.412 6.718,13.718 6.412,13.818 6.213 C 13.997 5.853,13.988 5.984,13.988 4.000 C 13.988 2.313,13.985 2.205,13.940 2.075 C 13.771 1.584,13.422 1.228,12.950 1.069 C 12.789 1.014,12.767 1.014,11.088 1.009 C 10.153 1.007,9.325 1.014,9.249 1.026 M5.659 2.031 C 5.796 2.072,5.933 2.213,5.971 2.352 C 5.994 2.435,6.000 2.858,5.995 4.050 C 5.988 5.604,5.986 5.640,5.935 5.738 C 5.907 5.793,5.835 5.871,5.777 5.913 L 5.671 5.988 4.028 5.994 L 2.385 6.001 2.274 5.942 C 2.213 5.910,2.129 5.836,2.087 5.777 L 2.013 5.671 2.005 4.067 C 2.000 2.859,2.005 2.435,2.028 2.352 C 2.065 2.220,2.212 2.062,2.330 2.028 C 2.461 1.991,5.533 1.993,5.659 2.031 M12.659 2.031 C 12.796 2.072,12.933 2.213,12.971 2.352 C 12.994 2.435,13.000 2.858,12.995 4.050 C 12.988 5.604,12.986 5.640,12.935 5.738 C 12.907 5.793,12.835 5.871,12.777 5.913 L 12.671 5.988 11.028 5.994 L 9.385 6.001 9.274 5.942 C 9.213 5.910,9.129 5.836,9.088 5.777 L 9.013 5.671 9.005 4.067 C 9.000 2.859,9.005 2.435,9.028 2.352 C 9.065 2.220,9.212 2.062,9.330 2.028 C 9.461 1.991,12.533 1.993,12.659 2.031 M2.249 8.026 C 1.707 8.108,1.255 8.507,1.060 9.075 C 1.015 9.205,1.012 9.313,1.012 11.000 C 1.012 12.984,1.003 12.853,1.182 13.213 C 1.282 13.412,1.588 13.718,1.788 13.818 C 2.147 13.997,2.016 13.988,4.000 13.988 C 5.984 13.988,5.853 13.997,6.213 13.818 C 6.412 13.718,6.718 13.412,6.818 13.213 C 6.997 12.853,6.988 12.984,6.988 11.000 C 6.988 9.313,6.985 9.205,6.940 9.075 C 6.771 8.584,6.422 8.228,5.950 8.069 C 5.789 8.014,5.767 8.014,4.088 8.009 C 3.152 8.007,2.325 8.014,2.249 8.026 M9.249 8.026 C 8.707 8.108,8.255 8.507,8.060 9.075 C 8.015 9.205,8.013 9.313,8.013 11.000 C 8.013 12.984,8.003 12.853,8.182 13.213 C 8.282 13.412,8.588 13.718,8.787 13.818 C 9.147 13.997,9.016 13.988,11.000 13.988 C 12.984 13.988,12.853 13.997,13.213 13.818 C 13.519 13.665,13.808 13.311,13.940 12.925 C 13.985 12.795,13.988 12.687,13.988 11.000 C 13.988 9.313,13.985 9.205,13.940 9.075 C 13.771 8.584,13.422 8.228,12.950 8.069 C 12.789 8.014,12.767 8.014,11.088 8.009 C 10.153 8.007,9.325 8.014,9.249 8.026 M5.659 9.031 C 5.796 9.072,5.933 9.213,5.971 9.352 C 5.994 9.435,6.000 9.858,5.995 11.050 C 5.988 12.604,5.986 12.640,5.935 12.738 C 5.907 12.793,5.835 12.871,5.777 12.913 L 5.671 12.988 4.000 12.988 L 2.329 12.988 2.223 12.913 C 2.165 12.871,2.093 12.793,2.065 12.738 C 2.014 12.640,2.012 12.605,2.006 11.042 C 2.001 9.963,2.008 9.415,2.026 9.347 C 2.058 9.226,2.207 9.071,2.326 9.033 C 2.456 8.991,5.522 8.990,5.659 9.031 M12.659 9.031 C 12.796 9.072,12.933 9.213,12.971 9.352 C 12.994 9.435,13.000 9.858,12.995 11.050 C 12.988 12.604,12.986 12.640,12.935 12.738 C 12.907 12.793,12.835 12.871,12.777 12.913 L 12.671 12.988 11.028 12.994 L 9.385 13.001 9.274 12.942 C 9.213 12.910,9.129 12.836,9.088 12.777 L 9.013 12.671 9.005 11.067 C 9.000 9.859,9.005 9.435,9.028 9.352 C 9.065 9.220,9.212 9.062,9.330 9.028 C 9.461 8.991,12.533 8.993,12.659 9.031 " fill="currentColor" stroke="none" fill-rule="evenodd"></path></svg>