<svg width="15" height="15" fill="none" xmlns="http://www.w3.org/2000/svg"><path d="M0.988 2.029 C 0.537 2.115,0.125 2.530,0.028 2.995 C -0.011 3.182,-0.011 10.818,0.028 11.005 C 0.125 11.474,0.526 11.875,0.995 11.972 C 1.085 11.991,1.757 12.000,3.102 12.000 L 5.076 12.000 5.063 12.056 C 5.012 12.270,4.825 13.330,4.825 13.403 C 4.825 13.614,4.944 13.801,5.135 13.890 L 5.263 13.950 7.500 13.950 L 9.738 13.950 9.865 13.890 C 10.056 13.801,10.175 13.614,10.175 13.403 C 10.175 13.330,9.988 12.270,9.937 12.056 L 9.924 12.000 11.898 12.000 C 13.243 12.000,13.915 11.991,14.005 11.972 C 14.474 11.875,14.875 11.474,14.972 11.005 C 15.011 10.818,15.011 3.182,14.972 2.995 C 14.873 2.519,14.461 2.113,13.989 2.027 C 13.797 1.992,1.173 1.994,0.988 2.029 M13.863 3.030 C 14.008 3.096,14.000 2.866,14.000 7.000 C 14.000 11.134,14.008 10.904,13.863 10.970 C 13.768 11.014,1.232 11.014,1.137 10.970 C 0.992 10.904,1.000 11.135,1.001 6.995 C 1.002 2.904,0.995 3.108,1.128 3.035 C 1.211 2.989,13.762 2.984,13.863 3.030 M9.105 12.500 C 9.156 12.768,9.198 13.002,9.199 13.019 C 9.200 13.043,8.844 13.050,7.500 13.050 C 6.565 13.050,5.800 13.042,5.800 13.033 C 5.800 13.004,5.976 12.065,5.988 12.031 C 5.996 12.006,6.313 12.001,7.505 12.006 L 9.012 12.013 9.105 12.500 " fill="currentColor" stroke="none" fill-rule="evenodd"></path></svg>