<svg width="15" height="15" fill="none" xmlns="http://www.w3.org/2000/svg"><path d="M2.533 0.117 C 2.064 0.473,0.981 1.326,0.950 1.362 C 0.897 1.427,0.904 1.585,0.963 1.651 C 1.045 1.741,2.555 2.908,2.654 2.957 C 2.736 2.998,2.753 2.999,2.832 2.967 C 2.988 2.901,3.000 2.862,3.000 2.407 L 3.000 2.000 6.000 2.000 L 9.000 2.000 9.000 2.412 L 9.000 2.824 9.070 2.903 C 9.128 2.967,9.160 2.982,9.244 2.982 C 9.341 2.982,9.398 2.942,10.172 2.338 C 10.626 1.985,11.017 1.673,11.042 1.646 C 11.096 1.585,11.101 1.424,11.050 1.362 C 11.016 1.322,9.538 0.161,9.401 0.067 C 9.301 -0.001,9.159 0.012,9.073 0.098 L 9.000 0.171 9.000 0.586 L 9.000 1.000 6.000 1.000 L 3.000 1.000 3.000 0.586 L 3.000 0.171 2.927 0.098 C 2.819 -0.010,2.691 -0.004,2.533 0.117 M13.435 3.918 C 13.406 3.923,13.353 3.958,13.318 3.995 C 13.180 4.141,12.066 5.592,12.034 5.669 C 12.004 5.738,12.005 5.762,12.035 5.834 C 12.099 5.988,12.139 6.000,12.593 6.000 L 13.000 6.000 13.000 9.000 L 13.000 12.000 12.588 12.000 L 12.176 12.000 12.097 12.070 C 12.036 12.125,12.018 12.162,12.016 12.240 C 12.014 12.334,12.052 12.389,12.654 13.164 C 13.006 13.617,13.319 14.010,13.349 14.037 C 13.384 14.068,13.440 14.086,13.500 14.086 C 13.560 14.086,13.616 14.068,13.651 14.037 C 13.740 13.957,14.907 12.446,14.957 12.346 C 14.998 12.264,14.999 12.247,14.967 12.168 C 14.901 12.012,14.862 12.000,14.407 12.000 L 14.000 12.000 14.000 9.000 L 14.000 6.000 14.412 6.000 L 14.824 6.000 14.903 5.930 C 14.967 5.872,14.982 5.840,14.982 5.757 C 14.982 5.660,14.941 5.601,14.344 4.833 C 13.993 4.382,13.685 3.994,13.659 3.972 C 13.606 3.926,13.512 3.903,13.435 3.918 M2.175 4.039 C 1.902 4.098,1.663 4.233,1.449 4.448 C 1.233 4.666,1.121 4.859,1.049 5.140 C 1.001 5.328,1.000 5.430,1.000 9.000 C 1.000 12.570,1.001 12.672,1.049 12.860 C 1.122 13.143,1.233 13.334,1.449 13.551 C 1.666 13.767,1.857 13.878,2.140 13.951 C 2.328 13.999,2.430 14.000,6.000 14.000 C 9.570 14.000,9.672 13.999,9.860 13.951 C 10.143 13.878,10.334 13.767,10.551 13.551 C 10.767 13.334,10.878 13.143,10.951 12.860 C 10.999 12.672,11.000 12.570,11.000 9.000 C 11.000 5.430,10.999 5.328,10.951 5.140 C 10.879 4.859,10.767 4.666,10.551 4.448 C 10.334 4.229,10.096 4.097,9.813 4.038 C 9.557 3.984,2.424 3.985,2.175 4.039 M9.758 5.072 C 9.810 5.104,9.884 5.177,9.920 5.233 L 9.988 5.334 9.988 8.998 L 9.988 12.663 9.928 12.758 C 9.896 12.810,9.823 12.884,9.767 12.920 L 9.666 12.988 6.000 12.988 L 2.334 12.988 2.233 12.920 C 2.177 12.884,2.104 12.810,2.072 12.758 L 2.013 12.663 2.006 9.054 C 2.001 6.558,2.008 5.415,2.026 5.346 C 2.058 5.226,2.216 5.061,2.330 5.028 C 2.381 5.013,3.795 5.006,6.038 5.008 L 9.663 5.013 9.758 5.072 " fill="currentColor" stroke="none" fill-rule="evenodd"></path></svg>