<svg width="15" height="15" fill="none" xmlns="http://www.w3.org/2000/svg"><path d="M4.667 1.863 C 3.914 2.005,2.914 2.349,2.220 2.704 C 1.998 2.818,1.965 2.845,1.843 3.008 C 1.244 3.812,0.664 5.392,0.365 7.038 C 0.167 8.131,0.025 9.565,0.025 10.483 C 0.025 10.804,0.028 10.823,0.100 10.966 C 0.307 11.381,0.941 11.974,1.613 12.382 C 2.304 12.801,3.149 13.126,3.654 13.167 C 4.003 13.195,4.092 13.111,4.699 12.191 L 4.960 11.795 5.061 11.812 C 5.828 11.938,6.678 11.985,7.838 11.967 C 8.740 11.953,9.147 11.926,9.759 11.836 C 9.909 11.814,10.039 11.805,10.049 11.817 C 10.059 11.828,10.197 12.034,10.355 12.275 C 10.909 13.116,10.996 13.195,11.346 13.167 C 12.048 13.110,13.241 12.559,14.035 11.926 C 14.425 11.615,14.829 11.151,14.938 10.889 C 14.983 10.783,14.987 10.392,14.949 9.768 C 14.863 8.318,14.667 6.971,14.384 5.900 C 14.048 4.624,13.438 3.256,13.034 2.870 C 12.886 2.728,12.171 2.403,11.513 2.179 C 10.994 2.002,10.235 1.825,9.995 1.825 C 9.866 1.825,9.643 1.906,9.488 2.009 C 9.220 2.189,8.841 2.630,8.648 2.990 L 8.609 3.064 8.286 3.042 C 8.108 3.031,7.606 3.027,7.170 3.034 L 6.378 3.047 6.298 2.905 C 6.166 2.667,5.985 2.440,5.754 2.220 C 5.378 1.863,5.121 1.778,4.667 1.863 M5.170 2.990 C 5.271 3.094,5.350 3.183,5.346 3.188 C 5.341 3.192,5.203 3.226,5.038 3.262 C 4.657 3.346,4.127 3.524,3.865 3.655 C 3.465 3.856,3.141 4.120,3.061 4.313 C 2.939 4.604,3.137 4.939,3.448 4.969 C 3.621 4.986,3.730 4.941,3.889 4.785 C 4.271 4.412,5.246 4.121,6.425 4.027 C 7.916 3.909,9.445 4.040,10.355 4.365 C 10.660 4.474,10.970 4.647,11.116 4.790 C 11.271 4.941,11.380 4.986,11.552 4.969 C 11.863 4.939,12.061 4.604,11.939 4.313 C 11.859 4.120,11.535 3.856,11.135 3.655 C 10.873 3.524,10.343 3.346,9.963 3.262 C 9.797 3.226,9.659 3.192,9.654 3.188 C 9.650 3.183,9.727 3.094,9.826 2.990 C 9.957 2.852,10.023 2.800,10.069 2.800 C 10.176 2.800,10.691 2.924,11.021 3.030 C 11.415 3.156,11.812 3.309,12.139 3.461 C 12.373 3.570,12.398 3.588,12.485 3.720 C 12.536 3.799,12.655 4.020,12.749 4.213 C 13.473 5.694,13.888 7.647,13.998 10.088 L 14.019 10.563 13.959 10.653 C 13.801 10.888,13.296 11.313,12.865 11.573 C 12.425 11.839,11.562 12.204,11.464 12.166 C 11.431 12.154,11.014 11.552,11.029 11.539 C 11.034 11.534,11.126 11.496,11.234 11.452 C 11.495 11.349,11.717 11.222,11.957 11.041 C 12.174 10.878,12.444 10.579,12.524 10.414 C 12.673 10.107,12.476 9.758,12.138 9.730 C 11.955 9.715,11.807 9.788,11.688 9.950 C 11.554 10.132,11.319 10.338,11.118 10.449 C 10.775 10.638,10.193 10.803,9.537 10.897 C 8.906 10.988,8.494 11.011,7.500 11.011 C 6.506 11.011,6.094 10.988,5.463 10.897 C 4.807 10.803,4.225 10.638,3.882 10.449 C 3.681 10.338,3.446 10.132,3.312 9.950 C 3.009 9.537,2.389 9.740,2.430 10.238 C 2.460 10.596,3.061 11.156,3.707 11.427 C 3.847 11.487,3.966 11.538,3.971 11.541 C 3.987 11.551,3.565 12.155,3.534 12.167 C 3.480 12.188,2.908 11.980,2.608 11.831 C 2.064 11.560,1.693 11.308,1.337 10.970 C 1.211 10.850,1.079 10.709,1.043 10.657 L 0.978 10.563 1.002 10.038 C 1.066 8.648,1.269 7.183,1.540 6.150 C 1.771 5.267,2.175 4.255,2.502 3.737 C 2.596 3.588,2.609 3.578,2.869 3.457 C 3.361 3.226,4.061 2.983,4.576 2.864 C 4.972 2.772,4.958 2.770,5.170 2.990 M4.716 6.640 C 4.383 6.720,4.043 6.986,3.881 7.292 C 3.445 8.116,3.856 9.138,4.714 9.362 C 5.240 9.499,5.851 9.215,6.119 8.708 C 6.422 8.136,6.327 7.427,5.887 6.988 C 5.567 6.667,5.134 6.538,4.716 6.640 M9.716 6.640 C 9.383 6.720,9.043 6.986,8.881 7.292 C 8.445 8.116,8.856 9.138,9.714 9.362 C 10.240 9.499,10.851 9.215,11.119 8.708 C 11.422 8.136,11.327 7.427,10.887 6.988 C 10.567 6.667,10.134 6.538,9.716 6.640 " fill="currentColor" stroke="none" fill-rule="evenodd"></path></svg>