<svg width="15" height="15" fill="none" xmlns="http://www.w3.org/2000/svg"><path d="M7.342 2.024 C 7.227 2.061,7.109 2.166,7.053 2.282 L 7.000 2.391 7.000 7.504 L 7.000 12.617 7.058 12.727 C 7.090 12.788,7.164 12.871,7.223 12.913 C 7.316 12.978,7.351 12.988,7.498 12.988 C 7.639 12.988,7.683 12.977,7.767 12.920 C 7.823 12.884,7.896 12.810,7.928 12.758 L 7.988 12.663 7.988 7.500 L 7.988 2.337 7.928 2.242 C 7.843 2.106,7.708 2.024,7.546 2.012 C 7.473 2.006,7.381 2.012,7.342 2.024 " fill="currentColor" stroke="none" fill-rule="evenodd"></path></svg>