<svg width="15" height="15" fill="none" xmlns="http://www.w3.org/2000/svg"><path d="M7.086 4.911 C 6.717 4.969,6.395 5.094,6.068 5.307 C 5.520 5.664,5.127 6.207,4.958 6.839 C 4.900 7.057,4.891 7.136,4.890 7.488 C 4.889 7.818,4.898 7.924,4.943 8.100 C 5.193 9.089,5.912 9.808,6.900 10.057 C 7.204 10.134,7.796 10.134,8.100 10.057 C 8.668 9.914,9.144 9.620,9.508 9.187 C 10.194 8.372,10.318 7.214,9.821 6.275 C 9.296 5.286,8.199 4.738,7.086 4.911 M7.950 5.939 C 8.468 6.093,8.907 6.536,9.066 7.063 C 9.128 7.270,9.128 7.730,9.066 7.938 C 8.936 8.367,8.612 8.757,8.225 8.947 C 7.744 9.183,7.256 9.183,6.775 8.947 C 6.388 8.757,6.064 8.367,5.934 7.938 C 5.872 7.730,5.872 7.270,5.934 7.063 C 6.110 6.477,6.627 6.005,7.203 5.901 C 7.385 5.869,7.782 5.889,7.950 5.939 " fill="currentColor" stroke="none" fill-rule="evenodd"></path></svg>