<svg width="15" height="15" fill="none" xmlns="http://www.w3.org/2000/svg"><path d="M2.238 6.410 C 1.938 6.483,1.626 6.727,1.500 6.987 C 1.336 7.327,1.337 7.673,1.502 8.019 C 1.576 8.171,1.829 8.424,1.981 8.498 C 2.448 8.721,2.934 8.644,3.289 8.289 C 3.723 7.855,3.738 7.194,3.323 6.740 C 3.057 6.449,2.621 6.316,2.238 6.410 M7.238 6.410 C 6.938 6.483,6.626 6.727,6.500 6.987 C 6.336 7.327,6.337 7.673,6.502 8.019 C 6.576 8.171,6.829 8.424,6.981 8.498 C 7.448 8.721,7.934 8.644,8.289 8.289 C 8.723 7.855,8.738 7.194,8.323 6.740 C 8.057 6.449,7.621 6.316,7.238 6.410 M12.238 6.410 C 11.938 6.483,11.626 6.727,11.500 6.987 C 11.336 7.327,11.337 7.673,11.502 8.019 C 11.576 8.171,11.829 8.424,11.981 8.498 C 12.448 8.721,12.934 8.644,13.289 8.289 C 13.723 7.855,13.738 7.194,13.323 6.740 C 13.057 6.449,12.621 6.316,12.238 6.410 " fill="currentColor" stroke="none" fill-rule="evenodd"></path></svg>