<svg width="15" height="15" fill="none" xmlns="http://www.w3.org/2000/svg"><path d="M7.238 1.410 C 6.938 1.483,6.626 1.727,6.500 1.987 C 6.336 2.327,6.337 2.673,6.502 3.019 C 6.576 3.171,6.829 3.424,6.981 3.498 C 7.448 3.721,7.934 3.644,8.289 3.289 C 8.723 2.855,8.738 2.194,8.323 1.740 C 8.057 1.449,7.621 1.316,7.238 1.410 M7.238 6.410 C 6.938 6.483,6.626 6.727,6.500 6.987 C 6.336 7.327,6.337 7.673,6.502 8.019 C 6.576 8.171,6.829 8.424,6.981 8.498 C 7.448 8.721,7.934 8.644,8.289 8.289 C 8.723 7.855,8.738 7.194,8.323 6.740 C 8.057 6.449,7.621 6.316,7.238 6.410 M7.238 11.410 C 6.938 11.483,6.626 11.727,6.500 11.987 C 6.336 12.327,6.337 12.673,6.502 13.019 C 6.576 13.171,6.829 13.424,6.981 13.498 C 7.448 13.721,7.934 13.644,8.289 13.289 C 8.723 12.855,8.738 12.194,8.323 11.740 C 8.057 11.449,7.621 11.316,7.238 11.410 " fill="currentColor" stroke="none" fill-rule="evenodd"></path></svg>