<svg width="15" height="15" fill="none" xmlns="http://www.w3.org/2000/svg"><path d="M7.364 2.017 C 7.337 2.024,7.275 2.056,7.226 2.088 C 7.177 2.120,6.219 3.066,5.096 4.191 C 3.226 6.065,3.051 6.247,3.024 6.350 C 2.920 6.748,3.252 7.080,3.650 6.976 C 3.753 6.949,3.922 6.786,5.631 5.080 L 7.500 3.213 9.369 5.080 C 11.078 6.786,11.247 6.949,11.350 6.976 C 11.748 7.080,12.080 6.748,11.976 6.350 C 11.949 6.247,11.774 6.065,9.904 4.191 C 8.781 3.066,7.819 2.117,7.766 2.083 C 7.669 2.021,7.467 1.987,7.364 2.017 M7.364 8.017 C 7.337 8.024,7.275 8.056,7.226 8.088 C 7.177 8.120,6.219 9.066,5.096 10.191 C 3.226 12.065,3.051 12.247,3.024 12.350 C 2.920 12.748,3.252 13.080,3.650 12.976 C 3.753 12.949,3.922 12.786,5.631 11.080 L 7.500 9.213 9.369 11.080 C 11.078 12.786,11.247 12.949,11.350 12.976 C 11.748 13.080,12.080 12.748,11.976 12.350 C 11.949 12.247,11.774 12.065,9.904 10.191 C 8.781 9.066,7.819 8.117,7.766 8.083 C 7.669 8.021,7.467 7.987,7.364 8.017 " fill="currentColor" stroke="none" fill-rule="evenodd"></path></svg>