<svg width="15" height="15" fill="none" xmlns="http://www.w3.org/2000/svg"><path d="M6.363 3.017 C 6.335 3.025,6.268 3.063,6.213 3.101 C 6.158 3.140,5.199 4.086,4.083 5.204 C 2.225 7.066,2.051 7.247,2.024 7.350 C 1.988 7.487,2.009 7.655,2.074 7.759 C 2.101 7.802,3.048 8.762,4.180 9.892 C 6.064 11.773,6.247 11.949,6.350 11.976 C 6.748 12.080,7.080 11.748,6.976 11.350 C 6.949 11.247,6.786 11.078,5.080 9.369 L 3.213 7.500 5.080 5.631 C 6.786 3.922,6.949 3.753,6.976 3.650 C 7.060 3.331,6.858 3.034,6.541 3.012 C 6.470 3.007,6.390 3.009,6.363 3.017 M12.363 3.017 C 12.335 3.025,12.268 3.063,12.213 3.101 C 12.158 3.140,11.199 4.086,10.083 5.204 C 8.225 7.066,8.051 7.247,8.024 7.350 C 7.988 7.487,8.009 7.655,8.074 7.759 C 8.101 7.802,9.048 8.762,10.180 9.892 C 12.064 11.773,12.247 11.949,12.350 11.976 C 12.748 12.080,13.080 11.748,12.976 11.350 C 12.949 11.247,12.786 11.078,11.080 9.369 L 9.213 7.500 11.080 5.631 C 12.786 3.922,12.949 3.753,12.976 3.650 C 13.060 3.331,12.858 3.034,12.541 3.012 C 12.470 3.007,12.390 3.009,12.363 3.017 " fill="currentColor" stroke="none" fill-rule="evenodd"></path></svg>