<svg width="15" height="15" fill="none" xmlns="http://www.w3.org/2000/svg"><path d="M3.364 2.017 C 3.274 2.042,3.125 2.156,3.075 2.238 C 3.009 2.345,2.988 2.512,3.024 2.650 C 3.051 2.753,3.227 2.936,5.108 4.820 C 6.238 5.952,7.202 6.902,7.250 6.932 C 7.317 6.975,7.376 6.988,7.500 6.988 C 7.624 6.988,7.683 6.975,7.750 6.932 C 7.798 6.902,8.762 5.952,9.892 4.820 C 11.773 2.936,11.949 2.753,11.976 2.650 C 12.036 2.422,11.960 2.214,11.769 2.085 C 11.679 2.025,11.637 2.013,11.500 2.013 C 11.369 2.013,11.320 2.024,11.250 2.072 C 11.202 2.105,10.338 2.955,9.331 3.960 L 7.500 5.787 5.669 3.960 C 4.662 2.955,3.801 2.107,3.756 2.077 C 3.674 2.021,3.463 1.989,3.364 2.017 M3.364 8.017 C 3.274 8.042,3.125 8.156,3.075 8.238 C 3.009 8.345,2.988 8.512,3.024 8.650 C 3.051 8.753,3.227 8.936,5.108 10.820 C 6.238 11.952,7.202 12.902,7.250 12.932 C 7.317 12.975,7.376 12.988,7.500 12.988 C 7.624 12.988,7.683 12.975,7.750 12.932 C 7.798 12.902,8.762 11.952,9.892 10.820 C 11.773 8.936,11.949 8.753,11.976 8.650 C 12.036 8.422,11.960 8.214,11.769 8.085 C 11.679 8.025,11.637 8.013,11.500 8.013 C 11.369 8.013,11.320 8.024,11.250 8.072 C 11.202 8.105,10.338 8.955,9.331 9.960 L 7.500 11.787 5.669 9.960 C 4.662 8.955,3.801 8.107,3.756 8.077 C 3.674 8.021,3.463 7.989,3.364 8.017 " fill="currentColor" stroke="none" fill-rule="evenodd"></path></svg>