<svg width="15" height="15" fill="none" xmlns="http://www.w3.org/2000/svg"><path d="M2.364 3.017 C 2.274 3.042,2.125 3.156,2.075 3.238 C 2.009 3.345,1.988 3.512,2.024 3.650 C 2.051 3.753,2.214 3.922,3.920 5.631 L 5.787 7.500 3.920 9.369 C 2.214 11.078,2.051 11.247,2.024 11.350 C 1.920 11.748,2.252 12.080,2.650 11.976 C 2.753 11.949,2.936 11.773,4.820 9.892 C 5.952 8.762,6.899 7.802,6.926 7.759 C 6.991 7.655,7.012 7.487,6.976 7.350 C 6.949 7.247,6.775 7.066,4.917 5.204 C 3.801 4.086,2.839 3.137,2.780 3.096 C 2.673 3.021,2.479 2.984,2.364 3.017 M8.364 3.017 C 8.274 3.042,8.125 3.156,8.075 3.238 C 8.009 3.345,7.988 3.512,8.024 3.650 C 8.051 3.753,8.214 3.922,9.920 5.631 L 11.787 7.500 9.920 9.369 C 8.214 11.078,8.051 11.247,8.024 11.350 C 7.920 11.748,8.252 12.080,8.650 11.976 C 8.753 11.949,8.936 11.773,10.820 9.892 C 11.952 8.762,12.899 7.802,12.926 7.759 C 12.991 7.655,13.012 7.487,12.976 7.350 C 12.949 7.247,12.775 7.066,10.917 5.204 C 9.801 4.086,8.839 3.137,8.780 3.096 C 8.673 3.021,8.479 2.984,8.364 3.017 " fill="currentColor" stroke="none" fill-rule="evenodd"></path></svg>