<svg width="15" height="15" fill="none" xmlns="http://www.w3.org/2000/svg"><path d="M7.313 1.097 C 7.194 1.152,7.140 1.207,7.088 1.331 C 7.054 1.413,7.050 1.830,7.050 4.918 L 7.050 8.412 5.906 7.271 C 5.277 6.643,4.726 6.112,4.682 6.090 C 4.508 6.003,4.238 6.067,4.128 6.221 C 4.058 6.320,4.030 6.466,4.057 6.600 C 4.078 6.707,4.162 6.796,5.646 8.284 C 6.712 9.353,7.244 9.870,7.313 9.902 C 7.439 9.962,7.561 9.962,7.688 9.902 C 7.756 9.870,8.288 9.353,9.354 8.284 C 10.838 6.796,10.922 6.707,10.943 6.600 C 10.970 6.466,10.942 6.320,10.872 6.221 C 10.762 6.067,10.492 6.003,10.318 6.090 C 10.274 6.112,9.723 6.643,9.094 7.271 L 7.950 8.412 7.949 4.912 C 7.949 1.570,7.947 1.408,7.903 1.313 C 7.848 1.194,7.793 1.140,7.669 1.088 C 7.548 1.038,7.435 1.041,7.313 1.097 M2.342 10.024 C 2.226 10.061,2.108 10.167,2.051 10.286 C 1.997 10.396,1.997 10.414,2.005 11.380 L 2.014 12.363 2.084 12.575 C 2.303 13.239,2.757 13.694,3.425 13.917 L 3.638 13.988 7.388 13.995 C 9.920 13.999,11.193 13.993,11.308 13.975 C 12.060 13.859,12.664 13.333,12.916 12.575 L 12.987 12.363 12.987 11.348 L 12.988 10.334 12.920 10.233 C 12.817 10.076,12.695 10.013,12.500 10.013 C 12.305 10.013,12.183 10.076,12.080 10.232 L 12.013 10.334 12.000 11.287 L 11.988 12.240 11.893 12.431 C 11.752 12.717,11.519 12.905,11.220 12.974 C 11.152 12.990,9.788 12.999,7.486 12.999 C 3.489 13.000,3.727 13.009,3.470 12.846 C 3.307 12.743,3.183 12.598,3.091 12.403 L 3.013 12.238 3.000 11.288 C 2.988 10.341,2.987 10.337,2.928 10.242 C 2.843 10.106,2.708 10.024,2.546 10.012 C 2.473 10.006,2.381 10.012,2.342 10.024 " fill="currentColor" stroke="none" fill-rule="evenodd"></path></svg>