<svg width="15" height="15" fill="none" xmlns="http://www.w3.org/2000/svg"><path d="M2.331 4.141 C 2.089 4.261,2.027 4.562,2.204 4.763 C 2.245 4.810,2.321 4.861,2.371 4.876 C 2.434 4.894,4.033 4.900,7.554 4.895 L 12.646 4.888 12.715 4.836 C 12.824 4.755,12.880 4.665,12.893 4.546 C 12.909 4.401,12.855 4.275,12.736 4.185 L 12.641 4.112 7.527 4.107 C 2.856 4.101,2.405 4.104,2.331 4.141 M2.331 6.141 C 2.089 6.261,2.027 6.562,2.204 6.763 C 2.245 6.810,2.321 6.861,2.371 6.876 C 2.434 6.894,4.033 6.900,7.554 6.895 L 12.646 6.888 12.715 6.836 C 12.824 6.755,12.880 6.665,12.893 6.546 C 12.909 6.401,12.855 6.275,12.736 6.185 L 12.641 6.113 7.527 6.107 C 2.856 6.101,2.405 6.104,2.331 6.141 M2.331 8.141 C 2.089 8.261,2.027 8.562,2.204 8.763 C 2.245 8.810,2.321 8.861,2.371 8.876 C 2.434 8.894,4.033 8.900,7.554 8.895 L 12.646 8.888 12.715 8.836 C 12.824 8.755,12.880 8.665,12.893 8.546 C 12.909 8.401,12.855 8.275,12.736 8.185 L 12.641 8.113 7.527 8.107 C 2.856 8.101,2.405 8.104,2.331 8.141 M2.331 10.141 C 2.089 10.261,2.027 10.562,2.204 10.763 C 2.245 10.810,2.321 10.861,2.371 10.876 C 2.434 10.894,4.033 10.900,7.554 10.895 L 12.646 10.888 12.715 10.836 C 12.824 10.755,12.880 10.665,12.893 10.546 C 12.909 10.401,12.855 10.275,12.736 10.185 L 12.641 10.113 7.527 10.107 C 2.856 10.101,2.405 10.104,2.331 10.141 " fill="currentColor" stroke="none" fill-rule="evenodd"></path></svg>