<svg width="15" height="15" fill="none" xmlns="http://www.w3.org/2000/svg"><path d="M4.338 2.138 C 4.220 2.201,4.151 2.277,4.123 2.374 C 4.106 2.433,4.100 4.124,4.105 7.554 L 4.112 12.646 4.164 12.715 C 4.262 12.847,4.342 12.888,4.500 12.888 C 4.658 12.888,4.738 12.847,4.836 12.715 L 4.888 12.646 4.894 7.535 C 4.899 3.199,4.895 2.412,4.865 2.340 C 4.786 2.151,4.509 2.045,4.338 2.138 M6.338 2.138 C 6.220 2.201,6.151 2.277,6.123 2.374 C 6.106 2.433,6.100 4.124,6.105 7.554 L 6.113 12.646 6.164 12.715 C 6.262 12.847,6.342 12.888,6.500 12.888 C 6.658 12.888,6.738 12.847,6.836 12.715 L 6.888 12.646 6.894 7.535 C 6.899 3.199,6.895 2.412,6.865 2.340 C 6.786 2.151,6.509 2.045,6.338 2.138 M8.338 2.138 C 8.220 2.201,8.151 2.277,8.123 2.374 C 8.106 2.433,8.100 4.124,8.105 7.554 L 8.113 12.646 8.164 12.715 C 8.262 12.847,8.342 12.888,8.500 12.888 C 8.658 12.888,8.738 12.847,8.836 12.715 L 8.888 12.646 8.894 7.535 C 8.899 3.199,8.895 2.412,8.865 2.340 C 8.786 2.151,8.509 2.045,8.338 2.138 M10.338 2.138 C 10.220 2.201,10.151 2.277,10.123 2.374 C 10.106 2.433,10.100 4.124,10.105 7.554 L 10.113 12.646 10.164 12.715 C 10.262 12.847,10.342 12.888,10.500 12.888 C 10.658 12.888,10.738 12.847,10.836 12.715 L 10.888 12.646 10.894 7.535 C 10.899 3.199,10.895 2.412,10.865 2.340 C 10.786 2.151,10.509 2.045,10.338 2.138 " fill="currentColor" stroke="none" fill-rule="evenodd"></path></svg>