<svg width="15" height="15" fill="none" xmlns="http://www.w3.org/2000/svg"><path d="M4.319 1.930 C 4.267 1.944,4.170 2.005,4.102 2.065 C 3.841 2.300,3.832 2.675,4.082 2.920 C 4.325 3.158,4.675 3.158,4.918 2.920 C 5.167 2.675,5.159 2.300,4.899 2.066 C 4.729 1.913,4.544 1.870,4.319 1.930 M6.319 1.930 C 6.267 1.944,6.170 2.005,6.102 2.065 C 5.841 2.300,5.832 2.675,6.082 2.920 C 6.325 3.158,6.675 3.158,6.918 2.920 C 7.167 2.675,7.159 2.300,6.899 2.066 C 6.729 1.913,6.544 1.870,6.319 1.930 M8.304 1.930 C 8.259 1.946,8.167 2.007,8.100 2.067 C 7.841 2.300,7.833 2.676,8.082 2.920 C 8.331 3.163,8.666 3.161,8.913 2.913 C 9.089 2.738,9.139 2.549,9.071 2.321 C 9.033 2.195,8.896 2.037,8.768 1.971 C 8.648 1.910,8.422 1.890,8.304 1.930 M10.304 1.930 C 10.259 1.946,10.167 2.007,10.100 2.067 C 9.841 2.300,9.833 2.676,10.082 2.920 C 10.331 3.163,10.666 3.161,10.913 2.913 C 11.089 2.738,11.139 2.549,11.071 2.321 C 11.033 2.195,10.896 2.037,10.768 1.971 C 10.648 1.910,10.422 1.890,10.304 1.930 M4.319 3.930 C 4.267 3.944,4.170 4.005,4.102 4.065 C 3.970 4.184,3.900 4.335,3.900 4.500 C 3.900 4.815,4.185 5.100,4.500 5.100 C 4.815 5.100,5.100 4.815,5.100 4.500 C 5.100 4.335,5.030 4.184,4.899 4.066 C 4.729 3.913,4.544 3.870,4.319 3.930 M6.319 3.930 C 6.267 3.944,6.170 4.005,6.102 4.065 C 5.970 4.184,5.900 4.335,5.900 4.500 C 5.900 4.815,6.185 5.100,6.500 5.100 C 6.815 5.100,7.100 4.815,7.100 4.500 C 7.100 4.335,7.030 4.184,6.899 4.066 C 6.729 3.913,6.544 3.870,6.319 3.930 M8.304 3.930 C 8.259 3.946,8.167 4.007,8.100 4.067 C 7.841 4.300,7.833 4.676,8.082 4.920 C 8.331 5.163,8.666 5.161,8.913 4.913 C 9.089 4.738,9.139 4.549,9.071 4.321 C 9.033 4.195,8.896 4.037,8.768 3.971 C 8.648 3.910,8.422 3.890,8.304 3.930 M10.304 3.930 C 10.259 3.946,10.167 4.007,10.100 4.067 C 9.841 4.300,9.833 4.676,10.082 4.920 C 10.331 5.163,10.666 5.161,10.913 4.913 C 11.089 4.738,11.139 4.549,11.071 4.321 C 11.033 4.195,10.896 4.037,10.768 3.971 C 10.648 3.910,10.422 3.890,10.304 3.930 M4.304 5.932 C 4.259 5.946,4.167 6.007,4.100 6.067 C 3.919 6.230,3.860 6.446,3.930 6.685 C 3.971 6.822,4.178 7.029,4.315 7.070 C 4.550 7.139,4.737 7.090,4.913 6.913 C 5.169 6.657,5.164 6.304,4.900 6.068 C 4.726 5.911,4.518 5.863,4.304 5.932 M6.304 5.932 C 6.259 5.946,6.167 6.007,6.100 6.067 C 5.919 6.230,5.860 6.446,5.930 6.685 C 5.971 6.822,6.178 7.029,6.315 7.070 C 6.550 7.139,6.737 7.090,6.913 6.913 C 7.169 6.657,7.164 6.304,6.900 6.068 C 6.726 5.911,6.518 5.863,6.304 5.932 M8.304 5.932 C 8.259 5.946,8.167 6.007,8.100 6.067 C 7.833 6.307,7.833 6.692,8.100 6.932 C 8.276 7.091,8.463 7.135,8.685 7.070 C 8.822 7.029,9.029 6.822,9.070 6.685 C 9.139 6.450,9.090 6.263,8.913 6.087 C 8.738 5.912,8.531 5.859,8.304 5.932 M10.304 5.932 C 10.259 5.946,10.167 6.007,10.100 6.067 C 9.833 6.307,9.833 6.692,10.100 6.932 C 10.276 7.091,10.463 7.135,10.685 7.070 C 10.822 7.029,11.029 6.822,11.070 6.685 C 11.139 6.450,11.090 6.263,10.913 6.087 C 10.738 5.912,10.531 5.859,10.304 5.932 M4.304 7.932 C 4.259 7.946,4.167 8.007,4.100 8.067 C 3.919 8.230,3.860 8.446,3.930 8.685 C 3.971 8.822,4.178 9.029,4.315 9.070 C 4.550 9.139,4.737 9.090,4.913 8.913 C 5.169 8.657,5.164 8.304,4.900 8.068 C 4.726 7.911,4.518 7.863,4.304 7.932 M6.304 7.932 C 6.259 7.946,6.167 8.007,6.100 8.067 C 5.919 8.230,5.860 8.446,5.930 8.685 C 5.971 8.822,6.178 9.029,6.315 9.070 C 6.550 9.139,6.737 9.090,6.913 8.913 C 7.169 8.657,7.164 8.304,6.900 8.068 C 6.726 7.911,6.518 7.863,6.304 7.932 M8.304 7.932 C 8.259 7.946,8.167 8.007,8.100 8.067 C 7.833 8.307,7.833 8.692,8.100 8.932 C 8.276 9.091,8.463 9.135,8.685 9.070 C 8.822 9.029,9.029 8.822,9.070 8.685 C 9.139 8.450,9.090 8.263,8.913 8.087 C 8.738 7.912,8.531 7.859,8.304 7.932 M10.304 7.932 C 10.259 7.946,10.167 8.007,10.100 8.067 C 9.833 8.307,9.833 8.692,10.100 8.932 C 10.276 9.091,10.463 9.135,10.685 9.070 C 10.822 9.029,11.029 8.822,11.070 8.685 C 11.139 8.450,11.090 8.263,10.913 8.087 C 10.738 7.912,10.531 7.859,10.304 7.932 M4.304 9.932 C 4.259 9.946,4.167 10.007,4.100 10.067 C 3.919 10.230,3.860 10.446,3.930 10.685 C 3.971 10.822,4.178 11.029,4.315 11.070 C 4.550 11.139,4.737 11.090,4.913 10.913 C 5.169 10.657,5.164 10.304,4.900 10.068 C 4.726 9.911,4.518 9.863,4.304 9.932 M6.304 9.932 C 6.259 9.946,6.167 10.007,6.100 10.067 C 5.919 10.230,5.860 10.446,5.930 10.685 C 5.971 10.822,6.178 11.029,6.315 11.070 C 6.550 11.139,6.737 11.090,6.913 10.913 C 7.169 10.657,7.164 10.304,6.900 10.068 C 6.726 9.911,6.518 9.863,6.304 9.932 M8.296 9.935 C 7.871 10.087,7.764 10.631,8.100 10.932 C 8.358 11.165,8.669 11.158,8.913 10.913 C 9.169 10.657,9.164 10.304,8.900 10.068 C 8.722 9.907,8.506 9.860,8.296 9.935 M10.296 9.935 C 9.871 10.087,9.764 10.631,10.100 10.932 C 10.358 11.165,10.669 11.158,10.913 10.913 C 11.169 10.657,11.164 10.304,10.900 10.068 C 10.722 9.907,10.506 9.860,10.296 9.935 M4.304 11.932 C 4.259 11.946,4.167 12.007,4.100 12.067 C 3.919 12.230,3.860 12.446,3.930 12.685 C 3.971 12.822,4.178 13.029,4.315 13.070 C 4.550 13.139,4.737 13.090,4.913 12.913 C 5.169 12.657,5.164 12.304,4.900 12.068 C 4.726 11.911,4.518 11.863,4.304 11.932 M6.304 11.932 C 6.259 11.946,6.167 12.007,6.100 12.067 C 5.919 12.230,5.860 12.446,5.930 12.685 C 5.971 12.822,6.178 13.029,6.315 13.070 C 6.550 13.139,6.737 13.090,6.913 12.913 C 7.169 12.657,7.164 12.304,6.900 12.068 C 6.726 11.911,6.518 11.863,6.304 11.932 M8.296 11.935 C 7.871 12.087,7.764 12.631,8.100 12.932 C 8.358 13.165,8.669 13.158,8.913 12.913 C 9.169 12.657,9.164 12.304,8.900 12.068 C 8.722 11.907,8.506 11.860,8.296 11.935 M10.296 11.935 C 9.871 12.087,9.764 12.631,10.100 12.932 C 10.358 13.165,10.669 13.158,10.913 12.913 C 11.169 12.657,11.164 12.304,10.900 12.068 C 10.722 11.907,10.506 11.860,10.296 11.935 " stroke="none" fill="black" fill-rule="evenodd"></path></svg>