<svg width="15" height="15" fill="none" xmlns="http://www.w3.org/2000/svg"><path d="M5.238 2.410 C 4.938 2.483,4.626 2.727,4.500 2.987 C 4.336 3.327,4.337 3.673,4.502 4.019 C 4.576 4.171,4.829 4.424,4.981 4.498 C 5.448 4.721,5.934 4.644,6.289 4.289 C 6.723 3.855,6.738 3.194,6.323 2.740 C 6.057 2.449,5.621 2.316,5.238 2.410 M9.238 2.410 C 8.938 2.483,8.626 2.727,8.500 2.987 C 8.336 3.327,8.337 3.673,8.502 4.019 C 8.576 4.171,8.829 4.424,8.981 4.498 C 9.448 4.721,9.934 4.644,10.289 4.289 C 10.723 3.855,10.738 3.194,10.323 2.740 C 10.057 2.449,9.621 2.316,9.238 2.410 M5.238 6.410 C 4.938 6.483,4.626 6.727,4.500 6.987 C 4.336 7.327,4.337 7.673,4.502 8.019 C 4.576 8.171,4.829 8.424,4.981 8.498 C 5.448 8.721,5.934 8.644,6.289 8.289 C 6.723 7.855,6.738 7.194,6.323 6.740 C 6.057 6.449,5.621 6.316,5.238 6.410 M9.238 6.410 C 8.938 6.483,8.626 6.727,8.500 6.987 C 8.336 7.327,8.337 7.673,8.502 8.019 C 8.576 8.171,8.829 8.424,8.981 8.498 C 9.448 8.721,9.934 8.644,10.289 8.289 C 10.723 7.855,10.738 7.194,10.323 6.740 C 10.057 6.449,9.621 6.316,9.238 6.410 M5.238 10.410 C 4.938 10.483,4.626 10.727,4.500 10.987 C 4.336 11.327,4.337 11.673,4.502 12.019 C 4.576 12.171,4.829 12.424,4.981 12.498 C 5.448 12.721,5.934 12.644,6.289 12.289 C 6.723 11.855,6.738 11.194,6.323 10.740 C 6.057 10.449,5.621 10.316,5.238 10.410 M9.238 10.410 C 8.938 10.483,8.626 10.727,8.500 10.987 C 8.336 11.327,8.337 11.673,8.502 12.019 C 8.576 12.171,8.829 12.424,8.981 12.498 C 9.448 12.721,9.934 12.644,10.289 12.289 C 10.723 11.855,10.738 11.194,10.323 10.740 C 10.057 10.449,9.621 10.316,9.238 10.410 " fill="currentColor" stroke="none" fill-rule="evenodd"></path></svg>