<svg width="15" height="15" fill="none" xmlns="http://www.w3.org/2000/svg"><path d="M9.913 0.992 C 9.885 0.997,9.837 1.007,9.807 1.014 C 9.726 1.031,9.580 1.167,9.524 1.278 C 9.464 1.396,9.461 1.575,9.517 1.696 C 9.541 1.746,9.717 1.948,9.909 2.144 C 10.101 2.339,10.254 2.504,10.248 2.509 C 10.242 2.513,9.154 3.330,7.829 4.324 L 5.420 6.130 4.804 5.517 C 4.134 4.852,4.137 4.853,3.885 4.881 C 3.656 4.907,3.450 5.141,3.451 5.375 C 3.452 5.579,3.499 5.634,4.814 6.950 L 6.075 8.213 4.423 9.863 C 3.444 10.841,2.751 11.552,2.721 11.610 C 2.651 11.745,2.664 11.982,2.749 12.106 C 2.845 12.246,2.959 12.309,3.136 12.320 C 3.258 12.328,3.313 12.319,3.390 12.279 C 3.448 12.249,4.159 11.556,5.137 10.577 L 6.787 8.925 8.050 10.187 C 8.915 11.051,9.342 11.460,9.405 11.486 C 9.795 11.649,10.206 11.299,10.100 10.897 C 10.075 10.802,9.992 10.708,9.469 10.183 L 8.867 9.579 10.675 7.171 C 11.670 5.846,12.487 4.758,12.492 4.752 C 12.496 4.746,12.662 4.901,12.860 5.096 C 13.063 5.296,13.259 5.467,13.309 5.488 C 13.436 5.541,13.632 5.535,13.750 5.475 C 13.898 5.400,14.025 5.198,14.025 5.040 C 14.024 4.837,14.058 4.874,12.104 2.919 C 10.831 1.644,10.214 1.043,10.163 1.027 C 10.047 0.992,9.967 0.981,9.913 0.992 " fill="currentColor" stroke="none" fill-rule="evenodd"></path></svg>