<svg width="15" height="15" fill="none" xmlns="http://www.w3.org/2000/svg"><path d="M9.763 1.042 C 9.519 1.170,9.415 1.432,9.513 1.670 C 9.537 1.726,9.694 1.905,9.915 2.127 L 10.278 2.491 7.884 4.289 C 6.567 5.278,5.474 6.097,5.454 6.109 C 5.428 6.125,5.269 5.982,4.841 5.555 C 4.523 5.239,4.224 4.961,4.177 4.937 C 4.055 4.876,3.810 4.895,3.694 4.974 C 3.570 5.059,3.494 5.182,3.481 5.323 C 3.457 5.570,3.428 5.535,4.809 6.919 L 6.087 8.200 4.419 9.869 C 3.258 11.031,2.740 11.566,2.714 11.630 C 2.637 11.815,2.688 12.064,2.828 12.193 C 2.967 12.320,3.193 12.359,3.370 12.286 C 3.434 12.260,3.969 11.742,5.131 10.581 L 6.800 8.913 8.094 10.204 C 9.356 11.463,9.391 11.495,9.516 11.524 C 9.806 11.591,10.091 11.391,10.119 11.102 C 10.141 10.870,10.118 10.837,9.468 10.183 L 8.867 9.578 10.687 7.150 L 12.508 4.723 12.885 5.097 C 13.093 5.303,13.294 5.484,13.333 5.498 C 13.446 5.541,13.624 5.530,13.745 5.471 C 13.876 5.408,13.990 5.245,14.013 5.091 C 14.048 4.854,14.103 4.917,12.118 2.930 C 11.101 1.911,10.246 1.075,10.195 1.048 C 10.081 0.989,9.868 0.986,9.763 1.042 M11.393 3.606 C 11.603 3.815,11.775 3.995,11.775 4.006 C 11.775 4.023,8.232 8.773,8.172 8.837 C 8.149 8.861,6.144 6.880,6.156 6.845 C 6.166 6.818,10.960 3.226,10.987 3.226 C 11.001 3.225,11.184 3.396,11.393 3.606 " fill="currentColor" stroke="none" fill-rule="evenodd"></path></svg>