<svg width="15" height="15" fill="none" xmlns="http://www.w3.org/2000/svg"><path d="M7.331 3.141 C 7.089 3.261,7.027 3.562,7.204 3.763 C 7.245 3.810,7.321 3.861,7.371 3.876 C 7.434 3.894,8.583 3.900,11.054 3.895 C 14.638 3.888,14.647 3.887,14.715 3.836 C 14.824 3.755,14.880 3.665,14.893 3.546 C 14.909 3.401,14.855 3.275,14.736 3.185 L 14.641 3.113 11.027 3.107 C 7.737 3.101,7.405 3.105,7.331 3.141 M7.331 5.141 C 7.089 5.261,7.027 5.562,7.204 5.763 C 7.245 5.810,7.321 5.861,7.371 5.876 C 7.434 5.894,8.583 5.900,11.054 5.895 C 14.638 5.888,14.647 5.887,14.715 5.836 C 14.824 5.755,14.880 5.665,14.893 5.546 C 14.909 5.401,14.855 5.275,14.736 5.185 L 14.641 5.113 11.027 5.107 C 7.737 5.101,7.405 5.105,7.331 5.141 M0.080 6.106 C 0.127 6.165,0.687 6.890,1.323 7.719 C 1.960 8.547,2.489 9.225,2.500 9.225 C 2.511 9.225,3.040 8.547,3.677 7.719 C 4.313 6.890,4.873 6.165,4.920 6.106 L 5.006 6.000 2.500 6.000 L -0.006 6.000 0.080 6.106 M7.331 7.141 C 7.089 7.261,7.027 7.562,7.204 7.763 C 7.245 7.810,7.321 7.861,7.371 7.876 C 7.434 7.894,8.583 7.900,11.054 7.895 C 14.638 7.888,14.647 7.887,14.715 7.836 C 14.824 7.755,14.880 7.665,14.893 7.546 C 14.909 7.401,14.855 7.275,14.736 7.185 L 14.641 7.113 11.027 7.107 C 7.737 7.101,7.405 7.105,7.331 7.141 M7.331 9.141 C 7.089 9.261,7.027 9.562,7.204 9.763 C 7.245 9.810,7.321 9.861,7.371 9.876 C 7.434 9.894,8.583 9.900,11.054 9.895 C 14.638 9.888,14.647 9.887,14.715 9.836 C 14.824 9.755,14.880 9.665,14.893 9.546 C 14.909 9.401,14.855 9.275,14.736 9.185 L 14.641 9.113 11.027 9.107 C 7.737 9.101,7.405 9.105,7.331 9.141 M7.331 11.141 C 7.089 11.261,7.027 11.562,7.204 11.763 C 7.245 11.810,7.321 11.861,7.371 11.876 C 7.434 11.894,8.583 11.900,11.054 11.895 C 14.638 11.888,14.647 11.887,14.715 11.836 C 14.824 11.755,14.880 11.665,14.893 11.546 C 14.909 11.401,14.855 11.275,14.736 11.185 L 14.641 11.113 11.027 11.107 C 7.737 11.101,7.405 11.105,7.331 11.141 " fill="currentColor" stroke="none" fill-rule="evenodd"></path></svg>