<svg width="15" height="15" fill="none" xmlns="http://www.w3.org/2000/svg"><path d="M2.342 2.025 C 2.228 2.060,2.109 2.166,2.053 2.282 C 2.001 2.389,2.000 2.416,2.000 4.004 L 2.000 5.617 2.058 5.727 C 2.090 5.788,2.164 5.871,2.223 5.913 C 2.315 5.978,2.351 5.988,2.496 5.988 C 2.695 5.988,2.816 5.925,2.920 5.768 L 2.988 5.666 2.995 4.334 L 3.002 3.002 4.334 2.995 L 5.666 2.988 5.768 2.920 C 5.924 2.817,5.988 2.695,5.988 2.500 C 5.988 2.305,5.924 2.183,5.768 2.080 L 5.666 2.013 4.039 2.008 C 3.145 2.006,2.381 2.013,2.342 2.025 M9.342 2.025 C 9.151 2.083,9.000 2.295,9.000 2.504 C 9.000 2.655,9.089 2.818,9.223 2.913 L 9.329 2.988 10.665 2.995 L 12.000 3.002 12.000 4.309 L 12.000 5.617 12.058 5.727 C 12.090 5.788,12.164 5.871,12.223 5.913 C 12.316 5.978,12.351 5.988,12.498 5.988 C 12.639 5.988,12.683 5.977,12.767 5.920 C 12.823 5.884,12.896 5.810,12.928 5.758 L 12.988 5.663 12.988 4.000 L 12.988 2.337 12.928 2.242 C 12.896 2.190,12.823 2.116,12.768 2.080 L 12.666 2.013 11.039 2.008 C 10.145 2.006,9.381 2.013,9.342 2.025 M2.342 9.024 C 2.227 9.061,2.109 9.166,2.053 9.282 C 2.001 9.389,2.000 9.416,2.000 11.004 L 2.000 12.617 2.058 12.727 C 2.090 12.788,2.164 12.871,2.223 12.913 L 2.329 12.988 3.998 12.988 L 5.666 12.988 5.767 12.920 C 5.924 12.817,5.988 12.695,5.988 12.500 C 5.988 12.305,5.924 12.183,5.768 12.080 L 5.666 12.013 4.334 12.005 L 3.002 11.998 2.995 10.668 L 2.988 9.338 2.928 9.242 C 2.843 9.106,2.708 9.024,2.546 9.012 C 2.473 9.006,2.381 9.012,2.342 9.024 M12.342 9.024 C 12.227 9.061,12.109 9.166,12.053 9.282 C 12.001 9.388,12.000 9.421,12.000 10.695 L 12.000 11.998 10.665 12.005 L 9.329 12.013 9.223 12.088 C 8.929 12.294,8.929 12.706,9.223 12.913 L 9.329 12.988 10.996 12.988 L 12.663 12.988 12.758 12.928 C 12.810 12.896,12.884 12.823,12.920 12.767 L 12.988 12.666 12.988 11.002 L 12.988 9.338 12.928 9.242 C 12.843 9.106,12.708 9.024,12.546 9.012 C 12.473 9.006,12.381 9.012,12.342 9.024 " fill="currentColor" stroke="none" fill-rule="evenodd"></path></svg>