<svg width="15" height="15" fill="none" xmlns="http://www.w3.org/2000/svg"><path d="M7.163 0.121 C 7.094 0.147,5.551 0.911,3.734 1.820 C 0.147 3.615,0.266 3.549,0.124 3.827 C -0.004 4.078,0.001 3.907,0.000 8.176 C 0.000 12.106,0.001 12.167,0.050 12.314 C 0.149 12.607,0.402 12.854,0.698 12.949 L 0.863 13.001 7.551 12.994 L 14.240 12.988 14.429 12.894 C 14.657 12.782,14.798 12.637,14.908 12.404 L 14.988 12.238 14.994 8.213 C 15.001 4.261,15.000 4.185,14.951 4.024 C 14.888 3.814,14.737 3.604,14.569 3.493 C 14.497 3.445,12.944 2.659,11.119 1.747 L 7.801 0.089 7.544 0.081 C 7.341 0.076,7.261 0.084,7.163 0.121 M10.549 2.585 L 13.560 4.092 13.449 4.156 C 13.387 4.191,12.029 4.908,10.430 5.750 C 8.615 6.706,7.506 7.276,7.477 7.268 C 7.434 7.257,1.793 4.294,1.551 4.156 L 1.440 4.092 4.451 2.585 C 6.108 1.756,7.479 1.078,7.500 1.078 C 7.521 1.078,8.892 1.756,10.549 2.585 M4.195 6.569 C 7.274 8.191,7.366 8.238,7.500 8.238 C 7.634 8.238,7.726 8.191,10.805 6.569 C 12.547 5.651,13.978 4.900,13.986 4.900 C 13.994 4.900,14.000 6.497,14.000 8.450 L 14.000 12.000 7.500 12.000 L 1.000 12.000 1.000 8.450 C 1.000 6.497,1.006 4.900,1.014 4.900 C 1.022 4.900,2.453 5.651,4.195 6.569 " fill="currentColor" stroke="none" fill-rule="evenodd"></path></svg>