<svg width="15" height="15" fill="none" xmlns="http://www.w3.org/2000/svg"><path d="M0.765 2.028 C 0.409 2.112,0.102 2.430,0.024 2.794 C 0.008 2.872,0.001 4.518,0.006 7.575 C 0.012 12.156,0.013 12.240,0.062 12.357 C 0.169 12.615,0.404 12.845,0.657 12.939 C 0.785 12.987,0.914 12.988,7.513 12.988 L 14.238 12.988 14.404 12.908 C 14.637 12.798,14.782 12.657,14.894 12.429 L 14.988 12.240 14.988 7.500 L 14.988 2.760 14.894 2.571 C 14.782 2.343,14.637 2.202,14.404 2.092 L 14.238 2.013 7.550 2.009 C 3.573 2.006,0.823 2.014,0.765 2.028 M14.000 3.457 L 14.000 3.915 13.903 3.941 C 13.849 3.955,12.401 4.858,10.663 5.961 C 8.710 7.200,7.506 7.950,7.479 7.943 C 7.456 7.936,6.027 7.036,4.304 5.941 C 2.412 4.740,1.137 3.945,1.085 3.935 L 1.000 3.919 1.000 3.460 L 1.000 3.000 7.500 3.000 L 14.000 3.000 14.000 3.457 M4.142 6.903 C 5.856 7.991,7.296 8.897,7.341 8.916 C 7.446 8.959,7.554 8.959,7.659 8.916 C 7.704 8.897,9.144 7.991,10.858 6.903 C 12.572 5.815,13.980 4.925,13.987 4.925 C 13.994 4.925,14.000 6.517,14.000 8.463 L 14.000 12.000 7.500 12.000 L 1.000 12.000 1.000 8.463 C 1.000 6.517,1.006 4.925,1.013 4.925 C 1.020 4.925,2.428 5.815,4.142 6.903 " fill="currentColor" stroke="none" fill-rule="evenodd"></path></svg>