<svg width="15" height="15" fill="none" xmlns="http://www.w3.org/2000/svg"><path d="M8.625 0.601 C 8.577 0.609,8.504 0.634,8.463 0.656 C 8.421 0.679,6.799 2.287,4.858 4.230 C 2.255 6.836,1.302 7.805,1.227 7.923 C 0.952 8.354,0.929 8.921,1.167 9.406 C 1.252 9.578,1.363 9.694,3.334 11.664 C 5.609 13.938,5.505 13.846,5.915 13.951 C 6.161 14.014,6.415 14.013,6.662 13.950 C 7.080 13.843,6.845 14.061,10.745 10.166 C 12.702 8.211,14.324 6.573,14.349 6.525 C 14.417 6.392,14.430 6.294,14.398 6.160 C 14.370 6.042,14.271 5.940,11.703 3.367 C 10.237 1.898,9.004 0.679,8.963 0.657 C 8.863 0.603,8.732 0.582,8.625 0.601 M10.900 8.587 L 8.600 10.887 6.356 8.644 L 4.113 6.400 6.412 4.100 L 8.712 1.800 10.956 4.044 L 13.200 6.287 10.900 8.587 M5.650 9.362 L 7.887 11.600 7.237 12.253 C 6.822 12.670,6.551 12.922,6.488 12.952 C 6.365 13.009,6.229 13.013,6.105 12.962 C 5.976 12.908,2.115 9.054,2.048 8.912 C 1.991 8.790,1.987 8.654,2.038 8.530 C 2.064 8.469,2.300 8.214,2.732 7.781 C 3.092 7.420,3.393 7.125,3.400 7.125 C 3.407 7.125,4.419 8.132,5.650 9.362 " fill="currentColor" stroke="none" fill-rule="evenodd"></path></svg>