<svg width="15" height="15" fill="none" xmlns="http://www.w3.org/2000/svg"><path d="M7.244 0.101 C 7.073 0.144,6.841 0.279,6.717 0.409 C 6.625 0.505,5.769 1.921,3.346 5.988 C 1.394 9.263,0.084 11.487,0.061 11.563 C -0.024 11.848,-0.008 12.106,0.111 12.367 C 0.187 12.533,0.409 12.770,0.571 12.858 C 0.850 13.010,0.372 13.000,7.500 13.000 C 14.628 13.000,14.150 13.010,14.429 12.858 C 14.574 12.779,14.799 12.550,14.872 12.406 C 15.001 12.153,15.025 11.848,14.939 11.563 C 14.916 11.488,13.586 9.230,11.654 5.988 C 9.185 1.845,8.376 0.506,8.280 0.406 C 8.195 0.317,8.092 0.245,7.964 0.184 C 7.799 0.106,7.744 0.093,7.555 0.085 C 7.436 0.081,7.295 0.088,7.244 0.101 M7.610 1.169 C 7.679 1.276,13.926 11.758,13.972 11.844 C 13.994 11.885,13.994 11.914,13.975 11.950 C 13.948 12.000,13.923 12.000,7.500 12.000 C 1.077 12.000,1.052 12.000,1.025 11.950 C 1.006 11.914,1.006 11.885,1.028 11.844 C 1.076 11.754,7.322 1.272,7.390 1.169 C 7.426 1.113,7.471 1.075,7.500 1.075 C 7.530 1.075,7.574 1.113,7.610 1.169 M7.293 3.811 C 7.077 3.888,6.905 4.071,6.848 4.284 C 6.815 4.405,6.960 8.391,7.004 8.585 C 7.052 8.798,7.277 8.975,7.500 8.975 C 7.709 8.975,7.935 8.809,7.993 8.612 C 8.038 8.458,8.187 4.414,8.153 4.284 C 8.053 3.914,7.641 3.687,7.293 3.811 M7.258 9.770 C 6.731 9.958,6.581 10.608,6.974 11.001 C 7.534 11.562,8.477 10.959,8.200 10.218 C 8.058 9.840,7.631 9.637,7.258 9.770 " fill="currentColor" stroke="none" fill-rule="evenodd"></path></svg>