<svg width="15" height="15" fill="none" xmlns="http://www.w3.org/2000/svg"><path d="M5.342 2.024 C 5.227 2.061,5.109 2.166,5.053 2.282 C 5.001 2.388,5.000 2.421,5.000 3.695 L 5.000 4.998 3.665 5.005 L 2.329 5.013 2.223 5.088 C 1.929 5.294,1.929 5.706,2.223 5.913 L 2.329 5.988 3.996 5.988 L 5.663 5.988 5.758 5.928 C 5.810 5.896,5.884 5.823,5.920 5.767 L 5.988 5.666 5.988 4.002 L 5.988 2.337 5.928 2.242 C 5.843 2.106,5.708 2.024,5.546 2.012 C 5.473 2.006,5.381 2.012,5.342 2.024 M9.342 2.024 C 9.227 2.061,9.109 2.166,9.053 2.282 C 9.001 2.389,9.000 2.416,9.000 4.004 L 9.000 5.617 9.058 5.727 C 9.090 5.788,9.164 5.871,9.223 5.913 L 9.329 5.988 10.998 5.988 L 12.666 5.988 12.767 5.920 C 12.924 5.817,12.988 5.695,12.988 5.500 C 12.988 5.305,12.924 5.183,12.768 5.080 L 12.666 5.013 11.334 5.005 L 10.002 4.998 9.995 3.668 L 9.988 2.337 9.928 2.242 C 9.843 2.106,9.708 2.024,9.546 2.012 C 9.473 2.006,9.381 2.012,9.342 2.024 M2.342 9.025 C 2.151 9.083,2.000 9.295,2.000 9.504 C 2.000 9.655,2.089 9.818,2.223 9.913 L 2.329 9.988 3.665 9.995 L 5.000 10.002 5.000 11.309 L 5.000 12.617 5.058 12.727 C 5.090 12.788,5.164 12.871,5.223 12.913 C 5.316 12.978,5.351 12.988,5.498 12.988 C 5.639 12.988,5.683 12.977,5.767 12.920 C 5.823 12.884,5.896 12.810,5.928 12.758 L 5.988 12.663 5.988 11.000 L 5.988 9.338 5.928 9.242 C 5.896 9.190,5.823 9.116,5.768 9.080 L 5.666 9.013 4.039 9.008 C 3.145 9.006,2.381 9.013,2.342 9.025 M9.342 9.025 C 9.228 9.060,9.109 9.166,9.053 9.282 C 9.001 9.389,9.000 9.416,9.000 11.004 L 9.000 12.617 9.058 12.727 C 9.090 12.788,9.164 12.871,9.223 12.913 C 9.315 12.978,9.351 12.988,9.496 12.988 C 9.695 12.988,9.816 12.925,9.920 12.768 L 9.988 12.666 9.995 11.334 L 10.002 10.002 11.334 9.995 L 12.666 9.988 12.768 9.920 C 12.924 9.817,12.988 9.695,12.988 9.500 C 12.988 9.305,12.924 9.183,12.768 9.080 L 12.666 9.013 11.039 9.008 C 10.145 9.006,9.381 9.013,9.342 9.025 " fill="currentColor" stroke="none" fill-rule="evenodd"></path></svg>