<svg width="15" height="15" fill="none" xmlns="http://www.w3.org/2000/svg"><path d="M2.765 1.028 C 2.409 1.112,2.102 1.430,2.024 1.794 C 2.008 1.872,2.001 3.852,2.006 7.575 C 2.012 13.153,2.013 13.239,2.062 13.357 C 2.169 13.615,2.404 13.845,2.657 13.939 C 2.784 13.986,2.887 13.988,6.725 13.988 L 10.663 13.988 10.758 13.928 C 10.810 13.896,10.884 13.823,10.920 13.767 C 10.976 13.683,10.988 13.638,10.988 13.502 C 10.988 13.305,10.924 13.183,10.768 13.080 L 10.666 13.013 6.833 13.006 L 3.000 12.999 3.000 7.500 L 3.000 2.001 6.831 1.994 L 10.663 1.988 10.758 1.928 C 10.810 1.896,10.884 1.823,10.920 1.767 C 10.976 1.683,10.988 1.638,10.988 1.500 C 10.988 1.362,10.976 1.317,10.920 1.233 C 10.884 1.177,10.810 1.104,10.758 1.072 L 10.663 1.012 6.763 1.009 C 4.468 1.006,2.823 1.014,2.765 1.028 M12.114 4.767 C 12.024 4.792,11.875 4.906,11.825 4.988 C 11.758 5.095,11.738 5.263,11.775 5.400 C 11.801 5.500,11.888 5.596,12.545 6.256 L 13.285 6.999 9.807 7.006 L 6.329 7.013 6.223 7.088 C 6.164 7.129,6.090 7.212,6.058 7.273 C 5.941 7.494,6.010 7.763,6.223 7.913 L 6.329 7.988 9.807 7.994 L 13.285 8.001 12.545 8.744 C 11.888 9.404,11.801 9.500,11.775 9.600 C 11.669 9.997,12.002 10.331,12.400 10.225 C 12.502 10.199,12.626 10.082,13.707 9.004 C 14.494 8.219,14.918 7.778,14.951 7.711 C 15.010 7.589,15.014 7.432,14.961 7.305 C 14.919 7.203,12.721 4.979,12.530 4.846 C 12.423 4.771,12.229 4.734,12.114 4.767 " fill="currentColor" stroke="none" fill-rule="evenodd"></path></svg>