<svg width="15" height="15" fill="none" xmlns="http://www.w3.org/2000/svg"><path d="M2.765 2.028 C 2.408 2.112,2.102 2.430,2.024 2.794 C 2.008 2.872,2.001 4.518,2.006 7.575 C 2.012 12.156,2.013 12.240,2.062 12.357 C 2.169 12.615,2.404 12.845,2.657 12.939 C 2.785 12.986,2.895 12.988,7.514 12.988 L 12.240 12.988 12.429 12.894 C 12.657 12.782,12.798 12.637,12.908 12.404 L 12.988 12.238 12.988 10.286 L 12.988 8.334 12.920 8.233 C 12.816 8.075,12.695 8.013,12.496 8.013 C 12.351 8.013,12.315 8.022,12.223 8.088 C 12.164 8.129,12.090 8.212,12.058 8.273 L 12.000 8.383 12.000 10.191 L 12.000 12.000 7.500 12.000 L 3.000 12.000 3.000 7.501 L 3.000 3.001 4.833 2.994 L 6.666 2.988 6.768 2.920 C 6.924 2.817,6.988 2.695,6.988 2.500 C 6.988 2.305,6.924 2.183,6.768 2.080 L 6.666 2.013 4.764 2.008 C 3.672 2.006,2.821 2.014,2.765 2.028 M9.342 2.025 C 9.151 2.083,9.000 2.295,9.000 2.504 C 9.000 2.655,9.089 2.818,9.223 2.913 L 9.329 2.988 10.307 2.995 L 11.285 3.002 8.669 5.620 C 6.265 8.026,6.051 8.247,6.024 8.350 C 5.920 8.748,6.252 9.080,6.650 8.976 C 6.753 8.949,6.974 8.735,9.381 6.330 L 12.000 3.713 12.000 4.665 C 12.000 5.613,12.000 5.618,12.058 5.727 C 12.090 5.788,12.164 5.871,12.223 5.913 C 12.316 5.978,12.351 5.988,12.498 5.988 C 12.639 5.988,12.683 5.977,12.767 5.920 C 12.823 5.884,12.896 5.810,12.928 5.758 L 12.988 5.663 12.988 4.000 L 12.988 2.337 12.931 2.247 C 12.900 2.197,12.827 2.124,12.769 2.085 L 12.663 2.013 11.038 2.008 C 10.144 2.006,9.381 2.013,9.342 2.025 " fill="currentColor" stroke="none" fill-rule="evenodd"></path></svg>