<svg width="15" height="15" fill="none" xmlns="http://www.w3.org/2000/svg"><path d="M12.863 1.517 C 12.757 1.546,12.634 1.660,11.672 2.619 L 10.682 3.605 10.347 3.488 C 8.516 2.850,6.541 2.841,4.732 3.461 C 3.172 3.996,1.794 4.981,0.713 6.336 C 0.411 6.714,0.054 7.247,0.020 7.368 C -0.038 7.580,0.024 7.722,0.420 8.275 C 0.737 8.718,1.017 9.045,1.448 9.475 C 1.987 10.012,2.506 10.422,3.091 10.773 L 3.354 10.932 2.454 11.835 C 1.648 12.643,1.551 12.749,1.525 12.850 C 1.419 13.247,1.753 13.581,2.150 13.475 C 2.251 13.449,2.365 13.343,3.290 12.421 L 4.318 11.396 4.678 11.520 C 5.578 11.830,6.321 11.966,7.275 11.992 C 10.167 12.073,12.836 10.715,14.580 8.275 C 14.683 8.131,14.817 7.934,14.878 7.838 C 14.978 7.677,14.988 7.649,14.988 7.500 C 14.988 7.351,14.978 7.323,14.878 7.163 C 14.523 6.597,14.089 6.061,13.564 5.537 C 13.021 4.996,12.531 4.609,11.904 4.226 L 11.646 4.068 12.546 3.165 C 13.352 2.356,13.449 2.251,13.475 2.150 C 13.560 1.831,13.358 1.534,13.041 1.512 C 12.970 1.507,12.890 1.509,12.863 1.517 M8.076 4.026 C 8.624 4.068,9.070 4.149,9.671 4.318 L 9.904 4.383 6.999 7.288 L 4.094 10.193 3.866 10.068 C 2.879 9.527,1.953 8.692,1.237 7.697 L 1.095 7.500 1.215 7.331 C 1.649 6.718,2.277 6.055,2.838 5.617 C 3.441 5.147,4.276 4.682,4.958 4.438 C 5.933 4.089,7.023 3.945,8.076 4.026 M11.188 4.966 C 12.171 5.519,13.060 6.326,13.763 7.303 L 13.905 7.500 13.763 7.697 C 13.038 8.703,12.106 9.540,11.100 10.086 C 9.911 10.732,8.634 11.034,7.275 10.992 C 6.566 10.970,6.096 10.898,5.417 10.707 L 5.096 10.617 7.992 7.721 C 9.584 6.128,10.899 4.825,10.913 4.825 C 10.926 4.825,11.050 4.888,11.188 4.966 " fill="currentColor" stroke="none" fill-rule="evenodd"></path></svg>