<svg width="15" height="15" fill="none" xmlns="http://www.w3.org/2000/svg"><path d="M7.000 3.015 C 6.028 3.099,5.463 3.210,4.732 3.461 C 3.172 3.996,1.794 4.981,0.713 6.336 C 0.411 6.714,0.054 7.247,0.020 7.368 C -0.038 7.580,0.024 7.722,0.420 8.275 C 2.114 10.644,4.691 11.999,7.500 11.999 C 10.309 11.999,12.886 10.644,14.580 8.275 C 14.683 8.131,14.817 7.934,14.878 7.838 C 14.978 7.677,14.988 7.649,14.988 7.500 C 14.988 7.351,14.978 7.323,14.878 7.163 C 14.435 6.457,13.801 5.714,13.167 5.157 C 11.817 3.971,10.267 3.275,8.500 3.061 C 8.199 3.024,7.231 2.995,7.000 3.015 M8.075 4.026 C 9.062 4.100,9.914 4.333,10.813 4.774 C 11.974 5.344,12.964 6.193,13.763 7.303 L 13.905 7.500 13.763 7.697 C 13.171 8.519,12.429 9.241,11.638 9.762 C 8.933 11.545,5.373 11.391,2.835 9.381 C 2.254 8.921,1.647 8.279,1.215 7.669 L 1.096 7.500 1.215 7.331 C 1.649 6.718,2.277 6.055,2.838 5.617 C 3.441 5.147,4.276 4.682,4.958 4.438 C 5.932 4.089,7.016 3.946,8.075 4.026 M7.175 5.528 C 6.217 5.685,5.501 6.528,5.501 7.500 C 5.501 8.380,6.061 9.134,6.925 9.415 C 7.117 9.477,7.172 9.484,7.500 9.484 C 7.828 9.484,7.883 9.477,8.075 9.415 C 8.738 9.199,9.199 8.738,9.415 8.075 C 9.477 7.883,9.484 7.828,9.484 7.500 C 9.484 7.172,9.477 7.117,9.415 6.925 C 9.097 5.949,8.164 5.367,7.175 5.528 " fill="currentColor" stroke="none" fill-rule="evenodd"></path></svg>