<svg width="15" height="15" fill="none" xmlns="http://www.w3.org/2000/svg"><path d="M0.283 6.059 C 0.063 6.164,-0.048 6.414,0.026 6.641 C 0.121 6.935,0.925 7.976,1.460 8.499 L 1.625 8.661 1.001 9.287 C 0.576 9.714,0.365 9.944,0.337 10.010 C 0.196 10.347,0.429 10.703,0.790 10.704 C 0.990 10.704,1.058 10.652,1.744 9.968 C 2.249 9.465,2.409 9.319,2.435 9.338 C 3.216 9.891,3.935 10.267,4.738 10.541 C 4.945 10.612,5.068 10.666,5.061 10.684 C 5.009 10.820,4.600 12.406,4.600 12.469 C 4.600 12.910,5.195 13.118,5.482 12.777 C 5.560 12.684,5.542 12.741,5.822 11.700 C 6.009 11.004,6.047 10.888,6.085 10.891 C 6.110 10.894,6.284 10.916,6.471 10.941 C 6.953 11.006,8.047 11.006,8.529 10.941 C 8.716 10.916,8.890 10.894,8.915 10.891 C 8.953 10.888,8.994 11.015,9.199 11.775 C 9.356 12.359,9.457 12.690,9.494 12.742 C 9.573 12.853,9.700 12.924,9.847 12.942 C 10.124 12.975,10.400 12.731,10.400 12.455 C 10.400 12.421,10.298 12.011,10.174 11.545 C 10.049 11.078,9.951 10.684,9.956 10.669 C 9.961 10.655,10.107 10.594,10.281 10.534 C 11.068 10.265,11.791 9.886,12.565 9.338 C 12.591 9.319,12.751 9.465,13.256 9.968 C 13.946 10.656,14.009 10.704,14.217 10.704 C 14.579 10.704,14.813 10.323,14.653 9.993 C 14.620 9.925,14.383 9.670,13.990 9.277 L 13.378 8.666 13.661 8.372 C 14.129 7.887,14.557 7.347,14.870 6.850 C 14.976 6.681,14.988 6.648,14.988 6.513 C 14.988 6.315,14.920 6.186,14.768 6.091 C 14.603 5.988,14.464 5.979,14.292 6.057 C 14.166 6.115,14.139 6.144,13.973 6.391 C 13.265 7.449,12.424 8.279,11.447 8.883 C 9.447 10.117,6.933 10.343,4.751 9.483 C 3.790 9.104,3.001 8.589,2.228 7.838 C 1.737 7.360,1.445 7.009,1.025 6.391 C 0.819 6.088,0.737 6.025,0.528 6.007 C 0.442 6.000,0.379 6.013,0.283 6.059 " fill="currentColor" stroke="none" fill-rule="evenodd"></path></svg>