<svg width="15" height="15" fill="none" xmlns="http://www.w3.org/2000/svg"><path d="M6.975 0.899 C 6.136 0.969,5.317 1.197,4.578 1.564 C 3.935 1.883,3.428 2.238,2.920 2.723 C 1.343 4.229,0.611 6.418,0.965 8.575 C 1.391 11.173,3.343 13.289,5.900 13.925 C 6.970 14.191,8.030 14.191,9.100 13.925 C 11.656 13.289,13.609 11.172,14.035 8.575 C 14.389 6.419,13.657 4.229,12.080 2.723 C 11.077 1.766,9.818 1.150,8.456 0.951 C 8.062 0.893,7.339 0.868,6.975 0.899 M8.295 1.887 C 9.278 2.035,10.117 2.383,10.909 2.969 C 11.234 3.211,11.789 3.766,12.031 4.091 C 12.632 4.903,12.989 5.784,13.128 6.800 C 13.170 7.105,13.170 7.922,13.128 8.213 C 12.943 9.492,12.432 10.550,11.569 11.441 C 10.893 12.139,10.118 12.620,9.201 12.910 C 7.372 13.489,5.357 13.092,3.875 11.862 C 3.603 11.636,3.177 11.186,2.965 10.902 C 2.477 10.246,2.127 9.483,1.966 8.725 C 1.863 8.242,1.839 8.009,1.839 7.500 C 1.839 6.613,2.012 5.833,2.376 5.079 C 2.684 4.439,2.997 3.998,3.498 3.498 C 3.998 2.997,4.439 2.684,5.079 2.376 C 5.686 2.083,6.315 1.917,7.113 1.839 C 7.315 1.820,8.045 1.849,8.295 1.887 M5.148 5.133 C 4.889 5.206,4.695 5.373,4.578 5.624 C 4.523 5.739,4.513 5.798,4.513 5.976 C 4.513 6.165,4.521 6.206,4.594 6.354 C 4.689 6.547,4.824 6.679,5.022 6.772 C 5.139 6.827,5.198 6.838,5.375 6.838 C 5.552 6.838,5.611 6.827,5.728 6.772 C 5.926 6.679,6.061 6.547,6.156 6.354 C 6.229 6.206,6.238 6.165,6.238 5.976 C 6.238 5.728,6.172 5.555,6.013 5.378 C 5.817 5.162,5.431 5.052,5.148 5.133 M9.398 5.133 C 9.139 5.206,8.945 5.373,8.828 5.624 C 8.773 5.739,8.763 5.798,8.763 5.976 C 8.763 6.165,8.771 6.206,8.844 6.354 C 8.939 6.547,9.074 6.679,9.272 6.772 C 9.389 6.827,9.448 6.838,9.625 6.838 C 9.802 6.838,9.861 6.827,9.978 6.772 C 10.176 6.679,10.311 6.547,10.406 6.354 C 10.479 6.206,10.488 6.165,10.488 5.976 C 10.488 5.728,10.422 5.555,10.263 5.378 C 10.067 5.162,9.681 5.052,9.398 5.133 M4.413 9.042 C 4.172 9.169,4.061 9.448,4.159 9.683 C 4.218 9.824,4.598 10.272,4.835 10.479 C 5.641 11.185,6.625 11.538,7.663 11.493 C 8.793 11.443,9.840 10.930,10.555 10.076 C 10.859 9.712,10.913 9.576,10.838 9.352 C 10.738 9.049,10.373 8.923,10.096 9.095 C 10.048 9.124,9.971 9.202,9.924 9.268 C 9.511 9.843,8.826 10.283,8.100 10.440 C 7.805 10.504,7.195 10.504,6.900 10.440 C 6.173 10.283,5.576 9.905,5.105 9.303 C 4.919 9.066,4.813 9.001,4.612 9.002 C 4.544 9.002,4.454 9.020,4.413 9.042 " fill="currentColor" stroke="none" fill-rule="evenodd"></path></svg>