<svg width="15" height="15" fill="none" xmlns="http://www.w3.org/2000/svg"><path d="M5.163 1.078 C 4.812 1.127,4.349 1.317,4.075 1.522 C 3.727 1.783,3.468 2.098,3.290 2.479 C 2.910 3.288,2.995 4.236,3.513 4.963 C 3.572 5.045,3.709 5.199,3.818 5.304 L 4.016 5.496 3.764 5.755 C 3.302 6.228,3.083 6.736,3.057 7.388 C 3.029 8.083,3.263 8.680,3.765 9.196 L 4.018 9.456 3.818 9.647 C 3.571 9.883,3.431 10.076,3.290 10.379 C 2.910 11.187,2.996 12.137,3.513 12.863 C 3.636 13.035,3.960 13.355,4.125 13.467 C 4.766 13.902,5.587 14.014,6.315 13.766 C 6.991 13.535,7.551 13.008,7.817 12.349 C 7.981 11.943,7.984 11.918,7.999 10.645 L 8.013 9.477 8.175 9.581 C 8.397 9.723,8.710 9.846,8.997 9.905 C 9.314 9.971,9.813 9.957,10.113 9.876 C 10.819 9.683,11.383 9.217,11.701 8.563 C 11.903 8.147,11.938 7.988,11.936 7.475 C 11.935 7.073,11.929 7.020,11.867 6.818 C 11.708 6.299,11.456 5.909,11.070 5.582 L 10.977 5.503 11.179 5.308 C 11.505 4.992,11.701 4.677,11.832 4.262 C 12.108 3.387,11.870 2.419,11.221 1.781 C 10.822 1.389,10.348 1.151,9.816 1.077 C 9.581 1.044,5.391 1.045,5.163 1.078 M7.000 3.525 L 7.000 5.000 6.179 5.000 C 5.440 5.000,5.338 4.995,5.163 4.950 C 4.516 4.785,4.051 4.188,4.051 3.525 C 4.051 2.989,4.377 2.455,4.850 2.218 C 5.149 2.068,5.257 2.054,6.181 2.052 L 7.000 2.050 7.000 3.525 M9.788 2.087 C 10.337 2.202,10.798 2.663,10.913 3.213 C 11.076 3.994,10.606 4.754,9.837 4.950 C 9.662 4.995,9.560 5.000,8.821 5.000 L 8.000 5.000 8.000 3.525 L 8.000 2.050 8.806 2.050 C 9.416 2.051,9.655 2.060,9.788 2.087 M7.000 7.475 L 7.000 8.950 6.179 8.950 C 5.443 8.950,5.338 8.945,5.165 8.901 C 4.891 8.831,4.691 8.716,4.487 8.513 C 4.284 8.309,4.169 8.109,4.099 7.835 C 4.009 7.482,4.056 7.097,4.231 6.767 C 4.348 6.546,4.617 6.285,4.850 6.168 C 5.149 6.018,5.257 6.004,6.181 6.002 L 7.000 6.000 7.000 7.475 M9.788 6.037 C 10.337 6.152,10.798 6.613,10.913 7.163 C 11.076 7.944,10.606 8.704,9.837 8.900 C 9.326 9.031,8.800 8.883,8.425 8.502 C 7.858 7.928,7.864 7.011,8.437 6.437 C 8.798 6.077,9.285 5.932,9.788 6.037 M7.000 10.756 C 6.999 11.366,6.990 11.605,6.963 11.738 C 6.851 12.271,6.424 12.713,5.887 12.850 C 4.965 13.086,4.051 12.377,4.051 11.425 C 4.051 10.889,4.377 10.355,4.850 10.118 C 5.149 9.968,5.257 9.954,6.181 9.952 L 7.000 9.950 7.000 10.756 " fill="currentColor" stroke="none" fill-rule="evenodd"></path></svg>