<svg width="15" height="15" fill="none" xmlns="http://www.w3.org/2000/svg"><path d="M3.175 1.039 C 2.902 1.098,2.662 1.233,2.449 1.448 C 2.233 1.666,2.121 1.859,2.049 2.140 C 2.001 2.329,2.000 2.436,2.000 7.500 C 2.000 12.564,2.001 12.671,2.049 12.860 C 2.122 13.143,2.233 13.334,2.449 13.551 C 2.666 13.767,2.857 13.878,3.140 13.951 C 3.328 13.999,3.432 14.000,7.500 14.000 C 11.568 14.000,11.672 13.999,11.860 13.951 C 12.142 13.879,12.334 13.767,12.552 13.551 C 12.687 13.417,12.768 13.310,12.832 13.181 C 13.012 12.818,13.002 13.104,12.994 8.525 L 12.988 4.413 12.930 4.288 C 12.884 4.186,12.584 3.874,11.368 2.654 C 10.540 1.824,9.818 1.115,9.763 1.079 L 9.663 1.012 6.500 1.008 C 3.861 1.004,3.311 1.009,3.175 1.039 M10.644 3.357 L 12.001 4.713 11.994 8.688 L 11.988 12.663 11.928 12.758 C 11.896 12.810,11.823 12.884,11.767 12.920 L 11.666 12.988 7.500 12.988 L 3.334 12.988 3.233 12.920 C 3.177 12.884,3.104 12.810,3.072 12.758 L 3.013 12.663 3.006 7.554 C 3.002 4.007,3.008 2.414,3.026 2.346 C 3.058 2.226,3.216 2.061,3.330 2.028 C 3.380 2.014,4.580 2.004,6.350 2.002 L 9.288 2.000 10.644 3.357 M5.092 7.025 C 4.901 7.083,4.750 7.295,4.750 7.504 C 4.750 7.655,4.839 7.818,4.973 7.913 L 5.079 7.988 7.496 7.988 L 9.913 7.988 10.008 7.928 C 10.060 7.896,10.134 7.823,10.170 7.767 C 10.226 7.683,10.238 7.638,10.238 7.500 C 10.238 7.362,10.226 7.317,10.170 7.233 C 10.134 7.177,10.060 7.104,10.008 7.072 L 9.913 7.013 7.538 7.008 C 6.231 7.006,5.131 7.013,5.092 7.025 " fill="currentColor" stroke="none" fill-rule="evenodd"></path></svg>