<svg width="15" height="15" fill="none" xmlns="http://www.w3.org/2000/svg"><path d="M3.175 1.039 C 2.902 1.098,2.663 1.233,2.449 1.448 C 2.233 1.666,2.121 1.859,2.049 2.140 C 2.001 2.329,2.000 2.436,2.000 7.500 C 2.000 12.564,2.001 12.671,2.049 12.860 C 2.122 13.143,2.233 13.334,2.449 13.551 C 2.666 13.767,2.857 13.878,3.140 13.951 C 3.328 13.999,3.432 14.000,7.500 14.000 C 11.568 14.000,11.672 13.999,11.860 13.951 C 12.143 13.878,12.334 13.767,12.551 13.551 C 12.767 13.334,12.878 13.143,12.951 12.860 C 12.999 12.672,13.000 12.569,13.000 8.724 C 13.000 6.190,12.991 4.734,12.975 4.647 C 12.942 4.471,12.862 4.271,12.756 4.100 C 12.701 4.012,12.192 3.484,11.329 2.622 C 10.000 1.294,9.986 1.280,9.775 1.178 C 9.395 0.993,9.557 1.001,6.275 1.002 C 3.854 1.004,3.309 1.010,3.175 1.039 M9.287 2.048 C 9.355 2.079,9.804 2.513,10.667 3.379 C 11.746 4.462,11.950 4.678,11.974 4.763 C 11.995 4.835,12.000 5.921,11.995 8.763 L 11.988 12.663 11.928 12.758 C 11.896 12.810,11.823 12.884,11.767 12.920 L 11.666 12.988 7.500 12.988 L 3.334 12.988 3.233 12.920 C 3.177 12.884,3.104 12.810,3.072 12.758 L 3.013 12.663 3.006 7.554 C 3.002 4.007,3.008 2.414,3.026 2.346 C 3.058 2.226,3.216 2.061,3.330 2.028 C 3.380 2.014,4.560 2.004,6.300 2.003 C 9.072 2.001,9.192 2.003,9.287 2.048 M4.342 4.025 C 4.151 4.083,4.000 4.295,4.000 4.504 C 4.000 4.655,4.089 4.818,4.223 4.913 L 4.329 4.988 5.998 4.988 L 7.666 4.988 7.767 4.920 C 7.924 4.817,7.988 4.695,7.988 4.500 C 7.988 4.305,7.924 4.183,7.768 4.080 L 7.666 4.013 6.039 4.008 C 5.145 4.006,4.381 4.013,4.342 4.025 M4.342 7.025 C 4.151 7.083,4.000 7.295,4.000 7.504 C 4.000 7.655,4.089 7.818,4.223 7.913 L 4.329 7.988 7.496 7.988 L 10.663 7.988 10.758 7.928 C 10.810 7.896,10.884 7.823,10.920 7.767 C 10.976 7.683,10.988 7.638,10.988 7.500 C 10.988 7.362,10.976 7.317,10.920 7.233 C 10.884 7.177,10.810 7.104,10.758 7.072 L 10.663 7.013 7.538 7.008 C 5.819 7.006,4.381 7.014,4.342 7.025 M4.342 10.025 C 4.151 10.083,4.000 10.295,4.000 10.504 C 4.000 10.655,4.089 10.818,4.223 10.913 L 4.329 10.988 7.496 10.988 L 10.663 10.988 10.758 10.928 C 10.810 10.896,10.884 10.823,10.920 10.767 C 10.976 10.683,10.988 10.638,10.988 10.500 C 10.988 10.362,10.976 10.317,10.920 10.233 C 10.884 10.177,10.810 10.104,10.758 10.072 L 10.663 10.013 7.538 10.008 C 5.819 10.006,4.381 10.014,4.342 10.025 " fill="currentColor" stroke="none" fill-rule="evenodd"></path></svg>