<svg width="15" height="15" fill="none" xmlns="http://www.w3.org/2000/svg"><path d="M3.175 1.039 C 2.902 1.098,2.662 1.233,2.449 1.448 C 2.233 1.666,2.121 1.859,2.049 2.140 C 2.001 2.329,2.000 2.436,2.000 7.500 C 2.000 12.564,2.001 12.671,2.049 12.860 C 2.122 13.143,2.233 13.334,2.449 13.551 C 2.666 13.767,2.857 13.878,3.140 13.951 C 3.328 13.999,3.432 14.000,7.500 14.000 C 11.568 14.000,11.672 13.999,11.860 13.951 C 12.143 13.878,12.334 13.767,12.551 13.551 C 12.767 13.334,12.878 13.143,12.951 12.860 C 12.999 12.672,13.000 12.568,13.000 8.572 L 13.000 4.477 12.947 4.332 C 12.897 4.195,12.811 4.104,11.391 2.679 C 10.564 1.850,9.837 1.135,9.775 1.092 L 9.663 1.012 6.500 1.008 C 3.861 1.004,3.311 1.009,3.175 1.039 M10.644 3.357 L 12.001 4.713 11.994 8.688 L 11.988 12.663 11.928 12.758 C 11.896 12.810,11.823 12.884,11.767 12.920 L 11.666 12.988 7.500 12.988 L 3.334 12.988 3.233 12.920 C 3.177 12.884,3.104 12.810,3.072 12.758 L 3.013 12.663 3.006 7.554 C 3.002 4.007,3.008 2.414,3.026 2.346 C 3.058 2.226,3.216 2.061,3.330 2.028 C 3.380 2.014,4.580 2.004,6.350 2.002 L 9.288 2.000 10.644 3.357 M7.342 4.774 C 7.227 4.811,7.109 4.916,7.053 5.032 C 7.002 5.137,7.000 5.177,7.000 6.069 L 7.000 6.998 6.040 7.005 L 5.079 7.013 4.973 7.088 C 4.679 7.294,4.679 7.706,4.973 7.913 L 5.079 7.988 6.040 7.995 L 7.000 8.002 7.000 8.935 C 7.000 9.863,7.000 9.868,7.058 9.977 C 7.090 10.038,7.164 10.121,7.223 10.163 C 7.316 10.228,7.351 10.238,7.498 10.238 C 7.639 10.238,7.683 10.227,7.767 10.170 C 7.823 10.134,7.896 10.060,7.928 10.008 L 7.988 9.913 7.995 8.957 L 8.002 8.002 8.959 7.995 L 9.916 7.988 10.018 7.920 C 10.174 7.817,10.238 7.695,10.238 7.498 C 10.238 7.362,10.226 7.317,10.170 7.233 C 10.134 7.177,10.060 7.104,10.008 7.072 L 9.913 7.013 8.957 7.005 L 8.002 6.998 7.995 6.043 L 7.988 5.088 7.928 4.992 C 7.843 4.856,7.708 4.774,7.546 4.762 C 7.473 4.756,7.381 4.762,7.342 4.774 " fill="currentColor" stroke="none" fill-rule="evenodd"></path></svg>