<svg width="15" height="15" fill="none" xmlns="http://www.w3.org/2000/svg"><path d="M3.175 1.039 C 2.902 1.098,2.662 1.233,2.449 1.448 C 2.233 1.666,2.121 1.859,2.049 2.140 C 2.001 2.329,2.000 2.436,2.000 7.500 C 2.000 12.564,2.001 12.671,2.049 12.860 C 2.122 13.143,2.233 13.334,2.449 13.551 C 2.666 13.767,2.857 13.878,3.140 13.951 C 3.328 13.999,3.432 14.000,7.500 14.000 C 11.568 14.000,11.672 13.999,11.860 13.951 C 12.143 13.878,12.334 13.767,12.551 13.551 C 12.767 13.334,12.878 13.143,12.951 12.860 C 12.999 12.672,13.000 12.570,13.000 9.052 C 13.000 6.545,12.991 5.407,12.973 5.338 C 12.949 5.251,12.665 4.956,10.917 3.204 C 9.801 2.086,8.837 1.135,8.775 1.092 L 8.662 1.012 6.000 1.008 C 3.790 1.004,3.310 1.010,3.175 1.039 M8.000 3.809 L 8.000 5.617 8.058 5.727 C 8.090 5.788,8.164 5.871,8.223 5.913 L 8.329 5.988 10.165 5.994 L 12.001 6.001 11.994 9.332 L 11.988 12.663 11.928 12.758 C 11.896 12.810,11.823 12.884,11.767 12.920 L 11.666 12.988 7.500 12.988 L 3.334 12.988 3.233 12.920 C 3.177 12.884,3.104 12.810,3.072 12.758 L 3.013 12.663 3.006 7.554 C 3.002 4.007,3.008 2.414,3.026 2.346 C 3.058 2.226,3.216 2.061,3.330 2.028 C 3.379 2.014,4.342 2.004,5.706 2.002 L 8.000 2.000 8.000 3.809 M10.150 3.863 L 11.287 5.000 10.144 5.000 L 9.000 5.000 9.000 3.863 C 9.000 3.237,9.003 2.725,9.006 2.725 C 9.010 2.725,9.524 3.237,10.150 3.863 " fill="currentColor" stroke="none" fill-rule="evenodd"></path></svg>