<svg width="15" height="15" fill="none" xmlns="http://www.w3.org/2000/svg"><path d="M5.924 3.106 C 5.596 3.272,5.596 3.728,5.924 3.894 C 6.033 3.949,6.053 3.950,6.902 3.950 L 7.769 3.950 6.881 7.500 L 5.994 11.050 5.140 11.050 C 4.304 11.050,4.283 11.051,4.174 11.106 C 3.846 11.272,3.846 11.728,4.174 11.894 L 4.286 11.950 6.625 11.950 L 8.964 11.950 9.076 11.894 C 9.404 11.728,9.404 11.272,9.076 11.106 C 8.967 11.051,8.947 11.050,8.098 11.050 L 7.231 11.050 8.119 7.500 L 9.006 3.950 9.860 3.950 C 10.696 3.950,10.717 3.949,10.826 3.894 C 11.154 3.728,11.154 3.272,10.826 3.106 L 10.714 3.050 8.375 3.050 L 6.036 3.050 5.924 3.106 " fill="currentColor" stroke="none" fill-rule="evenodd"></path></svg>