<svg width="15" height="15" fill="none" xmlns="http://www.w3.org/2000/svg"><path d="M4.838 3.017 C 4.563 3.054,4.290 3.195,4.181 3.358 C 4.150 3.404,4.099 3.509,4.068 3.590 L 4.013 3.738 4.013 7.488 L 4.013 11.238 4.071 11.408 C 4.146 11.624,4.253 11.763,4.416 11.854 C 4.680 12.003,4.671 12.002,7.296 11.994 L 9.688 11.987 9.888 11.930 C 10.714 11.697,11.252 11.076,11.452 10.125 C 11.529 9.763,11.530 9.269,11.455 8.996 C 11.323 8.512,11.086 8.108,10.742 7.785 C 10.458 7.516,10.151 7.344,9.801 7.258 L 9.715 7.236 9.934 7.114 C 10.184 6.973,10.529 6.665,10.673 6.452 C 10.913 6.098,11.024 5.757,11.043 5.313 C 11.073 4.620,10.873 4.079,10.413 3.611 C 10.084 3.277,9.744 3.094,9.325 3.027 C 9.171 3.002,5.019 2.993,4.838 3.017 M8.427 4.415 C 9.165 4.634,9.480 5.367,9.137 6.066 C 8.997 6.352,8.740 6.559,8.402 6.660 C 8.285 6.694,8.094 6.700,7.033 6.700 L 5.800 6.700 5.800 5.538 L 5.800 4.375 7.045 4.375 C 8.118 4.375,8.310 4.381,8.427 4.415 M8.580 8.027 C 9.067 8.127,9.500 8.559,9.601 9.043 C 9.638 9.221,9.618 9.542,9.559 9.713 C 9.423 10.108,9.069 10.455,8.680 10.575 C 8.528 10.622,8.446 10.625,7.160 10.625 L 5.800 10.625 5.800 9.313 L 5.800 8.000 7.124 8.000 C 7.982 8.000,8.494 8.010,8.580 8.027 " fill="currentColor" stroke="none" fill-rule="evenodd"></path></svg>