<svg width="15" height="15" fill="none" xmlns="http://www.w3.org/2000/svg"><path d="M2.336 2.139 C 2.294 2.160,1.780 2.657,1.195 3.245 C 0.200 4.242,0.129 4.319,0.113 4.418 C 0.103 4.479,0.108 4.560,0.124 4.610 C 0.161 4.722,0.323 4.868,0.434 4.889 C 0.621 4.924,0.670 4.886,1.406 4.154 L 2.100 3.464 2.100 7.500 L 2.100 11.536 1.406 10.845 C 0.824 10.265,0.696 10.150,0.613 10.128 C 0.496 10.098,0.360 10.122,0.266 10.190 C 0.189 10.246,0.100 10.415,0.101 10.502 C 0.102 10.655,0.204 10.772,1.254 11.817 C 2.180 12.739,2.324 12.874,2.406 12.889 C 2.636 12.930,2.600 12.959,3.747 11.817 C 4.883 10.685,4.920 10.641,4.887 10.444 C 4.863 10.306,4.722 10.155,4.588 10.125 C 4.373 10.076,4.349 10.093,3.594 10.845 L 2.900 11.536 2.900 7.500 L 2.900 3.463 3.581 4.143 C 4.309 4.870,4.372 4.918,4.556 4.886 C 4.691 4.864,4.841 4.726,4.877 4.592 C 4.935 4.376,4.942 4.385,3.804 3.242 C 3.231 2.667,2.721 2.175,2.670 2.148 C 2.559 2.091,2.440 2.087,2.336 2.139 M10.326 2.783 C 10.279 2.798,10.200 2.850,10.151 2.899 C 10.070 2.981,9.941 3.323,8.538 7.213 C 7.294 10.660,7.013 11.461,7.013 11.563 C 7.012 12.014,7.591 12.223,7.882 11.877 C 7.957 11.788,7.911 11.906,8.485 10.313 L 8.945 9.037 10.500 9.037 L 12.056 9.037 12.515 10.313 C 13.086 11.899,13.043 11.788,13.118 11.877 C 13.339 12.139,13.777 12.091,13.935 11.788 C 14.045 11.578,14.110 11.779,12.467 7.227 C 11.631 4.911,10.924 2.984,10.895 2.943 C 10.830 2.852,10.618 2.750,10.500 2.753 C 10.452 2.754,10.374 2.767,10.326 2.783 M11.107 6.407 C 11.435 7.317,11.709 8.088,11.717 8.119 L 11.731 8.175 10.503 8.175 C 9.828 8.175,9.275 8.167,9.274 8.156 C 9.273 8.124,10.487 4.751,10.500 4.751 C 10.507 4.751,10.780 5.496,11.107 6.407 " fill="currentColor" stroke="none" fill-rule="evenodd"></path></svg>