<svg width="15" height="15" fill="none" xmlns="http://www.w3.org/2000/svg"><path d="M4.700 2.716 C 3.483 2.865,2.550 3.453,2.137 4.333 C 1.818 5.009,1.811 5.875,2.119 6.488 C 2.320 6.888,2.664 7.225,3.150 7.499 C 3.457 7.672,3.805 7.809,4.490 8.025 C 5.510 8.347,5.777 8.472,6.032 8.748 C 6.414 9.161,6.378 9.833,5.951 10.251 C 5.654 10.542,5.202 10.696,4.584 10.718 C 3.552 10.755,2.919 10.443,2.386 9.636 C 2.177 9.320,2.095 9.243,1.917 9.199 C 1.519 9.098,1.083 9.355,1.012 9.730 C 0.981 9.895,1.141 10.304,1.347 10.587 C 2.081 11.598,3.460 12.189,4.827 12.078 C 5.824 11.997,6.562 11.699,7.142 11.143 C 7.708 10.600,8.003 9.856,7.967 9.063 C 7.932 8.308,7.613 7.758,6.963 7.336 C 6.550 7.068,6.224 6.932,5.275 6.635 C 4.369 6.352,4.028 6.189,3.795 5.928 C 3.439 5.527,3.477 4.920,3.884 4.518 C 4.062 4.343,4.388 4.176,4.688 4.108 C 4.980 4.042,5.638 4.048,5.903 4.120 C 6.302 4.228,6.614 4.433,7.096 4.906 C 7.453 5.255,7.588 5.335,7.825 5.337 C 8.008 5.338,8.153 5.271,8.313 5.110 C 8.576 4.847,8.583 4.547,8.335 4.122 C 7.929 3.426,7.177 2.949,6.200 2.770 C 6.003 2.734,5.794 2.719,5.363 2.713 C 5.046 2.709,4.748 2.710,4.700 2.716 M12.150 5.077 C 11.541 5.155,11.068 5.376,10.684 5.762 C 10.498 5.949,10.437 6.030,10.354 6.202 C 10.298 6.318,10.234 6.490,10.212 6.585 C 10.162 6.803,10.162 7.214,10.212 7.413 C 10.340 7.913,10.698 8.294,11.295 8.567 C 11.401 8.615,11.786 8.756,12.150 8.879 C 13.142 9.214,13.431 9.370,13.588 9.652 C 13.658 9.780,13.663 9.804,13.663 10.064 C 13.663 10.333,13.660 10.345,13.569 10.530 C 13.340 10.992,12.822 11.282,12.161 11.317 C 11.719 11.341,11.330 11.249,10.974 11.039 C 10.630 10.835,10.412 10.601,10.216 10.223 C 10.156 10.108,10.078 9.992,10.041 9.965 C 9.979 9.919,9.962 9.917,9.799 9.945 C 9.576 9.983,9.431 10.055,9.410 10.138 C 9.359 10.344,9.599 10.870,9.898 11.205 C 10.222 11.570,10.799 11.874,11.389 11.991 C 11.663 12.045,12.299 12.052,12.575 12.003 C 12.978 11.931,13.419 11.758,13.726 11.549 C 13.928 11.412,14.226 11.085,14.330 10.884 C 14.592 10.384,14.621 9.774,14.404 9.315 C 14.168 8.812,13.710 8.523,12.546 8.139 C 11.836 7.905,11.602 7.804,11.384 7.639 C 11.113 7.434,11.010 7.205,11.030 6.854 C 11.053 6.458,11.266 6.167,11.681 5.964 C 11.966 5.825,12.206 5.775,12.580 5.775 C 12.936 5.776,13.158 5.822,13.413 5.948 C 13.757 6.119,14.006 6.388,14.185 6.781 C 14.294 7.021,14.362 7.075,14.547 7.074 C 14.792 7.073,15.000 6.934,15.000 6.772 C 15.000 6.668,14.864 6.314,14.752 6.126 C 14.406 5.547,13.857 5.198,13.122 5.089 C 12.841 5.048,12.420 5.043,12.150 5.077 " fill="currentColor" stroke="none" fill-rule="evenodd"></path></svg>