<svg width="15" height="15" fill="none" xmlns="http://www.w3.org/2000/svg"><path d="M4.725 2.016 C 4.354 2.073,4.126 2.138,3.888 2.256 C 3.165 2.615,2.677 3.271,2.537 4.072 C 2.456 4.534,2.506 4.760,2.723 4.913 C 2.816 4.978,2.851 4.988,2.998 4.988 C 3.139 4.988,3.183 4.977,3.267 4.920 C 3.422 4.818,3.474 4.713,3.501 4.452 C 3.534 4.132,3.565 4.013,3.669 3.800 C 3.795 3.543,4.044 3.295,4.303 3.168 C 4.628 3.008,4.713 3.000,6.202 3.000 C 6.930 3.000,7.524 3.008,7.524 3.019 C 7.523 3.029,7.222 3.926,6.855 5.013 L 6.187 6.988 5.258 7.000 L 4.329 7.013 4.223 7.088 C 3.929 7.294,3.929 7.706,4.223 7.913 L 4.329 7.988 5.085 7.995 L 5.841 8.003 5.536 8.895 C 4.855 10.891,4.730 11.203,4.489 11.506 C 4.235 11.825,4.012 11.919,3.445 11.948 C 3.098 11.965,3.071 11.970,2.959 12.040 C 2.702 12.198,2.628 12.529,2.789 12.791 C 2.843 12.877,2.900 12.930,2.997 12.980 C 3.120 13.044,3.153 13.050,3.409 13.050 C 3.876 13.050,4.306 12.961,4.625 12.800 C 5.062 12.580,5.463 12.134,5.739 11.560 C 5.894 11.239,5.848 11.367,6.854 8.445 L 7.006 8.002 7.836 7.995 L 8.666 7.988 8.768 7.920 C 8.924 7.817,8.988 7.695,8.988 7.500 C 8.988 7.305,8.924 7.183,8.768 7.080 L 8.666 7.013 8.008 7.005 C 7.646 7.000,7.351 6.989,7.352 6.980 C 7.353 6.970,7.654 6.074,8.020 4.988 L 8.688 3.013 10.675 3.000 L 12.663 2.988 12.758 2.928 C 12.810 2.896,12.884 2.823,12.920 2.767 C 12.976 2.683,12.988 2.638,12.988 2.500 C 12.988 2.362,12.976 2.317,12.920 2.233 C 12.884 2.177,12.810 2.104,12.758 2.072 L 12.663 2.013 8.725 2.010 C 6.559 2.008,4.759 2.011,4.725 2.016 " fill="currentColor" stroke="none" fill-rule="evenodd"></path></svg>