<svg width="15" height="15" fill="none" xmlns="http://www.w3.org/2000/svg"><path d="M5.049 3.106 C 4.721 3.272,4.721 3.728,5.049 3.894 C 5.158 3.949,5.178 3.950,6.030 3.950 L 6.900 3.950 6.900 7.500 L 6.900 11.050 6.030 11.050 C 5.178 11.050,5.158 11.051,5.049 11.106 C 4.721 11.272,4.721 11.728,5.049 11.894 L 5.161 11.950 7.500 11.950 L 9.839 11.950 9.951 11.894 C 10.279 11.728,10.279 11.272,9.951 11.106 C 9.842 11.051,9.822 11.050,8.970 11.050 L 8.100 11.050 8.100 7.500 L 8.100 3.950 8.970 3.950 C 9.822 3.950,9.842 3.949,9.951 3.894 C 10.279 3.728,10.279 3.272,9.951 3.106 L 9.839 3.050 7.500 3.050 L 5.161 3.050 5.049 3.106 " fill="currentColor" stroke="none" fill-rule="evenodd"></path></svg>