<svg width="15" height="15" fill="none" xmlns="http://www.w3.org/2000/svg"><path d="M4.342 1.024 C 4.227 1.061,4.109 1.166,4.053 1.282 C 4.001 1.388,4.000 1.421,4.000 2.695 L 4.000 3.998 2.665 4.005 L 1.329 4.013 1.223 4.088 C 0.929 4.294,0.929 4.706,1.223 4.913 L 1.329 4.988 2.665 4.995 L 4.000 5.002 4.000 7.500 L 4.000 9.998 2.665 10.005 L 1.329 10.013 1.223 10.088 C 0.929 10.294,0.929 10.706,1.223 10.913 L 1.329 10.988 2.665 10.995 L 4.000 11.002 4.000 12.309 L 4.000 13.617 4.058 13.727 C 4.090 13.788,4.164 13.871,4.223 13.913 C 4.315 13.978,4.351 13.988,4.496 13.988 C 4.695 13.988,4.816 13.925,4.920 13.768 L 4.988 13.666 4.995 12.333 L 5.002 11.000 7.501 11.000 L 10.000 11.000 10.000 12.309 L 10.000 13.617 10.058 13.727 C 10.090 13.788,10.164 13.871,10.223 13.913 C 10.315 13.978,10.351 13.988,10.496 13.988 C 10.695 13.988,10.816 13.925,10.920 13.768 L 10.988 13.666 10.995 12.334 L 11.002 11.002 12.334 10.995 L 13.666 10.988 13.768 10.920 C 13.924 10.817,13.988 10.695,13.988 10.498 C 13.988 10.362,13.976 10.317,13.920 10.233 C 13.884 10.177,13.810 10.104,13.758 10.072 L 13.663 10.013 12.331 10.005 L 11.000 9.998 11.000 7.500 L 11.000 5.002 12.331 4.995 L 13.663 4.988 13.758 4.928 C 13.810 4.896,13.884 4.823,13.920 4.767 C 13.976 4.683,13.988 4.638,13.988 4.502 C 13.988 4.305,13.924 4.183,13.768 4.080 L 13.666 4.013 12.334 4.005 L 11.002 3.998 10.995 2.666 L 10.988 1.334 10.920 1.232 C 10.816 1.075,10.695 1.012,10.496 1.012 C 10.351 1.012,10.315 1.022,10.223 1.088 C 10.164 1.129,10.090 1.212,10.058 1.273 L 10.000 1.383 10.000 2.691 L 10.000 4.000 7.501 4.000 L 5.002 4.000 4.995 2.669 L 4.988 1.338 4.928 1.242 C 4.843 1.106,4.708 1.024,4.546 1.012 C 4.473 1.006,4.381 1.012,4.342 1.024 M10.000 7.500 L 10.000 10.000 7.500 10.000 L 5.000 10.000 5.000 7.500 L 5.000 5.000 7.500 5.000 L 10.000 5.000 10.000 7.500 " fill="currentColor" stroke="none" fill-rule="evenodd"></path></svg>