<svg width="15" height="15" fill="none" xmlns="http://www.w3.org/2000/svg"><path d="M3.638 1.047 C 3.521 1.101,3.414 1.208,3.377 1.308 C 3.334 1.420,3.345 1.617,3.398 1.720 C 3.425 1.771,4.101 2.527,4.900 3.400 L 6.353 4.988 4.841 5.000 L 3.329 5.013 3.223 5.088 C 3.164 5.129,3.090 5.212,3.058 5.273 L 3.000 5.383 3.000 7.473 C 3.000 8.889,3.009 9.595,3.027 9.663 C 3.051 9.749,3.337 10.046,5.108 11.820 C 6.238 12.952,7.199 13.900,7.244 13.929 C 7.291 13.958,7.387 13.985,7.469 13.992 C 7.650 14.008,7.802 13.933,7.913 13.777 L 7.988 13.671 7.994 11.835 L 8.001 10.000 9.633 10.000 L 11.264 10.000 11.375 9.944 C 11.549 9.854,11.633 9.729,11.645 9.540 C 11.652 9.429,11.643 9.356,11.615 9.297 C 11.593 9.251,10.916 8.492,10.111 7.613 L 8.647 6.013 10.157 6.000 L 11.666 5.988 11.768 5.920 C 11.823 5.884,11.896 5.810,11.928 5.758 L 11.988 5.663 11.988 3.496 L 11.988 1.329 11.913 1.223 C 11.871 1.164,11.788 1.090,11.727 1.058 L 11.617 1.000 7.677 1.001 C 3.896 1.001,3.733 1.003,3.638 1.047 M11.000 3.500 L 11.000 5.000 9.356 4.999 L 7.713 4.997 6.363 3.519 C 5.620 2.706,5.009 2.031,5.004 2.020 C 5.000 2.009,6.347 2.000,7.998 2.000 L 11.000 2.000 11.000 3.500 M7.825 6.593 C 8.121 6.918,8.737 7.593,9.194 8.092 L 10.026 9.000 7.013 9.000 L 4.000 9.000 4.000 7.500 L 4.000 6.000 5.644 6.001 L 7.288 6.003 7.825 6.593 M7.000 11.138 C 7.000 11.763,6.997 12.275,6.994 12.275 C 6.990 12.275,6.476 11.763,5.850 11.138 L 4.713 10.000 5.856 10.000 L 7.000 10.000 7.000 11.138 " fill="currentColor" stroke="none" fill-rule="evenodd"></path></svg>