<svg width="15" height="15" fill="none" xmlns="http://www.w3.org/2000/svg"><path d="M6.868 0.676 C 6.629 0.735,6.412 0.914,6.310 1.135 C 6.278 1.206,6.196 1.510,6.128 1.809 C 6.060 2.108,6.001 2.356,5.996 2.360 C 5.991 2.364,5.881 2.403,5.750 2.448 C 5.619 2.492,5.385 2.590,5.228 2.664 C 5.072 2.739,4.935 2.800,4.924 2.800 C 4.913 2.800,4.698 2.669,4.446 2.509 C 3.864 2.140,3.816 2.118,3.563 2.117 C 3.242 2.114,3.145 2.172,2.668 2.645 C 2.224 3.085,2.132 3.226,2.107 3.493 C 2.086 3.730,2.140 3.863,2.489 4.420 L 2.805 4.924 2.680 5.181 C 2.612 5.322,2.512 5.564,2.459 5.719 C 2.365 5.992,2.360 6.002,2.275 6.024 C 2.227 6.037,1.979 6.094,1.725 6.151 C 1.471 6.207,1.205 6.280,1.134 6.312 C 0.967 6.387,0.812 6.544,0.729 6.721 C 0.663 6.862,0.663 6.863,0.663 7.500 C 0.663 8.137,0.663 8.138,0.729 8.279 C 0.812 8.456,0.967 8.613,1.134 8.689 C 1.205 8.721,1.508 8.803,1.808 8.871 C 2.108 8.940,2.357 8.999,2.360 9.004 C 2.364 9.009,2.409 9.136,2.461 9.287 C 2.513 9.439,2.612 9.678,2.680 9.819 L 2.804 10.076 2.756 10.157 C 2.729 10.201,2.587 10.428,2.441 10.661 C 2.144 11.131,2.086 11.277,2.107 11.503 C 2.131 11.771,2.213 11.896,2.645 12.332 C 3.128 12.819,3.243 12.888,3.562 12.886 C 3.815 12.884,3.845 12.871,4.442 12.496 L 4.923 12.195 5.180 12.319 C 5.322 12.388,5.561 12.487,5.713 12.539 C 5.864 12.591,5.991 12.636,5.996 12.640 C 6.001 12.643,6.060 12.892,6.129 13.192 C 6.197 13.492,6.279 13.795,6.311 13.866 C 6.387 14.033,6.544 14.188,6.721 14.271 C 6.862 14.337,6.863 14.338,7.500 14.338 C 8.137 14.338,8.138 14.337,8.279 14.271 C 8.456 14.188,8.613 14.033,8.689 13.866 C 8.721 13.795,8.799 13.507,8.862 13.225 C 8.925 12.943,8.982 12.696,8.988 12.675 C 8.995 12.653,9.118 12.597,9.281 12.541 C 9.436 12.488,9.678 12.388,9.820 12.320 L 10.077 12.195 10.558 12.496 C 11.155 12.871,11.185 12.884,11.438 12.886 C 11.757 12.888,11.872 12.819,12.355 12.332 C 12.828 11.855,12.886 11.757,12.886 11.438 C 12.885 11.189,12.865 11.143,12.518 10.594 C 12.372 10.364,12.240 10.153,12.225 10.124 C 12.202 10.081,12.217 10.031,12.320 9.818 C 12.388 9.677,12.487 9.439,12.539 9.287 C 12.591 9.136,12.636 9.009,12.640 9.004 C 12.643 8.999,12.892 8.940,13.192 8.871 C 13.492 8.803,13.795 8.721,13.866 8.689 C 14.033 8.613,14.188 8.456,14.271 8.279 C 14.337 8.138,14.338 8.137,14.338 7.500 C 14.338 6.863,14.337 6.862,14.271 6.721 C 14.188 6.544,14.033 6.387,13.866 6.311 C 13.795 6.279,13.507 6.201,13.225 6.138 C 12.943 6.075,12.696 6.018,12.675 6.012 C 12.653 6.005,12.597 5.882,12.541 5.719 C 12.488 5.564,12.388 5.322,12.320 5.181 L 12.195 4.924 12.511 4.420 C 12.860 3.863,12.914 3.730,12.893 3.493 C 12.868 3.226,12.776 3.085,12.332 2.645 C 11.855 2.172,11.758 2.114,11.438 2.117 C 11.184 2.118,11.136 2.140,10.554 2.509 C 10.302 2.669,10.087 2.800,10.076 2.800 C 10.065 2.800,9.928 2.739,9.772 2.664 C 9.615 2.590,9.381 2.492,9.250 2.448 C 9.119 2.403,9.009 2.364,9.004 2.360 C 8.999 2.357,8.940 2.108,8.871 1.808 C 8.803 1.508,8.721 1.205,8.689 1.134 C 8.613 0.967,8.456 0.812,8.279 0.729 C 8.140 0.664,8.129 0.662,7.550 0.658 C 7.227 0.655,6.920 0.663,6.868 0.676 M7.947 1.594 C 7.961 1.645,8.041 1.998,8.127 2.378 L 8.282 3.068 8.483 3.111 C 8.928 3.207,9.423 3.409,9.866 3.676 C 9.980 3.744,10.079 3.800,10.086 3.800 C 10.094 3.800,10.362 3.635,10.681 3.434 C 11.001 3.232,11.303 3.042,11.352 3.011 L 11.442 2.954 11.744 3.258 L 12.046 3.563 11.634 4.213 C 11.407 4.570,11.215 4.876,11.208 4.893 C 11.201 4.910,11.246 5.005,11.309 5.105 C 11.566 5.518,11.793 6.071,11.889 6.517 L 11.932 6.717 12.622 6.873 C 13.002 6.958,13.355 7.039,13.407 7.053 L 13.501 7.077 13.494 7.505 L 13.488 7.933 12.710 8.109 L 11.932 8.284 11.889 8.484 C 11.793 8.927,11.565 9.482,11.311 9.891 C 11.250 9.989,11.200 10.076,11.200 10.085 C 11.200 10.098,11.654 10.828,11.965 11.315 L 12.046 11.442 11.742 11.745 L 11.438 12.048 10.767 11.624 C 10.398 11.391,10.091 11.200,10.085 11.200 C 10.079 11.200,9.961 11.268,9.823 11.351 C 9.405 11.604,8.926 11.796,8.485 11.889 L 8.282 11.932 8.127 12.622 C 8.041 13.002,7.961 13.355,7.947 13.406 L 7.923 13.500 7.500 13.500 L 7.077 13.500 7.055 13.419 C 7.043 13.374,6.962 13.021,6.875 12.635 L 6.718 11.932 6.515 11.889 C 6.072 11.796,5.591 11.601,5.157 11.339 C 5.030 11.263,4.921 11.200,4.915 11.200 C 4.908 11.200,4.602 11.391,4.233 11.624 L 3.563 12.048 3.258 11.745 L 2.954 11.442 3.011 11.352 C 3.042 11.303,3.232 11.001,3.434 10.681 C 3.635 10.362,3.800 10.093,3.800 10.084 C 3.800 10.075,3.756 9.999,3.703 9.914 C 3.451 9.515,3.219 8.965,3.123 8.536 L 3.067 8.284 2.290 8.109 L 1.513 7.934 1.506 7.506 L 1.499 7.077 1.593 7.053 C 1.645 7.040,1.998 6.959,2.378 6.873 L 3.068 6.717 3.111 6.517 C 3.207 6.072,3.409 5.577,3.676 5.134 C 3.744 5.020,3.800 4.922,3.800 4.915 C 3.800 4.908,3.667 4.691,3.504 4.432 C 3.341 4.174,3.151 3.871,3.081 3.760 L 2.954 3.557 3.258 3.256 L 3.563 2.954 4.213 3.367 C 4.570 3.594,4.876 3.785,4.893 3.792 C 4.910 3.799,5.005 3.754,5.105 3.691 C 5.518 3.434,6.071 3.207,6.517 3.111 L 6.718 3.068 6.875 2.365 C 6.962 1.979,7.043 1.626,7.055 1.581 L 7.077 1.500 7.500 1.500 L 7.923 1.500 7.947 1.594 M7.138 5.102 C 6.589 5.179,5.980 5.527,5.624 5.969 C 4.838 6.942,4.909 8.333,5.788 9.212 C 6.806 10.230,8.491 10.139,9.388 9.017 C 10.325 7.846,9.995 6.133,8.689 5.389 C 8.241 5.134,7.669 5.028,7.138 5.102 M7.813 6.012 C 8.394 6.134,8.866 6.606,8.988 7.188 C 9.156 7.991,8.664 8.770,7.860 8.976 C 7.095 9.171,6.286 8.713,6.048 7.950 C 5.705 6.852,6.685 5.777,7.813 6.012 " fill="currentColor" stroke="none" fill-rule="evenodd"></path></svg>