<svg width="15" height="15" fill="none" xmlns="http://www.w3.org/2000/svg"><path d="M7.000 0.266 C 5.363 0.387,3.841 1.038,2.612 2.143 C 1.644 3.013,0.893 4.224,0.526 5.507 C 0.168 6.760,0.156 8.132,0.492 9.375 C 0.954 11.082,2.018 12.564,3.478 13.532 C 3.994 13.874,4.551 14.153,5.087 14.336 C 5.313 14.413,5.450 14.409,5.561 14.322 C 5.694 14.217,5.700 14.182,5.700 13.461 L 5.700 12.794 5.644 12.809 C 5.353 12.887,4.669 12.890,4.388 12.815 C 4.305 12.793,4.142 12.728,4.025 12.671 C 3.855 12.588,3.773 12.528,3.613 12.365 C 3.410 12.158,3.376 12.104,3.164 11.641 C 2.977 11.235,2.773 10.988,2.418 10.740 C 2.143 10.548,2.099 10.417,2.288 10.354 C 2.510 10.279,2.848 10.366,3.143 10.573 C 3.335 10.708,3.456 10.843,3.639 11.125 C 4.087 11.817,4.769 12.029,5.576 11.727 L 5.713 11.676 5.757 11.480 C 5.813 11.232,5.943 10.958,6.074 10.816 L 6.176 10.706 6.032 10.689 C 5.772 10.658,5.279 10.551,5.031 10.472 C 3.820 10.084,3.136 9.264,2.937 7.963 C 2.876 7.562,2.863 6.981,2.908 6.688 C 2.992 6.147,3.199 5.680,3.532 5.282 L 3.620 5.176 3.574 5.027 C 3.431 4.568,3.452 3.966,3.631 3.433 L 3.688 3.263 3.938 3.265 C 4.147 3.268,4.225 3.281,4.423 3.348 C 4.724 3.449,5.037 3.600,5.401 3.820 L 5.689 3.994 6.003 3.925 C 6.980 3.711,8.020 3.711,8.997 3.925 L 9.311 3.994 9.599 3.820 C 10.206 3.453,10.658 3.278,11.054 3.256 L 11.296 3.243 11.336 3.339 C 11.404 3.501,11.475 3.816,11.506 4.089 C 11.540 4.392,11.509 4.762,11.429 5.019 L 11.380 5.176 11.468 5.282 C 11.974 5.887,12.178 6.608,12.104 7.531 C 12.026 8.507,11.781 9.152,11.295 9.665 C 10.889 10.092,10.436 10.347,9.763 10.526 C 9.540 10.585,8.931 10.700,8.842 10.700 C 8.830 10.700,8.867 10.753,8.925 10.818 C 9.048 10.958,9.181 11.225,9.241 11.450 C 9.277 11.589,9.286 11.795,9.298 12.888 C 9.313 14.243,9.311 14.221,9.439 14.322 C 9.598 14.447,9.779 14.412,10.425 14.134 C 11.225 13.789,11.973 13.276,12.626 12.625 C 13.729 11.525,14.422 10.157,14.679 8.575 C 14.743 8.178,14.769 7.254,14.727 6.845 C 14.466 4.280,13.004 2.153,10.713 1.003 C 10.007 0.649,9.282 0.430,8.425 0.312 C 8.145 0.273,7.277 0.245,7.000 0.266 " fill="currentColor" stroke="none" fill-rule="evenodd"></path></svg>