<svg width="15" height="15" fill="none" xmlns="http://www.w3.org/2000/svg"><path d="M2.175 1.039 C 1.902 1.098,1.663 1.233,1.449 1.448 C 1.233 1.666,1.121 1.859,1.049 2.140 C 1.001 2.329,1.000 2.436,1.000 7.500 C 1.000 12.564,1.001 12.671,1.049 12.860 C 1.122 13.143,1.233 13.334,1.449 13.551 C 1.666 13.767,1.857 13.878,2.140 13.951 C 2.329 13.999,2.436 14.000,7.500 14.000 C 12.564 14.000,12.671 13.999,12.860 13.951 C 13.143 13.878,13.334 13.767,13.551 13.551 C 13.767 13.334,13.878 13.143,13.951 12.860 C 13.999 12.671,14.000 12.564,14.000 7.500 C 14.000 2.436,13.999 2.329,13.951 2.140 C 13.879 1.859,13.767 1.666,13.551 1.448 C 13.334 1.229,13.096 1.097,12.813 1.038 C 12.556 0.984,2.425 0.985,2.175 1.039 M7.000 4.500 L 7.000 7.000 4.500 7.000 L 2.000 7.000 2.000 4.719 C 2.000 3.190,2.009 2.406,2.027 2.342 C 2.059 2.226,2.219 2.060,2.330 2.028 C 2.379 2.014,3.342 2.004,4.706 2.002 L 7.000 2.000 7.000 4.500 M12.758 2.072 C 12.810 2.104,12.884 2.177,12.920 2.232 L 12.988 2.334 12.994 4.667 L 13.001 7.000 10.501 7.000 L 8.000 7.000 8.000 4.499 L 8.000 1.999 10.331 2.006 L 12.663 2.013 12.758 2.072 M7.000 10.501 L 7.000 13.001 4.667 12.994 L 2.334 12.988 2.232 12.920 C 2.177 12.884,2.104 12.810,2.072 12.758 L 2.013 12.663 2.006 10.331 L 1.999 8.000 4.499 8.000 L 7.000 8.000 7.000 10.501 M12.994 10.331 L 12.988 12.663 12.928 12.758 C 12.896 12.810,12.823 12.884,12.768 12.920 L 12.666 12.988 10.333 12.994 L 8.000 13.001 8.000 10.501 L 8.000 8.000 10.501 8.000 L 13.001 8.000 12.994 10.331 " fill="currentColor" stroke="none" fill-rule="evenodd"></path></svg>