<svg width="15" height="15" fill="none" xmlns="http://www.w3.org/2000/svg"><path d="M1.292 0.975 C 1.178 1.010,1.059 1.116,1.003 1.232 C 0.952 1.338,0.950 1.374,0.950 2.454 L 0.950 3.567 1.008 3.677 C 1.040 3.738,1.114 3.821,1.173 3.863 C 1.266 3.928,1.301 3.938,1.448 3.938 C 1.589 3.938,1.633 3.927,1.717 3.870 C 1.773 3.834,1.846 3.760,1.878 3.708 C 1.937 3.613,1.938 3.606,1.945 2.782 L 1.952 1.952 2.782 1.945 C 3.606 1.938,3.613 1.937,3.708 1.878 C 3.760 1.846,3.834 1.773,3.870 1.717 C 3.926 1.633,3.938 1.588,3.938 1.450 C 3.938 1.312,3.926 1.267,3.870 1.183 C 3.834 1.127,3.760 1.054,3.708 1.022 L 3.613 0.963 2.488 0.958 C 1.869 0.955,1.331 0.963,1.292 0.975 M5.792 0.975 C 5.601 1.033,5.450 1.245,5.450 1.454 C 5.450 1.605,5.539 1.768,5.673 1.863 L 5.779 1.938 7.448 1.938 L 9.116 1.938 9.217 1.870 C 9.374 1.767,9.438 1.645,9.438 1.450 C 9.438 1.255,9.374 1.133,9.218 1.030 L 9.116 0.963 7.489 0.958 C 6.595 0.956,5.831 0.963,5.792 0.975 M11.292 0.975 C 11.102 1.033,10.950 1.245,10.950 1.454 C 10.950 1.605,11.039 1.768,11.173 1.863 L 11.279 1.938 12.115 1.945 L 12.950 1.953 12.950 2.760 C 12.950 3.557,12.951 3.569,13.008 3.677 C 13.040 3.738,13.114 3.821,13.173 3.863 C 13.266 3.928,13.301 3.938,13.448 3.938 C 13.589 3.938,13.633 3.927,13.717 3.870 C 13.773 3.834,13.846 3.760,13.878 3.708 L 13.938 3.613 13.938 2.448 L 13.938 1.284 13.870 1.182 C 13.827 1.116,13.758 1.058,13.672 1.016 L 13.540 0.950 12.451 0.952 C 11.852 0.953,11.331 0.964,11.292 0.975 M1.292 5.474 C 1.177 5.511,1.059 5.616,1.003 5.732 C 0.951 5.839,0.950 5.866,0.950 7.454 L 0.950 9.067 1.008 9.177 C 1.040 9.238,1.114 9.321,1.173 9.363 C 1.265 9.428,1.301 9.438,1.446 9.438 C 1.645 9.438,1.766 9.375,1.870 9.217 L 1.938 9.116 1.938 7.452 L 1.938 5.788 1.878 5.692 C 1.793 5.556,1.658 5.474,1.496 5.462 C 1.423 5.456,1.331 5.462,1.292 5.474 M13.292 5.474 C 13.177 5.511,13.059 5.616,13.003 5.732 C 12.951 5.839,12.950 5.866,12.950 7.454 L 12.950 9.067 13.008 9.177 C 13.040 9.238,13.114 9.321,13.173 9.363 C 13.265 9.428,13.301 9.438,13.446 9.438 C 13.645 9.438,13.766 9.375,13.870 9.217 L 13.938 9.116 13.938 7.452 L 13.938 5.788 13.878 5.692 C 13.793 5.556,13.658 5.474,13.496 5.462 C 13.423 5.456,13.331 5.462,13.292 5.474 M1.292 10.974 C 1.177 11.011,1.059 11.116,1.003 11.232 C 0.952 11.338,0.950 11.374,0.950 12.454 L 0.950 13.567 1.008 13.677 C 1.040 13.738,1.114 13.821,1.173 13.863 L 1.279 13.938 2.448 13.938 L 3.616 13.938 3.717 13.870 C 3.874 13.767,3.938 13.645,3.938 13.448 C 3.938 13.312,3.926 13.267,3.870 13.183 C 3.834 13.127,3.760 13.054,3.708 13.022 C 3.613 12.963,3.606 12.962,2.782 12.955 L 1.952 12.948 1.945 12.118 C 1.938 11.294,1.937 11.287,1.878 11.192 C 1.793 11.056,1.658 10.974,1.496 10.962 C 1.423 10.956,1.331 10.962,1.292 10.974 M13.292 10.974 C 13.177 11.011,13.059 11.116,13.003 11.232 C 12.952 11.336,12.950 11.379,12.950 12.144 L 12.950 12.947 12.115 12.955 L 11.279 12.963 11.173 13.038 C 10.879 13.244,10.879 13.656,11.173 13.863 L 11.279 13.938 12.448 13.938 L 13.616 13.938 13.717 13.870 C 13.773 13.834,13.846 13.760,13.878 13.708 L 13.938 13.613 13.938 12.450 L 13.938 11.288 13.878 11.192 C 13.793 11.056,13.658 10.974,13.496 10.962 C 13.423 10.956,13.331 10.962,13.292 10.974 M5.792 12.975 C 5.601 13.033,5.450 13.245,5.450 13.454 C 5.450 13.605,5.539 13.768,5.673 13.863 L 5.779 13.938 7.448 13.938 L 9.116 13.938 9.217 13.870 C 9.374 13.767,9.438 13.645,9.438 13.450 C 9.438 13.255,9.374 13.133,9.218 13.030 L 9.116 12.963 7.489 12.958 C 6.595 12.956,5.831 12.963,5.792 12.975 " fill="currentColor" stroke="none" fill-rule="evenodd"></path></svg>