<svg width="15" height="15" fill="none" xmlns="http://www.w3.org/2000/svg"><path d="M6.975 0.899 C 6.136 0.969,5.317 1.197,4.578 1.564 C 3.935 1.883,3.428 2.238,2.920 2.723 C 1.343 4.229,0.611 6.418,0.965 8.575 C 1.391 11.173,3.343 13.289,5.900 13.925 C 6.970 14.191,8.030 14.191,9.100 13.925 C 11.656 13.289,13.609 11.172,14.035 8.575 C 14.389 6.419,13.657 4.229,12.080 2.723 C 11.077 1.766,9.818 1.150,8.456 0.951 C 8.062 0.893,7.339 0.868,6.975 0.899 M7.500 7.500 L 7.500 13.175 7.365 13.175 C 6.957 13.175,6.268 13.058,5.799 12.910 C 4.873 12.617,4.105 12.139,3.418 11.427 C 2.567 10.547,2.058 9.487,1.872 8.213 C 1.854 8.087,1.839 7.771,1.839 7.500 C 1.839 6.991,1.863 6.758,1.966 6.275 C 2.127 5.515,2.475 4.759,2.969 4.091 C 3.211 3.766,3.766 3.211,4.091 2.969 C 5.052 2.257,6.179 1.864,7.356 1.829 L 7.500 1.825 7.500 7.500 " fill="currentColor" stroke="none" fill-rule="evenodd"></path></svg>