<svg width="15" height="15" fill="none" xmlns="http://www.w3.org/2000/svg"><path d="M6.975 0.899 C 6.136 0.969,5.317 1.197,4.578 1.564 C 3.935 1.883,3.428 2.238,2.920 2.723 C 1.343 4.229,0.611 6.418,0.965 8.575 C 1.391 11.173,3.343 13.289,5.900 13.925 C 6.970 14.191,8.030 14.191,9.100 13.925 C 11.656 13.289,13.609 11.172,14.035 8.575 C 14.389 6.419,13.657 4.229,12.080 2.723 C 11.077 1.766,9.818 1.150,8.456 0.951 C 8.062 0.893,7.339 0.868,6.975 0.899 M7.000 7.502 L 7.000 13.154 6.856 13.137 C 4.613 12.873,2.724 11.292,2.074 9.132 C 1.911 8.590,1.845 8.116,1.844 7.500 C 1.844 6.342,2.139 5.350,2.770 4.385 C 3.554 3.189,4.790 2.317,6.169 1.990 C 6.413 1.932,6.819 1.861,6.956 1.853 C 6.998 1.850,7.000 2.135,7.000 7.502 M8.462 1.915 C 10.643 2.272,12.461 3.960,12.997 6.129 C 13.325 7.455,13.155 8.911,12.533 10.100 C 11.650 11.787,10.016 12.917,8.144 13.137 L 8.000 13.154 8.000 7.500 L 8.000 1.847 8.119 1.863 C 8.184 1.871,8.338 1.895,8.462 1.915 " fill="currentColor" stroke="none" fill-rule="evenodd"></path></svg>