<svg width="15" height="15" fill="none" xmlns="http://www.w3.org/2000/svg"><path d="M1.342 3.025 C 1.152 3.083,1.000 3.295,1.000 3.504 C 1.000 3.655,1.089 3.818,1.223 3.913 L 1.329 3.988 7.496 3.988 L 13.663 3.988 13.758 3.928 C 13.810 3.896,13.884 3.823,13.920 3.767 C 13.976 3.683,13.988 3.638,13.988 3.500 C 13.988 3.362,13.976 3.317,13.920 3.233 C 13.884 3.177,13.810 3.104,13.758 3.072 L 13.663 3.013 7.538 3.008 C 4.169 3.006,1.381 3.014,1.342 3.025 M1.342 7.025 C 1.152 7.083,1.000 7.295,1.000 7.504 C 1.000 7.655,1.089 7.818,1.223 7.913 L 1.329 7.988 7.496 7.988 L 13.663 7.988 13.758 7.928 C 13.810 7.896,13.884 7.823,13.920 7.767 C 13.976 7.683,13.988 7.638,13.988 7.500 C 13.988 7.362,13.976 7.317,13.920 7.233 C 13.884 7.177,13.810 7.104,13.758 7.072 L 13.663 7.013 7.538 7.008 C 4.169 7.006,1.381 7.014,1.342 7.025 M1.342 11.025 C 1.152 11.083,1.000 11.295,1.000 11.504 C 1.000 11.655,1.089 11.818,1.223 11.913 L 1.329 11.988 7.496 11.988 L 13.663 11.988 13.758 11.928 C 13.810 11.896,13.884 11.823,13.920 11.767 C 13.976 11.683,13.988 11.638,13.988 11.500 C 13.988 11.362,13.976 11.317,13.920 11.233 C 13.884 11.177,13.810 11.104,13.758 11.072 L 13.663 11.013 7.538 11.008 C 4.169 11.006,1.381 11.014,1.342 11.025 " fill="currentColor" stroke="none" fill-rule="evenodd"></path></svg>