<svg width="15" height="15" fill="none" xmlns="http://www.w3.org/2000/svg"><path d="M7.250 0.038 C 6.869 0.116,6.580 0.269,6.310 0.537 C 6.151 0.696,6.086 0.783,6.004 0.950 C 5.875 1.214,5.834 1.372,5.784 1.800 C 5.762 1.986,5.737 2.157,5.728 2.181 C 5.716 2.215,5.676 2.170,5.558 1.994 C 4.732 0.754,3.413 0.454,2.562 1.311 C 2.104 1.773,1.943 2.402,2.113 3.066 C 2.209 3.437,2.399 3.980,2.639 4.564 C 2.973 5.379,3.294 6.181,3.313 6.248 C 3.329 6.302,3.318 6.297,3.209 6.206 C 2.749 5.820,2.208 5.634,1.603 5.655 C 1.225 5.668,1.009 5.734,0.744 5.915 C 0.508 6.076,0.345 6.270,0.198 6.563 C -0.034 7.025,-0.051 7.449,0.140 8.025 C 0.372 8.723,0.858 9.378,2.087 10.648 C 3.346 11.950,3.809 12.523,4.150 13.200 C 4.369 13.636,4.500 14.113,4.500 14.475 C 4.500 14.657,4.579 14.811,4.723 14.913 L 4.829 14.988 8.496 14.988 L 12.163 14.988 12.258 14.928 C 12.310 14.896,12.383 14.824,12.419 14.770 C 12.482 14.675,12.485 14.651,12.505 14.179 C 12.543 13.258,12.636 12.543,12.810 11.838 C 12.991 11.105,13.124 10.721,13.680 9.313 C 14.449 7.369,14.783 6.360,14.929 5.543 C 15.002 5.136,15.008 4.486,14.942 4.179 C 14.808 3.552,14.508 3.084,14.071 2.819 C 13.861 2.692,13.696 2.634,13.447 2.600 C 13.125 2.555,12.814 2.608,12.559 2.750 L 12.431 2.822 12.414 2.674 C 12.378 2.353,12.271 2.053,12.101 1.792 C 11.583 0.998,10.610 0.689,9.838 1.072 C 9.728 1.127,9.591 1.212,9.534 1.261 C 9.476 1.310,9.424 1.350,9.417 1.350 C 9.410 1.350,9.397 1.313,9.387 1.269 C 9.356 1.114,9.155 0.738,9.028 0.597 C 8.618 0.140,7.882 -0.091,7.250 0.038 M7.987 1.065 C 8.168 1.128,8.360 1.327,8.410 1.503 C 8.478 1.743,8.501 2.280,8.526 4.236 C 8.542 5.465,8.560 6.196,8.578 6.261 C 8.629 6.449,8.863 6.624,9.065 6.625 C 9.229 6.625,9.435 6.491,9.501 6.340 C 9.562 6.203,9.570 6.121,9.613 5.163 C 9.671 3.890,9.736 3.094,9.815 2.700 C 9.865 2.446,9.999 2.176,10.131 2.063 C 10.342 1.882,10.601 1.861,10.891 2.001 C 11.079 2.092,11.230 2.251,11.329 2.463 C 11.392 2.599,11.407 2.670,11.429 2.955 C 11.457 3.310,11.442 4.380,11.400 5.067 C 11.387 5.289,11.373 5.649,11.370 5.867 C 11.364 6.319,11.391 6.421,11.558 6.568 C 11.775 6.758,12.059 6.730,12.258 6.499 C 12.377 6.360,12.460 6.018,12.526 5.400 C 12.576 4.923,12.679 4.341,12.753 4.107 C 12.879 3.713,13.041 3.559,13.299 3.587 C 13.946 3.657,14.163 4.588,13.834 5.875 C 13.674 6.499,13.322 7.506,12.845 8.700 C 12.448 9.694,12.275 10.155,12.104 10.679 C 11.793 11.631,11.590 12.644,11.539 13.488 C 11.530 13.625,11.517 13.797,11.510 13.869 L 11.496 14.000 8.482 13.994 L 5.468 13.988 5.412 13.738 C 5.257 13.048,4.870 12.315,4.254 11.544 C 3.941 11.152,3.685 10.870,2.862 10.010 C 1.836 8.936,1.475 8.498,1.231 8.031 C 1.082 7.745,1.025 7.545,1.026 7.309 C 1.026 7.039,1.171 6.795,1.387 6.697 C 1.510 6.641,1.828 6.635,2.015 6.684 C 2.334 6.770,2.528 6.908,2.987 7.379 C 3.744 8.157,4.023 8.420,4.138 8.464 C 4.302 8.527,4.499 8.504,4.619 8.409 C 4.736 8.316,4.825 8.145,4.825 8.015 C 4.825 7.898,4.574 6.909,4.412 6.386 C 4.262 5.904,4.098 5.473,3.713 4.550 C 3.321 3.610,3.073 2.886,3.056 2.636 C 3.033 2.297,3.177 2.014,3.437 1.887 C 3.892 1.664,4.481 2.057,4.922 2.877 C 5.247 3.480,5.493 4.337,5.724 5.675 C 5.780 5.998,5.837 6.297,5.851 6.339 C 5.881 6.431,6.035 6.587,6.133 6.624 C 6.244 6.665,6.442 6.655,6.545 6.603 C 6.663 6.542,6.711 6.489,6.775 6.343 L 6.827 6.225 6.771 5.369 C 6.691 4.155,6.689 2.519,6.768 1.958 C 6.840 1.445,6.922 1.274,7.173 1.119 C 7.368 0.998,7.726 0.974,7.987 1.065 " fill="currentColor" stroke="none" fill-rule="evenodd"></path></svg>