<svg width="15" height="15" fill="none" xmlns="http://www.w3.org/2000/svg"><path d="M2.554 2.104 C 2.227 2.266,2.228 2.738,2.556 2.897 C 2.659 2.947,2.705 2.950,3.308 2.950 L 3.950 2.950 3.950 7.500 L 3.950 12.050 3.308 12.050 C 2.705 12.050,2.659 12.053,2.556 12.103 C 2.227 12.262,2.227 12.738,2.556 12.897 C 2.665 12.950,2.681 12.950,4.502 12.949 C 6.241 12.949,6.343 12.946,6.440 12.902 C 6.497 12.876,6.576 12.813,6.615 12.761 C 6.678 12.679,6.688 12.645,6.688 12.500 C 6.688 12.355,6.678 12.321,6.615 12.239 C 6.481 12.063,6.423 12.051,5.694 12.051 L 5.050 12.050 5.050 10.000 L 5.050 7.950 7.500 7.950 L 9.950 7.950 9.950 10.000 L 9.950 12.050 9.308 12.050 C 8.705 12.050,8.659 12.053,8.556 12.103 C 8.227 12.262,8.227 12.738,8.556 12.897 C 8.665 12.950,8.681 12.950,10.502 12.949 C 12.241 12.949,12.343 12.946,12.440 12.902 C 12.497 12.876,12.576 12.813,12.615 12.761 C 12.678 12.679,12.688 12.645,12.688 12.500 C 12.688 12.355,12.678 12.321,12.615 12.239 C 12.481 12.063,12.423 12.051,11.694 12.051 L 11.050 12.050 11.050 7.500 L 11.050 2.950 11.694 2.949 C 12.423 2.949,12.481 2.937,12.615 2.761 C 12.678 2.679,12.688 2.645,12.688 2.500 C 12.688 2.355,12.678 2.321,12.615 2.239 C 12.576 2.187,12.497 2.124,12.440 2.098 C 12.343 2.054,12.241 2.051,10.502 2.051 C 8.681 2.050,8.665 2.050,8.556 2.103 C 8.227 2.262,8.227 2.738,8.556 2.897 C 8.659 2.947,8.705 2.950,9.308 2.950 L 9.950 2.950 9.950 5.000 L 9.950 7.050 7.500 7.050 L 5.050 7.050 5.050 5.000 L 5.050 2.950 5.694 2.949 C 6.423 2.949,6.481 2.937,6.615 2.761 C 6.678 2.679,6.688 2.645,6.688 2.500 C 6.688 2.355,6.678 2.321,6.615 2.239 C 6.576 2.187,6.497 2.124,6.440 2.098 C 6.343 2.054,6.241 2.051,4.500 2.051 C 2.671 2.050,2.662 2.050,2.554 2.104 " fill="currentColor" stroke="none" fill-rule="evenodd"></path></svg>