<svg width="15" height="15" fill="none" xmlns="http://www.w3.org/2000/svg"><path d="M4.500 1.376 C 2.956 1.565,1.752 2.672,1.420 4.208 C 1.341 4.577,1.341 5.279,1.422 5.733 C 1.744 7.554,2.888 9.388,5.050 11.551 C 5.989 12.491,7.191 13.574,7.346 13.621 C 7.640 13.709,7.681 13.680,8.975 12.491 C 11.791 9.902,13.263 7.717,13.594 5.638 C 13.658 5.229,13.652 4.546,13.579 4.208 C 13.307 2.935,12.428 1.943,11.216 1.537 C 10.825 1.406,10.551 1.365,10.075 1.366 C 9.343 1.367,8.842 1.503,8.318 1.841 C 8.101 1.981,7.741 2.328,7.613 2.523 C 7.558 2.606,7.507 2.674,7.500 2.674 C 7.493 2.674,7.442 2.606,7.388 2.523 C 7.333 2.440,7.190 2.277,7.070 2.161 C 6.524 1.633,5.906 1.392,5.025 1.364 C 4.839 1.358,4.603 1.363,4.500 1.376 M5.488 2.412 C 5.611 2.437,5.785 2.500,5.944 2.577 C 6.389 2.792,6.647 3.107,6.926 3.775 C 6.997 3.947,7.084 4.125,7.119 4.171 C 7.293 4.404,7.705 4.404,7.882 4.171 C 7.917 4.125,7.981 3.998,8.025 3.888 C 8.232 3.362,8.464 2.994,8.721 2.783 C 8.905 2.633,9.260 2.465,9.513 2.410 C 9.817 2.344,10.395 2.349,10.684 2.421 C 11.481 2.618,12.145 3.186,12.452 3.934 C 12.594 4.280,12.634 4.499,12.633 4.938 C 12.631 5.707,12.463 6.328,12.013 7.238 C 11.424 8.426,10.509 9.599,9.059 11.025 C 8.500 11.575,7.537 12.463,7.500 12.463 C 7.462 12.463,6.524 11.598,5.954 11.038 C 4.541 9.650,3.609 8.467,3.027 7.325 C 2.619 6.525,2.437 5.938,2.373 5.216 C 2.313 4.544,2.442 4.005,2.789 3.485 C 3.185 2.889,3.843 2.476,4.556 2.375 C 4.771 2.345,5.246 2.364,5.488 2.412 " fill="currentColor" stroke="none" fill-rule="evenodd"></path></svg>