<svg width="15" height="15" fill="none" xmlns="http://www.w3.org/2000/svg"><path d="M4.500 1.378 C 3.155 1.530,2.007 2.445,1.555 3.728 C 1.402 4.161,1.362 4.411,1.364 4.938 C 1.365 5.465,1.414 5.824,1.553 6.320 C 2.136 8.405,3.687 10.429,6.868 13.254 C 7.472 13.790,7.528 13.790,8.144 13.242 C 10.609 11.052,11.997 9.452,12.852 7.813 C 13.234 7.080,13.479 6.362,13.594 5.638 C 13.658 5.229,13.652 4.546,13.579 4.208 C 13.307 2.935,12.428 1.942,11.216 1.537 C 10.417 1.270,9.462 1.300,8.813 1.612 C 8.533 1.747,8.315 1.910,8.077 2.165 C 7.921 2.332,7.562 2.806,7.514 2.907 C 7.503 2.931,7.497 2.931,7.486 2.907 C 7.478 2.890,7.389 2.760,7.289 2.619 C 6.721 1.817,6.157 1.465,5.300 1.376 C 5.025 1.347,4.766 1.348,4.500 1.378 " fill="currentColor" stroke="none" fill-rule="evenodd"></path></svg>