<svg width="15" height="15" fill="none" xmlns="http://www.w3.org/2000/svg"><path d="M2.380 0.165 C 2.188 0.260,2.080 0.451,2.106 0.647 C 2.113 0.697,2.668 2.318,3.340 4.250 C 4.476 7.516,4.568 7.768,4.650 7.850 C 4.788 7.988,4.863 8.000,5.616 8.000 L 6.289 8.000 8.976 10.689 C 10.453 12.167,11.702 13.402,11.750 13.432 C 11.873 13.510,12.127 13.510,12.250 13.433 C 12.298 13.403,12.699 13.014,13.141 12.570 C 13.858 11.850,13.949 11.750,13.975 11.650 C 14.012 11.513,13.992 11.345,13.926 11.241 C 13.899 11.198,12.669 9.955,11.192 8.478 L 8.506 5.794 8.495 5.560 C 8.486 5.348,8.478 5.317,8.411 5.226 C 8.294 5.067,2.967 0.248,2.821 0.169 C 2.662 0.082,2.547 0.081,2.380 0.165 M5.700 4.089 C 6.683 4.979,7.491 5.725,7.496 5.745 C 7.501 5.767,7.254 6.033,6.896 6.391 L 6.288 7.000 5.821 7.000 L 5.355 7.000 5.305 6.856 C 5.278 6.777,4.916 5.734,4.500 4.538 C 4.084 3.341,3.737 2.346,3.730 2.325 C 3.723 2.304,3.761 2.328,3.815 2.378 C 3.869 2.428,4.717 3.198,5.700 4.089 M10.525 9.237 L 12.787 11.500 12.394 11.894 L 12.000 12.287 9.731 10.019 L 7.463 7.750 7.850 7.363 C 8.063 7.149,8.243 6.975,8.250 6.975 C 8.257 6.975,9.281 7.993,10.525 9.237 " fill="currentColor" stroke="none" fill-rule="evenodd"></path></svg>