<svg width="15" height="15" fill="none" xmlns="http://www.w3.org/2000/svg"><path d="M7.326 0.078 C 7.278 0.092,7.206 0.128,7.166 0.156 C 7.065 0.228,0.357 6.825,0.258 6.949 C -0.047 7.333,0.249 7.902,0.753 7.899 C 0.952 7.898,1.057 7.825,1.536 7.355 L 1.988 6.913 2.000 9.789 L 2.013 12.666 2.080 12.768 C 2.116 12.823,2.190 12.896,2.242 12.928 L 2.337 12.988 7.500 12.988 L 12.663 12.988 12.758 12.928 C 12.810 12.896,12.884 12.823,12.920 12.768 L 12.988 12.666 13.000 9.789 L 13.013 6.913 13.450 7.340 C 13.691 7.575,13.925 7.787,13.970 7.810 C 14.016 7.833,14.106 7.859,14.170 7.867 C 14.642 7.922,14.982 7.422,14.756 7.003 C 14.704 6.905,13.891 6.093,11.280 3.525 C 9.132 1.414,7.834 0.155,7.770 0.123 C 7.650 0.061,7.447 0.041,7.326 0.078 M9.759 3.713 L 11.999 5.913 11.999 8.956 L 12.000 12.000 11.001 12.000 L 10.001 12.000 9.994 10.167 L 9.988 8.334 9.920 8.232 C 9.884 8.177,9.810 8.104,9.758 8.072 L 9.663 8.013 7.996 8.013 L 6.329 8.013 6.223 8.088 C 6.164 8.129,6.090 8.212,6.058 8.273 L 6.000 8.383 6.000 10.191 L 6.000 12.000 4.500 12.000 L 3.000 12.000 3.001 8.956 L 3.001 5.913 5.244 3.707 C 6.478 2.494,7.495 1.504,7.504 1.507 C 7.513 1.510,8.528 2.502,9.759 3.713 M9.000 10.500 L 9.000 12.000 8.000 12.000 L 7.000 12.000 7.000 10.500 L 7.000 9.000 8.000 9.000 L 9.000 9.000 9.000 10.500 " fill="currentColor" stroke="none" fill-rule="evenodd"></path></svg>