<svg width="15" height="15" fill="none" xmlns="http://www.w3.org/2000/svg"><path d="M7.185 0.025 C 6.746 0.087,6.438 0.257,6.314 0.505 C 6.241 0.653,6.233 0.785,6.289 0.919 C 6.338 1.037,6.401 1.105,6.583 1.232 C 6.792 1.379,6.853 1.514,6.744 1.586 C 6.588 1.688,6.235 1.733,5.175 1.788 C 4.286 1.833,3.934 1.863,3.534 1.926 C 3.002 2.010,2.660 2.151,2.550 2.331 C 2.443 2.506,2.522 2.771,2.723 2.913 L 2.829 2.988 7.496 2.988 L 12.163 2.988 12.258 2.928 C 12.452 2.807,12.554 2.527,12.465 2.356 C 12.331 2.096,11.812 1.934,10.850 1.850 C 10.692 1.837,10.231 1.808,9.825 1.788 C 8.742 1.732,8.420 1.690,8.256 1.585 C 8.142 1.511,8.200 1.385,8.420 1.230 C 8.599 1.105,8.662 1.037,8.711 0.919 C 8.767 0.785,8.759 0.653,8.686 0.505 C 8.585 0.303,8.334 0.137,8.019 0.063 C 7.822 0.016,7.385 -0.004,7.185 0.025 M2.825 4.023 C 2.568 4.102,2.425 4.289,2.425 4.543 C 2.426 4.794,2.587 5.009,2.882 5.152 C 3.151 5.282,3.237 5.401,3.220 5.615 C 3.205 5.795,3.100 5.957,2.899 6.112 C 2.643 6.310,2.393 6.573,2.281 6.763 C 2.092 7.083,1.983 7.521,2.006 7.862 C 2.013 7.959,2.206 9.059,2.435 10.308 C 2.744 11.991,2.871 12.631,2.926 12.781 C 3.100 13.258,3.480 13.656,3.948 13.852 C 4.316 14.006,4.210 14.002,7.588 13.994 C 11.041 13.986,10.750 14.002,11.175 13.794 C 11.350 13.708,11.430 13.648,11.626 13.451 C 11.879 13.198,12.025 12.965,12.111 12.675 C 12.187 12.421,12.979 8.070,12.993 7.831 C 13.009 7.560,12.971 7.287,12.882 7.038 C 12.751 6.669,12.552 6.407,12.201 6.141 C 11.899 5.913,11.813 5.784,11.813 5.563 C 11.813 5.354,11.884 5.262,12.151 5.123 C 12.389 4.999,12.511 4.869,12.566 4.681 C 12.637 4.435,12.529 4.195,12.290 4.067 L 12.188 4.013 7.538 4.008 C 4.980 4.006,2.859 4.013,2.825 4.023 M7.995 5.219 C 8.161 5.636,8.233 6.167,8.178 6.579 C 8.135 6.899,8.066 7.138,7.875 7.625 C 7.664 8.163,7.604 8.376,7.584 8.650 C 7.558 9.017,7.668 9.316,7.917 9.552 C 8.210 9.830,8.621 9.912,9.060 9.782 C 9.634 9.612,9.950 9.110,9.950 8.368 C 9.950 7.914,9.853 7.581,9.553 7.000 C 9.062 6.051,9.016 5.923,9.014 5.500 C 9.013 5.356,9.022 5.184,9.033 5.119 L 9.053 5.000 9.979 5.000 C 10.850 5.000,10.905 5.003,10.892 5.044 C 10.783 5.393,10.771 5.658,10.852 5.950 C 10.950 6.306,11.151 6.595,11.465 6.833 C 11.726 7.030,11.865 7.184,11.928 7.345 C 12.036 7.620,12.025 7.706,11.579 10.125 C 11.356 11.328,11.157 12.363,11.137 12.425 C 11.083 12.584,10.943 12.765,10.805 12.852 C 10.559 13.008,10.723 13.001,7.448 12.994 L 4.461 12.988 4.296 12.906 C 4.105 12.812,3.969 12.674,3.887 12.491 C 3.847 12.400,3.709 11.699,3.413 10.079 C 2.970 7.652,2.976 7.698,3.066 7.438 C 3.120 7.283,3.263 7.092,3.394 6.999 C 3.558 6.883,3.841 6.609,3.929 6.481 C 4.237 6.035,4.302 5.581,4.133 5.044 C 4.120 5.002,4.217 5.000,6.016 5.006 L 7.913 5.013 7.995 5.219 " fill="currentColor" stroke="none" fill-rule="evenodd"></path></svg>