<svg width="15" height="15" fill="none" xmlns="http://www.w3.org/2000/svg"><path d="M0.765 3.028 C 0.409 3.112,0.102 3.429,0.024 3.794 C 0.008 3.871,0.001 5.184,0.006 7.575 C 0.012 11.159,0.014 11.240,0.062 11.357 C 0.169 11.615,0.404 11.845,0.657 11.939 C 0.785 11.987,0.914 11.988,7.513 11.988 L 14.238 11.988 14.404 11.908 C 14.637 11.798,14.782 11.657,14.894 11.429 L 14.988 11.240 14.988 7.500 L 14.988 3.760 14.894 3.571 C 14.782 3.343,14.637 3.202,14.404 3.092 L 14.238 3.013 7.550 3.009 C 3.573 3.006,0.823 3.014,0.765 3.028 M14.000 7.500 L 14.000 11.000 7.500 11.000 L 1.000 11.000 1.000 7.500 L 1.000 4.000 7.500 4.000 L 14.000 4.000 14.000 7.500 M2.128 5.035 C 1.997 5.107,2.002 5.019,2.001 7.495 C 2.000 10.002,1.995 9.905,2.137 9.970 C 2.231 10.013,5.769 10.013,5.863 9.970 C 6.005 9.905,6.000 10.001,6.000 7.500 C 6.000 4.999,6.005 5.095,5.863 5.030 C 5.763 4.984,2.211 4.989,2.128 5.035 M7.342 5.025 C 7.151 5.083,7.000 5.295,7.000 5.504 C 7.000 5.655,7.089 5.818,7.223 5.913 L 7.329 5.988 9.498 5.988 L 11.666 5.988 11.767 5.920 C 11.924 5.817,11.988 5.695,11.988 5.500 C 11.988 5.305,11.924 5.183,11.768 5.080 L 11.666 5.013 9.539 5.008 C 8.370 5.006,7.381 5.013,7.342 5.025 M7.342 7.025 C 7.151 7.083,7.000 7.295,7.000 7.504 C 7.000 7.655,7.089 7.818,7.223 7.913 L 7.329 7.988 8.998 7.988 L 10.666 7.988 10.767 7.920 C 10.924 7.817,10.988 7.695,10.988 7.500 C 10.988 7.305,10.924 7.183,10.768 7.080 L 10.666 7.013 9.039 7.008 C 8.145 7.006,7.381 7.013,7.342 7.025 M7.342 9.025 C 7.151 9.083,7.000 9.295,7.000 9.504 C 7.000 9.655,7.089 9.818,7.223 9.913 L 7.329 9.988 9.996 9.988 L 12.663 9.988 12.758 9.928 C 12.810 9.896,12.884 9.823,12.920 9.767 C 12.976 9.683,12.988 9.638,12.988 9.500 C 12.988 9.362,12.976 9.317,12.920 9.233 C 12.884 9.177,12.810 9.104,12.758 9.072 L 12.663 9.013 10.038 9.008 C 8.594 9.006,7.381 9.013,7.342 9.025 " fill="currentColor" stroke="none" fill-rule="evenodd"></path></svg>