<svg width="15" height="15" fill="none" xmlns="http://www.w3.org/2000/svg"><path d="M2.175 1.039 C 1.902 1.098,1.663 1.233,1.449 1.448 C 1.233 1.666,1.121 1.859,1.049 2.140 C 1.001 2.329,1.000 2.436,1.000 7.500 C 1.000 12.564,1.001 12.671,1.049 12.860 C 1.122 13.143,1.233 13.334,1.449 13.551 C 1.666 13.767,1.857 13.878,2.140 13.951 C 2.329 13.999,2.436 14.000,7.500 14.000 C 12.564 14.000,12.671 13.999,12.860 13.951 C 13.143 13.878,13.334 13.767,13.551 13.551 C 13.767 13.334,13.878 13.143,13.951 12.860 C 13.999 12.671,14.000 12.564,14.000 7.500 C 14.000 2.436,13.999 2.329,13.951 2.140 C 13.879 1.859,13.767 1.666,13.551 1.448 C 13.334 1.229,13.096 1.097,12.813 1.038 C 12.556 0.984,2.425 0.985,2.175 1.039 M12.758 2.072 C 12.810 2.104,12.884 2.177,12.920 2.232 L 12.988 2.334 12.994 5.848 L 13.001 9.363 12.132 8.495 C 11.251 7.616,11.173 7.550,11.000 7.550 C 10.821 7.550,10.761 7.603,9.305 9.057 L 7.872 10.488 7.732 10.338 C 7.654 10.255,6.844 9.387,5.931 8.408 C 4.200 6.553,4.197 6.550,3.999 6.550 C 3.827 6.550,3.747 6.617,2.869 7.495 L 2.000 8.362 2.000 5.400 C 2.000 3.391,2.009 2.407,2.027 2.342 C 2.059 2.226,2.219 2.060,2.330 2.028 C 2.381 2.013,4.350 2.006,7.538 2.008 L 12.663 2.013 12.758 2.072 M7.138 3.791 C 6.607 3.903,6.096 4.323,5.894 4.814 C 5.787 5.074,5.763 5.200,5.763 5.500 C 5.763 6.012,5.928 6.403,6.291 6.753 C 6.531 6.983,6.754 7.109,7.088 7.203 C 7.273 7.254,7.773 7.247,7.963 7.189 C 8.484 7.030,8.895 6.670,9.106 6.188 C 9.297 5.750,9.289 5.200,9.085 4.763 C 8.926 4.421,8.612 4.105,8.264 3.937 C 7.894 3.759,7.521 3.710,7.138 3.791 M7.864 4.737 C 8.035 4.821,8.181 4.969,8.268 5.146 C 8.327 5.267,8.338 5.318,8.338 5.500 C 8.338 5.682,8.327 5.733,8.268 5.854 C 8.179 6.036,8.024 6.191,7.850 6.273 C 7.653 6.366,7.347 6.366,7.150 6.273 C 6.790 6.103,6.593 5.708,6.674 5.318 C 6.733 5.034,6.987 4.763,7.269 4.684 C 7.442 4.635,7.702 4.658,7.864 4.737 M5.802 9.588 C 6.700 10.550,7.771 11.709,8.182 12.163 L 8.930 12.988 5.687 12.994 C 3.468 12.998,2.413 12.992,2.345 12.974 C 2.220 12.940,2.061 12.782,2.027 12.658 C 2.010 12.596,2.000 12.053,2.000 11.100 L 2.000 9.638 2.994 8.644 L 3.987 7.650 4.078 7.744 C 4.128 7.795,4.904 8.625,5.802 9.588 M12.007 9.645 L 13.002 10.640 12.995 11.653 L 12.988 12.666 12.920 12.768 C 12.884 12.823,12.810 12.896,12.758 12.928 L 12.663 12.988 11.410 12.995 L 10.158 13.002 9.348 12.109 C 8.902 11.618,8.528 11.200,8.516 11.180 C 8.499 11.153,8.797 10.841,9.741 9.897 C 10.426 9.211,10.993 8.650,11.000 8.650 C 11.007 8.650,11.460 9.098,12.007 9.645 " fill="currentColor" stroke="none" fill-rule="evenodd"></path></svg>