<svg width="15" height="15" fill="none" xmlns="http://www.w3.org/2000/svg"><path d="M6.342 1.024 C 6.149 1.086,6.000 1.295,6.000 1.504 C 6.000 1.653,6.088 1.818,6.217 1.908 C 6.304 1.970,6.351 1.982,6.590 2.002 C 6.936 2.031,7.074 2.062,7.268 2.156 C 7.567 2.301,7.813 2.659,7.909 3.088 C 7.994 3.474,8.000 3.753,8.000 7.500 C 8.000 11.247,7.994 11.526,7.909 11.913 C 7.813 12.342,7.560 12.709,7.264 12.848 C 7.062 12.942,6.915 12.975,6.591 12.999 C 6.350 13.017,6.308 13.028,6.218 13.091 C 5.929 13.294,5.932 13.708,6.223 13.913 C 6.329 13.987,6.331 13.987,6.659 13.984 C 6.924 13.981,7.036 13.968,7.238 13.916 C 7.703 13.795,8.096 13.556,8.361 13.233 C 8.431 13.149,8.493 13.079,8.500 13.079 C 8.507 13.079,8.569 13.149,8.639 13.233 C 8.904 13.556,9.297 13.795,9.763 13.916 C 9.963 13.968,10.077 13.981,10.338 13.984 C 10.639 13.987,10.669 13.983,10.758 13.928 C 10.810 13.896,10.884 13.823,10.920 13.767 C 11.013 13.628,11.016 13.384,10.928 13.242 C 10.823 13.073,10.715 13.022,10.407 12.999 C 9.926 12.963,9.668 12.866,9.453 12.638 C 9.217 12.388,9.082 12.021,9.026 11.479 C 8.990 11.123,8.990 3.877,9.026 3.521 C 9.063 3.157,9.116 2.944,9.226 2.707 C 9.346 2.447,9.520 2.259,9.732 2.156 C 9.925 2.062,10.064 2.031,10.408 2.002 C 10.632 1.983,10.695 1.968,10.774 1.916 C 10.924 1.817,10.988 1.693,10.988 1.500 C 10.988 1.305,10.923 1.183,10.767 1.080 C 10.671 1.016,10.650 1.013,10.377 1.015 C 9.909 1.019,9.495 1.128,9.126 1.343 C 8.972 1.434,8.666 1.709,8.554 1.860 L 8.500 1.932 8.446 1.860 C 8.338 1.714,8.028 1.435,7.872 1.343 C 7.666 1.222,7.387 1.115,7.148 1.065 C 6.915 1.017,6.437 0.993,6.342 1.024 M0.765 4.028 C 0.409 4.111,0.102 4.429,0.024 4.794 C 0.008 4.871,0.001 5.850,0.006 7.575 C 0.012 10.163,0.014 10.241,0.062 10.357 C 0.165 10.607,0.393 10.835,0.643 10.938 C 0.759 10.986,0.837 10.988,3.381 10.994 L 6.000 11.001 6.000 10.501 L 6.000 10.000 3.500 10.000 L 1.000 10.000 1.000 7.500 L 1.000 5.000 3.500 5.000 L 6.000 5.000 6.000 4.500 L 6.000 4.000 3.431 4.003 C 1.983 4.004,0.820 4.015,0.765 4.028 M11.000 4.499 L 11.000 5.000 12.500 5.000 L 14.000 5.000 14.000 7.500 L 14.000 10.000 12.500 10.000 L 11.000 10.000 11.000 10.501 L 11.000 11.002 12.619 10.995 L 14.238 10.988 14.404 10.908 C 14.637 10.798,14.782 10.657,14.894 10.429 L 14.988 10.240 14.988 7.500 L 14.988 4.760 14.894 4.571 C 14.782 4.343,14.637 4.202,14.404 4.092 L 14.238 4.013 12.619 4.005 L 11.000 3.998 11.000 4.499 " fill="currentColor" stroke="none" fill-rule="evenodd"></path></svg>