<svg width="15" height="15" fill="none" xmlns="http://www.w3.org/2000/svg"><path d="M5.425 1.017 C 4.491 1.043,3.915 1.118,3.444 1.275 C 2.871 1.467,2.422 1.749,2.023 2.168 C 1.668 2.542,1.433 2.945,1.268 3.463 C 1.023 4.228,0.990 4.807,1.008 7.922 C 1.015 9.215,1.031 10.208,1.048 10.388 C 1.158 11.568,1.482 12.322,2.157 12.966 C 2.526 13.317,2.884 13.533,3.390 13.708 C 4.120 13.961,4.652 13.999,7.500 13.999 C 9.335 13.999,10.162 13.979,10.650 13.923 C 12.511 13.711,13.702 12.524,13.923 10.663 C 13.979 10.190,13.999 9.348,13.999 7.500 C 13.999 4.652,13.962 4.121,13.708 3.390 C 13.531 2.879,13.316 2.524,12.957 2.149 C 12.382 1.549,11.666 1.211,10.707 1.088 C 10.222 1.026,9.185 1.000,7.375 1.005 C 6.433 1.008,5.556 1.013,5.425 1.017 M10.275 2.048 C 11.121 2.122,11.627 2.300,12.062 2.677 C 12.634 3.171,12.857 3.700,12.953 4.788 C 12.967 4.953,12.985 5.970,12.992 7.049 C 13.013 10.071,12.962 10.830,12.696 11.469 C 12.487 11.971,12.041 12.432,11.544 12.662 C 11.122 12.857,10.733 12.930,9.863 12.976 C 9.195 13.012,5.149 12.994,4.713 12.953 C 3.710 12.859,3.170 12.626,2.696 12.083 C 2.486 11.843,2.340 11.587,2.234 11.279 C 2.034 10.691,2.013 10.329,2.013 7.500 C 2.013 4.671,2.034 4.309,2.234 3.721 C 2.421 3.175,2.810 2.692,3.275 2.430 C 3.746 2.165,4.224 2.072,5.413 2.016 C 5.844 1.995,9.987 2.023,10.275 2.048 M10.774 3.308 C 10.358 3.425,10.126 3.865,10.263 4.278 C 10.325 4.463,10.537 4.675,10.722 4.737 C 11.083 4.856,11.477 4.693,11.643 4.355 C 11.701 4.235,11.712 4.183,11.710 4.025 C 11.707 3.798,11.663 3.688,11.510 3.525 C 11.324 3.327,11.023 3.237,10.774 3.308 M7.088 4.277 C 5.999 4.425,5.043 5.113,4.575 6.085 C 4.345 6.563,4.263 6.936,4.263 7.500 C 4.263 7.942,4.296 8.164,4.416 8.525 C 4.679 9.319,5.291 10.027,6.036 10.398 C 6.546 10.652,6.913 10.737,7.500 10.737 C 7.941 10.737,8.142 10.707,8.516 10.586 C 9.311 10.328,10.025 9.713,10.398 8.964 C 10.649 8.460,10.737 8.081,10.737 7.500 C 10.737 6.919,10.649 6.540,10.398 6.036 C 9.960 5.157,9.092 4.501,8.118 4.312 C 7.866 4.263,7.324 4.244,7.088 4.277 M8.063 5.324 C 8.843 5.525,9.464 6.145,9.678 6.938 C 9.722 7.099,9.732 7.207,9.732 7.500 C 9.732 7.793,9.722 7.901,9.678 8.063 C 9.469 8.839,8.893 9.428,8.113 9.665 C 7.909 9.727,7.851 9.734,7.500 9.734 C 7.149 9.734,7.091 9.727,6.888 9.665 C 6.107 9.428,5.531 8.839,5.322 8.063 C 5.278 7.901,5.268 7.793,5.268 7.500 C 5.268 7.207,5.278 7.099,5.322 6.938 C 5.557 6.065,6.279 5.414,7.163 5.276 C 7.386 5.241,7.831 5.265,8.063 5.324 " fill="currentColor" stroke="none" fill-rule="evenodd"></path></svg>