<svg width="15" height="15" fill="none" xmlns="http://www.w3.org/2000/svg"><path d="M1.175 3.039 C 0.902 3.098,0.663 3.233,0.449 3.448 C 0.233 3.666,0.121 3.859,0.049 4.140 C 0.001 4.327,-0.000 4.428,-0.000 7.500 C -0.000 10.572,0.001 10.673,0.049 10.860 C 0.122 11.143,0.233 11.334,0.449 11.551 C 0.666 11.767,0.857 11.878,1.140 11.951 C 1.330 11.999,1.440 12.000,7.500 12.000 C 13.560 12.000,13.670 11.999,13.860 11.951 C 14.143 11.878,14.334 11.767,14.551 11.551 C 14.767 11.334,14.878 11.143,14.951 10.860 C 14.999 10.673,15.000 10.572,15.000 7.500 C 15.000 4.428,14.999 4.327,14.951 4.140 C 14.879 3.859,14.767 3.666,14.551 3.448 C 14.334 3.229,14.096 3.097,13.813 3.038 C 13.556 2.984,1.425 2.985,1.175 3.039 M13.758 4.072 C 13.810 4.104,13.884 4.177,13.920 4.233 L 13.988 4.334 13.988 7.500 L 13.988 10.666 13.920 10.767 C 13.884 10.823,13.810 10.896,13.758 10.928 L 13.663 10.988 7.498 10.988 L 1.334 10.988 1.233 10.920 C 1.177 10.884,1.104 10.810,1.072 10.758 L 1.012 10.663 1.006 7.554 C 1.001 5.408,1.008 4.415,1.026 4.347 C 1.058 4.226,1.216 4.061,1.330 4.028 C 1.382 4.013,3.719 4.006,7.538 4.008 L 13.663 4.013 13.758 4.072 M2.000 5.500 L 2.000 6.000 2.500 6.000 L 3.000 6.000 3.000 5.500 L 3.000 5.000 2.500 5.000 L 2.000 5.000 2.000 5.500 M4.000 5.500 L 4.000 6.000 4.500 6.000 L 5.000 6.000 5.000 5.500 L 5.000 5.000 4.500 5.000 L 4.000 5.000 4.000 5.500 M6.000 5.500 L 6.000 6.000 6.500 6.000 L 7.000 6.000 7.000 5.500 L 7.000 5.000 6.500 5.000 L 6.000 5.000 6.000 5.500 M8.000 5.500 L 8.000 6.000 8.500 6.000 L 9.000 6.000 9.000 5.500 L 9.000 5.000 8.500 5.000 L 8.000 5.000 8.000 5.500 M10.000 5.500 L 10.000 6.000 10.500 6.000 L 11.000 6.000 11.000 5.500 L 11.000 5.000 10.500 5.000 L 10.000 5.000 10.000 5.500 M12.000 5.500 L 12.000 6.000 12.500 6.000 L 13.000 6.000 13.000 5.500 L 13.000 5.000 12.500 5.000 L 12.000 5.000 12.000 5.500 M3.000 7.500 L 3.000 8.000 3.500 8.000 L 4.000 8.000 4.000 7.500 L 4.000 7.000 3.500 7.000 L 3.000 7.000 3.000 7.500 M5.000 7.500 L 5.000 8.000 5.500 8.000 L 6.000 8.000 6.000 7.500 L 6.000 7.000 5.500 7.000 L 5.000 7.000 5.000 7.500 M7.000 7.500 L 7.000 8.000 7.500 8.000 L 8.000 8.000 8.000 7.500 L 8.000 7.000 7.500 7.000 L 7.000 7.000 7.000 7.500 M9.000 7.500 L 9.000 8.000 9.500 8.000 L 10.000 8.000 10.000 7.500 L 10.000 7.000 9.500 7.000 L 9.000 7.000 9.000 7.500 M11.000 7.500 L 11.000 8.000 11.500 8.000 L 12.000 8.000 12.000 7.500 L 12.000 7.000 11.500 7.000 L 11.000 7.000 11.000 7.500 M2.000 9.500 L 2.000 10.000 2.500 10.000 L 3.000 10.000 3.000 9.500 L 3.000 9.000 2.500 9.000 L 2.000 9.000 2.000 9.500 M4.000 9.500 L 4.000 10.000 7.500 10.000 L 11.000 10.000 11.000 9.500 L 11.000 9.000 7.500 9.000 L 4.000 9.000 4.000 9.500 M12.000 9.500 L 12.000 10.000 12.500 10.000 L 13.000 10.000 13.000 9.500 L 13.000 9.000 12.500 9.000 L 12.000 9.000 12.000 9.500 " fill="currentColor" stroke="none" fill-rule="evenodd"></path></svg>