<svg width="15" height="15" fill="none" xmlns="http://www.w3.org/2000/svg"><path d="M5.842 0.025 C 5.651 0.083,5.500 0.295,5.500 0.504 C 5.500 0.655,5.589 0.818,5.723 0.913 L 5.829 0.988 6.415 0.995 L 7.000 1.003 7.000 1.561 L 7.000 2.119 6.844 2.135 C 5.382 2.291,4.029 2.935,2.984 3.971 C 1.430 5.512,0.784 7.722,1.253 9.896 C 1.447 10.797,1.914 11.764,2.517 12.513 C 3.532 13.771,4.975 14.591,6.613 14.841 C 7.034 14.905,7.966 14.905,8.388 14.841 C 8.764 14.783,9.364 14.632,9.689 14.513 C 10.044 14.383,10.693 14.058,11.000 13.857 C 11.516 13.518,12.072 13.016,12.462 12.538 C 13.035 11.835,13.490 10.923,13.710 10.038 C 13.941 9.110,13.959 8.107,13.761 7.175 C 13.524 6.060,12.945 4.945,12.191 4.157 L 11.967 3.923 12.505 3.380 C 12.968 2.913,13.048 2.820,13.084 2.714 C 13.165 2.472,13.112 2.236,12.938 2.062 C 12.764 1.888,12.528 1.835,12.286 1.916 C 12.179 1.952,12.084 2.035,11.572 2.543 L 10.982 3.129 10.810 3.023 C 10.061 2.563,9.075 2.233,8.156 2.135 L 8.000 2.119 8.000 1.561 L 8.000 1.003 8.583 0.995 L 9.166 0.988 9.268 0.920 C 9.424 0.817,9.488 0.695,9.488 0.500 C 9.488 0.305,9.424 0.183,9.268 0.080 L 9.166 0.013 7.539 0.008 C 6.645 0.006,5.881 0.013,5.842 0.025 M8.300 3.162 C 9.494 3.355,10.479 3.853,11.313 4.687 C 12.151 5.526,12.660 6.536,12.841 7.725 C 12.923 8.258,12.900 9.027,12.785 9.600 C 12.388 11.576,10.824 13.220,8.863 13.725 C 8.359 13.854,8.088 13.886,7.500 13.886 C 6.912 13.886,6.641 13.854,6.138 13.725 C 4.173 13.220,2.611 11.576,2.216 9.600 C 2.132 9.176,2.115 8.995,2.115 8.500 C 2.115 8.005,2.132 7.824,2.216 7.400 C 2.487 6.044,3.332 4.791,4.499 4.015 C 5.278 3.496,6.083 3.216,7.088 3.115 C 7.290 3.094,8.070 3.125,8.300 3.162 M7.038 4.128 C 6.539 4.180,6.080 4.311,5.608 4.537 C 4.817 4.916,4.142 5.532,3.707 6.271 C 2.896 7.649,2.904 9.397,3.728 10.763 C 3.974 11.171,4.356 11.611,4.725 11.911 C 5.501 12.543,6.500 12.899,7.500 12.899 C 8.588 12.899,9.699 12.468,10.454 11.753 L 10.613 11.603 9.056 10.045 L 7.500 8.487 7.500 6.294 L 7.500 4.100 7.369 4.103 C 7.297 4.105,7.147 4.116,7.038 4.128 " fill="currentColor" stroke="none" fill-rule="evenodd"></path></svg>