<svg width="15" height="15" fill="none" xmlns="http://www.w3.org/2000/svg"><path d="M1.988 3.029 C 1.537 3.115,1.125 3.530,1.028 3.995 C 1.008 4.088,1.000 5.287,1.000 8.064 L 1.000 12.000 0.500 12.000 L 0.000 12.000 0.000 12.309 C 0.000 12.583,0.006 12.629,0.058 12.727 C 0.090 12.788,0.164 12.871,0.223 12.913 L 0.329 12.988 7.498 12.988 L 14.666 12.988 14.767 12.920 C 14.823 12.884,14.896 12.810,14.928 12.758 C 14.981 12.672,14.988 12.628,14.996 12.331 L 15.005 12.000 14.502 12.000 L 14.000 12.000 14.000 8.064 C 14.000 5.287,13.992 4.088,13.972 3.995 C 13.873 3.519,13.461 3.113,12.989 3.027 C 12.797 2.992,2.172 2.994,1.988 3.029 M12.863 4.030 C 13.008 4.096,13.000 3.879,13.000 7.849 L 13.000 11.500 7.500 11.500 L 2.000 11.500 2.001 7.844 C 2.002 3.916,1.995 4.108,2.128 4.035 C 2.211 3.989,12.762 3.984,12.863 4.030 " fill="currentColor" stroke="none" fill-rule="evenodd"></path></svg>