<svg width="15" height="15" fill="none" xmlns="http://www.w3.org/2000/svg"><path d="M7.288 0.810 C 6.992 0.949,1.659 4.125,1.608 4.192 C 1.578 4.231,1.539 4.316,1.521 4.381 C 1.483 4.524,1.518 4.692,1.611 4.812 C 1.685 4.908,7.228 8.188,7.389 8.231 C 7.474 8.253,7.526 8.253,7.609 8.231 C 7.767 8.189,13.316 4.907,13.389 4.812 C 13.482 4.692,13.517 4.524,13.479 4.381 C 13.461 4.316,13.422 4.231,13.392 4.192 C 13.341 4.125,8.008 0.949,7.713 0.810 C 7.555 0.735,7.445 0.735,7.288 0.810 M9.765 3.169 C 10.994 3.894,11.999 4.493,11.999 4.500 C 11.999 4.507,10.987 5.111,9.750 5.842 L 7.500 7.171 5.250 5.842 C 4.013 5.111,3.001 4.507,3.001 4.500 C 3.001 4.479,7.460 1.852,7.497 1.851 C 7.515 1.850,8.536 2.443,9.765 3.169 M1.783 7.311 C 1.618 7.388,1.527 7.518,1.508 7.704 C 1.491 7.868,1.564 8.046,1.685 8.136 C 1.882 8.283,7.291 11.454,7.389 11.481 C 7.474 11.503,7.526 11.503,7.609 11.481 C 7.758 11.441,13.290 8.173,13.392 8.064 C 13.557 7.889,13.564 7.609,13.408 7.425 C 13.302 7.298,13.166 7.243,12.990 7.255 C 12.839 7.265,12.803 7.286,10.169 8.844 L 7.500 10.422 4.919 8.895 C 3.499 8.056,2.281 7.342,2.212 7.310 C 2.054 7.235,1.946 7.235,1.783 7.311 M1.826 10.281 C 1.642 10.343,1.501 10.555,1.500 10.769 C 1.500 10.883,1.592 11.067,1.685 11.136 C 1.882 11.283,7.291 14.454,7.389 14.481 C 7.474 14.503,7.526 14.503,7.609 14.481 C 7.743 14.445,13.231 11.207,13.344 11.097 C 13.457 10.987,13.513 10.792,13.474 10.645 C 13.401 10.372,13.133 10.206,12.877 10.274 C 12.823 10.289,11.591 11.003,10.140 11.861 L 7.500 13.421 4.835 11.846 C 2.374 10.391,2.160 10.270,2.041 10.262 C 1.970 10.256,1.874 10.265,1.826 10.281 " fill="currentColor" stroke="none" fill-rule="evenodd"></path></svg>