<svg width="15" height="15" fill="none" xmlns="http://www.w3.org/2000/svg"><path d="M2.175 1.039 C 1.902 1.098,1.663 1.233,1.449 1.448 C 1.233 1.666,1.121 1.859,1.049 2.140 C 1.001 2.329,1.000 2.436,1.000 7.500 C 1.000 12.564,1.001 12.671,1.049 12.860 C 1.122 13.143,1.233 13.334,1.449 13.551 C 1.666 13.767,1.857 13.878,2.140 13.951 C 2.329 13.999,2.436 14.000,7.500 14.000 C 12.564 14.000,12.671 13.999,12.860 13.951 C 13.143 13.878,13.334 13.767,13.551 13.551 C 13.767 13.334,13.878 13.143,13.951 12.860 C 13.999 12.671,14.000 12.564,14.000 7.500 C 14.000 2.436,13.999 2.329,13.951 2.140 C 13.879 1.859,13.767 1.666,13.551 1.448 C 13.334 1.229,13.096 1.097,12.813 1.038 C 12.556 0.984,2.425 0.985,2.175 1.039 M5.000 7.501 L 5.000 13.002 3.667 12.995 L 2.334 12.988 2.232 12.920 C 2.177 12.884,2.104 12.810,2.072 12.758 L 2.013 12.663 2.006 7.554 C 2.002 4.007,2.008 2.414,2.026 2.346 C 2.058 2.226,2.216 2.061,2.330 2.028 C 2.377 2.015,2.973 2.004,3.706 2.002 L 5.000 2.000 5.000 7.501 M9.000 7.500 L 9.000 13.000 7.500 13.000 L 6.000 13.000 6.000 7.500 L 6.000 2.000 7.500 2.000 L 9.000 2.000 9.000 7.500 M12.758 2.072 C 12.810 2.104,12.884 2.177,12.920 2.233 L 12.988 2.334 12.988 7.498 L 12.988 12.663 12.928 12.758 C 12.896 12.810,12.823 12.884,12.768 12.920 L 12.666 12.988 11.333 12.995 L 10.000 13.002 10.000 7.500 L 10.000 1.998 11.331 2.005 L 12.663 2.013 12.758 2.072 " fill="currentColor" stroke="none" fill-rule="evenodd"></path></svg>