<svg width="15" height="15" fill="none" xmlns="http://www.w3.org/2000/svg"><path d="M3.516 2.787 C 3.374 2.837,3.285 2.936,3.203 3.135 C 3.162 3.233,2.424 5.152,1.562 7.400 C 0.086 11.252,-0.004 11.495,0.006 11.617 C 0.020 11.796,0.111 11.926,0.278 12.009 C 0.351 12.045,0.450 12.075,0.500 12.075 C 0.615 12.075,0.825 11.971,0.892 11.880 C 0.921 11.842,1.184 11.184,1.477 10.417 L 2.010 9.025 3.699 9.031 L 5.387 9.037 5.925 10.429 C 6.297 11.392,6.483 11.844,6.531 11.897 C 6.620 11.997,6.726 12.050,6.870 12.066 C 6.967 12.077,7.011 12.067,7.124 12.008 C 7.235 11.949,7.274 11.911,7.330 11.803 C 7.372 11.723,7.400 11.630,7.400 11.572 C 7.400 11.426,4.154 3.021,4.058 2.918 C 3.914 2.766,3.712 2.717,3.516 2.787 M4.375 6.413 C 4.736 7.348,5.036 8.127,5.043 8.144 C 5.053 8.169,4.774 8.175,3.701 8.175 C 2.567 8.175,2.348 8.169,2.354 8.141 C 2.387 8.001,3.691 4.660,3.703 4.683 C 3.712 4.699,4.014 5.478,4.375 6.413 M10.615 5.227 C 9.813 5.315,9.093 5.769,8.619 6.487 C 7.777 7.764,7.812 9.651,8.699 10.847 C 9.412 11.807,10.525 12.208,11.655 11.914 C 12.179 11.777,12.540 11.580,12.981 11.193 L 13.150 11.045 13.150 11.323 C 13.150 11.700,13.203 11.824,13.405 11.928 C 13.571 12.012,13.772 11.983,13.909 11.855 C 14.058 11.716,14.050 11.891,14.050 8.620 C 14.050 5.806,14.047 5.607,14.006 5.527 C 13.895 5.309,13.619 5.213,13.411 5.320 C 13.202 5.426,13.150 5.547,13.150 5.927 L 13.150 6.205 12.959 6.027 C 12.639 5.728,12.206 5.472,11.819 5.353 C 11.445 5.239,10.966 5.188,10.615 5.227 M11.406 6.089 C 11.991 6.150,12.677 6.583,13.034 7.114 L 13.150 7.287 13.150 8.552 L 13.150 9.816 13.022 10.002 C 12.727 10.430,12.400 10.723,11.988 10.927 C 11.667 11.085,11.408 11.152,11.100 11.155 C 10.179 11.162,9.426 10.492,9.130 9.402 C 9.069 9.177,9.065 9.127,9.065 8.600 C 9.065 8.064,9.068 8.026,9.133 7.788 C 9.351 6.994,9.871 6.387,10.528 6.158 C 10.807 6.061,10.998 6.046,11.406 6.089 " fill="currentColor" stroke="none" fill-rule="evenodd"></path></svg>