<svg width="15" height="15" fill="none" xmlns="http://www.w3.org/2000/svg"><path d="M3.415 5.227 C 2.613 5.315,1.893 5.769,1.419 6.487 C 0.577 7.764,0.612 9.651,1.499 10.847 C 2.212 11.807,3.325 12.208,4.455 11.914 C 4.979 11.777,5.340 11.580,5.781 11.193 L 5.950 11.045 5.950 11.323 C 5.950 11.700,6.003 11.824,6.205 11.928 C 6.371 12.012,6.572 11.983,6.709 11.855 C 6.858 11.716,6.850 11.891,6.850 8.620 C 6.850 5.806,6.847 5.607,6.806 5.527 C 6.695 5.309,6.419 5.213,6.211 5.320 C 6.002 5.426,5.950 5.547,5.950 5.927 L 5.950 6.205 5.759 6.027 C 5.439 5.728,5.006 5.472,4.619 5.353 C 4.245 5.239,3.766 5.188,3.415 5.227 M10.515 5.227 C 9.885 5.296,9.281 5.603,8.836 6.082 C 8.057 6.918,7.733 8.247,8.002 9.493 C 8.348 11.088,9.610 12.124,11.055 11.998 C 11.764 11.937,12.429 11.635,12.944 11.141 L 13.050 11.040 13.050 11.321 C 13.050 11.700,13.102 11.824,13.305 11.928 C 13.471 12.012,13.672 11.983,13.809 11.855 C 13.958 11.716,13.950 11.891,13.950 8.620 C 13.950 5.806,13.947 5.607,13.906 5.527 C 13.795 5.309,13.519 5.213,13.311 5.320 C 13.102 5.426,13.050 5.547,13.050 5.927 L 13.050 6.205 12.859 6.027 C 12.539 5.728,12.106 5.472,11.719 5.353 C 11.345 5.239,10.866 5.188,10.515 5.227 M4.206 6.089 C 4.789 6.150,5.482 6.586,5.833 7.112 L 5.950 7.287 5.950 8.552 L 5.950 9.816 5.822 10.002 C 5.527 10.430,5.200 10.723,4.788 10.927 C 4.467 11.085,4.208 11.152,3.900 11.155 C 2.979 11.162,2.226 10.492,1.930 9.402 C 1.869 9.177,1.865 9.127,1.865 8.600 C 1.865 8.064,1.868 8.026,1.933 7.788 C 2.151 6.994,2.671 6.387,3.328 6.158 C 3.607 6.061,3.798 6.046,4.206 6.089 M11.306 6.089 C 11.891 6.150,12.577 6.583,12.934 7.114 L 13.050 7.287 13.050 8.552 L 13.050 9.816 12.922 10.002 C 12.627 10.430,12.300 10.723,11.888 10.927 C 11.567 11.085,11.308 11.152,11.000 11.155 C 10.079 11.162,9.326 10.492,9.030 9.402 C 8.969 9.177,8.965 9.127,8.965 8.600 C 8.965 8.064,8.968 8.026,9.033 7.788 C 9.251 6.994,9.771 6.387,10.428 6.158 C 10.707 6.061,10.898 6.046,11.306 6.089 " fill="currentColor" stroke="none" fill-rule="evenodd"></path></svg>