<svg width="15" height="15" fill="none" xmlns="http://www.w3.org/2000/svg"><path d="M3.406 2.813 C 3.334 2.849,3.254 2.909,3.228 2.946 C 3.172 3.024,0.103 11.308,0.066 11.479 C -0.002 11.795,0.309 12.121,0.623 12.062 C 0.743 12.040,0.884 11.958,0.946 11.876 C 0.973 11.838,1.226 11.185,1.507 10.423 L 2.019 9.037 3.625 9.037 L 5.232 9.037 5.737 10.405 C 6.015 11.157,6.261 11.801,6.283 11.835 C 6.306 11.869,6.365 11.928,6.415 11.966 C 6.540 12.061,6.771 12.079,6.918 12.004 C 7.109 11.906,7.222 11.697,7.190 11.501 C 7.166 11.349,4.074 3.017,4.012 2.935 C 3.939 2.839,3.799 2.770,3.650 2.757 C 3.564 2.749,3.507 2.762,3.406 2.813 M11.217 2.775 C 11.104 2.809,10.984 2.916,10.929 3.031 C 10.901 3.089,10.189 4.999,9.346 7.275 C 7.904 11.169,7.814 11.422,7.813 11.577 C 7.812 11.794,7.894 11.926,8.083 12.014 C 8.296 12.113,8.476 12.082,8.639 11.916 C 8.727 11.826,8.765 11.747,8.920 11.325 C 9.019 11.057,9.250 10.433,9.433 9.938 L 9.766 9.037 11.368 9.031 C 12.876 9.025,12.971 9.027,12.987 9.069 C 12.996 9.093,13.229 9.720,13.503 10.462 C 13.798 11.258,14.029 11.846,14.067 11.896 C 14.259 12.148,14.673 12.126,14.862 11.854 C 14.926 11.762,14.937 11.723,14.937 11.592 C 14.936 11.450,14.809 11.093,13.391 7.263 C 12.542 4.966,11.819 3.041,11.786 2.984 C 11.682 2.805,11.428 2.712,11.217 2.775 M4.269 6.433 C 4.616 7.372,4.900 8.148,4.900 8.158 C 4.900 8.167,4.326 8.175,3.625 8.175 C 2.924 8.175,2.350 8.167,2.350 8.158 C 2.350 8.123,3.612 4.725,3.625 4.725 C 3.632 4.725,3.922 5.493,4.269 6.433 M12.010 6.419 C 12.353 7.351,12.638 8.127,12.644 8.144 C 12.653 8.168,12.389 8.175,11.378 8.175 C 10.675 8.175,10.100 8.167,10.100 8.156 C 10.099 8.120,11.360 4.725,11.374 4.726 C 11.381 4.726,11.668 5.488,12.010 6.419 " fill="currentColor" stroke="none" fill-rule="evenodd"></path></svg>