<svg width="15" height="15" fill="none" xmlns="http://www.w3.org/2000/svg"><path d="M4.331 1.063 C 4.238 1.110,4.181 1.161,4.139 1.234 C 4.031 1.418,1.069 8.357,1.056 8.455 C 1.030 8.647,1.162 8.861,1.363 8.953 C 1.480 9.007,1.569 9.011,1.709 8.969 C 1.919 8.906,1.947 8.858,2.487 7.593 L 2.987 6.425 4.552 6.425 L 6.116 6.425 6.599 7.556 C 6.864 8.178,7.108 8.729,7.140 8.779 C 7.221 8.907,7.437 9.011,7.587 8.994 C 7.841 8.965,8.016 8.792,8.042 8.544 L 8.057 8.404 6.538 4.858 C 5.703 2.908,4.997 1.275,4.969 1.230 C 4.895 1.108,4.754 1.024,4.596 1.009 C 4.485 0.998,4.440 1.007,4.331 1.063 M8.076 1.067 C 7.964 1.126,7.926 1.164,7.867 1.276 C 7.810 1.385,7.798 1.435,7.807 1.525 C 7.818 1.635,10.524 8.561,10.631 8.754 C 10.783 9.029,11.172 9.081,11.406 8.857 C 11.492 8.775,11.388 9.029,12.951 5.050 C 13.683 3.187,14.287 1.616,14.294 1.559 C 14.327 1.275,14.095 1.025,13.800 1.025 C 13.653 1.025,13.510 1.089,13.422 1.193 C 13.388 1.234,12.875 2.505,12.213 4.192 C 11.545 5.892,11.055 7.107,11.044 7.088 C 11.034 7.071,10.514 5.754,9.888 4.161 C 9.262 2.569,8.733 1.240,8.712 1.208 C 8.646 1.108,8.491 1.023,8.346 1.009 C 8.232 0.997,8.193 1.006,8.076 1.067 M5.158 4.180 C 5.483 4.939,5.745 5.563,5.741 5.567 C 5.736 5.572,5.198 5.573,4.545 5.569 L 3.357 5.563 3.947 4.182 C 4.272 3.422,4.544 2.801,4.552 2.801 C 4.560 2.800,4.832 3.421,5.158 4.180 M2.375 10.149 C 2.327 10.175,1.819 10.667,1.246 11.242 C 0.097 12.395,0.108 12.382,0.173 12.606 C 0.200 12.698,0.352 12.861,1.283 13.792 C 2.452 14.961,2.414 14.931,2.643 14.888 C 2.766 14.865,2.915 14.716,2.938 14.593 C 2.980 14.372,2.977 14.369,2.217 13.606 L 1.514 12.900 7.550 12.900 L 13.586 12.900 12.895 13.594 C 12.137 14.355,12.124 14.374,12.179 14.592 C 12.212 14.724,12.354 14.861,12.483 14.885 C 12.691 14.924,12.686 14.928,13.842 13.769 C 15.011 12.598,14.980 12.636,14.939 12.406 C 14.924 12.324,14.789 12.180,13.842 11.233 C 12.691 10.082,12.693 10.084,12.487 10.117 C 12.359 10.138,12.212 10.276,12.179 10.407 C 12.124 10.626,12.137 10.644,12.895 11.406 L 13.586 12.100 7.550 12.100 L 1.514 12.100 2.217 11.394 C 2.825 10.784,2.924 10.675,2.938 10.594 C 3.001 10.251,2.670 9.990,2.375 10.149 " fill="currentColor" stroke="none" fill-rule="evenodd"></path></svg>