<svg width="15" height="15" fill="none" xmlns="http://www.w3.org/2000/svg"><path d="M11.116 2.787 C 10.974 2.837,10.885 2.936,10.803 3.135 C 10.497 3.873,7.600 11.493,7.600 11.560 C 7.600 11.664,7.644 11.792,7.709 11.881 C 7.775 11.971,7.985 12.075,8.100 12.075 C 8.215 12.075,8.425 11.971,8.492 11.880 C 8.521 11.842,8.784 11.184,9.077 10.417 L 9.610 9.025 11.299 9.031 L 12.987 9.037 13.525 10.425 C 13.820 11.189,14.083 11.844,14.108 11.880 C 14.168 11.967,14.385 12.075,14.500 12.075 C 14.615 12.075,14.825 11.971,14.891 11.881 C 14.957 11.792,15.000 11.664,15.000 11.559 C 15.000 11.508,14.360 9.816,13.364 7.234 C 12.119 4.007,11.711 2.975,11.658 2.918 C 11.514 2.766,11.312 2.717,11.116 2.787 M11.975 6.413 C 12.335 7.348,12.636 8.127,12.643 8.144 C 12.653 8.169,12.374 8.175,11.301 8.175 C 10.169 8.175,9.948 8.169,9.954 8.141 C 9.988 7.999,11.291 4.660,11.303 4.683 C 11.312 4.699,11.614 5.478,11.975 6.413 M2.615 5.227 C 1.813 5.315,1.093 5.769,0.619 6.487 C -0.223 7.764,-0.188 9.651,0.699 10.847 C 1.412 11.807,2.525 12.208,3.655 11.914 C 4.179 11.777,4.540 11.580,4.981 11.193 L 5.150 11.045 5.150 11.323 C 5.150 11.700,5.203 11.824,5.405 11.928 C 5.571 12.012,5.772 11.983,5.909 11.855 C 6.058 11.716,6.050 11.891,6.050 8.620 C 6.050 5.806,6.047 5.607,6.006 5.527 C 5.895 5.309,5.619 5.213,5.411 5.320 C 5.202 5.426,5.150 5.547,5.150 5.927 L 5.150 6.205 4.959 6.027 C 4.639 5.728,4.206 5.472,3.819 5.353 C 3.445 5.239,2.966 5.188,2.615 5.227 M3.406 6.089 C 3.991 6.150,4.677 6.583,5.034 7.114 L 5.150 7.287 5.150 8.552 L 5.150 9.816 5.022 10.002 C 4.727 10.430,4.400 10.723,3.988 10.927 C 3.667 11.085,3.408 11.152,3.100 11.155 C 2.179 11.162,1.426 10.492,1.130 9.402 C 1.069 9.177,1.065 9.127,1.065 8.600 C 1.065 8.064,1.068 8.026,1.133 7.788 C 1.351 6.994,1.871 6.387,2.528 6.158 C 2.807 6.061,2.998 6.046,3.406 6.089 " fill="currentColor" stroke="none" fill-rule="evenodd"></path></svg>