<svg width="15" height="15" fill="none" xmlns="http://www.w3.org/2000/svg"><path d="M8.375 0.016 C 8.354 0.024,8.299 0.049,8.253 0.070 C 8.185 0.101,7.548 0.936,5.099 4.202 C 2.319 7.908,2.027 8.306,2.011 8.411 C 1.979 8.629,2.063 8.817,2.242 8.928 L 2.337 8.988 4.619 8.994 C 6.113 8.999,6.900 9.010,6.900 9.026 C 6.900 9.040,6.697 10.268,6.448 11.757 C 6.172 13.409,6.001 14.499,6.008 14.556 C 6.026 14.699,6.105 14.829,6.223 14.913 C 6.316 14.978,6.351 14.987,6.496 14.987 C 6.617 14.987,6.686 14.973,6.748 14.937 C 6.808 14.902,7.721 13.703,9.902 10.796 C 12.681 7.091,12.973 6.694,12.989 6.589 C 13.025 6.349,12.927 6.158,12.717 6.061 L 12.588 6.000 10.344 6.000 C 8.839 6.000,8.100 5.992,8.100 5.975 C 8.100 5.961,8.303 4.732,8.552 3.243 C 8.876 1.300,9.000 0.507,8.989 0.428 C 8.959 0.198,8.777 0.029,8.541 0.011 C 8.470 0.005,8.396 0.008,8.375 0.016 M7.324 4.501 C 7.087 5.921,7.000 6.493,7.011 6.574 C 7.029 6.715,7.119 6.851,7.242 6.928 L 7.338 6.988 9.414 7.000 L 11.491 7.013 9.420 9.773 C 8.282 11.291,7.350 12.514,7.350 12.491 C 7.350 12.468,7.497 11.565,7.678 10.485 C 7.921 9.025,8.001 8.493,7.989 8.412 C 7.968 8.274,7.858 8.122,7.734 8.060 C 7.642 8.015,7.551 8.012,5.569 8.006 L 3.501 7.999 5.569 5.240 C 6.707 3.723,7.641 2.495,7.645 2.511 C 7.649 2.527,7.504 3.423,7.324 4.501 " fill="currentColor" stroke="none" fill-rule="evenodd"></path></svg>