<svg width="15" height="15" fill="none" xmlns="http://www.w3.org/2000/svg"><path d="M3.336 2.139 C 3.294 2.160,2.780 2.657,2.195 3.245 C 1.200 4.242,1.129 4.319,1.113 4.418 C 1.103 4.479,1.108 4.560,1.124 4.610 C 1.161 4.722,1.323 4.868,1.434 4.889 C 1.621 4.924,1.670 4.886,2.406 4.154 L 3.100 3.464 3.100 7.500 L 3.100 11.536 2.406 10.845 C 1.651 10.093,1.627 10.076,1.413 10.125 C 1.278 10.155,1.137 10.306,1.113 10.444 C 1.080 10.641,1.117 10.685,2.253 11.817 C 3.400 12.959,3.364 12.930,3.594 12.889 C 3.676 12.874,3.820 12.739,4.757 11.805 C 5.900 10.664,5.926 10.632,5.889 10.436 C 5.865 10.309,5.715 10.154,5.588 10.125 C 5.373 10.076,5.349 10.093,4.594 10.845 L 3.900 11.536 3.900 7.500 L 3.900 3.464 4.594 4.154 C 5.330 4.886,5.379 4.924,5.566 4.889 C 5.683 4.866,5.842 4.718,5.879 4.597 C 5.943 4.384,5.946 4.388,4.804 3.242 C 4.231 2.667,3.721 2.175,3.670 2.148 C 3.559 2.091,3.440 2.087,3.336 2.139 M8.342 4.025 C 8.151 4.083,8.000 4.295,8.000 4.504 C 8.000 4.655,8.089 4.818,8.223 4.913 L 8.329 4.988 11.496 4.988 L 14.663 4.988 14.758 4.928 C 14.810 4.896,14.884 4.823,14.920 4.767 C 14.976 4.683,14.988 4.638,14.988 4.500 C 14.988 4.362,14.976 4.317,14.920 4.233 C 14.884 4.177,14.810 4.104,14.758 4.072 L 14.663 4.013 11.538 4.008 C 9.819 4.006,8.381 4.014,8.342 4.025 M8.342 7.025 C 8.151 7.083,8.000 7.295,8.000 7.504 C 8.000 7.655,8.089 7.818,8.223 7.913 L 8.329 7.988 11.496 7.988 L 14.663 7.988 14.758 7.928 C 14.810 7.896,14.884 7.823,14.920 7.767 C 14.976 7.683,14.988 7.638,14.988 7.500 C 14.988 7.362,14.976 7.317,14.920 7.233 C 14.884 7.177,14.810 7.104,14.758 7.072 L 14.663 7.013 11.538 7.008 C 9.819 7.006,8.381 7.014,8.342 7.025 M8.342 10.025 C 8.151 10.083,8.000 10.295,8.000 10.504 C 8.000 10.655,8.089 10.818,8.223 10.913 L 8.329 10.988 11.496 10.988 L 14.663 10.988 14.758 10.928 C 14.810 10.896,14.884 10.823,14.920 10.767 C 14.976 10.683,14.988 10.638,14.988 10.500 C 14.988 10.362,14.976 10.317,14.920 10.233 C 14.884 10.177,14.810 10.104,14.758 10.072 L 14.663 10.013 11.538 10.008 C 9.819 10.006,8.381 10.014,8.342 10.025 " fill="currentColor" stroke="none" fill-rule="evenodd"></path></svg>