<svg width="15" height="15" fill="none" xmlns="http://www.w3.org/2000/svg"><path d="M4.342 0.024 C 4.227 0.061,4.109 0.166,4.053 0.282 C 4.002 0.388,4.000 0.424,4.000 1.504 L 4.000 2.617 4.058 2.727 C 4.090 2.788,4.164 2.871,4.223 2.913 C 4.316 2.978,4.351 2.988,4.498 2.988 C 4.639 2.988,4.683 2.977,4.767 2.920 C 4.823 2.884,4.896 2.810,4.928 2.758 L 4.988 2.663 4.988 1.500 L 4.988 0.338 4.928 0.242 C 4.843 0.106,4.708 0.024,4.546 0.012 C 4.473 0.006,4.381 0.012,4.342 0.024 M0.864 0.517 C 0.765 0.545,0.629 0.650,0.572 0.742 C 0.490 0.874,0.488 1.123,0.567 1.250 C 0.597 1.298,0.986 1.699,1.430 2.141 C 2.150 2.858,2.250 2.949,2.350 2.975 C 2.747 3.081,3.081 2.747,2.975 2.350 C 2.949 2.250,2.858 2.150,2.154 1.441 C 1.719 1.003,1.319 0.617,1.266 0.583 C 1.169 0.521,0.967 0.488,0.864 0.517 M9.350 1.665 C 8.786 1.735,8.177 1.984,7.780 2.307 C 7.716 2.360,7.367 2.698,7.005 3.058 C 6.398 3.663,6.345 3.722,6.310 3.842 C 6.202 4.212,6.547 4.552,6.927 4.450 C 7.023 4.424,7.122 4.336,7.700 3.765 C 8.385 3.087,8.476 3.011,8.768 2.864 C 9.057 2.719,9.292 2.666,9.638 2.666 C 9.999 2.665,10.204 2.710,10.493 2.853 C 10.657 2.934,10.766 3.017,11.036 3.267 C 11.221 3.438,11.524 3.741,11.709 3.940 C 11.985 4.236,12.063 4.337,12.146 4.506 C 12.295 4.809,12.333 4.983,12.335 5.350 C 12.336 5.708,12.285 5.934,12.136 6.232 C 11.990 6.523,11.913 6.614,11.237 7.300 C 10.641 7.904,10.581 7.973,10.554 8.081 C 10.497 8.309,10.607 8.550,10.812 8.650 C 10.967 8.725,11.183 8.713,11.310 8.623 C 11.478 8.503,12.710 7.216,12.828 7.037 C 13.509 6.002,13.520 4.748,12.859 3.742 C 12.723 3.536,11.577 2.372,11.343 2.202 C 11.033 1.977,10.657 1.808,10.275 1.723 C 10.068 1.676,9.531 1.643,9.350 1.665 M0.342 4.025 C 0.151 4.084,-0.000 4.295,0.000 4.504 C 0.000 4.655,0.089 4.818,0.223 4.913 L 0.329 4.988 1.496 4.988 L 2.663 4.988 2.758 4.928 C 2.810 4.896,2.884 4.823,2.920 4.767 C 2.976 4.683,2.988 4.638,2.988 4.500 C 2.988 4.362,2.976 4.317,2.920 4.233 C 2.884 4.177,2.810 4.104,2.758 4.072 L 2.663 4.013 1.538 4.008 C 0.919 4.005,0.381 4.013,0.342 4.025 M3.759 6.340 C 3.631 6.403,2.302 7.761,2.171 7.963 C 1.571 8.883,1.487 9.953,1.939 10.899 C 2.111 11.257,2.236 11.414,2.836 12.021 C 3.502 12.696,3.699 12.860,4.063 13.039 C 4.540 13.274,4.987 13.369,5.500 13.342 C 6.050 13.313,6.558 13.143,7.034 12.830 C 7.366 12.611,8.565 11.433,8.653 11.239 C 8.765 10.992,8.660 10.711,8.412 10.597 C 8.290 10.541,8.129 10.537,8.006 10.589 C 7.947 10.613,7.680 10.858,7.263 11.271 C 6.571 11.956,6.423 12.073,6.089 12.202 C 5.583 12.398,5.089 12.396,4.605 12.195 C 4.368 12.096,4.207 11.975,3.815 11.598 C 3.272 11.077,2.969 10.728,2.854 10.493 C 2.617 10.010,2.590 9.479,2.777 8.967 C 2.912 8.595,3.030 8.444,3.752 7.712 C 4.433 7.023,4.475 6.970,4.475 6.788 C 4.475 6.613,4.361 6.432,4.198 6.349 C 4.081 6.289,3.870 6.285,3.759 6.340 M12.342 10.025 C 12.151 10.084,12.000 10.295,12.000 10.504 C 12.000 10.655,12.089 10.818,12.223 10.913 L 12.329 10.988 13.496 10.988 L 14.663 10.988 14.758 10.928 C 14.810 10.896,14.884 10.823,14.920 10.767 C 14.976 10.683,14.988 10.638,14.988 10.500 C 14.988 10.362,14.976 10.317,14.920 10.233 C 14.884 10.177,14.810 10.104,14.758 10.072 L 14.663 10.013 13.538 10.008 C 12.919 10.005,12.381 10.013,12.342 10.025 M10.342 12.024 C 10.227 12.061,10.109 12.166,10.053 12.282 C 10.002 12.388,10.000 12.424,10.000 13.504 L 10.000 14.617 10.058 14.727 C 10.090 14.788,10.164 14.871,10.223 14.913 C 10.316 14.978,10.351 14.988,10.498 14.988 C 10.639 14.988,10.683 14.977,10.767 14.920 C 10.823 14.884,10.896 14.810,10.928 14.758 L 10.988 14.663 10.988 13.500 L 10.988 12.338 10.928 12.242 C 10.843 12.106,10.708 12.024,10.546 12.012 C 10.473 12.006,10.381 12.012,10.342 12.024 M12.364 12.018 C 12.277 12.040,12.126 12.155,12.075 12.238 C 12.008 12.345,11.988 12.512,12.025 12.650 C 12.051 12.750,12.142 12.850,12.859 13.570 C 13.802 14.517,13.851 14.552,14.133 14.473 C 14.268 14.436,14.413 14.296,14.461 14.157 C 14.561 13.861,14.531 13.816,13.594 12.883 C 13.020 12.310,12.783 12.089,12.700 12.052 C 12.593 12.004,12.470 11.991,12.364 12.018 " fill="currentColor" stroke="none" fill-rule="evenodd"></path></svg>