<svg width="15" height="15" fill="none" xmlns="http://www.w3.org/2000/svg"><path d="M12.863 1.517 C 12.835 1.525,12.768 1.563,12.713 1.601 C 12.658 1.640,10.124 4.161,7.083 7.204 C 1.965 12.326,1.551 12.746,1.524 12.850 C 1.464 13.078,1.552 13.310,1.742 13.428 C 1.874 13.510,2.123 13.512,2.250 13.432 C 2.298 13.402,4.837 10.876,7.892 7.820 C 13.034 2.675,13.449 2.254,13.476 2.150 C 13.560 1.830,13.358 1.534,13.041 1.512 C 12.970 1.507,12.890 1.509,12.863 1.517 M3.675 4.025 C 2.685 4.124,1.828 4.691,1.332 5.575 C 1.217 5.779,1.077 6.206,1.036 6.475 C 0.986 6.808,0.986 8.195,1.037 8.525 C 1.098 8.924,1.273 9.365,1.508 9.712 C 1.717 10.020,2.124 10.395,2.458 10.588 L 2.579 10.657 2.952 10.285 C 3.157 10.081,3.325 9.905,3.325 9.894 C 3.325 9.884,3.311 9.875,3.293 9.875 C 3.276 9.875,3.177 9.833,3.074 9.781 C 2.581 9.533,2.235 9.126,2.071 8.600 C 2.014 8.417,2.013 8.388,2.013 7.488 L 2.014 6.563 2.081 6.363 C 2.298 5.721,2.798 5.259,3.488 5.062 C 3.613 5.026,3.804 5.017,4.652 5.003 L 5.666 4.988 5.768 4.920 C 5.924 4.817,5.988 4.695,5.988 4.500 C 5.988 4.305,5.924 4.183,5.768 4.080 L 5.666 4.013 4.764 4.009 C 4.268 4.007,3.778 4.014,3.675 4.025 M12.038 4.724 C 11.833 4.930,11.670 5.102,11.676 5.107 C 11.682 5.111,11.757 5.144,11.841 5.180 C 12.368 5.401,12.778 5.876,12.942 6.454 C 12.982 6.593,12.987 6.722,12.987 7.500 C 12.987 8.282,12.982 8.407,12.942 8.550 C 12.755 9.217,12.246 9.721,11.550 9.928 C 11.374 9.980,11.300 9.984,10.346 9.998 L 9.329 10.013 9.223 10.088 C 8.929 10.294,8.929 10.706,9.223 10.913 L 9.329 10.988 10.358 10.988 C 11.243 10.988,11.416 10.981,11.589 10.944 C 12.237 10.804,12.773 10.510,13.202 10.058 C 13.512 9.733,13.726 9.376,13.858 8.963 C 13.983 8.571,13.988 8.522,13.988 7.500 C 13.988 6.477,13.983 6.428,13.857 6.038 C 13.646 5.380,13.194 4.813,12.587 4.442 C 12.504 4.391,12.431 4.350,12.424 4.350 C 12.417 4.350,12.244 4.518,12.038 4.724 " fill="currentColor" stroke="none" fill-rule="evenodd"></path></svg>