<svg width="15" height="15" fill="none" xmlns="http://www.w3.org/2000/svg"><path d="M3.656 4.026 C 2.983 4.093,2.371 4.385,1.872 4.875 C 1.554 5.188,1.343 5.498,1.202 5.863 C 1.019 6.334,1.012 6.390,1.012 7.500 C 1.012 8.371,1.018 8.511,1.059 8.688 C 1.323 9.831,2.213 10.685,3.411 10.944 C 3.584 10.981,3.757 10.988,4.639 10.988 L 5.666 10.988 5.767 10.920 C 5.924 10.817,5.988 10.695,5.988 10.500 C 5.988 10.305,5.924 10.183,5.768 10.080 L 5.666 10.013 4.652 9.998 C 3.700 9.984,3.626 9.980,3.450 9.928 C 2.883 9.759,2.445 9.404,2.201 8.912 C 2.019 8.546,2.013 8.500,2.013 7.500 C 2.013 6.500,2.019 6.454,2.201 6.088 C 2.445 5.598,2.887 5.239,3.452 5.073 C 3.625 5.022,3.708 5.017,4.652 5.003 L 5.666 4.988 5.768 4.920 C 5.924 4.817,5.988 4.695,5.988 4.500 C 5.988 4.305,5.924 4.183,5.768 4.080 L 5.666 4.013 4.764 4.009 C 4.268 4.007,3.770 4.015,3.656 4.026 M9.342 4.024 C 9.149 4.086,9.000 4.295,9.000 4.504 C 9.000 4.655,9.089 4.818,9.223 4.913 L 9.329 4.988 10.346 5.003 C 11.292 5.017,11.375 5.022,11.548 5.073 C 12.113 5.239,12.557 5.599,12.798 6.088 C 12.982 6.459,12.987 6.501,12.987 7.500 C 12.987 8.282,12.982 8.407,12.942 8.550 C 12.755 9.217,12.246 9.721,11.550 9.928 C 11.374 9.980,11.300 9.984,10.346 9.998 L 9.329 10.013 9.223 10.088 C 8.929 10.294,8.929 10.706,9.223 10.913 L 9.329 10.988 10.358 10.988 C 11.243 10.988,11.416 10.981,11.589 10.944 C 12.237 10.804,12.773 10.510,13.202 10.058 C 13.512 9.733,13.726 9.376,13.858 8.963 C 13.983 8.571,13.988 8.522,13.988 7.500 C 13.988 6.478,13.983 6.429,13.858 6.038 C 13.716 5.594,13.502 5.248,13.152 4.897 C 12.725 4.468,12.244 4.205,11.638 4.070 C 11.437 4.025,11.303 4.018,10.413 4.010 C 9.860 4.005,9.381 4.012,9.342 4.024 " fill="currentColor" stroke="none" fill-rule="evenodd"></path></svg>