<svg width="15" height="15" fill="none" xmlns="http://www.w3.org/2000/svg"><path d="M3.656 4.026 C 2.983 4.093,2.371 4.385,1.872 4.875 C 1.554 5.188,1.343 5.498,1.202 5.863 C 1.019 6.334,1.012 6.390,1.012 7.500 C 1.012 8.610,1.019 8.666,1.202 9.138 C 1.500 9.906,2.204 10.567,3.008 10.834 C 3.447 10.980,3.524 10.988,4.639 10.988 L 5.666 10.988 5.767 10.920 C 5.924 10.817,5.988 10.695,5.988 10.500 C 5.988 10.305,5.924 10.183,5.768 10.080 L 5.666 10.013 4.652 9.998 C 3.710 9.984,3.625 9.979,3.458 9.929 C 2.778 9.726,2.297 9.275,2.081 8.638 L 2.013 8.438 2.013 7.500 L 2.013 6.563 2.081 6.363 C 2.298 5.720,2.798 5.259,3.488 5.062 C 3.613 5.026,3.804 5.017,4.652 5.003 L 5.666 4.988 5.768 4.920 C 5.924 4.817,5.988 4.695,5.988 4.500 C 5.988 4.305,5.924 4.183,5.768 4.080 L 5.666 4.013 4.764 4.009 C 4.268 4.007,3.770 4.015,3.656 4.026 M9.342 4.024 C 9.149 4.086,9.000 4.295,9.000 4.504 C 9.000 4.655,9.089 4.818,9.223 4.913 L 9.329 4.988 10.346 5.003 C 11.292 5.017,11.375 5.022,11.548 5.073 C 12.113 5.239,12.557 5.599,12.798 6.088 C 12.982 6.459,12.987 6.501,12.987 7.500 C 12.987 8.282,12.982 8.407,12.942 8.550 C 12.755 9.217,12.246 9.721,11.550 9.928 C 11.374 9.980,11.300 9.984,10.346 9.998 L 9.329 10.013 9.223 10.088 C 8.929 10.294,8.929 10.706,9.223 10.913 L 9.329 10.988 10.358 10.988 C 11.243 10.988,11.416 10.981,11.589 10.944 C 12.237 10.804,12.773 10.510,13.202 10.058 C 13.512 9.733,13.726 9.376,13.858 8.963 C 13.983 8.571,13.988 8.522,13.988 7.500 C 13.988 6.478,13.983 6.429,13.858 6.038 C 13.716 5.594,13.502 5.248,13.152 4.897 C 12.725 4.468,12.244 4.205,11.638 4.070 C 11.437 4.025,11.303 4.018,10.413 4.010 C 9.860 4.005,9.381 4.012,9.342 4.024 M4.842 7.025 C 4.651 7.083,4.500 7.295,4.500 7.504 C 4.500 7.655,4.589 7.818,4.723 7.913 L 4.829 7.988 7.496 7.988 L 10.163 7.988 10.258 7.928 C 10.310 7.896,10.384 7.823,10.420 7.767 C 10.476 7.683,10.488 7.638,10.488 7.500 C 10.488 7.362,10.476 7.317,10.420 7.233 C 10.384 7.177,10.310 7.104,10.258 7.072 L 10.163 7.013 7.538 7.008 C 6.094 7.006,4.881 7.013,4.842 7.025 " fill="currentColor" stroke="none" fill-rule="evenodd"></path></svg>