<svg width="15" height="15" fill="none" xmlns="http://www.w3.org/2000/svg"><path d="M9.350 1.667 C 9.159 1.687,8.777 1.779,8.595 1.849 C 8.082 2.046,7.894 2.185,7.100 2.953 C 6.383 3.645,6.299 3.751,6.301 3.961 C 6.301 4.081,6.370 4.241,6.453 4.318 C 6.592 4.445,6.819 4.485,6.993 4.412 C 7.050 4.388,7.329 4.132,7.749 3.718 C 8.295 3.180,8.449 3.042,8.613 2.946 C 9.215 2.593,9.895 2.560,10.494 2.854 C 10.657 2.934,10.767 3.017,11.019 3.248 C 11.378 3.578,11.926 4.150,12.034 4.308 C 12.439 4.897,12.447 5.717,12.054 6.386 C 11.959 6.550,11.815 6.710,11.258 7.276 C 10.671 7.873,10.575 7.981,10.550 8.075 C 10.451 8.443,10.764 8.775,11.134 8.696 C 11.252 8.671,11.291 8.639,11.699 8.243 C 12.559 7.406,12.823 7.101,13.021 6.708 C 13.539 5.682,13.426 4.440,12.735 3.581 C 12.496 3.282,11.466 2.279,11.258 2.142 C 10.697 1.772,10.005 1.599,9.350 1.667 M3.750 6.347 C 3.627 6.415,2.429 7.617,2.255 7.847 C 1.589 8.731,1.467 9.912,1.939 10.899 C 2.111 11.257,2.236 11.414,2.836 12.021 C 3.502 12.696,3.699 12.860,4.063 13.039 C 4.540 13.274,4.987 13.369,5.500 13.342 C 6.049 13.313,6.550 13.146,7.037 12.829 C 7.278 12.673,8.637 11.327,8.677 11.205 C 8.720 11.077,8.694 10.869,8.624 10.766 C 8.526 10.623,8.389 10.550,8.219 10.550 C 8.133 10.550,8.039 10.567,7.993 10.591 C 7.949 10.613,7.620 10.920,7.263 11.273 C 6.572 11.954,6.420 12.074,6.089 12.202 C 5.585 12.398,5.088 12.396,4.609 12.197 C 4.371 12.098,4.257 12.013,3.869 11.647 C 3.320 11.129,2.971 10.733,2.854 10.494 C 2.617 10.011,2.590 9.477,2.777 8.967 C 2.912 8.597,3.031 8.443,3.752 7.712 C 4.387 7.069,4.420 7.031,4.445 6.911 C 4.492 6.694,4.412 6.497,4.228 6.375 C 4.105 6.293,3.873 6.280,3.750 6.347 " fill="currentColor" stroke="none" fill-rule="evenodd"></path></svg>