<svg width="15" height="15" fill="none" xmlns="http://www.w3.org/2000/svg"><path d="M1.765 1.028 C 1.409 1.112,1.102 1.430,1.024 1.794 C 1.008 1.872,1.001 3.852,1.006 7.575 C 1.012 13.153,1.013 13.239,1.062 13.357 C 1.169 13.615,1.404 13.845,1.657 13.939 C 1.785 13.987,1.904 13.988,7.514 13.988 L 13.240 13.988 13.429 13.894 C 13.657 13.782,13.798 13.637,13.908 13.404 L 13.988 13.238 13.988 7.500 L 13.988 1.763 13.908 1.596 C 13.798 1.363,13.657 1.218,13.429 1.106 L 13.240 1.012 7.551 1.009 C 4.175 1.006,1.823 1.014,1.765 1.028 M4.189 2.952 C 4.407 2.992,4.594 3.091,4.752 3.248 C 5.078 3.575,5.160 4.038,4.966 4.461 C 4.893 4.621,4.690 4.847,4.541 4.934 C 4.223 5.120,3.777 5.120,3.459 4.934 C 3.319 4.852,3.119 4.635,3.040 4.480 C 2.730 3.868,3.098 3.106,3.775 2.959 C 3.954 2.920,4.010 2.919,4.189 2.952 M10.332 5.935 C 10.965 6.097,11.432 6.469,11.711 7.032 C 11.857 7.327,11.928 7.576,11.974 7.949 C 12.004 8.191,12.008 9.458,11.983 10.969 L 11.967 12.000 11.021 12.000 L 10.075 12.000 10.075 10.256 C 10.074 8.372,10.071 8.322,9.939 8.033 C 9.770 7.665,9.464 7.475,9.038 7.475 C 8.572 7.475,8.226 7.680,8.047 8.060 C 7.903 8.369,7.901 8.401,7.900 10.281 L 7.900 12.000 6.950 12.000 L 6.000 12.000 6.000 9.000 L 6.000 6.000 6.900 6.000 L 7.800 6.000 7.800 6.513 C 7.800 6.794,7.809 7.025,7.819 7.025 C 7.830 7.025,7.885 6.932,7.941 6.819 C 8.189 6.321,8.444 6.094,8.917 5.951 C 9.202 5.864,9.314 5.852,9.713 5.862 C 10.008 5.870,10.139 5.885,10.332 5.935 M4.950 9.000 L 4.950 12.000 4.000 12.000 L 3.050 12.000 3.050 9.000 L 3.050 6.000 4.000 6.000 L 4.950 6.000 4.950 9.000 " fill="currentColor" stroke="none" fill-rule="evenodd"></path></svg>