<svg width="15" height="15" fill="none" xmlns="http://www.w3.org/2000/svg"><path d="M9.350 1.665 C 8.921 1.718,8.449 1.878,8.097 2.090 C 7.807 2.265,7.589 2.458,6.931 3.124 C 6.496 3.565,6.340 3.739,6.309 3.819 C 6.199 4.104,6.411 4.439,6.720 4.469 C 6.956 4.492,6.983 4.472,7.713 3.752 C 8.452 3.022,8.609 2.901,8.983 2.773 C 9.351 2.647,9.618 2.624,9.984 2.688 C 10.241 2.732,10.465 2.818,10.657 2.945 C 10.840 3.066,11.382 3.579,11.752 3.981 C 12.203 4.472,12.333 4.777,12.335 5.350 C 12.336 5.708,12.285 5.934,12.136 6.232 C 11.990 6.523,11.913 6.614,11.237 7.300 C 10.645 7.900,10.581 7.973,10.554 8.079 C 10.479 8.381,10.682 8.669,10.986 8.695 C 11.059 8.701,11.158 8.693,11.205 8.677 C 11.327 8.637,12.673 7.278,12.829 7.037 C 13.330 6.267,13.474 5.389,13.236 4.555 C 13.159 4.286,12.985 3.918,12.832 3.701 C 12.700 3.516,11.699 2.492,11.445 2.284 C 11.125 2.022,10.701 1.818,10.277 1.723 C 10.068 1.676,9.531 1.643,9.350 1.665 M9.159 5.249 C 9.116 5.259,9.043 5.291,8.996 5.320 C 8.950 5.349,8.096 6.192,7.098 7.193 C 5.192 9.103,5.225 9.067,5.225 9.275 C 5.225 9.530,5.470 9.775,5.725 9.775 C 5.933 9.775,5.896 9.808,7.820 7.890 C 9.696 6.018,9.775 5.931,9.775 5.751 C 9.774 5.431,9.461 5.176,9.159 5.249 M3.778 6.339 C 3.605 6.414,2.367 7.667,2.168 7.969 C 1.572 8.873,1.488 9.955,1.939 10.899 C 2.111 11.257,2.236 11.414,2.836 12.021 C 3.502 12.696,3.699 12.860,4.063 13.039 C 4.540 13.274,4.987 13.369,5.500 13.342 C 6.049 13.313,6.550 13.146,7.037 12.829 C 7.278 12.673,8.637 11.327,8.677 11.205 C 8.720 11.077,8.694 10.869,8.624 10.766 C 8.526 10.623,8.389 10.550,8.219 10.550 C 8.133 10.550,8.039 10.567,7.993 10.591 C 7.949 10.613,7.625 10.915,7.275 11.262 C 6.590 11.940,6.402 12.087,6.072 12.211 C 5.836 12.298,5.567 12.350,5.347 12.350 C 5.005 12.350,4.564 12.218,4.314 12.040 C 4.138 11.915,3.579 11.379,3.248 11.019 C 2.797 10.528,2.667 10.223,2.665 9.650 C 2.664 9.292,2.715 9.066,2.864 8.768 C 3.011 8.476,3.088 8.385,3.741 7.724 C 4.145 7.316,4.387 7.053,4.411 6.994 C 4.488 6.811,4.437 6.561,4.297 6.432 C 4.160 6.307,3.942 6.267,3.778 6.339 " fill="currentColor" stroke="none" fill-rule="evenodd"></path></svg>