<svg width="15" height="15" fill="none" xmlns="http://www.w3.org/2000/svg"><path d="M1.258 3.795 C 0.731 3.983,0.581 4.633,0.974 5.026 C 1.534 5.587,2.477 4.984,2.200 4.243 C 2.058 3.865,1.631 3.662,1.258 3.795 M4.342 4.025 C 4.152 4.083,4.000 4.295,4.000 4.504 C 4.000 4.655,4.089 4.818,4.223 4.913 L 4.329 4.988 8.996 4.988 L 13.663 4.988 13.758 4.928 C 13.810 4.896,13.884 4.823,13.920 4.767 C 13.976 4.683,13.988 4.638,13.988 4.500 C 13.988 4.362,13.976 4.317,13.920 4.233 C 13.884 4.177,13.810 4.104,13.758 4.072 L 13.663 4.013 9.037 4.008 C 6.494 4.006,4.381 4.014,4.342 4.025 M1.258 6.795 C 0.731 6.983,0.581 7.633,0.974 8.026 C 1.534 8.587,2.477 7.984,2.200 7.243 C 2.058 6.865,1.631 6.662,1.258 6.795 M4.342 7.025 C 4.152 7.083,4.000 7.295,4.000 7.504 C 4.000 7.655,4.089 7.818,4.223 7.913 L 4.329 7.988 8.996 7.988 L 13.663 7.988 13.758 7.928 C 13.810 7.896,13.884 7.823,13.920 7.767 C 13.976 7.683,13.988 7.638,13.988 7.500 C 13.988 7.362,13.976 7.317,13.920 7.233 C 13.884 7.177,13.810 7.104,13.758 7.072 L 13.663 7.013 9.037 7.008 C 6.494 7.006,4.381 7.014,4.342 7.025 M1.258 9.795 C 0.731 9.983,0.581 10.633,0.974 11.026 C 1.534 11.587,2.477 10.984,2.200 10.243 C 2.058 9.865,1.631 9.662,1.258 9.795 M4.342 10.025 C 4.152 10.083,4.000 10.295,4.000 10.504 C 4.000 10.655,4.089 10.818,4.223 10.913 L 4.329 10.988 8.996 10.988 L 13.663 10.988 13.758 10.928 C 13.810 10.896,13.884 10.823,13.920 10.767 C 13.976 10.683,13.988 10.638,13.988 10.500 C 13.988 10.362,13.976 10.317,13.920 10.233 C 13.884 10.177,13.810 10.104,13.758 10.072 L 13.663 10.013 9.037 10.008 C 6.494 10.006,4.381 10.014,4.342 10.025 " fill="currentColor" stroke="none" fill-rule="evenodd"></path></svg>