<svg width="15" height="15" fill="none" xmlns="http://www.w3.org/2000/svg"><path d="M11.013 0.026 C 9.324 0.217,8.263 1.281,8.038 3.008 C 8.008 3.241,8.000 3.584,8.000 4.651 L 8.000 5.999 4.380 6.006 L 0.760 6.013 0.569 6.107 C 0.278 6.251,0.089 6.488,0.024 6.794 C 0.008 6.871,0.001 8.017,0.006 10.075 C 0.012 13.161,0.014 13.240,0.062 13.357 C 0.169 13.615,0.404 13.845,0.657 13.939 C 0.785 13.986,0.895 13.988,5.513 13.988 L 10.238 13.988 10.404 13.908 C 10.637 13.798,10.782 13.657,10.894 13.429 L 10.988 13.240 10.988 10.001 L 10.988 6.763 10.908 6.596 C 10.798 6.363,10.657 6.218,10.429 6.106 L 10.240 6.013 9.620 6.004 L 9.000 5.996 9.000 4.717 C 9.001 4.013,9.012 3.331,9.026 3.201 C 9.127 2.238,9.552 1.575,10.284 1.237 C 10.901 0.952,11.896 0.926,12.584 1.177 C 13.415 1.480,13.884 2.191,13.982 3.294 L 14.011 3.625 14.509 3.625 L 15.008 3.625 14.991 3.340 C 14.888 1.539,13.911 0.352,12.300 0.072 C 11.969 0.015,11.316 -0.009,11.013 0.026 M10.000 10.000 L 10.000 13.000 5.500 13.000 L 1.000 13.000 1.000 10.000 L 1.000 7.000 5.500 7.000 L 10.000 7.000 10.000 10.000 " fill="currentColor" stroke="none" fill-rule="evenodd"></path></svg>