<svg width="15" height="15" fill="none" xmlns="http://www.w3.org/2000/svg"><path d="M7.015 0.027 C 6.507 0.081,6.085 0.201,5.701 0.402 C 4.680 0.936,4.083 1.969,4.008 3.331 L 3.992 3.625 4.491 3.625 L 4.989 3.625 5.018 3.294 C 5.147 1.835,5.905 1.084,7.324 1.009 C 8.690 0.937,9.617 1.565,9.900 2.755 C 9.985 3.113,9.999 3.398,10.000 4.718 L 10.000 5.999 6.380 6.006 L 2.760 6.013 2.569 6.107 C 2.278 6.251,2.089 6.488,2.024 6.794 C 2.008 6.871,2.001 8.017,2.006 10.075 C 2.012 13.161,2.014 13.240,2.062 13.357 C 2.169 13.615,2.404 13.845,2.657 13.939 C 2.785 13.986,2.895 13.988,7.513 13.988 L 12.238 13.988 12.404 13.908 C 12.637 13.798,12.782 13.657,12.894 13.429 L 12.988 13.240 12.988 10.000 L 12.988 6.760 12.894 6.571 C 12.782 6.343,12.637 6.202,12.404 6.092 L 12.238 6.013 11.621 6.004 L 11.004 5.996 10.992 4.517 C 10.981 2.952,10.979 2.924,10.852 2.429 C 10.539 1.214,9.663 0.366,8.449 0.104 C 7.999 0.007,7.477 -0.021,7.015 0.027 M12.000 10.000 L 12.000 13.000 7.500 13.000 L 3.000 13.000 3.000 10.000 L 3.000 7.000 7.500 7.000 L 12.000 7.000 12.000 10.000 " fill="currentColor" stroke="none" fill-rule="evenodd"></path></svg>