<svg width="15" height="15" fill="none" xmlns="http://www.w3.org/2000/svg"><path d="M7.051 1.002 C 6.199 1.084,5.489 1.407,4.961 1.954 C 4.544 2.385,4.296 2.843,4.137 3.473 C 4.026 3.914,4.000 4.232,4.000 5.149 L 4.000 5.996 3.380 6.004 L 2.760 6.013 2.569 6.107 C 2.278 6.251,2.089 6.488,2.024 6.794 C 2.008 6.871,2.001 8.017,2.006 10.075 C 2.012 13.161,2.014 13.240,2.062 13.357 C 2.169 13.615,2.404 13.845,2.657 13.939 C 2.785 13.986,2.895 13.988,7.514 13.988 L 12.240 13.988 12.429 13.894 C 12.657 13.782,12.798 13.637,12.908 13.404 L 12.988 13.238 12.988 9.999 L 12.988 6.760 12.894 6.571 C 12.782 6.343,12.637 6.202,12.404 6.092 L 12.238 6.013 11.619 6.004 L 11.000 5.996 11.000 5.150 C 11.000 3.996,10.942 3.574,10.700 2.969 C 10.142 1.575,8.771 0.837,7.051 1.002 M7.872 2.001 C 8.341 2.049,8.657 2.157,9.016 2.392 C 9.447 2.673,9.735 3.109,9.888 3.710 C 9.977 4.064,10.000 4.371,10.000 5.228 L 10.000 6.000 7.497 6.000 L 4.995 6.000 5.007 5.056 C 5.018 4.213,5.025 4.087,5.073 3.868 C 5.250 3.058,5.609 2.559,6.238 2.248 C 6.703 2.018,7.242 1.936,7.872 2.001 M12.000 10.000 L 12.000 13.000 7.500 13.000 L 3.000 13.000 3.000 10.000 L 3.000 7.000 7.500 7.000 L 12.000 7.000 12.000 10.000 " fill="currentColor" stroke="none" fill-rule="evenodd"></path></svg>