<svg width="15" height="15" fill="none" xmlns="http://www.w3.org/2000/svg"><path d="M2.863 1.017 C 2.748 1.049,2.562 1.222,1.583 2.204 C 0.657 3.134,0.551 3.249,0.525 3.350 C 0.488 3.487,0.508 3.655,0.574 3.759 C 0.600 3.802,1.098 4.312,1.680 4.892 C 2.633 5.841,2.749 5.949,2.850 5.975 C 3.247 6.081,3.581 5.747,3.475 5.350 C 3.449 5.251,3.371 5.163,2.829 4.618 L 2.213 3.998 6.088 4.006 C 9.943 4.014,9.964 4.015,10.195 4.068 C 10.932 4.238,11.445 4.519,11.963 5.037 C 12.618 5.691,12.928 6.391,12.995 7.367 C 13.014 7.634,13.025 7.684,13.081 7.770 C 13.183 7.924,13.306 7.988,13.500 7.988 C 13.694 7.988,13.817 7.924,13.918 7.771 C 14.005 7.639,14.019 7.390,13.964 6.958 C 13.769 5.419,12.847 4.131,11.463 3.459 C 10.958 3.214,10.517 3.089,9.945 3.026 C 9.785 3.009,8.421 3.000,5.958 3.000 L 2.215 3.000 2.830 2.381 C 3.371 1.837,3.449 1.749,3.475 1.650 C 3.560 1.331,3.358 1.034,3.041 1.012 C 2.970 1.007,2.890 1.009,2.863 1.017 M1.342 7.024 C 1.225 7.062,1.108 7.167,1.049 7.290 C 0.996 7.398,0.994 7.428,1.008 7.722 C 1.105 9.677,2.470 11.359,4.356 11.850 C 4.942 12.003,4.862 12.000,9.006 12.000 L 12.785 12.000 12.170 12.619 C 11.629 13.163,11.551 13.251,11.525 13.350 C 11.419 13.747,11.753 14.081,12.150 13.975 C 12.251 13.949,12.367 13.841,13.320 12.892 C 13.902 12.312,14.400 11.802,14.426 11.759 C 14.492 11.655,14.512 11.487,14.475 11.350 C 14.449 11.249,14.343 11.134,13.417 10.204 C 12.851 9.636,12.337 9.135,12.275 9.092 C 12.176 9.022,12.142 9.013,12.000 9.013 C 11.863 9.013,11.821 9.025,11.731 9.085 C 11.540 9.214,11.464 9.423,11.525 9.650 C 11.551 9.749,11.629 9.837,12.171 10.382 L 12.786 11.001 8.899 10.993 C 4.567 10.985,4.949 11.000,4.376 10.810 C 3.841 10.632,3.390 10.342,2.974 9.908 C 2.372 9.278,2.075 8.583,2.004 7.632 C 1.977 7.287,1.938 7.192,1.775 7.084 C 1.670 7.015,1.460 6.986,1.342 7.024 " fill="currentColor" stroke="none" fill-rule="evenodd"></path></svg>