<svg width="15" height="15" fill="none" xmlns="http://www.w3.org/2000/svg"><path d="M8.338 0.138 C 8.130 0.250,8.100 0.330,8.100 0.760 L 8.100 1.096 7.729 1.104 C 7.365 1.112,7.357 1.114,7.264 1.185 C 7.040 1.356,7.050 1.660,7.285 1.836 C 7.346 1.882,7.396 1.888,7.725 1.896 L 8.096 1.904 8.104 2.275 C 8.113 2.679,8.125 2.717,8.285 2.836 C 8.381 2.908,8.619 2.908,8.715 2.836 C 8.875 2.717,8.887 2.679,8.896 2.275 L 8.904 1.904 9.275 1.896 C 9.604 1.888,9.654 1.882,9.715 1.836 C 9.824 1.754,9.880 1.664,9.893 1.546 C 9.909 1.401,9.855 1.275,9.736 1.185 C 9.643 1.114,9.635 1.112,9.271 1.104 L 8.900 1.096 8.900 0.760 C 8.900 0.374,8.877 0.292,8.739 0.187 C 8.625 0.100,8.448 0.078,8.338 0.138 M13.338 0.138 C 13.130 0.250,13.100 0.330,13.100 0.760 L 13.100 1.096 12.729 1.104 C 12.365 1.112,12.357 1.114,12.264 1.185 C 12.040 1.356,12.050 1.660,12.285 1.836 C 12.346 1.882,12.396 1.888,12.725 1.896 L 13.096 1.904 13.104 2.275 C 13.113 2.679,13.125 2.717,13.285 2.836 C 13.381 2.908,13.619 2.908,13.715 2.836 C 13.875 2.717,13.887 2.679,13.896 2.275 L 13.904 1.904 14.275 1.896 C 14.604 1.888,14.654 1.882,14.715 1.836 C 14.824 1.754,14.880 1.664,14.893 1.546 C 14.909 1.401,14.855 1.275,14.736 1.185 C 14.643 1.114,14.635 1.112,14.271 1.104 L 13.900 1.096 13.900 0.760 C 13.900 0.374,13.877 0.292,13.739 0.187 C 13.625 0.100,13.448 0.078,13.338 0.138 M11.287 3.060 C 11.198 3.105,11.000 3.286,10.608 3.681 C 10.125 4.167,10.051 4.252,10.025 4.350 C 9.918 4.747,10.253 5.082,10.650 4.975 C 10.748 4.949,10.834 4.874,11.320 4.391 C 11.627 4.087,11.903 3.798,11.933 3.750 C 12.011 3.626,12.010 3.373,11.931 3.247 C 11.851 3.118,11.696 3.023,11.541 3.009 C 11.437 2.999,11.389 3.008,11.287 3.060 M9.364 5.017 C 9.337 5.024,9.275 5.056,9.226 5.088 C 9.177 5.120,7.544 6.741,5.596 8.692 C 2.329 11.962,2.051 12.246,2.024 12.350 C 1.964 12.578,2.052 12.810,2.242 12.928 C 2.374 13.010,2.623 13.012,2.750 12.932 C 2.798 12.902,4.437 11.276,6.392 9.320 C 9.671 6.038,9.949 5.754,9.976 5.650 C 10.060 5.329,9.859 5.034,9.541 5.012 C 9.470 5.007,9.391 5.009,9.364 5.017 M13.338 5.138 C 13.130 5.250,13.100 5.330,13.100 5.760 L 13.100 6.096 12.729 6.104 C 12.365 6.112,12.357 6.114,12.264 6.185 C 12.040 6.356,12.050 6.660,12.285 6.836 C 12.346 6.882,12.396 6.888,12.725 6.896 L 13.096 6.904 13.104 7.275 C 13.113 7.679,13.125 7.717,13.285 7.836 C 13.381 7.908,13.619 7.908,13.715 7.836 C 13.875 7.717,13.887 7.679,13.896 7.275 L 13.904 6.904 14.275 6.896 C 14.604 6.888,14.654 6.882,14.715 6.836 C 14.824 6.754,14.880 6.664,14.893 6.546 C 14.909 6.401,14.855 6.275,14.736 6.185 C 14.643 6.114,14.635 6.112,14.271 6.104 L 13.900 6.096 13.900 5.760 C 13.900 5.374,13.877 5.292,13.739 5.187 C 13.625 5.100,13.448 5.078,13.338 5.138 " fill="currentColor" stroke="none" fill-rule="evenodd"></path></svg>