<svg width="15" height="15" fill="none" xmlns="http://www.w3.org/2000/svg"><path d="M1.342 1.024 C 1.149 1.086,1.000 1.295,1.000 1.504 C 1.000 1.655,1.089 1.818,1.223 1.913 C 1.316 1.978,1.351 1.988,1.498 1.988 C 1.639 1.988,1.683 1.977,1.767 1.920 C 1.924 1.817,1.988 1.695,1.988 1.500 C 1.988 1.308,1.924 1.183,1.775 1.084 C 1.670 1.015,1.460 0.986,1.342 1.024 M4.342 1.024 C 4.149 1.086,4.000 1.295,4.000 1.504 C 4.000 1.655,4.089 1.818,4.223 1.913 C 4.316 1.978,4.351 1.988,4.498 1.988 C 4.639 1.988,4.683 1.977,4.767 1.920 C 4.924 1.817,4.988 1.695,4.988 1.500 C 4.988 1.308,4.924 1.183,4.775 1.084 C 4.670 1.015,4.460 0.986,4.342 1.024 M7.342 1.024 C 7.149 1.086,7.000 1.295,7.000 1.504 C 7.000 1.655,7.089 1.818,7.223 1.913 C 7.316 1.978,7.351 1.988,7.498 1.988 C 7.639 1.988,7.683 1.977,7.767 1.920 C 7.924 1.817,7.988 1.695,7.988 1.500 C 7.988 1.308,7.924 1.183,7.775 1.084 C 7.670 1.015,7.460 0.986,7.342 1.024 M10.342 1.024 C 10.149 1.086,10.000 1.295,10.000 1.504 C 10.000 1.655,10.089 1.818,10.223 1.913 C 10.316 1.978,10.351 1.988,10.498 1.988 C 10.639 1.988,10.683 1.977,10.767 1.920 C 10.924 1.817,10.988 1.695,10.988 1.500 C 10.988 1.308,10.924 1.183,10.775 1.084 C 10.670 1.015,10.460 0.986,10.342 1.024 M13.342 1.024 C 13.149 1.086,13.000 1.295,13.000 1.504 C 13.000 1.655,13.089 1.818,13.223 1.913 C 13.316 1.978,13.351 1.988,13.498 1.988 C 13.639 1.988,13.683 1.977,13.767 1.920 C 13.924 1.817,13.988 1.695,13.988 1.500 C 13.988 1.308,13.924 1.183,13.775 1.084 C 13.670 1.015,13.460 0.986,13.342 1.024 M1.342 4.024 C 1.149 4.086,1.000 4.295,1.000 4.504 C 1.000 4.655,1.089 4.818,1.223 4.913 C 1.316 4.978,1.351 4.988,1.498 4.988 C 1.639 4.988,1.683 4.977,1.767 4.920 C 1.924 4.817,1.988 4.695,1.988 4.500 C 1.988 4.308,1.924 4.183,1.775 4.084 C 1.670 4.015,1.460 3.986,1.342 4.024 M4.765 4.028 C 4.408 4.112,4.102 4.429,4.024 4.794 C 4.008 4.871,4.001 5.850,4.006 7.575 C 4.012 10.163,4.014 10.241,4.062 10.357 C 4.169 10.615,4.404 10.845,4.657 10.939 C 4.783 10.986,4.875 10.988,7.513 10.988 L 10.238 10.988 10.404 10.908 C 10.637 10.798,10.782 10.657,10.894 10.429 L 10.988 10.240 10.988 7.500 L 10.988 4.760 10.894 4.571 C 10.782 4.343,10.637 4.202,10.404 4.092 L 10.238 4.013 7.550 4.008 C 5.980 4.006,4.822 4.014,4.765 4.028 M13.342 4.024 C 13.149 4.086,13.000 4.295,13.000 4.504 C 13.000 4.655,13.089 4.818,13.223 4.913 C 13.316 4.978,13.351 4.988,13.498 4.988 C 13.639 4.988,13.683 4.977,13.767 4.920 C 13.924 4.817,13.988 4.695,13.988 4.500 C 13.988 4.308,13.924 4.183,13.775 4.084 C 13.670 4.015,13.460 3.986,13.342 4.024 M10.000 7.500 L 10.000 10.000 7.500 10.000 L 5.000 10.000 5.000 7.500 L 5.000 5.000 7.500 5.000 L 10.000 5.000 10.000 7.500 M1.342 7.024 C 1.149 7.086,1.000 7.295,1.000 7.504 C 1.000 7.655,1.089 7.818,1.223 7.913 C 1.316 7.978,1.351 7.988,1.498 7.988 C 1.639 7.988,1.683 7.977,1.767 7.920 C 1.924 7.817,1.988 7.695,1.988 7.500 C 1.988 7.308,1.924 7.183,1.775 7.084 C 1.670 7.015,1.460 6.986,1.342 7.024 M13.342 7.024 C 13.149 7.086,13.000 7.295,13.000 7.504 C 13.000 7.655,13.089 7.818,13.223 7.913 C 13.316 7.978,13.351 7.988,13.498 7.988 C 13.639 7.988,13.683 7.977,13.767 7.920 C 13.924 7.817,13.988 7.695,13.988 7.500 C 13.988 7.308,13.924 7.183,13.775 7.084 C 13.670 7.015,13.460 6.986,13.342 7.024 M1.342 10.024 C 1.149 10.086,1.000 10.295,1.000 10.504 C 1.000 10.655,1.089 10.818,1.223 10.913 C 1.316 10.978,1.351 10.988,1.498 10.988 C 1.639 10.988,1.683 10.977,1.767 10.920 C 1.924 10.817,1.988 10.695,1.988 10.500 C 1.988 10.308,1.924 10.183,1.775 10.084 C 1.670 10.015,1.460 9.986,1.342 10.024 M13.342 10.024 C 13.149 10.086,13.000 10.295,13.000 10.504 C 13.000 10.655,13.089 10.818,13.223 10.913 C 13.316 10.978,13.351 10.988,13.498 10.988 C 13.639 10.988,13.683 10.977,13.767 10.920 C 13.924 10.817,13.988 10.695,13.988 10.500 C 13.988 10.308,13.924 10.183,13.775 10.084 C 13.670 10.015,13.460 9.986,13.342 10.024 M1.342 13.024 C 1.149 13.086,1.000 13.295,1.000 13.504 C 1.000 13.655,1.089 13.818,1.223 13.913 C 1.316 13.978,1.351 13.988,1.498 13.988 C 1.639 13.988,1.683 13.977,1.767 13.920 C 1.924 13.817,1.988 13.695,1.988 13.500 C 1.988 13.308,1.924 13.183,1.775 13.084 C 1.670 13.015,1.460 12.986,1.342 13.024 M4.342 13.024 C 4.149 13.086,4.000 13.295,4.000 13.504 C 4.000 13.655,4.089 13.818,4.223 13.913 C 4.316 13.978,4.351 13.988,4.498 13.988 C 4.639 13.988,4.683 13.977,4.767 13.920 C 4.924 13.817,4.988 13.695,4.988 13.500 C 4.988 13.308,4.924 13.183,4.775 13.084 C 4.670 13.015,4.460 12.986,4.342 13.024 M7.342 13.024 C 7.149 13.086,7.000 13.295,7.000 13.504 C 7.000 13.655,7.089 13.818,7.223 13.913 C 7.316 13.978,7.351 13.988,7.498 13.988 C 7.639 13.988,7.683 13.977,7.767 13.920 C 7.924 13.817,7.988 13.695,7.988 13.500 C 7.988 13.308,7.924 13.183,7.775 13.084 C 7.670 13.015,7.460 12.986,7.342 13.024 M10.342 13.024 C 10.149 13.086,10.000 13.295,10.000 13.504 C 10.000 13.655,10.089 13.818,10.223 13.913 C 10.316 13.978,10.351 13.988,10.498 13.988 C 10.639 13.988,10.683 13.977,10.767 13.920 C 10.924 13.817,10.988 13.695,10.988 13.500 C 10.988 13.308,10.924 13.183,10.775 13.084 C 10.670 13.015,10.460 12.986,10.342 13.024 M13.342 13.024 C 13.149 13.086,13.000 13.295,13.000 13.504 C 13.000 13.655,13.089 13.818,13.223 13.913 C 13.316 13.978,13.351 13.988,13.498 13.988 C 13.639 13.988,13.683 13.977,13.767 13.920 C 13.924 13.817,13.988 13.695,13.988 13.500 C 13.988 13.308,13.924 13.183,13.775 13.084 C 13.670 13.015,13.460 12.986,13.342 13.024 " fill="currentColor" stroke="none" fill-rule="evenodd"></path></svg>