<svg width="15" height="15" fill="none" xmlns="http://www.w3.org/2000/svg"><path d="M0.765 1.028 C 0.409 1.112,0.102 1.430,0.024 1.794 C 0.008 1.872,0.001 3.852,0.006 7.575 C 0.012 13.153,0.013 13.239,0.062 13.357 C 0.169 13.615,0.404 13.845,0.657 13.939 C 0.785 13.987,0.914 13.988,7.514 13.988 L 14.240 13.988 14.429 13.894 C 14.657 13.782,14.798 13.637,14.908 13.404 L 14.988 13.238 14.988 7.499 L 14.988 1.760 14.894 1.571 C 14.782 1.343,14.637 1.202,14.404 1.092 L 14.238 1.012 7.550 1.009 C 3.573 1.006,0.823 1.014,0.765 1.028 M7.876 4.401 C 8.355 4.460,8.846 4.645,9.265 4.926 C 9.374 4.998,9.570 5.166,9.702 5.298 C 11.054 6.650,10.891 8.859,9.352 10.014 C 9.003 10.276,8.519 10.487,8.063 10.578 C 7.832 10.623,7.168 10.623,6.938 10.578 C 6.516 10.494,6.049 10.299,5.722 10.069 C 5.289 9.765,4.938 9.352,4.698 8.863 C 4.364 8.180,4.290 7.416,4.488 6.675 C 4.568 6.373,4.802 5.896,4.997 5.635 C 5.663 4.743,6.775 4.266,7.876 4.401 " fill="currentColor" stroke="none" fill-rule="evenodd"></path></svg>