<svg width="15" height="15" fill="none" xmlns="http://www.w3.org/2000/svg"><path d="M0.765 1.028 C 0.409 1.112,0.102 1.430,0.024 1.794 C 0.008 1.872,0.001 3.852,0.006 7.575 C 0.012 13.153,0.013 13.239,0.062 13.357 C 0.169 13.615,0.404 13.845,0.657 13.939 C 0.785 13.987,0.914 13.988,7.514 13.988 L 14.240 13.988 14.429 13.894 C 14.657 13.782,14.798 13.637,14.908 13.404 L 14.988 13.238 14.988 7.499 L 14.988 1.760 14.894 1.571 C 14.782 1.343,14.637 1.202,14.404 1.092 L 14.238 1.012 7.550 1.009 C 3.573 1.006,0.823 1.014,0.765 1.028 M14.000 7.500 L 14.000 13.000 7.500 13.000 L 1.000 13.000 1.000 7.500 L 1.000 2.000 7.500 2.000 L 14.000 2.000 14.000 7.500 M7.175 3.890 C 6.703 3.946,6.249 4.075,5.898 4.251 C 4.886 4.760,4.187 5.665,3.945 6.783 C 3.865 7.150,3.865 7.850,3.945 8.217 C 4.258 9.661,5.339 10.742,6.783 11.055 C 7.150 11.135,7.850 11.135,8.217 11.055 C 9.661 10.742,10.742 9.661,11.055 8.217 C 11.135 7.850,11.135 7.150,11.055 6.783 C 10.740 5.330,9.637 4.233,8.203 3.948 C 7.971 3.902,7.362 3.868,7.175 3.890 M7.900 4.912 C 8.297 4.972,8.595 5.087,8.945 5.315 C 9.753 5.841,10.212 6.812,10.105 7.769 C 10.055 8.217,9.932 8.566,9.696 8.928 C 8.656 10.522,6.344 10.522,5.304 8.928 C 5.068 8.566,4.945 8.217,4.895 7.769 C 4.809 6.995,5.089 6.206,5.647 5.647 C 6.241 5.053,7.065 4.784,7.900 4.912 " fill="currentColor" stroke="none" fill-rule="evenodd"></path></svg>