<svg width="15" height="15" fill="none" xmlns="http://www.w3.org/2000/svg"><path d="M3.624 1.276 C 2.103 1.489,1.031 2.942,1.288 4.440 C 1.577 6.120,3.247 7.134,4.863 6.609 C 5.975 6.247,6.750 5.176,6.750 4.000 C 6.750 2.525,5.575 1.311,4.100 1.263 C 3.928 1.257,3.714 1.263,3.624 1.276 M8.646 1.476 C 8.473 1.567,8.389 1.762,8.432 1.975 C 8.453 2.080,8.516 2.149,9.408 3.044 L 10.361 4.000 9.420 4.944 C 8.875 5.490,8.466 5.919,8.449 5.963 C 8.318 6.311,8.605 6.642,8.975 6.568 C 9.080 6.547,9.149 6.484,10.044 5.592 L 11.000 4.639 11.944 5.579 C 12.815 6.446,12.896 6.520,13.003 6.546 C 13.333 6.626,13.626 6.332,13.546 6.003 C 13.520 5.896,13.445 5.814,12.579 4.944 L 11.639 4.000 12.579 3.056 C 13.445 2.186,13.520 2.104,13.546 1.997 C 13.598 1.784,13.483 1.549,13.292 1.477 C 13.202 1.443,13.023 1.442,12.933 1.476 C 12.894 1.491,12.443 1.921,11.931 2.432 L 11.000 3.362 10.069 2.433 C 9.556 1.923,9.101 1.487,9.057 1.465 C 8.949 1.411,8.759 1.416,8.646 1.476 M4.463 2.211 C 4.818 2.305,5.200 2.552,5.432 2.838 C 5.925 3.447,5.979 4.276,5.571 4.969 C 5.525 5.047,5.397 5.203,5.286 5.316 C 5.113 5.491,5.046 5.538,4.823 5.646 C 4.258 5.920,3.742 5.920,3.178 5.647 C 2.957 5.540,2.889 5.491,2.716 5.317 C 2.258 4.856,2.070 4.272,2.186 3.666 C 2.259 3.284,2.422 2.978,2.700 2.700 C 2.970 2.430,3.277 2.263,3.646 2.186 C 3.850 2.144,4.252 2.156,4.463 2.211 M2.125 8.148 C 1.989 8.190,1.851 8.278,1.765 8.379 C 1.594 8.578,1.600 8.486,1.600 11.000 C 1.600 13.598,1.588 13.441,1.811 13.664 C 1.909 13.762,1.977 13.806,2.076 13.835 C 2.233 13.882,2.385 13.886,2.503 13.846 C 2.673 13.788,6.613 11.595,6.709 11.504 C 7.004 11.226,6.998 10.749,6.697 10.490 C 6.576 10.386,2.677 8.220,2.505 8.161 C 2.391 8.123,2.228 8.117,2.125 8.148 M8.825 8.323 C 8.689 8.365,8.551 8.453,8.467 8.552 C 8.293 8.755,8.300 8.652,8.300 10.987 C 8.300 13.403,8.289 13.267,8.511 13.489 C 8.733 13.711,8.599 13.700,11.000 13.700 C 13.401 13.700,13.267 13.711,13.489 13.489 C 13.711 13.267,13.700 13.401,13.700 11.000 C 13.700 8.679,13.705 8.752,13.535 8.554 C 13.485 8.496,13.387 8.418,13.316 8.380 L 13.188 8.313 11.038 8.308 C 9.855 8.306,8.859 8.312,8.825 8.323 M4.171 10.088 C 5.067 10.583,5.799 10.993,5.800 11.000 C 5.800 11.011,2.580 12.801,2.524 12.821 C 2.509 12.826,2.500 12.148,2.500 11.000 C 2.500 9.969,2.510 9.174,2.522 9.179 C 2.534 9.184,3.276 9.592,4.171 10.088 M12.800 11.000 L 12.800 12.800 11.000 12.800 L 9.200 12.800 9.200 11.000 L 9.200 9.200 11.000 9.200 L 12.800 9.200 12.800 11.000 " fill="currentColor" stroke="none" fill-rule="evenodd"></path></svg>