<svg width="15" height="15" fill="none" xmlns="http://www.w3.org/2000/svg"><path d="M5.200 2.016 C 4.846 2.061,4.385 2.239,4.074 2.451 C 3.607 2.768,3.224 3.321,3.076 3.893 L 3.049 3.998 2.189 4.005 L 1.329 4.013 1.223 4.088 C 0.929 4.294,0.929 4.706,1.223 4.913 L 1.329 4.988 2.189 4.995 L 3.049 5.002 3.076 5.107 C 3.274 5.874,3.842 6.530,4.551 6.810 C 4.920 6.955,5.085 6.986,5.500 6.986 C 5.915 6.986,6.079 6.955,6.450 6.810 C 6.756 6.689,7.134 6.425,7.355 6.177 C 7.596 5.906,7.836 5.456,7.925 5.107 L 7.952 5.001 10.809 4.994 L 13.666 4.988 13.768 4.920 C 13.924 4.817,13.988 4.695,13.988 4.498 C 13.988 4.362,13.976 4.317,13.920 4.233 C 13.884 4.177,13.810 4.104,13.758 4.072 L 13.663 4.013 10.807 4.006 L 7.952 3.999 7.924 3.893 C 7.776 3.321,7.394 2.768,6.926 2.451 C 6.704 2.300,6.349 2.139,6.100 2.076 C 5.891 2.024,5.397 1.990,5.200 2.016 M5.813 3.038 C 6.375 3.156,6.844 3.625,6.962 4.188 C 7.069 4.697,6.923 5.183,6.552 5.551 C 6.334 5.767,6.141 5.879,5.860 5.951 C 5.507 6.041,5.124 5.994,4.792 5.820 C 4.564 5.701,4.281 5.409,4.166 5.175 C 3.872 4.575,3.980 3.916,4.448 3.448 C 4.819 3.076,5.303 2.931,5.813 3.038 M9.200 8.016 C 8.846 8.061,8.385 8.239,8.074 8.451 C 7.606 8.768,7.224 9.321,7.076 9.893 L 7.048 9.999 4.189 10.006 L 1.329 10.013 1.223 10.088 C 0.929 10.294,0.929 10.706,1.223 10.913 L 1.329 10.988 4.189 10.994 L 7.048 11.001 7.076 11.107 C 7.274 11.874,7.842 12.530,8.551 12.810 C 8.920 12.955,9.085 12.986,9.500 12.986 C 9.915 12.986,10.079 12.955,10.450 12.810 C 10.756 12.689,11.134 12.425,11.355 12.177 C 11.596 11.907,11.836 11.456,11.925 11.107 L 11.951 11.002 12.807 10.995 C 13.658 10.988,13.663 10.987,13.758 10.928 C 13.810 10.896,13.884 10.823,13.920 10.767 C 13.976 10.683,13.988 10.638,13.988 10.500 C 13.988 10.362,13.976 10.317,13.920 10.233 C 13.884 10.177,13.810 10.104,13.758 10.072 C 13.663 10.013,13.658 10.012,12.807 10.005 L 11.951 9.998 11.924 9.893 C 11.776 9.321,11.393 8.768,10.926 8.451 C 10.704 8.300,10.349 8.139,10.100 8.076 C 9.891 8.024,9.397 7.990,9.200 8.016 M9.813 9.038 C 10.375 9.156,10.844 9.625,10.962 10.188 C 11.069 10.697,10.923 11.183,10.552 11.551 C 10.334 11.767,10.141 11.879,9.860 11.951 C 9.507 12.041,9.124 11.994,8.792 11.820 C 8.564 11.701,8.281 11.409,8.166 11.175 C 7.872 10.575,7.980 9.916,8.448 9.448 C 8.819 9.076,9.303 8.931,9.813 9.038 " fill="currentColor" stroke="none" fill-rule="evenodd"></path></svg>