<svg width="15" height="15" fill="none" xmlns="http://www.w3.org/2000/svg"><path d="M4.342 1.024 C 4.227 1.061,4.109 1.166,4.053 1.282 C 4.000 1.391,4.000 1.396,4.000 4.219 L 4.000 7.048 3.894 7.075 C 3.835 7.090,3.698 7.137,3.588 7.180 C 2.829 7.475,2.291 8.088,2.070 8.908 C 1.991 9.201,1.991 9.797,2.069 10.088 C 2.320 11.017,2.989 11.691,3.894 11.925 L 4.000 11.952 4.000 12.785 C 4.000 13.608,4.001 13.618,4.058 13.727 C 4.090 13.788,4.164 13.871,4.223 13.913 C 4.315 13.978,4.351 13.988,4.496 13.988 C 4.695 13.988,4.816 13.925,4.920 13.768 L 4.988 13.666 4.995 12.809 L 5.002 11.951 5.107 11.925 C 5.456 11.836,5.907 11.596,6.177 11.355 C 6.425 11.134,6.689 10.756,6.810 10.450 C 6.955 10.079,6.986 9.915,6.986 9.500 C 6.986 9.085,6.955 8.920,6.810 8.551 C 6.532 7.847,5.871 7.274,5.107 7.076 L 5.001 7.048 4.994 4.193 L 4.988 1.338 4.928 1.242 C 4.843 1.106,4.708 1.024,4.546 1.012 C 4.473 1.006,4.381 1.012,4.342 1.024 M10.342 1.024 C 10.227 1.061,10.109 1.166,10.053 1.282 C 10.002 1.386,10.000 1.428,10.000 2.219 L 10.000 3.048 9.894 3.075 C 9.835 3.090,9.697 3.137,9.588 3.180 C 8.829 3.475,8.291 4.088,8.070 4.908 C 7.991 5.201,7.991 5.797,8.069 6.088 C 8.320 7.017,8.989 7.691,9.894 7.925 L 10.000 7.952 10.000 10.785 L 10.000 13.617 10.058 13.727 C 10.090 13.788,10.164 13.871,10.223 13.913 C 10.315 13.978,10.351 13.988,10.496 13.988 C 10.695 13.988,10.816 13.925,10.920 13.768 L 10.988 13.666 10.994 10.809 L 11.001 7.952 11.107 7.925 C 11.456 7.836,11.906 7.596,12.177 7.355 C 12.425 7.134,12.689 6.756,12.810 6.450 C 12.955 6.079,12.986 5.915,12.986 5.500 C 12.986 5.085,12.955 4.920,12.810 4.551 C 12.532 3.847,11.871 3.274,11.107 3.076 L 11.002 3.049 10.995 2.193 C 10.988 1.342,10.987 1.337,10.928 1.242 C 10.843 1.106,10.708 1.024,10.546 1.012 C 10.473 1.006,10.381 1.012,10.342 1.024 M10.813 4.038 C 11.375 4.156,11.844 4.625,11.962 5.188 C 12.069 5.697,11.923 6.183,11.552 6.551 C 11.334 6.767,11.141 6.879,10.860 6.951 C 10.507 7.041,10.124 6.994,9.792 6.820 C 9.564 6.701,9.281 6.409,9.166 6.175 C 8.872 5.575,8.980 4.916,9.448 4.448 C 9.819 4.076,10.303 3.931,10.813 4.038 M4.813 8.038 C 5.375 8.156,5.844 8.625,5.962 9.188 C 6.069 9.697,5.923 10.183,5.552 10.551 C 5.334 10.767,5.141 10.879,4.860 10.951 C 4.507 11.041,4.124 10.994,3.792 10.820 C 3.564 10.701,3.281 10.409,3.166 10.175 C 2.872 9.575,2.980 8.916,3.448 8.448 C 3.819 8.076,4.303 7.931,4.813 8.038 " fill="currentColor" stroke="none" fill-rule="evenodd"></path></svg>