<svg width="15" height="15" fill="none" xmlns="http://www.w3.org/2000/svg"><path d="M4.175 1.039 C 3.902 1.098,3.663 1.233,3.449 1.448 C 3.233 1.666,3.121 1.859,3.049 2.140 C 3.001 2.329,3.000 2.436,3.000 7.500 C 3.000 12.564,3.001 12.671,3.049 12.860 C 3.122 13.143,3.233 13.334,3.449 13.551 C 3.666 13.767,3.857 13.878,4.140 13.951 C 4.327 13.999,4.428 14.000,7.500 14.000 C 10.572 14.000,10.673 13.999,10.860 13.951 C 11.143 13.878,11.334 13.767,11.551 13.551 C 11.767 13.334,11.878 13.143,11.951 12.860 C 11.999 12.671,12.000 12.564,12.000 7.500 C 12.000 2.436,11.999 2.329,11.951 2.140 C 11.879 1.859,11.767 1.666,11.551 1.448 C 11.334 1.229,11.096 1.097,10.813 1.038 C 10.558 0.984,4.423 0.985,4.175 1.039 M10.758 2.072 C 10.810 2.104,10.884 2.177,10.920 2.233 L 10.988 2.334 10.988 7.500 L 10.988 12.666 10.920 12.767 C 10.884 12.823,10.810 12.896,10.758 12.928 L 10.663 12.988 7.498 12.988 L 4.334 12.988 4.233 12.920 C 4.177 12.884,4.104 12.810,4.072 12.758 L 4.013 12.663 4.006 7.554 C 4.002 4.007,4.008 2.414,4.026 2.346 C 4.058 2.226,4.216 2.061,4.330 2.028 C 4.381 2.013,5.610 2.006,7.538 2.008 L 10.663 2.013 10.758 2.072 M5.831 11.700 C 5.595 11.844,5.595 12.156,5.831 12.300 C 5.910 12.348,5.960 12.350,7.500 12.350 C 9.040 12.350,9.090 12.348,9.169 12.300 C 9.413 12.152,9.402 11.821,9.150 11.694 C 9.069 11.654,8.937 11.650,7.488 11.650 C 5.960 11.650,5.910 11.652,5.831 11.700 " fill="currentColor" stroke="none" fill-rule="evenodd"></path></svg>