<svg width="15" height="15" fill="none" xmlns="http://www.w3.org/2000/svg"><path d="M2.429 2.097 L 1.000 3.169 2.437 4.247 C 3.228 4.840,3.880 5.325,3.887 5.325 C 3.894 5.325,3.900 4.358,3.900 3.175 C 3.900 1.992,3.891 1.025,3.879 1.025 C 3.868 1.025,3.215 1.507,2.429 2.097 M4.375 3.178 C 4.375 4.897,4.381 5.326,4.406 5.307 C 4.423 5.293,5.072 4.807,5.847 4.226 C 6.621 3.646,7.246 3.162,7.234 3.151 C 7.181 3.103,4.399 1.025,4.388 1.025 C 4.381 1.025,4.375 1.994,4.375 3.178 M9.177 2.089 C 8.401 2.673,7.762 3.155,7.756 3.161 C 7.750 3.167,8.379 3.646,9.154 4.227 C 9.929 4.807,10.577 5.293,10.594 5.307 C 10.619 5.326,10.625 4.897,10.625 3.178 C 10.625 1.994,10.617 1.026,10.606 1.027 C 10.596 1.028,9.953 1.506,9.177 2.089 M11.100 3.175 C 11.100 4.358,11.106 5.325,11.113 5.325 C 11.120 5.325,11.772 4.840,12.563 4.247 L 14.000 3.169 12.571 2.097 C 11.785 1.507,11.132 1.025,11.121 1.025 C 11.109 1.025,11.100 1.992,11.100 3.175 M1.000 6.061 L 1.000 8.225 2.438 7.147 C 3.228 6.554,3.875 6.062,3.874 6.053 C 3.873 6.039,1.115 3.964,1.034 3.918 C 1.005 3.901,1.000 4.238,1.000 6.061 M5.813 4.974 C 5.029 5.562,4.389 6.052,4.392 6.062 C 4.398 6.087,7.225 8.200,7.252 8.200 C 7.266 8.200,7.275 7.312,7.275 6.050 C 7.275 4.867,7.267 3.901,7.256 3.902 C 7.246 3.903,6.596 4.386,5.813 4.974 M7.725 6.053 C 7.725 7.946,7.729 8.204,7.762 8.191 C 7.793 8.179,10.547 6.132,10.608 6.076 C 10.625 6.060,7.775 3.900,7.737 3.900 C 7.730 3.900,7.725 4.869,7.725 6.053 M12.555 4.969 C 11.770 5.557,11.127 6.045,11.126 6.053 C 11.125 6.062,11.772 6.554,12.563 7.147 L 14.000 8.225 14.000 6.063 C 14.000 4.873,13.996 3.900,13.992 3.900 C 13.987 3.900,13.341 4.381,12.555 4.969 M2.429 7.872 L 1.000 8.944 2.437 10.022 C 3.228 10.615,3.880 11.100,3.887 11.100 C 3.894 11.100,3.900 10.133,3.900 8.950 C 3.900 7.768,3.891 6.800,3.879 6.800 C 3.868 6.800,3.215 7.282,2.429 7.872 M11.100 8.950 C 11.100 10.133,11.106 11.100,11.113 11.100 C 11.120 11.100,11.772 10.615,12.563 10.022 L 14.000 8.944 12.571 7.872 C 11.785 7.282,11.132 6.800,11.121 6.800 C 11.109 6.800,11.100 7.768,11.100 8.950 M1.000 11.835 L 1.000 14.000 2.406 12.947 C 3.180 12.368,3.828 11.879,3.847 11.862 C 3.875 11.835,3.638 11.648,2.472 10.774 C 1.697 10.193,1.048 9.707,1.031 9.693 C 1.006 9.674,1.000 10.106,1.000 11.835 M12.553 10.753 C 11.365 11.645,11.125 11.835,11.153 11.862 C 11.172 11.879,11.820 12.368,12.594 12.947 L 14.000 14.000 14.000 11.838 C 14.000 10.648,13.997 9.675,13.994 9.676 C 13.990 9.676,13.342 10.161,12.553 10.753 " fill="currentColor" stroke="none" fill-rule="evenodd"></path></svg>