<svg width="15" height="15" fill="none" xmlns="http://www.w3.org/2000/svg"><path d="M2.338 0.138 C 2.130 0.250,2.100 0.330,2.100 0.760 L 2.100 1.096 1.729 1.104 C 1.365 1.112,1.357 1.114,1.264 1.185 C 1.040 1.356,1.050 1.660,1.285 1.836 C 1.346 1.882,1.396 1.888,1.725 1.896 L 2.096 1.904 2.104 2.275 C 2.113 2.679,2.125 2.717,2.285 2.836 C 2.381 2.908,2.619 2.908,2.715 2.836 C 2.875 2.717,2.887 2.679,2.896 2.275 L 2.904 1.904 3.275 1.896 C 3.604 1.888,3.654 1.882,3.715 1.836 C 3.824 1.754,3.880 1.664,3.893 1.546 C 3.909 1.401,3.855 1.275,3.736 1.185 C 3.643 1.114,3.635 1.112,3.271 1.104 L 2.900 1.096 2.900 0.760 C 2.900 0.374,2.877 0.292,2.739 0.187 C 2.625 0.100,2.448 0.078,2.338 0.138 M8.094 0.975 C 8.041 1.008,7.975 1.130,7.975 1.193 C 7.975 1.248,8.003 1.299,8.193 1.600 C 8.625 2.281,8.940 3.087,9.086 3.885 C 9.483 6.048,8.802 8.234,7.252 9.775 C 6.717 10.306,6.195 10.678,5.513 11.015 C 4.734 11.398,3.981 11.604,3.045 11.689 C 2.787 11.712,2.667 11.836,2.727 12.017 C 2.759 12.115,3.168 12.496,3.543 12.779 C 4.399 13.423,5.412 13.848,6.526 14.029 C 6.981 14.103,7.961 14.110,8.400 14.041 C 9.562 13.861,10.560 13.450,11.445 12.789 C 12.578 11.943,13.392 10.786,13.814 9.423 C 13.992 8.848,14.072 8.352,14.092 7.700 C 14.108 7.182,14.084 6.824,14.002 6.357 C 13.575 3.918,11.805 1.920,9.422 1.187 C 8.885 1.022,8.195 0.912,8.094 0.975 M10.097 2.541 C 11.751 3.436,12.834 5.055,13.027 6.921 C 13.068 7.317,13.044 8.032,12.977 8.412 C 12.771 9.584,12.239 10.614,11.414 11.438 C 10.583 12.268,9.573 12.790,8.384 13.004 C 8.104 13.054,7.983 13.062,7.450 13.061 C 6.783 13.061,6.591 13.038,6.057 12.898 C 5.608 12.781,5.051 12.566,5.125 12.540 C 6.035 12.217,6.568 11.948,7.213 11.490 C 7.673 11.162,8.298 10.587,8.605 10.209 L 8.732 10.052 8.844 10.150 C 9.223 10.484,9.799 10.375,10.018 9.930 C 10.117 9.727,10.117 9.473,10.018 9.270 C 9.938 9.108,9.815 8.990,9.651 8.918 C 9.589 8.891,9.534 8.865,9.530 8.862 C 9.523 8.856,9.667 8.554,9.687 8.531 C 9.690 8.527,9.753 8.551,9.827 8.584 C 9.993 8.657,10.187 8.700,10.350 8.700 C 11.025 8.700,11.600 8.125,11.600 7.450 C 11.600 6.845,11.143 6.314,10.541 6.221 L 10.351 6.191 10.369 6.052 C 10.379 5.975,10.387 5.614,10.386 5.250 C 10.384 4.699,10.374 4.527,10.328 4.225 C 10.256 3.752,10.127 3.231,9.974 2.791 C 9.906 2.597,9.850 2.435,9.850 2.431 C 9.850 2.413,9.903 2.436,10.097 2.541 M5.338 3.138 C 5.130 3.250,5.100 3.330,5.100 3.760 L 5.100 4.096 4.729 4.104 C 4.365 4.112,4.357 4.114,4.264 4.185 C 4.040 4.356,4.050 4.660,4.285 4.836 C 4.346 4.882,4.396 4.888,4.725 4.896 L 5.096 4.904 5.104 5.275 C 5.113 5.679,5.125 5.717,5.285 5.836 C 5.381 5.908,5.619 5.908,5.715 5.836 C 5.875 5.717,5.887 5.679,5.896 5.275 L 5.904 4.904 6.275 4.896 C 6.604 4.888,6.654 4.882,6.715 4.836 C 6.824 4.754,6.880 4.664,6.893 4.546 C 6.909 4.401,6.855 4.275,6.736 4.185 C 6.643 4.114,6.635 4.112,6.271 4.104 L 5.900 4.096 5.900 3.760 C 5.900 3.374,5.877 3.292,5.739 3.187 C 5.625 3.100,5.448 3.078,5.338 3.138 M1.338 6.138 C 1.130 6.250,1.100 6.330,1.100 6.760 L 1.100 7.096 0.729 7.104 C 0.365 7.112,0.357 7.114,0.264 7.185 C 0.040 7.356,0.050 7.660,0.285 7.836 C 0.346 7.882,0.396 7.888,0.725 7.896 L 1.096 7.904 1.104 8.275 C 1.113 8.679,1.125 8.717,1.285 8.836 C 1.381 8.908,1.619 8.908,1.715 8.836 C 1.875 8.717,1.887 8.679,1.896 8.275 L 1.904 7.904 2.275 7.896 C 2.604 7.888,2.654 7.882,2.715 7.836 C 2.824 7.754,2.880 7.664,2.893 7.546 C 2.909 7.401,2.855 7.275,2.736 7.185 C 2.643 7.114,2.635 7.112,2.271 7.104 L 1.900 7.096 1.900 6.760 C 1.900 6.374,1.877 6.292,1.739 6.187 C 1.625 6.100,1.448 6.078,1.338 6.138 " fill="currentColor" stroke="none" fill-rule="evenodd"></path></svg>