<svg width="15" height="15" fill="none" xmlns="http://www.w3.org/2000/svg"><path d="M7.313 0.848 C 7.246 0.879,6.897 1.212,6.271 1.841 C 5.391 2.726,5.328 2.795,5.307 2.900 C 5.233 3.270,5.565 3.558,5.913 3.425 C 5.954 3.410,6.215 3.170,6.494 2.893 L 7.000 2.389 7.000 4.003 L 7.000 5.617 7.058 5.727 C 7.090 5.788,7.164 5.871,7.223 5.913 C 7.316 5.978,7.351 5.988,7.498 5.988 C 7.639 5.988,7.683 5.977,7.767 5.920 C 7.823 5.884,7.896 5.810,7.928 5.758 L 7.988 5.663 7.994 4.027 L 8.001 2.392 8.507 2.892 C 8.959 3.339,9.025 3.395,9.128 3.421 C 9.457 3.502,9.751 3.208,9.671 2.878 C 9.645 2.772,9.570 2.689,8.715 1.828 C 8.098 1.207,7.754 0.879,7.688 0.848 C 7.561 0.789,7.439 0.789,7.313 0.848 M2.813 5.341 C 2.688 5.406,0.901 7.199,0.848 7.313 C 0.789 7.439,0.788 7.560,0.848 7.688 C 0.879 7.754,1.207 8.098,1.828 8.715 C 2.690 9.571,2.772 9.645,2.878 9.671 C 3.208 9.751,3.502 9.457,3.421 9.128 C 3.395 9.025,3.339 8.958,2.892 8.507 L 2.392 8.001 4.029 7.994 L 5.666 7.988 5.768 7.920 C 5.924 7.817,5.988 7.695,5.988 7.498 C 5.988 7.362,5.976 7.317,5.920 7.233 C 5.884 7.177,5.810 7.104,5.758 7.072 L 5.663 7.013 4.027 7.006 L 2.392 6.999 2.906 6.481 C 3.374 6.009,3.422 5.952,3.443 5.850 C 3.486 5.634,3.402 5.440,3.224 5.349 C 3.107 5.290,2.918 5.286,2.813 5.341 M11.825 5.353 C 11.641 5.426,11.528 5.664,11.579 5.872 C 11.605 5.975,11.661 6.042,12.108 6.493 L 12.608 6.999 10.969 7.006 L 9.329 7.013 9.223 7.088 C 8.929 7.294,8.929 7.706,9.223 7.913 L 9.329 7.988 10.969 7.994 L 12.608 8.001 12.108 8.507 C 11.661 8.958,11.605 9.025,11.579 9.128 C 11.498 9.457,11.792 9.751,12.122 9.671 C 12.228 9.645,12.310 9.571,13.172 8.715 C 13.793 8.098,14.121 7.754,14.152 7.688 C 14.212 7.560,14.211 7.439,14.152 7.313 C 14.095 7.189,12.297 5.391,12.192 5.351 C 12.105 5.319,11.909 5.320,11.825 5.353 M7.342 9.024 C 7.227 9.061,7.109 9.166,7.053 9.282 C 7.001 9.389,7.000 9.416,7.000 11.001 L 7.000 12.611 6.506 12.120 C 6.235 11.849,5.981 11.616,5.942 11.602 C 5.852 11.567,5.673 11.567,5.583 11.602 C 5.392 11.674,5.277 11.909,5.329 12.122 C 5.355 12.228,5.430 12.311,6.285 13.172 C 7.235 14.128,7.319 14.199,7.500 14.199 C 7.681 14.199,7.765 14.128,8.715 13.172 C 9.570 12.311,9.645 12.228,9.671 12.122 C 9.723 11.909,9.608 11.674,9.417 11.602 C 9.327 11.567,9.148 11.567,9.058 11.602 C 9.019 11.616,8.766 11.849,8.494 12.119 L 8.001 12.609 7.994 10.973 L 7.988 9.338 7.928 9.242 C 7.843 9.106,7.708 9.024,7.546 9.012 C 7.473 9.006,7.381 9.012,7.342 9.024 " fill="currentColor" stroke="none" fill-rule="evenodd"></path></svg>