<svg width="15" height="15" fill="none" xmlns="http://www.w3.org/2000/svg"><path d="M5.650 1.049 C 1.174 1.384,1.501 1.344,1.263 1.585 C 1.192 1.658,1.116 1.766,1.088 1.838 C 1.038 1.961,1.037 2.029,1.031 6.263 C 1.023 10.985,1.015 10.735,1.172 11.064 C 1.211 11.145,1.293 11.286,1.354 11.375 C 1.615 11.754,3.265 13.874,3.393 13.993 C 3.573 14.162,3.741 14.227,4.038 14.243 C 4.283 14.255,12.895 13.745,13.181 13.701 C 13.648 13.629,13.873 13.434,13.949 13.037 C 13.970 12.928,13.975 11.604,13.970 8.111 L 13.963 3.334 13.900 3.242 C 13.820 3.124,13.585 2.950,12.093 1.902 C 10.723 0.939,10.652 0.893,10.425 0.822 C 10.106 0.721,9.923 0.730,5.650 1.049 M10.237 1.566 C 10.320 1.586,10.444 1.634,10.514 1.674 C 10.627 1.738,11.793 2.569,12.031 2.756 C 12.160 2.857,12.156 2.918,12.019 2.935 C 11.813 2.961,4.260 3.404,4.025 3.404 C 3.755 3.404,3.580 3.353,3.396 3.220 C 3.122 3.021,2.222 2.291,2.199 2.248 C 2.165 2.184,2.203 2.115,2.293 2.078 C 2.388 2.039,9.687 1.501,9.913 1.517 C 10.009 1.524,10.155 1.546,10.237 1.566 M12.895 3.876 C 12.943 3.905,12.998 3.971,13.026 4.032 C 13.073 4.135,13.074 4.248,13.074 8.225 C 13.075 11.132,13.067 12.341,13.047 12.412 C 13.012 12.537,12.865 12.687,12.743 12.720 C 12.691 12.735,10.745 12.856,8.418 12.991 C 4.619 13.210,4.175 13.232,4.066 13.201 C 3.927 13.162,3.817 13.079,3.755 12.966 C 3.715 12.893,3.712 12.608,3.706 8.838 C 3.701 5.904,3.707 4.750,3.727 4.652 C 3.761 4.490,3.848 4.391,3.990 4.353 C 4.074 4.331,12.257 3.835,12.663 3.828 C 12.773 3.826,12.835 3.839,12.895 3.876 M10.775 5.326 C 10.369 5.351,9.989 5.376,9.931 5.382 C 9.714 5.406,9.527 5.607,9.526 5.817 C 9.525 5.906,9.507 5.901,9.963 5.952 C 10.100 5.967,10.215 5.982,10.219 5.986 C 10.222 5.989,10.222 6.801,10.219 7.789 L 10.213 9.587 8.888 7.564 C 8.159 6.452,7.557 5.534,7.550 5.525 C 7.527 5.493,5.521 5.640,5.425 5.681 C 5.297 5.734,5.185 5.874,5.154 6.019 C 5.108 6.234,5.117 6.243,5.409 6.261 C 5.548 6.270,5.693 6.284,5.731 6.291 L 5.800 6.304 5.800 8.886 L 5.800 11.468 5.557 11.533 C 5.423 11.570,5.285 11.620,5.250 11.646 C 5.177 11.700,5.113 11.875,5.135 11.961 C 5.149 12.017,5.159 12.021,5.281 12.010 C 5.353 12.004,5.801 11.976,6.275 11.949 C 6.749 11.922,7.172 11.890,7.214 11.878 C 7.327 11.846,7.430 11.787,7.493 11.721 C 7.562 11.646,7.635 11.475,7.608 11.449 C 7.597 11.438,7.422 11.393,7.220 11.349 C 7.018 11.304,6.841 11.260,6.826 11.251 C 6.808 11.239,6.802 10.650,6.806 9.296 L 6.813 7.358 8.098 9.377 C 8.805 10.487,9.447 11.470,9.523 11.560 C 9.765 11.844,9.882 11.903,10.212 11.903 C 10.464 11.903,10.783 11.812,11.038 11.668 L 11.138 11.611 11.150 8.727 L 11.163 5.843 11.386 5.798 C 11.509 5.773,11.639 5.731,11.674 5.705 C 11.747 5.651,11.799 5.480,11.781 5.356 C 11.767 5.259,11.845 5.261,10.775 5.326 " fill="currentColor" stroke="none" fill-rule="evenodd"></path></svg>