<svg width="15" height="15" fill="none" xmlns="http://www.w3.org/2000/svg"><path d="M6.642 2.331 C 5.825 3.145,5.499 3.496,5.072 4.025 C 3.914 5.457,3.309 6.678,3.071 8.065 C 2.998 8.491,2.990 9.385,3.057 9.738 C 3.274 10.881,3.825 11.816,4.689 12.509 C 6.670 14.096,9.568 13.729,11.099 11.697 C 12.069 10.410,12.259 8.741,11.641 6.938 C 11.237 5.758,10.488 4.604,9.216 3.203 C 8.901 2.855,7.532 1.500,7.497 1.500 C 7.485 1.500,7.101 1.874,6.642 2.331 M7.995 3.369 C 8.549 3.945,8.865 4.298,9.186 4.699 C 10.189 5.949,10.728 7.022,10.928 8.167 C 11.002 8.592,11.008 9.300,10.941 9.637 C 10.803 10.330,10.504 10.908,10.026 11.408 C 9.506 11.950,8.906 12.281,8.150 12.442 C 7.852 12.506,7.148 12.506,6.850 12.442 C 6.094 12.281,5.494 11.950,4.974 11.408 C 4.504 10.917,4.216 10.371,4.071 9.692 C 3.992 9.325,3.992 8.622,4.072 8.167 C 4.301 6.862,5.001 5.588,6.288 4.136 C 6.606 3.778,7.473 2.875,7.500 2.875 C 7.511 2.875,7.734 3.097,7.995 3.369 " fill="currentColor" stroke="none" fill-rule="evenodd"></path></svg>