<svg width="15" height="15" fill="none" xmlns="http://www.w3.org/2000/svg"><path d="M2.765 2.028 C 2.415 2.111,2.109 2.422,2.026 2.780 C 2.011 2.846,2.001 3.613,2.001 4.752 L 2.000 6.617 2.058 6.727 C 2.090 6.788,2.164 6.871,2.223 6.913 C 2.316 6.978,2.351 6.988,2.498 6.988 C 2.639 6.988,2.683 6.977,2.767 6.920 C 2.823 6.884,2.896 6.810,2.928 6.758 L 2.988 6.663 2.994 4.831 L 3.001 3.000 7.501 3.000 L 12.000 3.000 12.000 7.499 L 12.000 11.999 10.165 12.006 L 8.329 12.013 8.223 12.088 C 7.929 12.294,7.929 12.706,8.223 12.913 L 8.329 12.988 10.285 12.988 L 12.240 12.988 12.429 12.894 C 12.657 12.782,12.798 12.637,12.908 12.404 L 12.988 12.238 12.988 7.500 L 12.988 2.763 12.908 2.596 C 12.798 2.363,12.657 2.218,12.429 2.106 L 12.240 2.013 7.551 2.009 C 4.777 2.006,2.823 2.014,2.765 2.028 M5.342 6.025 C 5.151 6.083,5.000 6.295,5.000 6.504 C 5.000 6.655,5.089 6.818,5.223 6.913 L 5.329 6.988 6.307 6.995 L 7.285 7.002 4.669 9.620 C 2.265 12.026,2.051 12.247,2.024 12.350 C 1.920 12.748,2.252 13.080,2.650 12.976 C 2.753 12.949,2.974 12.735,5.381 10.330 L 8.000 7.713 8.000 8.665 C 8.000 9.613,8.000 9.618,8.058 9.727 C 8.090 9.788,8.164 9.871,8.223 9.913 C 8.316 9.978,8.351 9.988,8.498 9.988 C 8.639 9.988,8.683 9.977,8.767 9.920 C 8.823 9.884,8.896 9.810,8.928 9.758 L 8.988 9.663 8.988 8.000 L 8.988 6.338 8.928 6.242 C 8.896 6.190,8.822 6.117,8.766 6.080 L 8.662 6.013 7.038 6.008 C 6.144 6.006,5.381 6.013,5.342 6.025 " fill="currentColor" stroke="none" fill-rule="evenodd"></path></svg>