<svg width="15" height="15" fill="none" xmlns="http://www.w3.org/2000/svg"><path d="M3.331 1.141 C 3.089 1.261,3.027 1.562,3.204 1.763 C 3.245 1.810,3.321 1.861,3.371 1.876 C 3.434 1.894,4.733 1.900,7.554 1.895 C 11.643 1.888,11.646 1.887,11.715 1.836 C 11.824 1.755,11.880 1.665,11.893 1.546 C 11.909 1.401,11.855 1.275,11.736 1.185 L 11.641 1.113 7.527 1.107 C 3.777 1.101,3.405 1.104,3.331 1.141 M4.342 3.774 C 4.226 3.811,4.108 3.917,4.052 4.034 L 3.998 4.144 4.007 7.091 C 4.016 10.364,4.003 10.110,4.188 10.667 C 4.353 11.164,4.597 11.566,4.972 11.956 C 5.391 12.392,5.840 12.682,6.376 12.860 C 6.819 13.007,7.010 13.037,7.500 13.037 C 7.990 13.037,8.181 13.007,8.624 12.860 C 9.640 12.522,10.473 11.688,10.812 10.667 C 10.998 10.109,10.988 10.325,10.988 7.036 L 10.988 4.084 10.920 3.983 C 10.817 3.826,10.695 3.763,10.500 3.763 C 10.305 3.763,10.183 3.826,10.080 3.982 L 10.013 4.084 9.999 7.011 L 9.986 9.938 9.929 10.149 C 9.691 11.047,9.015 11.730,8.128 11.969 C 7.918 12.026,7.839 12.034,7.500 12.034 C 7.161 12.034,7.082 12.026,6.872 11.969 C 6.284 11.811,5.775 11.454,5.445 10.968 C 5.300 10.755,5.136 10.395,5.071 10.149 L 5.015 9.938 5.001 7.013 L 4.988 4.088 4.928 3.992 C 4.843 3.856,4.708 3.774,4.546 3.762 C 4.473 3.756,4.381 3.762,4.342 3.774 " fill="currentColor" stroke="none" fill-rule="evenodd"></path></svg>