<svg width="15" height="15" fill="none" xmlns="http://www.w3.org/2000/svg"><path d="M2.488 1.041 C 2.111 1.122,1.823 1.278,1.551 1.551 C 1.352 1.749,1.234 1.925,1.133 2.176 C 0.992 2.524,0.999 2.260,1.006 7.581 L 1.012 12.488 1.071 12.663 C 1.285 13.299,1.723 13.733,2.350 13.929 L 2.538 13.988 7.500 13.988 L 12.463 13.988 12.650 13.929 C 13.283 13.731,13.731 13.283,13.929 12.650 L 13.988 12.463 13.988 7.500 L 13.988 2.538 13.929 2.350 C 13.731 1.717,13.280 1.265,12.650 1.071 L 12.463 1.013 7.563 1.008 C 3.293 1.004,2.640 1.009,2.488 1.041 M12.503 2.082 C 12.669 2.163,12.854 2.352,12.932 2.519 L 12.988 2.638 12.988 7.500 L 12.988 12.363 12.918 12.503 C 12.837 12.669,12.646 12.857,12.480 12.933 L 12.363 12.988 7.500 12.988 L 2.638 12.988 2.497 12.918 C 2.331 12.837,2.143 12.646,2.067 12.480 L 2.013 12.363 2.013 7.500 L 2.013 2.638 2.082 2.497 C 2.194 2.268,2.419 2.085,2.663 2.024 C 2.704 2.013,4.903 2.007,7.550 2.009 L 12.363 2.013 12.503 2.082 M4.342 4.024 C 4.149 4.086,4.000 4.295,4.000 4.504 C 4.000 4.655,4.089 4.818,4.223 4.913 C 4.316 4.978,4.351 4.988,4.498 4.988 C 4.639 4.988,4.683 4.977,4.767 4.920 C 4.924 4.817,4.988 4.695,4.988 4.500 C 4.988 4.308,4.924 4.183,4.775 4.084 C 4.670 4.015,4.460 3.986,4.342 4.024 M7.342 4.024 C 7.149 4.086,7.000 4.295,7.000 4.504 C 7.000 4.655,7.089 4.818,7.223 4.913 C 7.316 4.978,7.351 4.988,7.498 4.988 C 7.639 4.988,7.683 4.977,7.767 4.920 C 7.924 4.817,7.988 4.695,7.988 4.500 C 7.988 4.308,7.924 4.183,7.775 4.084 C 7.670 4.015,7.460 3.986,7.342 4.024 M10.342 4.024 C 10.149 4.086,10.000 4.295,10.000 4.504 C 10.000 4.655,10.089 4.818,10.223 4.913 C 10.316 4.978,10.351 4.988,10.498 4.988 C 10.639 4.988,10.683 4.977,10.767 4.920 C 10.924 4.817,10.988 4.695,10.988 4.500 C 10.988 4.308,10.924 4.183,10.775 4.084 C 10.670 4.015,10.460 3.986,10.342 4.024 M4.342 7.024 C 4.149 7.086,4.000 7.295,4.000 7.504 C 4.000 7.655,4.089 7.818,4.223 7.913 C 4.316 7.978,4.351 7.988,4.498 7.988 C 4.639 7.988,4.683 7.977,4.767 7.920 C 4.924 7.817,4.988 7.695,4.988 7.500 C 4.988 7.308,4.924 7.183,4.775 7.084 C 4.670 7.015,4.460 6.986,4.342 7.024 M10.342 7.024 C 10.149 7.086,10.000 7.295,10.000 7.504 C 10.000 7.655,10.089 7.818,10.223 7.913 C 10.316 7.978,10.351 7.988,10.498 7.988 C 10.639 7.988,10.683 7.977,10.767 7.920 C 10.924 7.817,10.988 7.695,10.988 7.500 C 10.988 7.308,10.924 7.183,10.775 7.084 C 10.670 7.015,10.460 6.986,10.342 7.024 M4.342 10.024 C 4.149 10.086,4.000 10.295,4.000 10.504 C 4.000 10.655,4.089 10.818,4.223 10.913 C 4.316 10.978,4.351 10.988,4.498 10.988 C 4.639 10.988,4.683 10.977,4.767 10.920 C 4.924 10.817,4.988 10.695,4.988 10.500 C 4.988 10.308,4.924 10.183,4.775 10.084 C 4.670 10.015,4.460 9.986,4.342 10.024 M7.342 10.024 C 7.149 10.086,7.000 10.295,7.000 10.504 C 7.000 10.655,7.089 10.818,7.223 10.913 C 7.316 10.978,7.351 10.988,7.498 10.988 C 7.639 10.988,7.683 10.977,7.767 10.920 C 7.924 10.817,7.988 10.695,7.988 10.500 C 7.988 10.308,7.924 10.183,7.775 10.084 C 7.670 10.015,7.460 9.986,7.342 10.024 M10.342 10.024 C 10.149 10.086,10.000 10.295,10.000 10.504 C 10.000 10.655,10.089 10.818,10.223 10.913 C 10.316 10.978,10.351 10.988,10.498 10.988 C 10.639 10.988,10.683 10.977,10.767 10.920 C 10.924 10.817,10.988 10.695,10.988 10.500 C 10.988 10.308,10.924 10.183,10.775 10.084 C 10.670 10.015,10.460 9.986,10.342 10.024 " fill="currentColor" stroke="none" fill-rule="evenodd"></path></svg>