<svg width="15" height="15" fill="none" xmlns="http://www.w3.org/2000/svg"><path d="M0.830 1.027 C 0.711 1.063,0.558 1.227,0.524 1.355 C 0.462 1.585,0.407 1.480,2.209 4.569 C 3.139 6.163,3.900 7.482,3.900 7.500 C 3.900 7.518,3.138 8.838,2.206 10.435 L 0.513 13.338 0.513 13.504 C 0.513 13.649,0.523 13.685,0.588 13.777 C 0.693 13.926,0.851 14.007,1.015 13.994 C 1.118 13.986,2.434 13.410,7.940 10.963 C 11.679 9.302,14.768 7.922,14.804 7.896 C 14.928 7.810,14.988 7.680,14.988 7.500 C 14.988 7.308,14.922 7.180,14.778 7.091 C 14.728 7.060,11.640 5.680,7.916 4.026 C 2.646 1.684,1.119 1.015,1.029 1.010 C 0.965 1.005,0.876 1.013,0.830 1.027 M7.761 5.050 C 10.779 6.391,13.249 7.493,13.249 7.500 C 13.249 7.515,2.245 12.403,2.235 12.393 C 2.231 12.389,2.816 11.380,3.535 10.149 L 4.841 7.913 6.994 7.900 C 9.119 7.888,9.147 7.887,9.215 7.836 C 9.324 7.755,9.380 7.664,9.393 7.546 C 9.409 7.401,9.355 7.275,9.236 7.185 L 9.141 7.113 6.991 7.100 L 4.841 7.088 3.569 4.913 C 2.157 2.497,2.211 2.591,2.247 2.603 C 2.261 2.608,4.742 3.709,7.761 5.050 " fill="currentColor" stroke="none" fill-rule="evenodd"></path></svg>