<svg width="15" height="15" fill="none" xmlns="http://www.w3.org/2000/svg"><path d="M5.322 2.233 C 5.173 2.289,5.083 2.368,5.015 2.505 L 4.950 2.635 4.950 7.502 L 4.950 12.369 5.020 12.503 C 5.121 12.696,5.275 12.788,5.500 12.788 C 5.725 12.788,5.879 12.696,5.980 12.503 L 6.050 12.369 6.050 7.500 L 6.050 2.631 5.980 2.497 C 5.858 2.263,5.561 2.144,5.322 2.233 M9.322 2.233 C 9.173 2.289,9.083 2.368,9.015 2.505 L 8.950 2.635 8.950 7.502 L 8.950 12.369 9.020 12.503 C 9.121 12.696,9.275 12.788,9.500 12.788 C 9.725 12.788,9.879 12.696,9.980 12.503 L 10.050 12.369 10.050 7.500 L 10.050 2.631 9.980 2.497 C 9.858 2.263,9.561 2.144,9.322 2.233 " fill="currentColor" stroke="none" fill-rule="evenodd"></path></svg>