<svg width="15" height="15" fill="none" xmlns="http://www.w3.org/2000/svg"><path d="M12.363 1.018 C 12.335 1.025,12.268 1.063,12.213 1.101 C 12.158 1.140,11.205 2.080,10.096 3.192 L 8.080 5.213 7.051 7.275 C 6.485 8.409,6.015 9.380,6.008 9.431 C 5.960 9.748,6.258 10.041,6.576 9.990 C 6.635 9.981,7.539 9.544,8.733 8.947 L 10.788 7.920 12.819 5.891 C 13.937 4.775,14.879 3.823,14.913 3.774 C 14.990 3.664,15.014 3.496,14.975 3.350 C 14.949 3.249,14.841 3.133,13.892 2.180 C 13.100 1.387,12.807 1.108,12.714 1.062 C 12.597 1.004,12.479 0.989,12.363 1.018 M3.871 2.026 C 3.440 2.065,3.203 2.140,2.908 2.331 C 2.464 2.619,2.171 3.048,2.058 3.575 C 2.015 3.776,2.013 4.017,2.013 8.000 C 2.013 11.983,2.015 12.224,2.058 12.425 C 2.143 12.822,2.309 13.128,2.590 13.410 C 2.872 13.691,3.178 13.857,3.575 13.942 C 3.776 13.985,4.017 13.988,8.000 13.988 C 11.983 13.988,12.224 13.985,12.425 13.942 C 13.192 13.777,13.758 13.220,13.940 12.450 C 13.981 12.277,13.985 12.025,13.993 9.138 L 14.002 6.013 13.501 6.512 L 13.000 7.012 12.999 9.412 C 12.999 10.763,12.988 11.922,12.975 12.063 C 12.921 12.612,12.625 12.916,12.083 12.977 C 11.944 12.992,10.367 12.999,7.837 12.994 C 4.003 12.987,3.806 12.985,3.676 12.941 C 3.283 12.808,3.070 12.521,3.025 12.060 C 2.993 11.729,2.993 4.270,3.025 3.938 C 3.080 3.375,3.376 3.080,3.940 3.025 C 4.079 3.012,5.251 3.001,6.600 3.001 L 9.013 3.000 9.513 2.500 L 10.012 2.000 7.050 2.003 C 5.421 2.005,3.990 2.016,3.871 2.026 M13.150 2.863 L 13.787 3.500 12.000 5.289 L 10.213 7.079 9.173 7.600 L 8.133 8.121 8.006 7.994 L 7.879 7.867 8.391 6.840 L 8.904 5.813 10.696 4.019 C 11.681 3.032,12.493 2.225,12.500 2.225 C 12.507 2.225,12.800 2.512,13.150 2.863 " fill="currentColor" stroke="none" fill-rule="evenodd"></path></svg>