<svg width="15" height="15" fill="none" xmlns="http://www.w3.org/2000/svg"><path d="M11.288 1.060 C 11.102 1.155,3.632 8.632,3.543 8.813 C 3.509 8.881,3.148 9.716,2.741 10.667 C 1.931 12.556,1.945 12.514,2.058 12.727 C 2.138 12.879,2.280 12.974,2.453 12.992 C 2.589 13.006,2.605 12.999,4.326 12.262 C 5.281 11.853,6.119 11.491,6.188 11.457 C 6.287 11.408,7.095 10.613,10.095 7.616 C 12.175 5.538,13.899 3.802,13.926 3.759 C 13.992 3.655,14.012 3.487,13.975 3.350 C 13.949 3.249,13.843 3.134,12.917 2.204 C 12.351 1.636,11.839 1.137,11.780 1.096 C 11.625 0.988,11.453 0.975,11.288 1.060 M12.150 2.863 L 12.787 3.500 9.243 7.044 L 5.698 10.588 4.980 10.894 C 4.586 11.062,4.251 11.200,4.238 11.200 C 4.205 11.200,3.800 10.796,3.800 10.763 C 3.800 10.749,3.936 10.417,4.103 10.025 L 4.407 9.313 7.947 5.769 C 9.894 3.820,11.493 2.225,11.500 2.225 C 11.507 2.225,11.800 2.512,12.150 2.863 " fill="currentColor" stroke="none" fill-rule="evenodd"></path></svg>