<svg width="15" height="15" fill="none" xmlns="http://www.w3.org/2000/svg"><path d="M7.065 0.900 C 5.463 1.102,4.194 2.313,3.924 3.895 C 3.628 5.622,4.632 7.330,6.285 7.914 L 6.482 7.984 6.160 8.039 C 5.581 8.137,5.188 8.259,4.701 8.491 C 3.202 9.206,2.330 10.542,2.088 12.500 C 2.031 12.958,2.010 13.617,2.048 13.733 C 2.136 13.999,2.423 14.139,2.669 14.036 C 2.877 13.949,2.974 13.784,2.975 13.513 C 2.975 13.247,3.020 12.694,3.064 12.400 C 3.244 11.202,3.730 10.290,4.497 9.711 C 4.778 9.499,5.330 9.226,5.700 9.116 C 6.749 8.803,8.254 8.803,9.300 9.116 C 9.675 9.228,10.226 9.500,10.503 9.710 C 11.272 10.293,11.756 11.203,11.936 12.400 C 11.980 12.694,12.025 13.247,12.025 13.513 C 12.026 13.784,12.123 13.949,12.331 14.036 C 12.577 14.139,12.864 13.999,12.952 13.733 C 12.974 13.665,12.978 13.525,12.967 13.226 C 12.888 11.172,12.184 9.689,10.874 8.811 C 10.587 8.619,10.052 8.360,9.725 8.254 C 9.387 8.145,9.207 8.101,8.840 8.039 L 8.518 7.984 8.715 7.915 C 9.753 7.550,10.608 6.660,10.948 5.593 C 11.069 5.211,11.109 4.938,11.109 4.500 C 11.109 4.059,11.067 3.786,10.936 3.383 C 10.750 2.811,10.487 2.385,10.051 1.949 C 9.517 1.414,8.930 1.099,8.190 0.948 C 7.904 0.890,7.338 0.865,7.065 0.900 M7.906 1.862 C 8.791 1.995,9.540 2.559,9.925 3.381 C 10.252 4.080,10.251 4.922,9.924 5.621 C 9.582 6.351,8.946 6.882,8.162 7.092 C 7.939 7.152,7.868 7.159,7.500 7.159 C 7.132 7.159,7.061 7.152,6.838 7.092 C 5.850 6.827,5.094 6.037,4.884 5.050 C 4.823 4.761,4.823 4.239,4.884 3.950 C 5.179 2.561,6.498 1.650,7.906 1.862 " fill="currentColor" stroke="none" fill-rule="evenodd"></path></svg>