<svg width="15" height="15" fill="none" xmlns="http://www.w3.org/2000/svg"><path d="M7.063 0.864 C 5.920 0.972,5.032 1.242,4.182 1.739 C 1.745 3.164,0.469 5.894,0.951 8.650 C 1.432 11.396,3.604 13.568,6.350 14.049 C 9.505 14.601,12.624 12.812,13.734 9.813 C 14.864 6.760,13.624 3.351,10.792 1.726 C 10.050 1.300,9.281 1.040,8.387 0.912 C 8.126 0.875,7.275 0.844,7.063 0.864 M8.325 1.913 C 9.275 2.057,10.132 2.418,10.925 3.010 C 11.230 3.237,11.763 3.770,11.992 4.077 C 12.582 4.866,12.942 5.724,13.091 6.700 C 13.152 7.096,13.152 7.904,13.091 8.300 C 12.877 9.699,12.183 10.947,11.129 11.827 C 8.292 14.195,4.017 13.269,2.410 9.938 C 2.027 9.143,1.865 8.418,1.865 7.500 C 1.865 6.582,2.027 5.857,2.410 5.063 C 2.972 3.897,3.841 3.018,5.004 2.439 C 5.649 2.118,6.254 1.951,7.088 1.865 C 7.289 1.844,8.070 1.875,8.325 1.913 M7.106 3.118 L 7.000 3.128 7.000 5.564 L 7.000 8.000 9.436 8.000 L 11.871 8.000 11.889 7.832 C 11.914 7.600,11.886 7.036,11.836 6.750 C 11.560 5.174,10.435 3.857,8.923 3.340 C 8.356 3.147,7.692 3.066,7.106 3.118 " fill="currentColor" stroke="none" fill-rule="evenodd"></path></svg>