<svg width="15" height="15" fill="none" xmlns="http://www.w3.org/2000/svg"><path d="M6.575 2.017 C 4.869 2.149,3.626 2.982,3.190 4.285 C 3.049 4.708,3.015 4.944,3.015 5.500 C 3.015 6.056,3.049 6.292,3.190 6.715 C 3.614 7.983,4.799 8.805,6.446 8.973 C 6.589 8.988,6.772 9.000,6.853 9.000 L 7.000 9.000 7.000 10.809 L 7.000 12.617 7.058 12.727 C 7.090 12.788,7.164 12.871,7.223 12.913 C 7.316 12.978,7.351 12.988,7.498 12.988 C 7.639 12.988,7.683 12.977,7.767 12.920 C 7.823 12.884,7.896 12.810,7.928 12.758 L 7.988 12.663 7.994 7.881 L 8.001 3.100 8.500 3.100 L 9.000 3.100 9.000 7.859 L 9.000 12.617 9.058 12.727 C 9.090 12.788,9.164 12.871,9.223 12.913 C 9.316 12.978,9.351 12.988,9.498 12.988 C 9.639 12.988,9.683 12.977,9.767 12.920 C 9.823 12.884,9.896 12.810,9.928 12.758 L 9.988 12.663 9.994 7.881 L 10.001 3.100 10.810 3.100 L 11.619 3.100 11.753 3.030 C 12.128 2.834,12.148 2.310,11.788 2.088 L 11.666 2.013 9.177 2.010 C 7.808 2.009,6.637 2.012,6.575 2.017 " fill="currentColor" stroke="none" fill-rule="evenodd"></path></svg>