<svg width="15" height="15" fill="none" xmlns="http://www.w3.org/2000/svg"><path d="M12.313 1.097 C 12.194 1.152,12.140 1.207,12.088 1.331 C 12.054 1.413,12.050 2.089,12.050 7.506 L 12.050 13.589 12.106 13.701 C 12.272 14.029,12.728 14.029,12.894 13.701 L 12.950 13.589 12.949 7.501 C 12.949 1.646,12.947 1.409,12.903 1.313 C 12.848 1.194,12.793 1.140,12.669 1.088 C 12.548 1.038,12.435 1.041,12.313 1.097 M6.021 3.851 C 5.848 3.942,5.764 4.137,5.807 4.350 C 5.828 4.456,5.902 4.535,7.120 5.756 L 8.411 7.050 4.411 7.050 L 0.411 7.050 0.299 7.106 C -0.029 7.272,-0.029 7.728,0.299 7.894 L 0.411 7.950 4.411 7.950 L 8.412 7.950 7.132 9.231 C 6.377 9.988,5.841 10.543,5.824 10.588 C 5.693 10.936,5.980 11.267,6.350 11.193 C 6.457 11.172,6.550 11.083,8.159 9.479 C 9.317 8.325,9.870 7.756,9.902 7.688 C 9.959 7.565,9.962 7.453,9.912 7.330 C 9.864 7.215,6.585 3.921,6.445 3.848 C 6.325 3.786,6.141 3.787,6.021 3.851 " fill="currentColor" stroke="none" fill-rule="evenodd"></path></svg>