<svg width="15" height="15" fill="none" xmlns="http://www.w3.org/2000/svg"><path d="M2.313 1.097 C 2.194 1.152,2.140 1.207,2.088 1.331 C 2.054 1.413,2.050 2.089,2.050 7.506 L 2.050 13.589 2.106 13.701 C 2.272 14.029,2.728 14.029,2.894 13.701 L 2.950 13.589 2.949 7.501 C 2.949 1.646,2.947 1.409,2.903 1.313 C 2.848 1.194,2.793 1.140,2.669 1.088 C 2.548 1.038,2.435 1.041,2.313 1.097 M8.563 3.841 C 8.437 3.906,5.152 7.198,5.098 7.313 C 5.038 7.439,5.038 7.560,5.098 7.688 C 5.130 7.756,5.683 8.325,6.841 9.479 C 8.450 11.083,8.543 11.172,8.650 11.193 C 9.020 11.267,9.307 10.936,9.176 10.588 C 9.159 10.543,8.623 9.988,7.868 9.231 L 6.588 7.950 10.589 7.950 L 14.589 7.950 14.701 7.894 C 15.029 7.728,15.029 7.272,14.701 7.106 L 14.589 7.050 10.589 7.050 L 6.589 7.050 7.880 5.756 C 9.098 4.535,9.172 4.456,9.193 4.350 C 9.236 4.134,9.151 3.940,8.974 3.849 C 8.857 3.790,8.668 3.786,8.563 3.841 " fill="currentColor" stroke="none" fill-rule="evenodd"></path></svg>