<svg width="15" height="15" fill="none" xmlns="http://www.w3.org/2000/svg"><path d="M1.299 1.106 C 1.238 1.137,1.163 1.200,1.132 1.247 C 0.979 1.476,1.055 1.771,1.299 1.894 L 1.411 1.950 7.500 1.950 L 13.589 1.950 13.701 1.894 C 14.029 1.728,14.029 1.272,13.701 1.106 L 13.589 1.050 7.500 1.050 L 1.411 1.050 1.299 1.106 M7.313 4.098 C 7.244 4.130,6.675 4.683,5.521 5.841 C 3.917 7.450,3.828 7.543,3.807 7.650 C 3.733 8.020,4.064 8.307,4.413 8.176 C 4.457 8.159,5.012 7.623,5.769 6.868 L 7.050 5.588 7.050 9.589 L 7.050 13.589 7.106 13.701 C 7.272 14.029,7.728 14.029,7.894 13.701 L 7.950 13.589 7.950 9.589 L 7.950 5.588 9.231 6.868 C 9.988 7.623,10.543 8.159,10.588 8.176 C 10.936 8.307,11.267 8.020,11.193 7.650 C 11.172 7.543,11.083 7.450,9.479 5.841 C 8.325 4.683,7.756 4.130,7.688 4.098 C 7.633 4.072,7.548 4.051,7.500 4.051 C 7.452 4.051,7.367 4.072,7.313 4.098 " fill="currentColor" stroke="none" fill-rule="evenodd"></path></svg>