<svg width="15" height="15" fill="none" xmlns="http://www.w3.org/2000/svg"><path d="M7.313 1.097 C 7.194 1.152,7.140 1.207,7.088 1.331 C 7.054 1.413,7.050 1.880,7.050 5.418 L 7.050 9.412 5.781 8.146 C 5.083 7.450,4.476 6.862,4.432 6.840 C 4.258 6.753,3.988 6.817,3.878 6.971 C 3.808 7.070,3.780 7.216,3.807 7.350 C 3.828 7.457,3.917 7.550,5.521 9.159 C 6.675 10.317,7.244 10.870,7.313 10.902 C 7.367 10.928,7.452 10.949,7.500 10.949 C 7.548 10.949,7.633 10.928,7.688 10.902 C 7.756 10.870,8.325 10.317,9.479 9.159 C 11.083 7.550,11.172 7.457,11.193 7.350 C 11.220 7.216,11.192 7.070,11.122 6.971 C 11.012 6.817,10.742 6.753,10.568 6.840 C 10.524 6.862,9.917 7.450,9.219 8.146 L 7.950 9.412 7.949 5.412 C 7.949 1.585,7.947 1.408,7.903 1.313 C 7.848 1.194,7.793 1.140,7.669 1.088 C 7.548 1.038,7.435 1.041,7.313 1.097 M1.299 13.106 C 0.971 13.272,0.971 13.728,1.299 13.894 L 1.411 13.950 7.500 13.950 L 13.589 13.950 13.701 13.894 C 14.029 13.728,14.029 13.272,13.701 13.106 L 13.589 13.050 7.500 13.050 L 1.411 13.050 1.299 13.106 " fill="currentColor" stroke="none" fill-rule="evenodd"></path></svg>