<svg width="15" height="15" fill="none" xmlns="http://www.w3.org/2000/svg"><path d="M3.363 2.267 C 3.266 2.287,3.116 2.414,3.058 2.523 L 3.000 2.633 3.000 7.500 L 3.000 12.367 3.058 12.477 C 3.090 12.538,3.164 12.621,3.223 12.663 C 3.316 12.728,3.350 12.737,3.496 12.736 L 3.663 12.735 8.200 10.339 C 10.696 9.022,12.772 7.918,12.815 7.886 C 13.021 7.732,13.053 7.381,12.879 7.177 C 12.831 7.121,11.544 6.430,8.267 4.702 C 5.766 3.383,3.686 2.291,3.644 2.277 C 3.569 2.250,3.460 2.247,3.363 2.267 M7.717 5.543 C 9.743 6.612,11.400 7.493,11.400 7.502 C 11.400 7.510,9.783 8.370,7.806 9.412 C 5.830 10.455,4.165 11.335,4.106 11.369 L 4.000 11.430 4.000 7.515 C 4.000 5.362,4.008 3.600,4.017 3.600 C 4.027 3.600,5.692 4.474,7.717 5.543 " fill="currentColor" stroke="none" fill-rule="evenodd"></path></svg>