<svg width="15" height="15" fill="none" xmlns="http://www.w3.org/2000/svg"><path d="M7.342 2.274 C 7.227 2.311,7.109 2.416,7.053 2.532 C 7.000 2.640,7.000 2.657,7.000 4.820 L 7.000 6.999 4.790 7.006 L 2.579 7.013 2.473 7.088 C 2.179 7.294,2.179 7.706,2.473 7.913 L 2.579 7.988 4.790 7.994 L 7.000 8.001 7.000 10.184 L 7.000 12.367 7.058 12.477 C 7.090 12.538,7.164 12.621,7.223 12.663 C 7.316 12.728,7.351 12.738,7.498 12.738 C 7.639 12.738,7.683 12.727,7.767 12.670 C 7.823 12.634,7.896 12.560,7.928 12.508 L 7.988 12.413 7.994 10.207 L 8.001 8.001 10.209 7.994 L 12.416 7.988 12.518 7.920 C 12.674 7.817,12.738 7.695,12.738 7.498 C 12.738 7.362,12.726 7.317,12.670 7.233 C 12.634 7.177,12.560 7.104,12.508 7.072 L 12.413 7.013 10.207 7.006 L 8.001 6.999 7.994 4.793 L 7.988 2.588 7.928 2.492 C 7.843 2.356,7.708 2.274,7.546 2.262 C 7.473 2.256,7.381 2.262,7.342 2.274 " fill="currentColor" stroke="none" fill-rule="evenodd"></path></svg>