<svg width="15" height="15" fill="none" xmlns="http://www.w3.org/2000/svg"><path d="M6.975 0.899 C 6.136 0.969,5.317 1.197,4.578 1.564 C 3.935 1.883,3.428 2.238,2.920 2.723 C 1.343 4.229,0.611 6.418,0.965 8.575 C 1.391 11.173,3.343 13.289,5.900 13.925 C 6.970 14.191,8.030 14.191,9.100 13.925 C 11.656 13.289,13.609 11.172,14.035 8.575 C 14.389 6.419,13.657 4.229,12.080 2.723 C 11.077 1.766,9.818 1.150,8.456 0.951 C 8.062 0.893,7.339 0.868,6.975 0.899 M8.295 1.887 C 9.278 2.035,10.117 2.383,10.909 2.969 C 11.234 3.211,11.789 3.766,12.031 4.091 C 12.632 4.903,12.989 5.784,13.128 6.800 C 13.170 7.105,13.170 7.922,13.128 8.213 C 12.943 9.492,12.432 10.550,11.569 11.441 C 10.893 12.139,10.118 12.620,9.201 12.910 C 7.372 13.489,5.357 13.092,3.875 11.862 C 3.603 11.636,3.177 11.186,2.965 10.902 C 2.477 10.246,2.127 9.483,1.966 8.725 C 1.863 8.242,1.839 8.009,1.839 7.500 C 1.839 6.613,2.012 5.833,2.376 5.079 C 2.684 4.439,2.997 3.998,3.498 3.498 C 3.998 2.997,4.439 2.684,5.079 2.376 C 5.686 2.083,6.315 1.917,7.113 1.839 C 7.315 1.820,8.045 1.849,8.295 1.887 M7.342 4.024 C 7.227 4.061,7.109 4.166,7.053 4.282 C 7.001 4.388,7.000 4.421,7.000 5.695 L 7.000 6.998 5.665 7.005 L 4.329 7.013 4.223 7.088 C 3.929 7.294,3.929 7.706,4.223 7.913 L 4.329 7.988 5.665 7.995 L 7.000 8.002 7.000 9.309 L 7.000 10.617 7.058 10.727 C 7.090 10.788,7.164 10.871,7.223 10.913 C 7.316 10.978,7.351 10.988,7.498 10.988 C 7.639 10.988,7.683 10.977,7.767 10.920 C 7.823 10.884,7.896 10.810,7.928 10.758 L 7.988 10.663 7.995 9.332 L 8.002 8.002 9.334 7.995 L 10.666 7.988 10.768 7.920 C 10.924 7.817,10.988 7.695,10.988 7.500 C 10.988 7.305,10.924 7.183,10.768 7.080 L 10.666 7.013 9.334 7.005 L 8.002 6.998 7.995 5.668 L 7.988 4.338 7.928 4.242 C 7.843 4.106,7.708 4.024,7.546 4.012 C 7.473 4.006,7.381 4.012,7.342 4.024 " fill="currentColor" stroke="none" fill-rule="evenodd"></path></svg>