<svg width="15" height="15" fill="none" xmlns="http://www.w3.org/2000/svg"><path d="M6.975 0.899 C 6.136 0.969,5.317 1.197,4.578 1.564 C 3.935 1.883,3.428 2.238,2.920 2.723 C 1.343 4.229,0.611 6.418,0.965 8.575 C 1.391 11.173,3.343 13.289,5.900 13.925 C 6.970 14.191,8.030 14.191,9.100 13.925 C 11.656 13.289,13.609 11.172,14.035 8.575 C 14.389 6.419,13.657 4.229,12.080 2.723 C 11.077 1.766,9.818 1.150,8.456 0.951 C 8.062 0.893,7.339 0.868,6.975 0.899 M8.295 1.887 C 9.278 2.035,10.117 2.383,10.909 2.969 C 11.234 3.211,11.789 3.766,12.031 4.091 C 12.632 4.903,12.989 5.784,13.128 6.800 C 13.170 7.105,13.170 7.922,13.128 8.213 C 12.943 9.492,12.432 10.550,11.569 11.441 C 10.893 12.139,10.118 12.620,9.201 12.910 C 7.372 13.489,5.357 13.092,3.875 11.862 C 3.603 11.636,3.177 11.186,2.965 10.902 C 2.477 10.246,2.127 9.483,1.966 8.725 C 1.863 8.242,1.839 8.009,1.839 7.500 C 1.839 6.613,2.012 5.833,2.376 5.079 C 2.684 4.439,2.997 3.998,3.498 3.498 C 3.998 2.997,4.439 2.684,5.079 2.376 C 5.686 2.083,6.315 1.917,7.113 1.839 C 7.315 1.820,8.045 1.849,8.295 1.887 M7.124 3.851 C 6.601 3.924,6.097 4.165,5.716 4.525 C 5.248 4.966,4.996 5.495,4.959 6.113 C 4.945 6.354,4.947 6.367,5.017 6.500 C 5.110 6.675,5.267 6.779,5.463 6.795 C 5.725 6.817,6.001 6.608,6.035 6.364 C 6.041 6.322,6.057 6.199,6.070 6.091 C 6.133 5.591,6.515 5.157,7.038 4.994 C 7.268 4.921,7.712 4.917,7.938 4.984 C 8.528 5.162,8.950 5.694,8.950 6.261 C 8.950 6.430,8.880 6.653,8.781 6.798 C 8.660 6.975,8.498 7.101,8.025 7.387 C 7.812 7.515,7.562 7.678,7.469 7.748 C 7.142 7.997,6.951 8.343,6.950 8.691 C 6.950 8.979,7.174 9.221,7.463 9.245 C 7.734 9.267,7.999 9.060,8.042 8.792 C 8.062 8.663,8.123 8.610,8.537 8.363 C 9.306 7.905,9.610 7.627,9.840 7.170 C 9.992 6.867,10.036 6.661,10.036 6.250 C 10.035 5.791,9.964 5.502,9.759 5.127 C 9.436 4.537,8.841 4.084,8.162 3.912 C 7.880 3.840,7.402 3.812,7.124 3.851 M7.258 9.795 C 6.731 9.983,6.581 10.633,6.974 11.026 C 7.534 11.587,8.477 10.984,8.200 10.243 C 8.058 9.865,7.631 9.662,7.258 9.795 " fill="currentColor" stroke="none" fill-rule="evenodd"></path></svg>