<svg width="15" height="15" fill="none" xmlns="http://www.w3.org/2000/svg"><path d="M7.080 0.801 C 6.457 0.879,5.769 1.162,5.253 1.551 C 4.837 1.864,4.407 2.383,4.215 2.805 C 3.982 3.316,3.866 3.981,3.956 4.285 C 3.996 4.420,4.180 4.604,4.315 4.644 C 4.523 4.706,4.716 4.668,4.872 4.535 C 5.000 4.425,5.065 4.261,5.084 4.000 C 5.104 3.730,5.154 3.536,5.264 3.302 C 5.643 2.499,6.574 1.925,7.500 1.925 C 8.425 1.925,9.357 2.499,9.736 3.302 C 9.875 3.597,9.911 3.767,9.911 4.138 C 9.910 4.963,9.645 5.452,8.780 6.232 C 7.851 7.068,7.541 7.420,7.281 7.938 C 7.078 8.342,6.961 8.793,6.933 9.280 C 6.913 9.628,6.945 9.747,7.099 9.901 C 7.319 10.120,7.638 10.134,7.872 9.935 C 8.011 9.816,8.066 9.664,8.085 9.345 C 8.106 9.000,8.172 8.743,8.311 8.463 C 8.509 8.066,8.700 7.857,9.675 6.970 C 10.632 6.100,11.025 5.327,11.067 4.237 C 11.082 3.842,11.045 3.546,10.936 3.196 C 10.580 2.053,9.490 1.119,8.199 0.851 C 7.900 0.789,7.365 0.765,7.080 0.801 M7.348 11.625 C 7.285 11.636,7.175 11.674,7.104 11.711 C 6.717 11.907,6.544 12.325,6.674 12.752 C 6.722 12.910,6.749 12.954,6.883 13.088 C 7.074 13.278,7.243 13.350,7.500 13.350 C 7.757 13.350,7.926 13.278,8.117 13.088 C 8.251 12.954,8.278 12.910,8.326 12.752 C 8.395 12.525,8.384 12.317,8.293 12.118 C 8.135 11.773,7.728 11.561,7.348 11.625 " fill="currentColor" stroke="none" fill-rule="evenodd"></path></svg>