<svg width="15" height="15" fill="none" xmlns="http://www.w3.org/2000/svg"><path d="M3.870 3.339 C 3.584 3.383,3.233 3.502,3.001 3.632 C 2.747 3.776,2.439 4.083,2.320 4.313 C 2.159 4.624,2.112 4.819,2.114 5.175 C 2.116 5.443,2.126 5.516,2.182 5.688 C 2.278 5.975,2.409 6.184,2.638 6.412 C 2.871 6.645,3.039 6.751,3.343 6.857 C 3.532 6.923,3.607 6.935,3.875 6.944 C 4.098 6.951,4.241 6.943,4.373 6.915 C 4.643 6.858,4.979 6.686,5.180 6.501 L 5.348 6.348 5.443 6.409 C 5.730 6.592,5.889 6.933,5.916 7.419 C 5.981 8.633,5.170 9.828,3.663 10.738 C 3.264 10.978,2.865 11.120,2.525 11.142 C 2.258 11.159,2.129 11.215,2.055 11.347 C 1.985 11.470,1.985 11.580,2.055 11.703 C 2.120 11.820,2.270 11.900,2.421 11.900 C 3.017 11.900,4.265 11.326,4.995 10.716 C 5.272 10.486,5.734 10.001,5.941 9.725 C 6.456 9.036,6.773 8.288,6.940 7.363 C 7.002 7.019,7.004 6.184,6.944 5.863 C 6.716 4.646,6.033 3.753,5.075 3.420 C 4.752 3.308,4.273 3.276,3.870 3.339 M9.870 3.339 C 9.584 3.383,9.233 3.502,9.001 3.632 C 8.747 3.776,8.439 4.083,8.320 4.313 C 8.159 4.624,8.112 4.819,8.114 5.175 C 8.116 5.443,8.126 5.516,8.182 5.688 C 8.278 5.975,8.409 6.184,8.638 6.412 C 8.871 6.645,9.039 6.751,9.343 6.857 C 9.532 6.923,9.607 6.935,9.875 6.944 C 10.098 6.951,10.241 6.943,10.373 6.915 C 10.643 6.858,10.979 6.686,11.180 6.501 L 11.348 6.348 11.443 6.409 C 11.730 6.592,11.889 6.933,11.916 7.419 C 11.981 8.633,11.170 9.828,9.663 10.738 C 9.264 10.978,8.865 11.120,8.525 11.142 C 8.258 11.159,8.129 11.215,8.055 11.347 C 7.985 11.470,7.985 11.580,8.055 11.703 C 8.120 11.820,8.270 11.900,8.421 11.900 C 9.017 11.900,10.265 11.326,10.995 10.716 C 11.272 10.486,11.734 10.001,11.941 9.725 C 12.456 9.036,12.773 8.288,12.940 7.363 C 13.002 7.019,13.004 6.184,12.944 5.863 C 12.716 4.646,12.033 3.753,11.075 3.420 C 10.752 3.308,10.273 3.276,9.870 3.339 " fill="currentColor" stroke="none" fill-rule="evenodd"></path></svg>