<svg width="15" height="15" fill="none" xmlns="http://www.w3.org/2000/svg"><path d="M3.357 1.025 C 2.953 1.069,2.654 1.215,2.396 1.494 C 2.227 1.678,2.119 1.886,2.058 2.145 C 2.015 2.327,2.013 2.608,2.013 7.538 L 2.013 12.738 2.077 12.942 C 2.162 13.212,2.277 13.396,2.478 13.586 C 2.672 13.770,2.877 13.880,3.145 13.942 C 3.327 13.985,3.572 13.988,7.500 13.988 C 11.428 13.988,11.673 13.985,11.855 13.942 C 12.148 13.873,12.335 13.769,12.552 13.552 C 12.769 13.335,12.873 13.148,12.942 12.855 C 12.985 12.673,12.988 12.392,12.988 7.463 L 12.988 2.263 12.923 2.058 C 12.838 1.789,12.723 1.604,12.524 1.416 C 12.329 1.232,12.170 1.143,11.908 1.069 L 11.713 1.014 7.625 1.010 C 5.377 1.008,3.456 1.015,3.357 1.025 M11.738 2.075 C 11.838 2.125,11.875 2.163,11.925 2.263 L 11.988 2.388 11.988 7.488 C 11.988 12.379,11.986 12.592,11.942 12.707 C 11.881 12.862,11.772 12.945,11.584 12.976 C 11.387 13.008,3.613 13.008,3.416 12.976 C 3.228 12.945,3.119 12.862,3.058 12.707 C 3.014 12.592,3.013 12.379,3.013 7.488 L 3.013 2.388 3.075 2.263 C 3.150 2.114,3.249 2.050,3.446 2.024 C 3.524 2.014,5.393 2.007,7.600 2.009 L 11.613 2.013 11.738 2.075 M4.842 4.025 C 4.651 4.083,4.500 4.295,4.500 4.504 C 4.500 4.655,4.589 4.818,4.723 4.913 L 4.829 4.988 7.496 4.988 L 10.163 4.988 10.258 4.928 C 10.310 4.896,10.384 4.823,10.420 4.767 C 10.476 4.683,10.488 4.638,10.488 4.500 C 10.488 4.362,10.476 4.317,10.420 4.233 C 10.384 4.177,10.310 4.104,10.258 4.072 L 10.163 4.013 7.538 4.008 C 6.094 4.006,4.881 4.013,4.842 4.025 M4.842 7.025 C 4.651 7.083,4.500 7.295,4.500 7.504 C 4.500 7.655,4.589 7.818,4.723 7.913 L 4.829 7.988 7.496 7.988 L 10.163 7.988 10.258 7.928 C 10.310 7.896,10.384 7.823,10.420 7.767 C 10.476 7.683,10.488 7.638,10.488 7.500 C 10.488 7.362,10.476 7.317,10.420 7.233 C 10.384 7.177,10.310 7.104,10.258 7.072 L 10.163 7.013 7.538 7.008 C 6.094 7.006,4.881 7.013,4.842 7.025 M4.842 10.025 C 4.651 10.083,4.500 10.295,4.500 10.504 C 4.500 10.655,4.589 10.818,4.723 10.913 L 4.829 10.988 6.498 10.988 L 8.166 10.988 8.267 10.920 C 8.424 10.817,8.488 10.695,8.488 10.500 C 8.488 10.305,8.424 10.183,8.268 10.080 L 8.166 10.013 6.539 10.008 C 5.645 10.006,4.881 10.013,4.842 10.025 " fill="currentColor" stroke="none" fill-rule="evenodd"></path></svg>