<svg width="15" height="15" fill="none" xmlns="http://www.w3.org/2000/svg"><path d="M6.900 0.876 C 5.612 0.998,4.484 1.427,3.490 2.172 C 3.155 2.423,2.485 3.094,2.236 3.429 C 0.665 5.541,0.416 8.189,1.573 10.499 C 2.093 11.540,2.901 12.456,3.845 13.079 C 5.687 14.293,8.102 14.491,10.194 13.599 C 11.633 12.985,12.945 11.670,13.564 10.219 C 13.693 9.919,13.704 9.793,13.619 9.624 C 13.469 9.329,13.051 9.265,12.827 9.503 C 12.796 9.536,12.689 9.731,12.588 9.938 C 12.487 10.144,12.343 10.410,12.268 10.529 C 11.695 11.434,10.936 12.124,10.013 12.576 C 9.276 12.937,8.579 13.109,7.713 13.142 C 5.719 13.218,3.906 12.301,2.824 10.668 C 1.533 8.720,1.533 6.280,2.824 4.332 C 3.704 3.003,5.055 2.152,6.663 1.910 C 7.073 1.848,7.880 1.847,8.265 1.907 C 8.963 2.016,9.587 2.252,10.150 2.618 C 10.479 2.832,10.638 2.962,10.959 3.274 C 11.283 3.590,11.531 3.884,11.781 4.250 C 11.936 4.477,12.225 4.955,12.225 4.984 C 12.225 4.992,11.798 5.001,11.277 5.005 L 10.329 5.013 10.223 5.088 C 9.929 5.294,9.929 5.706,10.223 5.913 L 10.329 5.988 11.998 5.988 L 13.666 5.988 13.767 5.920 C 13.823 5.884,13.896 5.810,13.928 5.758 L 13.988 5.663 13.988 3.998 L 13.988 2.334 13.920 2.233 C 13.816 2.075,13.695 2.013,13.496 2.013 C 13.351 2.013,13.315 2.022,13.223 2.087 C 13.164 2.129,13.090 2.212,13.058 2.273 C 13.000 2.383,13.000 2.386,13.000 3.347 L 13.000 4.312 12.905 4.150 C 11.921 2.471,10.441 1.330,8.800 0.987 C 8.270 0.876,7.420 0.826,6.900 0.876 " fill="currentColor" stroke="none" fill-rule="evenodd"></path></svg>