<svg width="15" height="15" fill="none" xmlns="http://www.w3.org/2000/svg"><path d="M4.364 2.017 C 4.245 2.051,4.076 2.207,3.096 3.191 C 2.158 4.133,2.051 4.249,2.025 4.350 C 1.988 4.487,2.008 4.655,2.074 4.759 C 2.100 4.802,2.598 5.312,3.180 5.892 C 4.133 6.841,4.249 6.949,4.350 6.975 C 4.747 7.081,5.081 6.747,4.975 6.350 C 4.949 6.251,4.871 6.162,4.329 5.618 L 3.713 4.998 6.588 5.006 C 9.415 5.015,9.466 5.016,9.695 5.068 C 10.174 5.178,10.583 5.352,10.975 5.612 C 11.216 5.772,11.728 6.284,11.888 6.525 C 12.159 6.933,12.347 7.388,12.441 7.863 C 12.502 8.173,12.502 8.827,12.441 9.137 C 12.304 9.827,12.004 10.408,11.526 10.908 C 11.110 11.342,10.659 11.632,10.124 11.810 C 9.571 11.993,9.740 11.983,7.158 11.998 L 4.829 12.013 4.723 12.088 C 4.429 12.294,4.429 12.706,4.723 12.913 L 4.829 12.988 7.033 12.995 C 8.941 13.001,9.281 12.997,9.558 12.962 C 10.721 12.816,11.776 12.226,12.509 11.311 C 14.313 9.058,13.560 5.719,10.963 4.459 C 10.458 4.214,10.017 4.089,9.445 4.026 C 9.289 4.009,8.218 4.000,6.458 4.000 L 3.715 4.000 4.330 3.381 C 4.871 2.837,4.949 2.749,4.975 2.650 C 5.061 2.330,4.860 2.034,4.541 2.012 C 4.470 2.007,4.391 2.009,4.364 2.017 " fill="currentColor" stroke="none" fill-rule="evenodd"></path></svg>