<svg width="15" height="15" fill="none" xmlns="http://www.w3.org/2000/svg"><path d="M2.322 2.233 C 2.173 2.289,2.083 2.368,2.015 2.505 L 1.950 2.635 1.950 7.502 L 1.950 12.369 2.020 12.503 C 2.121 12.696,2.275 12.788,2.500 12.788 C 2.725 12.788,2.879 12.696,2.980 12.503 L 3.050 12.369 3.050 7.500 L 3.050 2.631 2.980 2.497 C 2.858 2.263,2.561 2.144,2.322 2.233 M5.363 2.267 C 5.266 2.287,5.116 2.414,5.058 2.523 L 5.000 2.633 5.000 7.500 L 5.000 12.367 5.058 12.477 C 5.090 12.538,5.164 12.621,5.223 12.663 C 5.316 12.728,5.350 12.737,5.496 12.736 L 5.663 12.735 10.200 10.339 C 12.696 9.022,14.772 7.918,14.815 7.886 C 15.021 7.732,15.053 7.381,14.879 7.177 C 14.831 7.121,13.544 6.430,10.267 4.702 C 7.766 3.383,5.686 2.291,5.644 2.277 C 5.569 2.250,5.460 2.247,5.363 2.267 M13.400 7.502 C 13.400 7.510,11.760 8.382,9.756 9.438 C 7.752 10.495,6.087 11.375,6.056 11.395 L 6.000 11.431 6.000 7.506 L 6.000 3.581 9.700 5.533 C 11.735 6.607,13.400 7.493,13.400 7.502 " fill="currentColor" stroke="none" fill-rule="evenodd"></path></svg>