<svg width="15" height="15" fill="none" xmlns="http://www.w3.org/2000/svg"><path d="M10.675 0.778 C 9.412 0.923,8.199 1.363,7.384 1.970 C 7.262 2.061,6.971 2.323,6.738 2.552 L 6.313 2.969 4.638 2.730 C 3.111 2.513,2.953 2.495,2.850 2.523 C 2.749 2.551,2.626 2.666,1.668 3.621 C 0.929 4.358,0.582 4.721,0.546 4.795 C 0.507 4.877,0.497 4.935,0.505 5.038 C 0.527 5.296,0.536 5.304,1.655 5.975 C 2.209 6.308,2.667 6.584,2.673 6.590 C 2.679 6.596,2.543 6.744,2.371 6.919 C 2.150 7.144,2.048 7.266,2.026 7.335 C 1.985 7.457,2.007 7.652,2.072 7.758 C 2.100 7.802,2.485 8.199,2.930 8.641 C 3.648 9.356,3.750 9.448,3.850 9.475 C 4.244 9.581,4.581 9.244,4.475 8.850 C 4.449 8.751,4.371 8.663,3.829 8.118 L 3.213 7.499 5.550 5.165 C 8.145 2.575,8.041 2.668,8.702 2.353 C 9.527 1.959,10.462 1.750,11.395 1.750 C 12.141 1.750,12.687 1.883,12.904 2.116 C 13.128 2.358,13.250 2.872,13.250 3.575 C 13.249 4.545,13.047 5.461,12.647 6.298 C 12.332 6.959,12.425 6.855,9.834 9.450 L 7.501 11.787 6.907 11.195 C 6.289 10.580,6.187 10.502,5.999 10.501 C 5.870 10.500,5.658 10.614,5.586 10.723 C 5.510 10.838,5.486 11.005,5.525 11.150 C 5.551 11.250,5.642 11.350,6.359 12.070 C 6.801 12.514,7.198 12.900,7.241 12.926 C 7.345 12.992,7.514 13.012,7.649 12.975 C 7.740 12.951,7.816 12.889,8.080 12.631 C 8.256 12.458,8.404 12.321,8.410 12.327 C 8.416 12.333,8.692 12.791,9.025 13.345 C 9.717 14.498,9.708 14.488,9.998 14.487 C 10.124 14.487,10.183 14.474,10.250 14.432 C 10.298 14.402,10.812 13.902,11.392 13.320 C 12.335 12.374,12.449 12.251,12.477 12.150 C 12.505 12.047,12.487 11.889,12.270 10.363 L 12.032 8.688 12.447 8.263 C 13.057 7.640,13.349 7.218,13.639 6.542 C 14.056 5.570,14.257 4.603,14.256 3.575 C 14.256 2.563,14.041 1.848,13.607 1.411 C 13.268 1.069,12.729 0.850,12.045 0.776 C 11.762 0.746,10.947 0.747,10.675 0.778 M4.354 3.701 C 4.926 3.783,5.404 3.850,5.416 3.850 C 5.428 3.850,4.983 4.304,4.428 4.860 L 3.419 5.869 2.628 5.395 C 2.193 5.134,1.832 4.915,1.826 4.909 C 1.820 4.903,2.123 4.590,2.499 4.213 C 3.100 3.613,3.192 3.529,3.248 3.540 C 3.284 3.546,3.781 3.618,4.354 3.701 M9.238 4.279 C 9.023 4.320,8.802 4.444,8.623 4.623 C 8.125 5.121,8.126 5.884,8.625 6.377 C 9.127 6.874,9.873 6.874,10.375 6.377 C 10.873 5.884,10.874 5.121,10.377 4.623 C 10.071 4.316,9.673 4.196,9.238 4.279 M1.863 9.518 C 1.757 9.545,1.595 9.688,1.084 10.204 C 0.624 10.668,0.551 10.752,0.525 10.850 C 0.419 11.246,0.754 11.582,1.149 11.475 C 1.246 11.449,1.333 11.373,1.804 10.906 C 2.104 10.610,2.380 10.322,2.418 10.267 C 2.477 10.182,2.488 10.142,2.488 10.000 C 2.488 9.857,2.477 9.818,2.416 9.730 C 2.298 9.559,2.060 9.468,1.863 9.518 M11.314 10.738 L 11.471 11.813 10.784 12.500 C 10.245 13.041,10.093 13.179,10.075 13.150 C 10.062 13.129,9.845 12.769,9.592 12.350 L 9.131 11.588 10.134 10.581 C 10.858 9.855,11.140 9.586,11.147 9.618 C 11.152 9.643,11.227 10.146,11.314 10.738 M3.287 11.050 C 3.224 11.081,2.795 11.493,2.121 12.168 C 1.159 13.132,1.051 13.249,1.025 13.350 C 0.919 13.747,1.253 14.081,1.650 13.975 C 1.751 13.949,1.868 13.841,2.832 12.879 C 3.532 12.181,3.918 11.777,3.951 11.711 C 4.040 11.526,3.994 11.268,3.847 11.132 C 3.701 10.998,3.462 10.963,3.287 11.050 M4.863 12.518 C 4.757 12.545,4.595 12.688,4.084 13.204 C 3.624 13.668,3.551 13.752,3.525 13.850 C 3.419 14.246,3.754 14.582,4.149 14.475 C 4.246 14.449,4.333 14.373,4.804 13.906 C 5.104 13.610,5.380 13.322,5.418 13.267 C 5.477 13.182,5.488 13.142,5.488 13.000 C 5.488 12.857,5.477 12.818,5.416 12.730 C 5.298 12.559,5.060 12.468,4.863 12.518 " fill="currentColor" stroke="none" fill-rule="evenodd"></path></svg>