<svg width="15" height="15" fill="none" xmlns="http://www.w3.org/2000/svg"><path d="M7.533 0.117 C 7.064 0.473,5.981 1.326,5.950 1.362 C 5.897 1.427,5.904 1.585,5.963 1.651 C 6.045 1.741,7.555 2.908,7.654 2.957 C 7.736 2.998,7.753 2.999,7.832 2.967 C 7.988 2.901,8.000 2.862,8.000 2.407 L 8.000 2.000 8.169 2.000 C 8.262 2.000,8.529 2.012,8.763 2.026 C 10.301 2.117,11.245 2.439,11.903 3.097 C 12.609 3.803,12.930 4.844,12.991 6.622 C 13.011 7.206,13.032 7.278,13.223 7.413 C 13.315 7.478,13.351 7.488,13.496 7.488 C 13.695 7.488,13.817 7.425,13.920 7.267 L 13.988 7.166 13.984 6.589 C 13.975 5.230,13.719 4.059,13.250 3.227 C 12.853 2.523,12.308 2.014,11.563 1.649 C 10.738 1.246,9.849 1.062,8.469 1.011 L 8.000 0.993 8.000 0.582 L 8.000 0.171 7.927 0.098 C 7.819 -0.010,7.691 -0.004,7.533 0.117 M2.175 4.039 C 1.902 4.098,1.663 4.233,1.449 4.448 C 1.233 4.666,1.121 4.859,1.049 5.140 C 1.001 5.328,1.000 5.430,1.000 9.000 C 1.000 12.570,1.001 12.672,1.049 12.860 C 1.122 13.143,1.233 13.334,1.449 13.551 C 1.666 13.767,1.857 13.878,2.140 13.951 C 2.328 13.999,2.430 14.000,6.000 14.000 C 9.570 14.000,9.672 13.999,9.860 13.951 C 10.143 13.878,10.334 13.767,10.551 13.551 C 10.767 13.334,10.878 13.143,10.951 12.860 C 10.999 12.672,11.000 12.570,11.000 9.000 C 11.000 5.430,10.999 5.328,10.951 5.140 C 10.879 4.859,10.767 4.666,10.551 4.448 C 10.334 4.229,10.096 4.097,9.813 4.038 C 9.557 3.984,2.424 3.985,2.175 4.039 M9.758 5.072 C 9.810 5.104,9.884 5.177,9.920 5.233 L 9.988 5.334 9.988 8.998 L 9.988 12.663 9.928 12.758 C 9.896 12.810,9.823 12.884,9.767 12.920 L 9.666 12.988 6.000 12.988 L 2.334 12.988 2.233 12.920 C 2.177 12.884,2.104 12.810,2.072 12.758 L 2.013 12.663 2.006 9.054 C 2.001 6.558,2.008 5.415,2.026 5.346 C 2.058 5.226,2.216 5.061,2.330 5.028 C 2.381 5.013,3.795 5.006,6.038 5.008 L 9.663 5.013 9.758 5.072 " fill="currentColor" stroke="none" fill-rule="evenodd"></path></svg>