<svg width="15" height="15" fill="none" xmlns="http://www.w3.org/2000/svg"><path d="M7.313 0.598 C 7.245 0.629,6.865 0.994,6.160 1.703 C 5.185 2.683,5.105 2.771,5.079 2.878 C 4.999 3.208,5.293 3.501,5.622 3.421 C 5.727 3.395,5.798 3.333,6.394 2.741 L 7.050 2.090 7.050 3.840 L 7.050 5.589 7.106 5.701 C 7.272 6.029,7.728 6.029,7.894 5.701 L 7.950 5.589 7.950 3.840 L 7.950 2.090 8.606 2.741 C 9.202 3.332,9.273 3.395,9.378 3.421 C 9.707 3.501,10.001 3.208,9.921 2.878 C 9.895 2.771,9.816 2.684,8.840 1.703 C 8.135 0.994,7.755 0.629,7.688 0.598 C 7.561 0.539,7.439 0.539,7.313 0.598 M1.342 7.025 C 1.152 7.083,1.000 7.295,1.000 7.504 C 1.000 7.655,1.089 7.818,1.223 7.913 L 1.329 7.988 7.496 7.988 L 13.663 7.988 13.758 7.928 C 13.810 7.896,13.884 7.823,13.920 7.767 C 13.976 7.683,13.988 7.638,13.988 7.500 C 13.988 7.362,13.976 7.317,13.920 7.233 C 13.884 7.177,13.810 7.104,13.758 7.072 L 13.663 7.013 7.538 7.008 C 4.169 7.006,1.381 7.014,1.342 7.025 M7.313 9.097 C 7.194 9.152,7.140 9.207,7.088 9.331 C 7.055 9.411,7.050 9.654,7.050 11.167 L 7.050 12.911 6.406 12.270 C 6.052 11.917,5.731 11.616,5.692 11.602 C 5.602 11.567,5.423 11.567,5.333 11.602 C 5.142 11.674,5.027 11.909,5.079 12.122 C 5.105 12.229,5.185 12.317,6.160 13.297 C 7.238 14.382,7.317 14.449,7.500 14.449 C 7.683 14.449,7.762 14.382,8.854 13.284 C 9.855 12.278,9.922 12.206,9.943 12.100 C 9.970 11.966,9.943 11.820,9.872 11.721 C 9.762 11.567,9.492 11.503,9.318 11.590 C 9.274 11.612,8.948 11.918,8.594 12.271 L 7.950 12.912 7.949 11.162 C 7.949 9.518,7.946 9.406,7.903 9.313 C 7.848 9.194,7.793 9.140,7.669 9.088 C 7.548 9.038,7.435 9.041,7.313 9.097 " fill="currentColor" stroke="none" fill-rule="evenodd"></path></svg>