<svg width="15" height="15" fill="none" xmlns="http://www.w3.org/2000/svg"><path d="M1.000 1.500 L 1.000 2.150 7.500 2.150 L 14.000 2.150 14.000 1.500 L 14.000 0.850 7.500 0.850 L 1.000 0.850 1.000 1.500 M1.000 5.500 L 1.000 6.150 7.500 6.150 L 14.000 6.150 14.000 5.500 L 14.000 4.850 7.500 4.850 L 1.000 4.850 1.000 5.500 M1.000 9.500 L 1.000 10.150 7.500 10.150 L 14.000 10.150 14.000 9.500 L 14.000 8.850 7.500 8.850 L 1.000 8.850 1.000 9.500 M1.000 13.500 L 1.000 14.150 7.500 14.150 L 14.000 14.150 14.000 13.500 L 14.000 12.850 7.500 12.850 L 1.000 12.850 1.000 13.500 " fill="currentColor" stroke="none" fill-rule="evenodd"></path></svg>