<svg width="15" height="15" fill="none" xmlns="http://www.w3.org/2000/svg"><path d="M0.342 4.025 C 0.229 4.060,0.109 4.166,0.053 4.282 C 0.000 4.391,-0.000 4.391,-0.000 7.504 L -0.000 10.617 0.058 10.727 C 0.090 10.788,0.164 10.871,0.223 10.913 L 0.329 10.988 7.498 10.988 L 14.666 10.988 14.767 10.920 C 14.823 10.884,14.896 10.810,14.928 10.758 L 14.988 10.663 14.988 7.500 L 14.988 4.338 14.928 4.242 C 14.896 4.190,14.823 4.116,14.767 4.080 L 14.666 4.013 7.539 4.008 C 3.620 4.006,0.381 4.014,0.342 4.025 M2.075 6.288 C 2.075 7.710,2.072 7.676,2.233 7.818 C 2.392 7.958,2.608 7.958,2.767 7.818 C 2.928 7.676,2.925 7.710,2.925 6.288 L 2.925 5.000 3.500 5.000 L 4.075 5.000 4.075 5.788 C 4.075 6.662,4.078 6.682,4.233 6.818 C 4.445 7.004,4.781 6.922,4.891 6.657 C 4.917 6.595,4.925 6.394,4.925 5.788 L 4.925 5.000 5.500 5.000 L 6.075 5.000 6.075 5.788 C 6.075 6.662,6.078 6.682,6.233 6.818 C 6.392 6.958,6.608 6.958,6.767 6.818 C 6.922 6.682,6.925 6.662,6.925 5.788 L 6.925 5.000 7.500 5.000 L 8.075 5.000 8.075 6.288 C 8.075 7.710,8.072 7.676,8.233 7.818 C 8.392 7.958,8.608 7.958,8.767 7.818 C 8.928 7.676,8.925 7.710,8.925 6.288 L 8.925 5.000 9.500 5.000 L 10.075 5.000 10.075 5.788 C 10.075 6.662,10.078 6.682,10.233 6.818 C 10.392 6.958,10.608 6.958,10.767 6.818 C 10.922 6.682,10.925 6.662,10.925 5.788 L 10.925 5.000 11.500 5.000 L 12.075 5.000 12.075 5.788 C 12.075 6.662,12.078 6.682,12.233 6.818 C 12.392 6.958,12.608 6.958,12.767 6.818 C 12.922 6.682,12.925 6.662,12.925 5.788 L 12.925 5.000 13.463 5.000 L 14.000 5.000 14.000 7.500 L 14.000 10.000 7.500 10.000 L 1.000 10.000 1.000 7.500 L 1.000 5.000 1.538 5.000 L 2.075 5.000 2.075 6.288 " fill="currentColor" stroke="none" fill-rule="evenodd"></path></svg>