<svg width="15" height="15" fill="none" xmlns="http://www.w3.org/2000/svg"><path d="M0.342 0.025 C 0.229 0.060,0.109 0.166,0.053 0.282 L 0.000 0.391 -0.000 7.504 L -0.000 14.617 0.058 14.727 C 0.090 14.788,0.164 14.871,0.223 14.913 L 0.329 14.988 2.496 14.988 L 4.663 14.988 4.758 14.928 C 4.810 14.896,4.884 14.823,4.920 14.767 L 4.988 14.666 4.994 9.833 L 5.001 5.001 9.833 4.994 L 14.666 4.988 14.767 4.920 C 14.823 4.884,14.896 4.810,14.928 4.758 L 14.988 4.663 14.988 2.500 L 14.988 0.338 14.928 0.242 C 14.896 0.190,14.823 0.116,14.767 0.080 L 14.666 0.013 7.539 0.008 C 3.620 0.006,0.381 0.014,0.342 0.025 M4.075 2.538 L 4.075 4.075 2.538 4.075 L 1.000 4.075 1.000 2.538 L 1.000 1.000 2.538 1.000 L 4.075 1.000 4.075 2.538 M14.000 2.500 L 14.000 4.000 13.463 4.000 L 12.925 4.000 12.925 3.337 C 12.925 2.599,12.919 2.566,12.767 2.432 C 12.608 2.292,12.392 2.292,12.233 2.432 C 12.081 2.566,12.075 2.599,12.075 3.337 L 12.075 4.000 11.500 4.000 L 10.925 4.000 10.925 3.087 C 10.925 2.076,10.924 2.070,10.767 1.932 C 10.608 1.792,10.392 1.792,10.233 1.932 C 10.076 2.070,10.075 2.076,10.075 3.087 L 10.075 4.000 9.500 4.000 L 8.925 4.000 8.925 3.337 C 8.925 2.599,8.919 2.566,8.767 2.432 C 8.608 2.292,8.392 2.292,8.233 2.432 C 8.081 2.566,8.075 2.599,8.075 3.337 L 8.075 4.000 7.500 4.000 L 6.925 4.000 6.925 3.337 C 6.925 2.599,6.919 2.566,6.767 2.432 C 6.608 2.292,6.392 2.292,6.233 2.432 C 6.081 2.566,6.075 2.599,6.075 3.337 L 6.075 4.000 5.500 4.000 L 4.925 4.000 4.925 2.500 L 4.925 1.000 9.463 1.000 L 14.000 1.000 14.000 2.500 M4.000 5.500 L 4.000 6.075 3.337 6.075 C 2.599 6.075,2.566 6.081,2.432 6.233 C 2.292 6.392,2.292 6.608,2.432 6.767 C 2.566 6.919,2.599 6.925,3.337 6.925 L 4.000 6.925 4.000 7.500 L 4.000 8.075 3.337 8.075 C 2.599 8.075,2.566 8.081,2.432 8.233 C 2.292 8.392,2.292 8.608,2.432 8.767 C 2.566 8.919,2.599 8.925,3.337 8.925 L 4.000 8.925 4.000 9.500 L 4.000 10.075 3.087 10.075 C 2.076 10.075,2.070 10.076,1.932 10.233 C 1.792 10.392,1.792 10.608,1.932 10.767 C 2.070 10.924,2.076 10.925,3.087 10.925 L 4.000 10.925 4.000 11.500 L 4.000 12.075 3.337 12.075 C 2.599 12.075,2.566 12.081,2.432 12.233 C 2.292 12.392,2.292 12.608,2.432 12.767 C 2.566 12.919,2.599 12.925,3.337 12.925 L 4.000 12.925 4.000 13.463 L 4.000 14.000 2.500 14.000 L 1.000 14.000 1.000 9.463 L 1.000 4.925 2.500 4.925 L 4.000 4.925 4.000 5.500 " fill="currentColor" stroke="none" fill-rule="evenodd"></path></svg>