<svg width="15" height="15" fill="none" xmlns="http://www.w3.org/2000/svg"><path d="M2.000 2.087 C 0.808 2.353,-0.014 3.422,0.058 4.611 C 0.095 5.214,0.314 5.725,0.718 6.151 C 1.214 6.674,1.793 6.925,2.500 6.925 C 3.069 6.925,3.597 6.744,4.010 6.407 C 4.091 6.341,4.171 6.277,4.189 6.264 C 4.212 6.247,4.345 6.322,4.655 6.528 C 4.893 6.687,5.116 6.835,5.152 6.858 C 5.215 6.899,5.219 6.898,5.389 6.781 L 5.561 6.663 5.641 6.388 C 5.685 6.236,5.722 6.094,5.723 6.072 C 5.724 6.047,5.552 5.918,5.261 5.724 C 5.006 5.554,4.792 5.408,4.786 5.397 C 4.780 5.387,4.787 5.347,4.803 5.308 C 4.935 4.976,4.982 4.463,4.916 4.083 C 4.778 3.295,4.297 2.650,3.588 2.300 C 3.202 2.110,3.034 2.071,2.563 2.060 C 2.276 2.054,2.117 2.061,2.000 2.087 M14.217 2.840 C 13.049 2.971,12.160 3.192,11.240 3.578 C 10.773 3.775,10.467 3.936,8.710 4.912 C 6.969 5.880,6.901 5.924,6.767 6.172 C 6.733 6.235,6.658 6.456,6.601 6.663 C 6.544 6.869,6.480 7.095,6.460 7.165 L 6.423 7.293 5.326 8.025 L 4.228 8.756 4.095 8.645 C 3.820 8.413,3.563 8.270,3.234 8.167 C 1.973 7.769,0.611 8.459,0.183 9.713 C -0.259 11.007,0.457 12.421,1.763 12.832 C 3.028 13.231,4.389 12.544,4.816 11.290 C 4.987 10.788,4.991 10.219,4.827 9.744 L 4.778 9.600 5.458 9.142 C 5.832 8.890,8.112 7.364,10.525 5.751 C 12.938 4.138,14.923 2.809,14.936 2.797 C 14.972 2.764,14.795 2.774,14.217 2.840 M3.030 3.032 C 3.493 3.211,3.834 3.572,3.982 4.038 C 4.062 4.290,4.060 4.691,3.977 4.945 C 3.810 5.461,3.396 5.849,2.864 5.991 C 2.692 6.037,2.304 6.034,2.118 5.986 C 1.319 5.779,0.817 4.970,0.987 4.165 C 1.106 3.604,1.544 3.142,2.100 2.988 C 2.199 2.961,2.326 2.953,2.550 2.959 C 2.814 2.966,2.889 2.977,3.030 3.032 M7.998 8.642 C 7.552 8.938,7.178 9.190,7.167 9.200 C 7.142 9.223,10.267 10.964,10.763 11.203 C 11.570 11.593,12.414 11.867,13.327 12.035 C 13.622 12.090,13.845 12.118,14.795 12.221 C 14.937 12.236,14.970 12.234,14.945 12.211 C 14.921 12.188,8.958 8.194,8.832 8.117 C 8.819 8.109,8.444 8.345,7.998 8.642 M2.813 8.987 C 3.266 9.082,3.672 9.394,3.871 9.800 C 4.104 10.274,4.105 10.725,3.874 11.193 C 3.692 11.562,3.383 11.833,2.988 11.969 C 2.815 12.028,2.748 12.037,2.500 12.037 C 2.252 12.037,2.185 12.028,2.012 11.969 C 1.617 11.833,1.308 11.562,1.126 11.193 C 0.895 10.725,0.896 10.274,1.129 9.800 C 1.430 9.186,2.136 8.846,2.813 8.987 " fill="currentColor" stroke="none" fill-rule="evenodd"></path></svg>