<svg width="15" height="15" fill="none" xmlns="http://www.w3.org/2000/svg"><path d="M1.342 1.024 C 1.149 1.086,1.000 1.295,1.000 1.504 C 1.000 1.655,1.089 1.818,1.223 1.913 C 1.316 1.978,1.351 1.988,1.498 1.988 C 1.639 1.988,1.683 1.977,1.767 1.920 C 1.924 1.817,1.988 1.695,1.988 1.500 C 1.988 1.308,1.924 1.183,1.775 1.084 C 1.670 1.015,1.460 0.986,1.342 1.024 M3.342 1.024 C 3.149 1.086,3.000 1.295,3.000 1.504 C 3.000 1.655,3.089 1.818,3.223 1.913 C 3.316 1.978,3.351 1.988,3.498 1.988 C 3.639 1.988,3.683 1.977,3.767 1.920 C 3.924 1.817,3.988 1.695,3.988 1.500 C 3.988 1.308,3.924 1.183,3.775 1.084 C 3.670 1.015,3.460 0.986,3.342 1.024 M5.342 1.024 C 5.149 1.086,5.000 1.295,5.000 1.504 C 5.000 1.655,5.089 1.818,5.223 1.913 C 5.316 1.978,5.351 1.988,5.498 1.988 C 5.639 1.988,5.683 1.977,5.767 1.920 C 5.924 1.817,5.988 1.695,5.988 1.500 C 5.988 1.308,5.924 1.183,5.775 1.084 C 5.670 1.015,5.460 0.986,5.342 1.024 M7.342 1.024 C 7.149 1.086,7.000 1.295,7.000 1.504 C 7.000 1.655,7.089 1.818,7.223 1.913 C 7.316 1.978,7.351 1.988,7.498 1.988 C 7.639 1.988,7.683 1.977,7.767 1.920 C 7.924 1.817,7.988 1.695,7.988 1.500 C 7.988 1.308,7.924 1.183,7.775 1.084 C 7.670 1.015,7.460 0.986,7.342 1.024 M9.342 1.024 C 9.149 1.086,9.000 1.295,9.000 1.504 C 9.000 1.655,9.089 1.818,9.223 1.913 C 9.316 1.978,9.351 1.988,9.498 1.988 C 9.639 1.988,9.683 1.977,9.767 1.920 C 9.924 1.817,9.988 1.695,9.988 1.500 C 9.988 1.308,9.924 1.183,9.775 1.084 C 9.670 1.015,9.460 0.986,9.342 1.024 M11.342 1.024 C 11.149 1.086,11.000 1.295,11.000 1.504 C 11.000 1.655,11.089 1.818,11.223 1.913 C 11.316 1.978,11.351 1.988,11.498 1.988 C 11.639 1.988,11.683 1.977,11.767 1.920 C 11.924 1.817,11.988 1.695,11.988 1.500 C 11.988 1.308,11.924 1.183,11.775 1.084 C 11.670 1.015,11.460 0.986,11.342 1.024 M13.342 1.024 C 13.149 1.086,13.000 1.295,13.000 1.504 C 13.000 1.655,13.089 1.818,13.223 1.913 C 13.316 1.978,13.351 1.988,13.498 1.988 C 13.639 1.988,13.683 1.977,13.767 1.920 C 13.924 1.817,13.988 1.695,13.988 1.500 C 13.988 1.308,13.924 1.183,13.775 1.084 C 13.670 1.015,13.460 0.986,13.342 1.024 M1.765 4.028 C 1.409 4.112,1.102 4.429,1.024 4.794 C 1.008 4.871,1.001 5.850,1.006 7.575 C 1.012 10.163,1.014 10.241,1.062 10.357 C 1.169 10.615,1.404 10.845,1.657 10.939 C 1.785 10.987,1.904 10.988,7.514 10.988 L 13.240 10.988 13.429 10.894 C 13.657 10.782,13.798 10.637,13.908 10.404 L 13.988 10.238 13.988 7.500 L 13.988 4.763 13.908 4.596 C 13.798 4.363,13.657 4.218,13.429 4.106 L 13.240 4.013 7.551 4.009 C 4.175 4.006,1.823 4.014,1.765 4.028 M13.000 7.500 L 13.000 10.000 7.500 10.000 L 2.000 10.000 2.000 7.500 L 2.000 5.000 7.500 5.000 L 13.000 5.000 13.000 7.500 M1.342 13.024 C 1.149 13.086,1.000 13.295,1.000 13.504 C 1.000 13.655,1.089 13.818,1.223 13.913 C 1.316 13.978,1.351 13.988,1.498 13.988 C 1.639 13.988,1.683 13.977,1.767 13.920 C 1.924 13.817,1.988 13.695,1.988 13.500 C 1.988 13.308,1.924 13.183,1.775 13.084 C 1.670 13.015,1.460 12.986,1.342 13.024 M3.342 13.024 C 3.149 13.086,3.000 13.295,3.000 13.504 C 3.000 13.655,3.089 13.818,3.223 13.913 C 3.316 13.978,3.351 13.988,3.498 13.988 C 3.639 13.988,3.683 13.977,3.767 13.920 C 3.924 13.817,3.988 13.695,3.988 13.500 C 3.988 13.308,3.924 13.183,3.775 13.084 C 3.670 13.015,3.460 12.986,3.342 13.024 M5.342 13.024 C 5.149 13.086,5.000 13.295,5.000 13.504 C 5.000 13.655,5.089 13.818,5.223 13.913 C 5.316 13.978,5.351 13.988,5.498 13.988 C 5.639 13.988,5.683 13.977,5.767 13.920 C 5.924 13.817,5.988 13.695,5.988 13.500 C 5.988 13.308,5.924 13.183,5.775 13.084 C 5.670 13.015,5.460 12.986,5.342 13.024 M7.342 13.024 C 7.149 13.086,7.000 13.295,7.000 13.504 C 7.000 13.655,7.089 13.818,7.223 13.913 C 7.316 13.978,7.351 13.988,7.498 13.988 C 7.639 13.988,7.683 13.977,7.767 13.920 C 7.924 13.817,7.988 13.695,7.988 13.500 C 7.988 13.308,7.924 13.183,7.775 13.084 C 7.670 13.015,7.460 12.986,7.342 13.024 M9.342 13.024 C 9.149 13.086,9.000 13.295,9.000 13.504 C 9.000 13.655,9.089 13.818,9.223 13.913 C 9.316 13.978,9.351 13.988,9.498 13.988 C 9.639 13.988,9.683 13.977,9.767 13.920 C 9.924 13.817,9.988 13.695,9.988 13.500 C 9.988 13.308,9.924 13.183,9.775 13.084 C 9.670 13.015,9.460 12.986,9.342 13.024 M11.342 13.024 C 11.149 13.086,11.000 13.295,11.000 13.504 C 11.000 13.655,11.089 13.818,11.223 13.913 C 11.316 13.978,11.351 13.988,11.498 13.988 C 11.639 13.988,11.683 13.977,11.767 13.920 C 11.924 13.817,11.988 13.695,11.988 13.500 C 11.988 13.308,11.924 13.183,11.775 13.084 C 11.670 13.015,11.460 12.986,11.342 13.024 M13.342 13.024 C 13.149 13.086,13.000 13.295,13.000 13.504 C 13.000 13.655,13.089 13.818,13.223 13.913 C 13.316 13.978,13.351 13.988,13.498 13.988 C 13.639 13.988,13.683 13.977,13.767 13.920 C 13.924 13.817,13.988 13.695,13.988 13.500 C 13.988 13.308,13.924 13.183,13.775 13.084 C 13.670 13.015,13.460 12.986,13.342 13.024 " fill="currentColor" stroke="none" fill-rule="evenodd"></path></svg>