<svg width="15" height="15" fill="none" xmlns="http://www.w3.org/2000/svg"><path d="M7.145 1.025 C 6.777 1.084,6.388 1.237,6.082 1.445 C 5.597 1.775,5.246 2.273,5.081 2.868 C 5.021 3.085,5.014 3.155,5.014 3.500 C 5.014 3.845,5.021 3.914,5.082 4.134 C 5.238 4.699,5.548 5.156,6.007 5.502 C 6.268 5.699,6.563 5.839,6.894 5.925 L 7.000 5.952 7.000 9.785 L 7.000 13.617 7.058 13.727 C 7.090 13.788,7.164 13.871,7.223 13.913 C 7.315 13.978,7.351 13.988,7.496 13.988 C 7.695 13.988,7.816 13.925,7.920 13.768 L 7.988 13.666 7.994 9.809 L 8.001 5.952 8.107 5.924 C 8.749 5.759,9.315 5.337,9.649 4.774 C 9.956 4.257,10.070 3.600,9.952 3.030 C 9.811 2.349,9.451 1.805,8.892 1.427 C 8.697 1.295,8.327 1.131,8.099 1.075 C 7.857 1.016,7.365 0.990,7.145 1.025 " fill="currentColor" stroke="none" fill-rule="evenodd"></path></svg>