<svg width="15" height="15" fill="none" xmlns="http://www.w3.org/2000/svg"><path d="M7.145 1.025 C 6.890 1.066,6.691 1.127,6.459 1.236 C 6.149 1.383,5.947 1.523,5.725 1.748 C 5.374 2.102,5.154 2.517,5.049 3.025 C 5.004 3.244,4.997 3.340,5.008 3.600 C 5.042 4.375,5.389 5.037,6.007 5.502 C 6.268 5.699,6.563 5.839,6.894 5.925 L 7.000 5.952 7.000 9.785 L 7.000 13.617 7.058 13.727 C 7.090 13.788,7.164 13.871,7.223 13.913 C 7.315 13.978,7.351 13.988,7.496 13.988 C 7.695 13.988,7.816 13.925,7.920 13.768 L 7.988 13.666 7.994 9.809 L 8.001 5.952 8.107 5.924 C 8.437 5.839,8.732 5.699,8.993 5.502 C 9.609 5.038,9.958 4.373,9.992 3.600 C 10.003 3.341,9.996 3.243,9.952 3.030 C 9.811 2.349,9.451 1.805,8.892 1.427 C 8.697 1.295,8.327 1.131,8.099 1.075 C 7.857 1.016,7.365 0.990,7.145 1.025 M7.813 2.038 C 8.375 2.156,8.844 2.625,8.962 3.188 C 9.069 3.697,8.923 4.183,8.552 4.551 C 8.334 4.767,8.141 4.879,7.860 4.951 C 7.507 5.041,7.124 4.994,6.792 4.820 C 6.564 4.701,6.281 4.409,6.166 4.175 C 5.872 3.575,5.980 2.916,6.448 2.448 C 6.819 2.076,7.303 1.931,7.813 2.038 " fill="currentColor" stroke="none" fill-rule="evenodd"></path></svg>