<svg width="15" height="15" fill="none" xmlns="http://www.w3.org/2000/svg"><path d="M6.975 0.899 C 6.136 0.969,5.317 1.197,4.578 1.564 C 3.935 1.883,3.428 2.238,2.920 2.723 C 1.343 4.229,0.611 6.418,0.965 8.575 C 1.391 11.173,3.343 13.289,5.900 13.925 C 6.970 14.191,8.030 14.191,9.100 13.925 C 11.656 13.289,13.609 11.172,14.035 8.575 C 14.389 6.419,13.657 4.229,12.080 2.723 C 11.077 1.766,9.818 1.150,8.456 0.951 C 8.062 0.893,7.339 0.868,6.975 0.899 M8.300 1.888 C 10.051 2.136,11.593 3.205,12.461 4.774 C 12.592 5.011,12.607 5.087,12.692 5.925 C 12.756 6.555,12.756 8.445,12.692 9.075 C 12.607 9.913,12.592 9.989,12.461 10.226 C 12.104 10.871,11.580 11.496,11.038 11.925 C 8.910 13.606,5.944 13.580,3.875 11.862 C 3.603 11.636,3.177 11.186,2.965 10.902 C 2.477 10.246,2.127 9.483,1.966 8.725 C 1.863 8.242,1.839 8.009,1.839 7.500 C 1.839 6.613,2.012 5.833,2.376 5.079 C 2.684 4.439,2.997 3.998,3.498 3.498 C 4.488 2.507,5.630 1.984,7.113 1.840 C 7.316 1.820,8.021 1.849,8.300 1.888 " fill="currentColor" stroke="none" fill-rule="evenodd"></path></svg>