<svg width="15" height="15" fill="none" xmlns="http://www.w3.org/2000/svg"><path d="M6.950 0.901 C 6.373 0.952,5.740 1.093,5.209 1.288 C 4.890 1.404,4.274 1.707,3.988 1.887 C 1.725 3.310,0.533 5.947,0.965 8.575 C 1.144 9.666,1.640 10.780,2.320 11.625 L 2.472 11.813 2.024 12.263 C 1.748 12.541,1.563 12.749,1.539 12.806 C 1.402 13.132,1.640 13.500,1.987 13.500 C 2.186 13.500,2.263 13.446,2.737 12.976 L 3.188 12.528 3.375 12.680 C 4.674 13.729,6.418 14.254,8.088 14.099 C 9.611 13.958,10.989 13.329,12.084 12.275 C 13.179 11.219,13.825 9.958,14.067 8.400 C 14.130 7.996,14.130 7.007,14.066 6.600 C 13.876 5.371,13.404 4.274,12.680 3.375 L 12.529 3.188 12.987 2.725 C 13.380 2.327,13.449 2.247,13.475 2.150 C 13.559 1.838,13.365 1.545,13.049 1.508 C 12.842 1.483,12.724 1.561,12.241 2.046 L 11.819 2.469 11.516 2.240 C 10.578 1.530,9.509 1.088,8.363 0.937 C 7.990 0.888,7.298 0.871,6.950 0.901 M8.300 1.887 C 9.064 1.997,9.844 2.282,10.488 2.687 C 10.716 2.831,11.124 3.127,11.124 3.150 C 11.125 3.157,9.330 4.957,7.136 7.150 L 3.147 11.138 3.085 11.063 C 2.947 10.898,2.683 10.503,2.551 10.265 C 2.054 9.368,1.840 8.534,1.840 7.500 C 1.840 6.819,1.912 6.340,2.103 5.750 C 2.566 4.321,3.609 3.106,4.945 2.439 C 5.642 2.091,6.224 1.928,7.088 1.840 C 7.293 1.819,8.022 1.848,8.300 1.887 M12.015 4.082 C 12.201 4.332,12.307 4.497,12.461 4.774 C 12.562 4.958,12.582 5.019,12.613 5.237 C 12.717 5.987,12.737 6.345,12.737 7.500 C 12.737 8.411,12.728 8.725,12.692 9.075 C 12.607 9.913,12.591 9.989,12.461 10.226 C 12.191 10.714,11.883 11.121,11.475 11.526 C 9.960 13.031,7.728 13.552,5.690 12.874 C 5.131 12.688,4.343 12.259,3.950 11.926 L 3.863 11.852 7.850 7.863 C 10.043 5.670,11.843 3.875,11.850 3.876 C 11.857 3.876,11.931 3.969,12.015 4.082 " fill="currentColor" stroke="none" fill-rule="evenodd"></path></svg>