<svg width="15" height="15" fill="none" xmlns="http://www.w3.org/2000/svg"><path d="M6.994 1.300 C 5.793 1.408,4.694 1.830,3.738 2.548 C 3.418 2.789,2.926 3.266,2.667 3.588 C 1.538 4.987,1.067 6.777,1.364 8.537 C 1.834 11.317,4.124 13.440,6.934 13.702 C 7.607 13.765,8.376 13.706,9.044 13.541 C 9.178 13.507,9.366 13.473,9.463 13.464 C 10.163 13.399,10.993 13.086,11.600 12.657 C 11.904 12.442,12.438 11.907,12.655 11.600 C 13.077 11.004,13.368 10.254,13.450 9.558 C 13.465 9.423,13.511 9.172,13.551 9.000 C 13.666 8.510,13.703 8.224,13.718 7.720 C 13.740 6.975,13.659 6.347,13.459 5.700 C 13.143 4.677,12.628 3.828,11.872 3.081 C 11.552 2.766,11.352 2.600,10.988 2.352 C 10.201 1.816,9.305 1.473,8.341 1.337 C 8.010 1.291,7.311 1.272,6.994 1.300 M8.275 2.289 C 9.023 2.400,9.753 2.678,10.383 3.091 C 10.738 3.323,10.950 3.497,11.250 3.799 C 12.803 5.368,13.213 7.748,12.274 9.743 C 11.020 12.407,7.835 13.529,5.187 12.239 C 4.248 11.782,3.470 11.056,2.939 10.141 C 1.744 8.082,2.088 5.463,3.776 3.776 C 4.668 2.883,5.806 2.361,7.125 2.240 C 7.336 2.221,8.012 2.249,8.275 2.289 " fill="currentColor" stroke="none" fill-rule="evenodd"></path></svg>