<svg width="15" height="15" fill="none" xmlns="http://www.w3.org/2000/svg"><path d="M6.975 0.899 C 6.136 0.969,5.317 1.197,4.578 1.564 C 3.935 1.883,3.428 2.238,2.920 2.723 C 1.343 4.229,0.611 6.418,0.965 8.575 C 1.391 11.173,3.343 13.289,5.900 13.925 C 6.970 14.191,8.030 14.191,9.100 13.925 C 11.656 13.289,13.609 11.172,14.035 8.575 C 14.389 6.419,13.657 4.229,12.080 2.723 C 11.077 1.766,9.818 1.150,8.456 0.951 C 8.062 0.893,7.339 0.868,6.975 0.899 M8.150 1.878 C 9.215 1.996,10.244 2.428,11.089 3.114 C 11.389 3.357,11.807 3.792,12.035 4.098 C 12.630 4.897,12.989 5.786,13.128 6.800 C 13.170 7.105,13.170 7.922,13.128 8.213 C 12.943 9.492,12.432 10.550,11.569 11.441 C 10.893 12.139,10.118 12.620,9.201 12.910 C 6.724 13.694,4.020 12.677,2.661 10.450 C 1.856 9.131,1.631 7.478,2.051 5.964 C 2.128 5.683,2.130 5.680,2.381 5.359 C 2.815 4.803,3.193 4.381,3.787 3.787 C 4.381 3.192,4.803 2.815,5.359 2.381 C 5.680 2.130,5.683 2.128,5.964 2.051 C 6.674 1.854,7.409 1.796,8.150 1.878 " fill="currentColor" stroke="none" fill-rule="evenodd"></path></svg>