<svg width="15" height="15" fill="none" xmlns="http://www.w3.org/2000/svg"><path d="M11.275 1.016 C 10.994 1.056,10.838 1.090,10.688 1.144 C 9.703 1.496,9.060 2.354,9.008 3.388 C 8.995 3.639,9.027 3.942,9.089 4.165 C 9.102 4.211,8.908 4.339,7.410 5.275 C 5.885 6.228,5.713 6.329,5.689 6.289 C 5.497 5.961,5.206 5.640,4.928 5.452 C 4.701 5.298,4.349 5.139,4.088 5.072 C 3.903 5.025,3.797 5.014,3.500 5.014 C 3.069 5.014,2.820 5.068,2.459 5.237 C 2.158 5.378,1.951 5.521,1.732 5.741 C 1.412 6.061,1.194 6.449,1.071 6.918 C 0.989 7.233,0.989 7.767,1.071 8.082 C 1.194 8.553,1.412 8.939,1.736 9.264 C 2.488 10.015,3.628 10.209,4.588 9.749 C 5.032 9.536,5.421 9.169,5.689 8.711 C 5.713 8.670,5.882 8.770,7.389 9.711 C 8.309 10.286,9.072 10.764,9.083 10.774 C 9.094 10.785,9.083 10.865,9.059 10.953 C 9.025 11.074,9.014 11.206,9.014 11.500 C 9.014 11.847,9.021 11.914,9.083 12.136 C 9.337 13.055,10.036 13.723,10.972 13.943 C 11.238 14.005,11.766 14.004,12.038 13.941 C 12.996 13.717,13.695 13.022,13.940 12.050 C 14.010 11.773,14.005 11.188,13.931 10.912 C 13.718 10.124,13.266 9.579,12.539 9.235 C 12.187 9.068,11.936 9.015,11.500 9.015 C 11.064 9.015,10.813 9.068,10.461 9.235 C 10.141 9.387,9.945 9.524,9.709 9.764 L 9.505 9.971 7.753 8.879 L 6.001 7.788 6.001 7.500 L 6.002 7.213 7.753 6.121 L 9.504 5.029 9.710 5.237 C 10.049 5.580,10.439 5.804,10.916 5.928 C 11.235 6.012,11.766 6.012,12.088 5.928 C 13.502 5.559,14.311 4.133,13.883 2.763 C 13.638 1.977,13.024 1.364,12.238 1.118 C 11.946 1.027,11.517 0.981,11.275 1.016 M11.813 2.038 C 12.375 2.156,12.844 2.625,12.962 3.188 C 13.069 3.697,12.923 4.183,12.552 4.551 C 12.334 4.767,12.141 4.879,11.860 4.951 C 11.507 5.041,11.124 4.994,10.792 4.820 C 10.564 4.701,10.281 4.409,10.166 4.175 C 9.872 3.575,9.980 2.916,10.448 2.448 C 10.819 2.076,11.303 1.931,11.813 2.038 M3.813 6.038 C 4.237 6.127,4.646 6.442,4.834 6.825 C 5.128 7.425,5.020 8.087,4.552 8.551 C 4.334 8.767,4.141 8.879,3.860 8.951 C 3.507 9.041,3.124 8.994,2.792 8.820 C 2.564 8.701,2.281 8.409,2.166 8.175 C 1.872 7.575,1.980 6.916,2.448 6.448 C 2.819 6.076,3.303 5.931,3.813 6.038 M11.813 10.038 C 12.375 10.156,12.844 10.625,12.962 11.188 C 13.069 11.697,12.923 12.183,12.552 12.551 C 12.334 12.767,12.141 12.879,11.860 12.951 C 11.507 13.041,11.124 12.994,10.792 12.820 C 10.564 12.701,10.281 12.409,10.166 12.175 C 9.872 11.575,9.980 10.916,10.448 10.448 C 10.819 10.076,11.303 9.931,11.813 10.038 " fill="currentColor" stroke="none" fill-rule="evenodd"></path></svg>