<svg width="15" height="15" fill="none" xmlns="http://www.w3.org/2000/svg"><path d="M7.313 0.098 C 7.245 0.129,6.828 0.531,6.035 1.329 C 4.941 2.428,4.855 2.521,4.829 2.628 C 4.749 2.958,5.043 3.251,5.372 3.171 C 5.478 3.145,5.552 3.079,6.244 2.391 L 7.000 1.639 7.000 5.128 L 7.000 8.617 7.058 8.727 C 7.090 8.788,7.164 8.871,7.223 8.912 C 7.316 8.978,7.351 8.988,7.498 8.988 C 7.639 8.988,7.683 8.977,7.767 8.920 C 7.823 8.884,7.896 8.810,7.928 8.758 L 7.988 8.662 7.994 5.151 L 8.001 1.640 8.757 2.391 C 9.447 3.078,9.522 3.145,9.628 3.171 C 9.957 3.251,10.251 2.958,10.171 2.628 C 10.145 2.521,10.060 2.429,8.965 1.329 C 8.172 0.531,7.755 0.129,7.688 0.098 C 7.633 0.072,7.548 0.051,7.500 0.051 C 7.452 0.051,7.367 0.072,7.313 0.098 M3.175 4.038 C 2.901 4.099,2.662 4.233,2.449 4.448 C 2.233 4.666,2.121 4.859,2.049 5.140 C 2.001 5.327,2.000 5.428,2.000 8.500 C 2.000 11.572,2.001 11.673,2.049 11.860 C 2.122 12.143,2.233 12.334,2.449 12.551 C 2.666 12.767,2.857 12.878,3.140 12.951 C 3.328 12.999,3.432 13.000,7.500 13.000 C 11.568 13.000,11.672 12.999,11.860 12.951 C 12.143 12.878,12.334 12.767,12.551 12.551 C 12.767 12.334,12.878 12.143,12.951 11.860 C 12.999 11.673,13.000 11.572,13.000 8.500 C 13.000 5.428,12.999 5.327,12.951 5.140 C 12.879 4.859,12.767 4.666,12.551 4.448 C 12.413 4.308,12.313 4.234,12.175 4.166 C 11.863 4.013,11.724 3.996,10.847 4.005 L 10.079 4.013 9.973 4.088 C 9.679 4.294,9.679 4.706,9.973 4.913 L 10.079 4.988 10.873 5.000 L 11.666 5.013 11.768 5.080 C 11.823 5.116,11.896 5.190,11.928 5.242 L 11.988 5.338 11.988 8.502 L 11.988 11.666 11.920 11.767 C 11.884 11.823,11.810 11.896,11.758 11.928 L 11.663 11.988 7.498 11.988 L 3.334 11.988 3.233 11.920 C 3.177 11.884,3.104 11.810,3.072 11.758 L 3.013 11.663 3.013 8.500 L 3.013 5.338 3.072 5.242 C 3.104 5.190,3.177 5.116,3.232 5.080 L 3.334 5.013 4.125 5.000 L 4.916 4.988 5.018 4.920 C 5.174 4.817,5.238 4.695,5.238 4.500 C 5.238 4.305,5.174 4.183,5.018 4.080 L 4.916 4.013 4.127 4.008 C 3.521 4.004,3.300 4.011,3.175 4.038 " fill="currentColor" stroke="none" fill-rule="evenodd"></path></svg>