<svg width="15" height="15" fill="none" xmlns="http://www.w3.org/2000/svg"><path d="M11.864 1.017 C 11.774 1.042,11.625 1.156,11.575 1.238 C 11.508 1.345,11.488 1.513,11.525 1.650 C 11.551 1.749,11.629 1.837,12.170 2.381 L 12.785 3.000 12.304 3.000 C 12.040 3.000,11.714 3.012,11.580 3.026 C 10.315 3.164,9.291 3.811,8.106 5.224 C 7.962 5.396,7.464 6.044,7.000 6.663 C 5.993 8.004,5.626 8.450,5.076 9.001 C 4.333 9.745,3.672 10.209,2.887 10.538 C 2.221 10.818,1.570 10.956,0.724 10.997 C 0.336 11.016,0.320 11.019,0.220 11.090 C -0.071 11.294,-0.069 11.707,0.223 11.913 L 0.330 11.988 0.746 11.985 C 2.025 11.977,3.294 11.584,4.400 10.856 C 5.117 10.384,5.694 9.862,6.415 9.036 C 6.732 8.672,7.128 8.165,7.800 7.263 C 8.691 6.065,8.950 5.748,9.449 5.248 C 9.935 4.760,10.200 4.555,10.622 4.341 C 11.145 4.076,11.381 4.025,12.175 4.008 L 12.788 3.995 12.171 4.616 C 11.630 5.162,11.551 5.251,11.525 5.350 C 11.419 5.747,11.753 6.081,12.150 5.975 C 12.251 5.949,12.367 5.841,13.320 4.892 C 13.902 4.312,14.400 3.802,14.426 3.759 C 14.492 3.655,14.512 3.487,14.475 3.350 C 14.449 3.249,14.343 3.134,13.417 2.204 C 12.851 1.636,12.339 1.137,12.280 1.096 C 12.173 1.021,11.979 0.984,11.864 1.017 M0.342 3.024 C 0.151 3.086,0.000 3.296,-0.000 3.500 C -0.000 3.733,0.191 3.959,0.408 3.985 C 0.466 3.991,0.706 4.009,0.942 4.023 C 2.731 4.134,4.164 4.908,5.578 6.527 C 5.745 6.718,5.888 6.875,5.897 6.874 C 5.906 6.874,6.045 6.694,6.207 6.473 L 6.502 6.073 6.449 6.005 C 6.156 5.630,5.452 4.940,4.967 4.551 C 3.962 3.745,2.740 3.224,1.475 3.064 C 1.111 3.018,0.434 2.994,0.342 3.024 M7.787 8.529 C 7.627 8.737,7.490 8.922,7.483 8.940 C 7.469 8.976,7.707 9.295,8.109 9.780 C 8.943 10.784,9.736 11.416,10.563 11.734 C 11.075 11.932,11.505 11.999,12.261 12.000 L 12.785 12.000 12.170 12.619 C 11.629 13.163,11.551 13.251,11.525 13.350 C 11.419 13.747,11.753 14.081,12.150 13.975 C 12.251 13.949,12.367 13.841,13.320 12.892 C 13.902 12.312,14.400 11.802,14.426 11.759 C 14.492 11.655,14.512 11.487,14.475 11.350 C 14.449 11.249,14.343 11.134,13.417 10.204 C 12.851 9.636,12.337 9.135,12.275 9.092 C 12.176 9.022,12.142 9.013,12.000 9.013 C 11.863 9.013,11.821 9.025,11.731 9.085 C 11.540 9.214,11.464 9.423,11.525 9.650 C 11.551 9.749,11.630 9.838,12.171 10.384 L 12.788 11.005 12.163 10.993 C 11.591 10.983,11.517 10.976,11.294 10.918 C 10.700 10.760,10.240 10.498,9.688 10.003 C 9.325 9.678,8.711 8.970,8.263 8.356 C 8.180 8.244,8.105 8.151,8.096 8.151 C 8.086 8.150,7.947 8.320,7.787 8.529 " fill="currentColor" stroke="none" fill-rule="evenodd"></path></svg>