<svg width="15" height="15" fill="none" xmlns="http://www.w3.org/2000/svg"><path d="M7.299 3.106 C 6.971 3.272,6.971 3.728,7.299 3.894 L 7.411 3.950 8.912 3.950 L 10.412 3.950 7.187 7.175 L 3.963 10.400 3.950 8.881 C 3.938 7.406,3.936 7.360,3.886 7.275 C 3.707 6.970,3.266 6.984,3.106 7.299 L 3.050 7.411 3.050 9.494 C 3.050 11.312,3.055 11.588,3.088 11.669 C 3.140 11.793,3.194 11.848,3.313 11.903 C 3.407 11.946,3.528 11.949,5.501 11.949 L 7.589 11.950 7.701 11.894 C 7.762 11.863,7.837 11.800,7.868 11.753 C 8.021 11.524,7.945 11.229,7.701 11.106 L 7.589 11.050 6.088 11.050 L 4.588 11.050 7.813 7.825 L 11.038 4.600 11.050 6.119 C 11.062 7.594,11.064 7.640,11.114 7.725 C 11.293 8.030,11.734 8.016,11.894 7.701 L 11.950 7.589 11.950 5.506 C 11.950 3.688,11.945 3.412,11.912 3.331 C 11.860 3.207,11.806 3.152,11.688 3.097 C 11.593 3.054,11.472 3.051,9.499 3.051 L 7.411 3.050 7.299 3.106 " fill="currentColor" stroke="none" fill-rule="evenodd"></path></svg>