<svg width="15" height="15" fill="none" xmlns="http://www.w3.org/2000/svg"><path d="M5.675 1.003 C 4.588 1.113,3.924 1.190,3.856 1.215 C 3.756 1.252,3.668 1.367,2.206 3.364 C 1.311 4.588,0.653 5.509,0.640 5.558 C 0.628 5.605,0.625 5.682,0.634 5.729 C 0.647 5.797,1.392 6.718,3.939 9.814 C 5.748 12.013,7.258 13.835,7.294 13.863 C 7.343 13.898,7.400 13.913,7.500 13.913 C 7.600 13.913,7.657 13.898,7.705 13.863 C 7.742 13.835,9.252 12.013,11.061 9.814 C 13.524 6.820,14.353 5.795,14.365 5.733 C 14.374 5.687,14.373 5.613,14.365 5.569 C 14.354 5.516,13.826 4.773,12.848 3.438 C 12.023 2.310,11.313 1.351,11.272 1.307 C 11.231 1.262,11.155 1.215,11.105 1.201 C 11.016 1.176,7.527 0.822,7.433 0.828 C 7.408 0.829,6.617 0.908,5.675 1.003 M6.943 1.644 C 6.783 1.932,4.840 5.173,4.832 5.165 C 4.821 5.155,4.425 1.890,4.434 1.886 C 4.436 1.884,4.994 1.827,5.675 1.758 C 6.356 1.689,6.922 1.630,6.933 1.628 C 6.944 1.627,6.948 1.633,6.943 1.644 M10.562 1.962 C 10.555 2.004,10.465 2.745,10.362 3.611 C 10.259 4.476,10.172 5.186,10.169 5.189 C 10.163 5.194,8.155 1.824,8.083 1.691 C 8.054 1.636,8.055 1.636,9.315 1.761 L 10.575 1.886 10.562 1.962 M8.412 3.716 C 8.908 4.549,9.316 5.240,9.321 5.253 C 9.326 5.266,8.571 5.275,7.500 5.275 C 6.429 5.275,5.674 5.266,5.679 5.253 C 5.698 5.202,7.489 2.201,7.500 2.201 C 7.507 2.201,7.918 2.883,8.412 3.716 M3.915 3.918 C 3.995 4.595,4.054 5.154,4.046 5.162 C 4.039 5.169,3.536 5.173,2.928 5.169 L 1.823 5.163 2.779 3.854 C 3.666 2.642,3.738 2.550,3.753 2.616 C 3.763 2.655,3.836 3.241,3.915 3.918 M12.218 3.850 C 12.725 4.544,13.149 5.127,13.159 5.144 C 13.174 5.169,12.947 5.175,12.057 5.175 L 10.936 5.175 11.079 3.969 C 11.250 2.528,11.249 2.538,11.274 2.566 C 11.286 2.578,11.710 3.156,12.218 3.850 M4.225 6.048 C 4.225 6.061,4.788 7.401,5.475 9.027 C 6.163 10.653,6.722 11.987,6.718 11.991 C 6.712 11.997,2.151 6.471,1.854 6.098 L 1.796 6.025 3.011 6.025 C 3.732 6.025,4.225 6.034,4.225 6.048 M9.818 6.106 C 9.800 6.151,9.274 7.512,8.649 9.131 C 8.024 10.750,7.507 12.075,7.500 12.075 C 7.493 12.075,6.976 10.750,6.352 9.131 C 5.727 7.512,5.201 6.151,5.182 6.106 L 5.149 6.025 7.500 6.025 L 9.851 6.025 9.818 6.106 M13.169 6.069 C 13.148 6.093,12.054 7.423,10.738 9.025 C 9.421 10.627,8.322 11.960,8.296 11.988 C 8.249 12.036,8.249 12.034,8.297 11.925 C 8.499 11.463,10.775 6.065,10.775 6.048 C 10.775 6.034,11.283 6.025,11.991 6.025 C 13.148 6.025,13.206 6.027,13.169 6.069 " fill="currentColor" stroke="none" fill-rule="evenodd"></path></svg>