<svg width="15" height="15" fill="none" xmlns="http://www.w3.org/2000/svg"><path d="M8.131 4.775 C 7.250 4.899,6.463 5.455,6.059 6.238 C 5.962 6.424,5.800 6.879,5.800 6.962 C 5.800 6.994,5.452 7.000,3.065 7.006 L 0.329 7.013 0.223 7.088 C -0.071 7.294,-0.071 7.706,0.223 7.913 L 0.329 7.988 3.065 7.994 C 5.452 8.000,5.800 8.006,5.800 8.038 C 5.800 8.121,5.962 8.576,6.057 8.760 C 6.682 9.969,8.115 10.544,9.391 10.098 C 10.230 9.805,10.853 9.165,11.122 8.318 C 11.165 8.184,11.200 8.058,11.200 8.038 C 11.200 8.006,11.433 8.000,12.933 7.994 L 14.666 7.988 14.768 7.920 C 14.924 7.817,14.988 7.695,14.988 7.500 C 14.988 7.305,14.924 7.183,14.768 7.080 L 14.666 7.013 12.933 7.006 C 11.433 7.000,11.200 6.994,11.200 6.962 C 11.200 6.942,11.165 6.816,11.122 6.682 C 10.827 5.754,10.105 5.076,9.152 4.834 C 8.882 4.765,8.397 4.737,8.131 4.775 M8.842 5.739 C 9.110 5.795,9.270 5.859,9.480 5.998 C 10.316 6.546,10.548 7.663,9.998 8.486 C 9.764 8.835,9.434 9.085,9.029 9.221 C 8.861 9.277,8.796 9.285,8.500 9.285 C 8.204 9.285,8.139 9.277,7.971 9.221 C 7.704 9.132,7.477 8.998,7.282 8.817 C 6.541 8.126,6.508 6.983,7.209 6.253 C 7.628 5.816,8.257 5.618,8.842 5.739 " fill="currentColor" stroke="none" fill-rule="evenodd"></path></svg>