<svg width="15" height="15" fill="none" xmlns="http://www.w3.org/2000/svg"><path d="M0.342 1.024 C 0.227 1.061,0.109 1.166,0.053 1.282 L 0.000 1.391 -0.000 7.504 L -0.000 13.617 0.058 13.727 C 0.090 13.788,0.164 13.871,0.223 13.913 C 0.315 13.978,0.351 13.988,0.496 13.988 C 0.695 13.988,0.816 13.925,0.920 13.768 L 0.988 13.666 0.994 11.334 L 1.001 9.001 3.119 8.994 L 5.238 8.988 5.404 8.908 C 5.637 8.798,5.782 8.657,5.894 8.429 L 5.988 8.240 5.988 7.500 L 5.988 6.760 5.894 6.571 C 5.782 6.343,5.637 6.202,5.404 6.092 L 5.238 6.013 3.119 6.006 L 1.001 5.999 0.994 3.668 L 0.988 1.338 0.928 1.242 C 0.843 1.106,0.708 1.024,0.546 1.012 C 0.473 1.006,0.381 1.012,0.342 1.024 M14.342 1.024 C 14.227 1.061,14.109 1.166,14.053 1.282 C 14.000 1.390,14.000 1.404,14.000 3.695 L 14.000 5.999 11.880 6.006 L 9.760 6.013 9.569 6.107 C 9.276 6.252,9.090 6.488,9.023 6.799 C 9.006 6.876,9.000 7.175,9.006 7.580 C 9.014 8.158,9.021 8.252,9.063 8.357 C 9.163 8.605,9.392 8.834,9.643 8.938 C 9.758 8.986,9.835 8.988,11.881 8.994 L 14.000 9.001 14.000 11.309 L 14.000 13.617 14.058 13.727 C 14.090 13.788,14.164 13.871,14.223 13.913 C 14.315 13.978,14.351 13.988,14.496 13.988 C 14.695 13.988,14.816 13.925,14.920 13.767 L 14.988 13.666 14.988 7.502 L 14.988 1.338 14.928 1.242 C 14.843 1.106,14.708 1.024,14.546 1.012 C 14.473 1.006,14.381 1.012,14.342 1.024 " fill="currentColor" stroke="none" fill-rule="evenodd"></path></svg>