<svg width="15" height="15" fill="none" xmlns="http://www.w3.org/2000/svg"><path d="M1.342 0.025 C 1.152 0.083,1.000 0.295,1.000 0.504 C 1.000 0.655,1.089 0.818,1.223 0.913 L 1.329 0.988 3.664 0.994 L 5.999 1.001 6.006 3.119 C 6.012 5.165,6.014 5.242,6.062 5.357 C 6.169 5.615,6.404 5.845,6.657 5.939 C 6.775 5.983,6.856 5.988,7.514 5.988 L 8.240 5.988 8.429 5.894 C 8.657 5.782,8.798 5.637,8.908 5.404 L 8.988 5.238 8.994 3.119 L 9.001 1.001 11.332 0.994 L 13.663 0.988 13.758 0.928 C 13.810 0.896,13.884 0.823,13.920 0.767 C 13.976 0.683,13.988 0.638,13.988 0.500 C 13.988 0.362,13.976 0.317,13.920 0.233 C 13.884 0.177,13.810 0.104,13.758 0.072 L 13.663 0.013 7.538 0.008 C 4.169 0.006,1.381 0.014,1.342 0.025 M6.765 9.027 C 6.412 9.113,6.108 9.423,6.026 9.780 C 6.011 9.846,6.001 10.678,6.001 11.943 L 6.000 13.999 3.665 14.006 L 1.329 14.013 1.223 14.088 C 0.929 14.294,0.929 14.706,1.223 14.913 L 1.329 14.988 7.498 14.988 L 13.666 14.988 13.767 14.920 C 13.924 14.817,13.988 14.695,13.988 14.500 C 13.988 14.305,13.924 14.183,13.768 14.080 L 13.666 14.013 11.334 14.006 L 9.001 13.999 8.994 11.881 L 8.988 9.763 8.908 9.596 C 8.798 9.363,8.657 9.218,8.429 9.106 L 8.240 9.013 7.551 9.008 C 7.173 9.005,6.819 9.014,6.765 9.027 " fill="currentColor" stroke="none" fill-rule="evenodd"></path></svg>