<svg width="15" height="15" fill="none" xmlns="http://www.w3.org/2000/svg"><path d="M1.342 0.025 C 1.152 0.083,1.000 0.295,1.000 0.504 C 1.000 0.655,1.089 0.818,1.223 0.913 L 1.329 0.988 7.496 0.988 L 13.663 0.988 13.758 0.928 C 13.810 0.896,13.884 0.823,13.920 0.767 C 13.976 0.683,13.988 0.638,13.988 0.500 C 13.988 0.362,13.976 0.317,13.920 0.233 C 13.884 0.177,13.810 0.104,13.758 0.072 L 13.663 0.013 7.538 0.008 C 4.169 0.006,1.381 0.014,1.342 0.025 M6.765 2.027 C 6.406 2.115,6.102 2.429,6.024 2.795 C 6.007 2.871,6.001 3.514,6.005 4.576 C 6.012 6.166,6.015 6.243,6.062 6.357 C 6.169 6.615,6.404 6.845,6.657 6.939 C 6.775 6.983,6.856 6.988,7.514 6.988 L 8.240 6.988 8.429 6.894 C 8.657 6.782,8.798 6.637,8.908 6.404 L 8.988 6.238 8.988 4.500 L 8.988 2.763 8.908 2.596 C 8.798 2.363,8.657 2.218,8.429 2.106 L 8.240 2.013 7.551 2.008 C 7.173 2.005,6.819 2.014,6.765 2.027 M6.765 8.027 C 6.406 8.115,6.102 8.429,6.024 8.795 C 6.007 8.871,6.001 9.514,6.005 10.576 C 6.012 12.166,6.015 12.243,6.062 12.357 C 6.169 12.615,6.404 12.845,6.657 12.939 C 6.775 12.983,6.856 12.988,7.514 12.988 L 8.240 12.988 8.429 12.894 C 8.657 12.782,8.798 12.637,8.908 12.404 L 8.988 12.238 8.988 10.500 L 8.988 8.763 8.908 8.596 C 8.798 8.363,8.657 8.218,8.429 8.106 L 8.240 8.013 7.551 8.008 C 7.173 8.005,6.819 8.014,6.765 8.027 M1.342 14.025 C 1.152 14.083,1.000 14.295,1.000 14.504 C 1.000 14.655,1.089 14.818,1.223 14.913 L 1.329 14.988 7.496 14.988 L 13.663 14.988 13.758 14.928 C 13.810 14.896,13.884 14.823,13.920 14.767 C 13.976 14.683,13.988 14.638,13.988 14.500 C 13.988 14.362,13.976 14.317,13.920 14.233 C 13.884 14.177,13.810 14.104,13.758 14.072 L 13.663 14.013 7.538 14.008 C 4.169 14.006,1.381 14.014,1.342 14.025 " fill="currentColor" stroke="none" fill-rule="evenodd"></path></svg>