<svg width="15" height="15" fill="none" xmlns="http://www.w3.org/2000/svg"><path d="M0.342 1.024 C 0.227 1.061,0.109 1.166,0.053 1.282 L 0.000 1.391 -0.000 7.504 L -0.000 13.617 0.058 13.727 C 0.090 13.788,0.164 13.871,0.223 13.913 C 0.315 13.978,0.351 13.988,0.496 13.988 C 0.695 13.988,0.816 13.925,0.920 13.767 L 0.988 13.666 0.988 7.502 L 0.988 1.338 0.928 1.242 C 0.843 1.106,0.708 1.024,0.546 1.012 C 0.473 1.006,0.381 1.012,0.342 1.024 M14.342 1.024 C 14.227 1.061,14.109 1.166,14.053 1.282 L 14.000 1.391 14.000 7.504 L 14.000 13.617 14.058 13.727 C 14.090 13.788,14.164 13.871,14.223 13.913 C 14.315 13.978,14.351 13.988,14.496 13.988 C 14.695 13.988,14.816 13.925,14.920 13.767 L 14.988 13.666 14.988 7.502 L 14.988 1.338 14.928 1.242 C 14.843 1.106,14.708 1.024,14.546 1.012 C 14.473 1.006,14.381 1.012,14.342 1.024 M2.765 6.027 C 2.502 6.090,2.216 6.321,2.103 6.562 C 2.008 6.764,1.996 6.892,2.006 7.580 C 2.014 8.158,2.021 8.252,2.063 8.357 C 2.166 8.613,2.403 8.845,2.657 8.939 C 2.782 8.985,2.866 8.988,4.513 8.988 L 6.238 8.988 6.404 8.908 C 6.637 8.798,6.782 8.657,6.894 8.429 L 6.988 8.240 6.988 7.500 L 6.988 6.760 6.894 6.571 C 6.782 6.343,6.637 6.202,6.404 6.092 L 6.238 6.013 4.550 6.008 C 3.582 6.006,2.821 6.014,2.765 6.027 M8.765 6.027 C 8.502 6.090,8.216 6.321,8.103 6.562 C 8.008 6.764,7.996 6.892,8.006 7.580 C 8.014 8.158,8.021 8.252,8.063 8.357 C 8.166 8.613,8.403 8.845,8.657 8.939 C 8.782 8.985,8.866 8.988,10.513 8.988 L 12.238 8.988 12.404 8.908 C 12.637 8.798,12.782 8.657,12.894 8.429 L 12.988 8.240 12.988 7.500 L 12.988 6.760 12.894 6.571 C 12.782 6.343,12.637 6.202,12.404 6.092 L 12.238 6.013 10.550 6.008 C 9.582 6.006,8.821 6.014,8.765 6.027 " fill="currentColor" stroke="none" fill-rule="evenodd"></path></svg>