<svg width="15" height="15" fill="none" xmlns="http://www.w3.org/2000/svg"><path d="M7.338 1.029 C 7.296 1.044,6.378 1.719,5.298 2.528 L 3.333 4.000 2.348 4.000 C 1.240 4.001,1.140 4.012,0.825 4.166 C 0.687 4.234,0.587 4.308,0.449 4.448 C 0.233 4.666,0.121 4.859,0.049 5.140 C 0.002 5.325,0.000 5.424,0.000 7.500 C 0.000 9.576,0.002 9.675,0.049 9.860 C 0.122 10.143,0.233 10.334,0.449 10.551 C 0.666 10.767,0.857 10.878,1.140 10.951 C 1.316 10.996,1.419 11.000,2.333 11.000 L 3.333 11.000 5.314 12.486 C 7.090 13.817,7.308 13.973,7.411 13.989 C 7.628 14.021,7.803 13.945,7.920 13.767 L 7.988 13.666 7.988 7.498 L 7.988 1.329 7.913 1.223 C 7.871 1.165,7.794 1.094,7.741 1.067 C 7.626 1.008,7.442 0.990,7.338 1.029 M7.000 7.500 L 7.000 12.500 5.394 11.295 C 4.510 10.632,3.754 10.073,3.713 10.051 C 3.649 10.018,3.461 10.011,2.488 10.000 L 1.338 9.988 1.242 9.928 C 1.190 9.896,1.116 9.823,1.080 9.767 L 1.012 9.666 1.012 7.500 L 1.012 5.334 1.080 5.233 C 1.116 5.177,1.190 5.104,1.242 5.072 L 1.338 5.013 2.503 5.000 L 3.669 4.988 3.803 4.894 C 3.877 4.842,4.624 4.283,5.463 3.652 C 6.301 3.020,6.990 2.503,6.994 2.502 C 6.997 2.501,7.000 4.750,7.000 7.500 M9.586 4.909 C 9.495 4.950,9.381 5.080,9.359 5.166 C 9.332 5.275,9.367 5.418,9.458 5.568 C 9.837 6.195,10.006 6.792,10.006 7.500 C 10.006 8.210,9.837 8.805,9.456 9.436 C 9.292 9.706,9.324 9.916,9.551 10.070 C 9.622 10.119,9.661 10.128,9.770 10.119 C 9.928 10.106,10.007 10.053,10.121 9.885 C 10.263 9.675,10.517 9.126,10.612 8.825 C 10.761 8.351,10.808 8.034,10.808 7.500 C 10.808 6.966,10.761 6.649,10.612 6.175 C 10.462 5.701,10.128 5.058,9.971 4.942 C 9.886 4.880,9.688 4.863,9.586 4.909 " fill="currentColor" stroke="none" fill-rule="evenodd"></path></svg>