<svg width="15" height="15" fill="none" xmlns="http://www.w3.org/2000/svg"><path d="M7.086 1.028 C 7.045 1.043,6.158 1.717,5.117 2.527 L 3.224 4.000 2.293 4.000 C 1.245 4.001,1.138 4.013,0.825 4.166 C 0.566 4.293,0.292 4.567,0.167 4.825 C -0.007 5.182,0.000 5.074,0.000 7.489 C 0.000 9.576,0.002 9.675,0.049 9.860 C 0.122 10.143,0.233 10.334,0.449 10.551 C 0.666 10.767,0.857 10.878,1.140 10.951 C 1.315 10.996,1.419 11.000,2.276 11.000 L 3.220 11.000 5.102 12.464 C 6.138 13.270,7.007 13.940,7.033 13.955 C 7.060 13.969,7.145 13.986,7.222 13.992 C 7.400 14.007,7.553 13.932,7.663 13.777 L 7.738 13.671 7.738 7.500 L 7.738 1.329 7.663 1.223 C 7.621 1.165,7.544 1.094,7.491 1.067 C 7.378 1.009,7.195 0.991,7.086 1.028 M12.180 1.342 C 12.076 1.393,11.975 1.562,11.975 1.685 C 11.975 1.803,12.023 1.895,12.199 2.113 C 13.206 3.354,13.829 4.844,14.041 6.513 C 14.102 6.998,14.102 8.002,14.041 8.488 C 13.829 10.156,13.206 11.646,12.199 12.888 C 12.121 12.984,12.039 13.099,12.016 13.143 C 11.887 13.394,12.088 13.708,12.377 13.704 C 12.565 13.702,12.670 13.606,13.076 13.061 C 13.770 12.129,14.304 10.997,14.608 9.813 C 14.817 9.000,14.886 8.421,14.886 7.500 C 14.886 6.959,14.875 6.703,14.841 6.438 C 14.657 5.008,14.245 3.804,13.533 2.619 C 13.229 2.112,12.719 1.441,12.568 1.349 C 12.469 1.289,12.294 1.286,12.180 1.342 M6.744 9.985 L 6.738 12.469 5.213 11.283 C 4.374 10.630,3.654 10.077,3.613 10.054 C 3.547 10.018,3.402 10.011,2.438 10.000 L 1.338 9.988 1.242 9.928 C 1.190 9.896,1.116 9.823,1.080 9.767 L 1.012 9.666 1.012 7.500 L 1.012 5.334 1.080 5.233 C 1.116 5.177,1.190 5.104,1.242 5.072 L 1.338 5.013 2.438 5.000 L 3.538 4.988 3.650 4.920 C 3.712 4.882,4.432 4.330,5.250 3.692 L 6.738 2.533 6.744 5.017 C 6.747 6.382,6.747 8.618,6.744 9.985 M10.363 3.812 C 10.182 3.876,10.072 4.067,10.109 4.251 C 10.117 4.292,10.203 4.460,10.300 4.624 C 10.845 5.543,11.085 6.426,11.085 7.500 C 11.085 8.572,10.844 9.457,10.302 10.373 C 10.206 10.535,10.120 10.698,10.111 10.734 C 10.065 10.918,10.213 11.147,10.409 11.196 C 10.607 11.246,10.747 11.173,10.896 10.942 C 11.812 9.515,12.115 7.756,11.736 6.064 C 11.581 5.373,11.242 4.572,10.870 4.019 C 10.730 3.810,10.559 3.741,10.363 3.812 " fill="currentColor" stroke="none" fill-rule="evenodd"></path></svg>