<svg width="15" height="15" fill="none" xmlns="http://www.w3.org/2000/svg"><path d="M7.338 1.029 C 7.296 1.044,6.378 1.719,5.298 2.528 L 3.333 4.000 2.348 4.000 C 1.240 4.001,1.140 4.012,0.825 4.166 C 0.566 4.293,0.292 4.567,0.167 4.825 C -0.007 5.182,0.000 5.074,0.000 7.489 C 0.000 9.576,0.002 9.675,0.049 9.860 C 0.122 10.143,0.233 10.334,0.449 10.551 C 0.666 10.767,0.857 10.878,1.140 10.951 C 1.316 10.996,1.419 11.000,2.333 11.000 L 3.333 11.000 5.314 12.486 C 7.090 13.817,7.308 13.973,7.411 13.989 C 7.628 14.021,7.803 13.945,7.920 13.767 L 7.988 13.666 7.988 7.498 L 7.988 1.329 7.913 1.223 C 7.871 1.165,7.794 1.094,7.741 1.067 C 7.626 1.008,7.442 0.990,7.338 1.029 M7.000 7.500 L 7.000 12.500 5.394 11.295 C 4.510 10.632,3.754 10.073,3.713 10.051 C 3.649 10.018,3.461 10.011,2.488 10.000 L 1.338 9.988 1.242 9.928 C 1.190 9.896,1.116 9.823,1.080 9.767 L 1.012 9.666 1.012 7.500 L 1.012 5.334 1.080 5.233 C 1.116 5.177,1.190 5.104,1.242 5.072 L 1.338 5.013 2.503 5.000 L 3.669 4.988 3.803 4.894 C 3.877 4.842,4.624 4.283,5.463 3.652 C 6.301 3.020,6.990 2.503,6.994 2.502 C 6.997 2.501,7.000 4.750,7.000 7.500 M10.364 5.017 C 10.274 5.042,10.125 5.156,10.075 5.238 C 10.008 5.345,9.988 5.512,10.025 5.650 C 10.051 5.751,10.146 5.854,10.920 6.631 L 11.786 7.500 10.920 8.369 C 10.146 9.146,10.051 9.249,10.025 9.350 C 9.919 9.747,10.253 10.081,10.650 9.975 C 10.751 9.949,10.854 9.854,11.631 9.080 L 12.500 8.214 13.369 9.080 C 14.146 9.854,14.249 9.949,14.350 9.975 C 14.764 10.085,15.122 9.693,14.961 9.305 C 14.935 9.243,14.641 8.930,14.068 8.356 L 13.213 7.500 14.068 6.644 C 14.641 6.070,14.935 5.757,14.961 5.695 C 15.052 5.476,14.974 5.224,14.773 5.088 C 14.678 5.023,14.640 5.013,14.500 5.013 C 14.384 5.013,14.316 5.027,14.263 5.061 C 14.221 5.087,13.808 5.486,13.344 5.948 L 12.500 6.787 11.669 5.960 C 11.212 5.505,10.801 5.107,10.756 5.077 C 10.674 5.021,10.463 4.989,10.364 5.017 " fill="currentColor" stroke="none" fill-rule="evenodd"></path></svg>