<svg width="15" height="15" fill="none" xmlns="http://www.w3.org/2000/svg"><path d="M7.338 1.029 C 7.296 1.044,6.378 1.719,5.298 2.528 L 3.333 4.000 2.348 4.000 C 1.240 4.001,1.140 4.012,0.825 4.166 C 0.687 4.234,0.587 4.308,0.449 4.448 C 0.233 4.666,0.121 4.859,0.049 5.140 C 0.002 5.325,0.000 5.424,0.000 7.500 C 0.000 9.576,0.002 9.675,0.049 9.860 C 0.122 10.143,0.233 10.334,0.449 10.551 C 0.666 10.767,0.857 10.878,1.140 10.951 C 1.316 10.996,1.419 11.000,2.333 11.000 L 3.333 11.000 5.314 12.486 C 7.090 13.817,7.308 13.973,7.411 13.989 C 7.628 14.021,7.803 13.945,7.920 13.767 L 7.988 13.666 7.988 7.498 L 7.988 1.329 7.913 1.223 C 7.871 1.165,7.794 1.094,7.741 1.067 C 7.626 1.008,7.442 0.990,7.338 1.029 M7.000 7.500 L 7.000 12.500 5.394 11.295 C 4.510 10.632,3.754 10.073,3.713 10.051 C 3.649 10.018,3.461 10.011,2.488 10.000 L 1.338 9.988 1.242 9.928 C 1.190 9.896,1.116 9.823,1.080 9.767 L 1.012 9.666 1.012 7.500 L 1.012 5.334 1.080 5.233 C 1.116 5.177,1.190 5.104,1.242 5.072 L 1.338 5.013 2.503 5.000 L 3.669 4.988 3.803 4.894 C 3.877 4.842,4.624 4.283,5.463 3.652 C 6.301 3.020,6.990 2.503,6.994 2.502 C 6.997 2.501,7.000 4.750,7.000 7.500 M10.300 3.856 C 10.163 3.949,10.112 4.037,10.113 4.183 C 10.113 4.299,10.132 4.344,10.295 4.618 C 10.842 5.534,11.085 6.421,11.085 7.500 C 11.085 8.579,10.842 9.467,10.295 10.382 C 10.128 10.662,10.113 10.699,10.113 10.825 C 10.112 10.994,10.185 11.109,10.335 11.177 C 10.464 11.236,10.536 11.236,10.666 11.177 C 10.781 11.125,10.877 10.998,11.095 10.608 C 11.856 9.250,12.085 7.623,11.736 6.064 C 11.616 5.530,11.368 4.879,11.108 4.415 C 10.915 4.070,10.798 3.903,10.713 3.850 C 10.599 3.780,10.408 3.782,10.300 3.856 " fill="currentColor" stroke="none" fill-rule="evenodd"></path></svg>