<svg width="15" height="15" fill="none" xmlns="http://www.w3.org/2000/svg"><path d="M7.288 1.810 C 6.992 1.949,1.659 5.125,1.608 5.192 C 1.578 5.231,1.539 5.316,1.521 5.381 C 1.483 5.524,1.518 5.692,1.611 5.812 C 1.685 5.908,7.228 9.188,7.389 9.231 C 7.474 9.253,7.526 9.253,7.609 9.231 C 7.767 9.189,13.316 5.907,13.389 5.812 C 13.482 5.692,13.517 5.524,13.479 5.381 C 13.461 5.316,13.422 5.231,13.392 5.192 C 13.341 5.125,8.008 1.949,7.713 1.810 C 7.644 1.777,7.548 1.750,7.500 1.750 C 7.452 1.750,7.356 1.777,7.288 1.810 M9.765 4.169 C 10.994 4.894,11.999 5.493,11.999 5.500 C 11.999 5.507,10.987 6.111,9.750 6.842 L 7.500 8.171 5.250 6.842 C 4.013 6.111,3.001 5.507,3.001 5.500 C 3.001 5.479,7.460 2.852,7.497 2.851 C 7.515 2.850,8.536 3.443,9.765 4.169 M12.850 8.268 C 12.829 8.276,11.617 8.989,10.156 9.852 L 7.500 11.422 4.919 9.896 C 3.499 9.057,2.296 8.349,2.245 8.323 C 2.135 8.266,1.934 8.260,1.818 8.310 C 1.714 8.354,1.589 8.490,1.553 8.597 C 1.491 8.783,1.546 8.996,1.691 9.128 C 1.810 9.237,7.269 12.449,7.389 12.481 C 7.474 12.503,7.526 12.503,7.609 12.481 C 7.758 12.441,13.290 9.173,13.392 9.064 C 13.557 8.889,13.564 8.609,13.408 8.425 C 13.313 8.311,13.175 8.250,13.020 8.252 C 12.947 8.253,12.871 8.260,12.850 8.268 " fill="currentColor" stroke="none" fill-rule="evenodd"></path></svg>