<svg width="15" height="15" fill="none" xmlns="http://www.w3.org/2000/svg"><path d="M7.388 0.510 C 7.346 0.528,7.294 0.564,7.272 0.590 C 7.250 0.616,6.859 1.538,6.403 2.638 C 5.503 4.808,5.528 4.758,5.320 4.786 C 5.261 4.793,4.279 4.873,3.138 4.962 C 0.849 5.142,0.928 5.130,0.841 5.309 C 0.740 5.515,0.671 5.444,2.507 7.014 C 3.418 7.792,4.182 8.459,4.206 8.496 C 4.230 8.532,4.250 8.597,4.250 8.638 C 4.250 8.680,4.025 9.656,3.750 10.807 C 3.475 11.958,3.250 12.923,3.250 12.951 C 3.250 13.028,3.314 13.137,3.388 13.185 C 3.553 13.294,3.497 13.322,5.517 12.086 C 7.250 11.024,7.396 10.940,7.500 10.940 C 7.605 10.939,7.742 11.019,9.479 12.082 C 11.191 13.131,11.354 13.225,11.454 13.225 C 11.515 13.225,11.589 13.207,11.620 13.186 C 11.686 13.140,11.750 13.023,11.750 12.950 C 11.750 12.921,11.525 11.954,11.250 10.801 C 10.975 9.647,10.750 8.674,10.750 8.637 C 10.750 8.600,10.768 8.540,10.790 8.504 C 10.813 8.467,11.577 7.798,12.490 7.017 C 14.329 5.443,14.260 5.514,14.159 5.309 C 14.072 5.130,14.151 5.142,11.863 4.962 C 10.721 4.873,9.739 4.793,9.680 4.786 C 9.612 4.777,9.545 4.747,9.499 4.704 C 9.443 4.652,9.244 4.195,8.598 2.638 C 8.141 1.538,7.750 0.616,7.728 0.590 C 7.686 0.541,7.550 0.474,7.495 0.476 C 7.477 0.477,7.429 0.492,7.388 0.510 M7.948 3.682 C 8.608 5.283,8.638 5.338,8.958 5.556 C 9.241 5.748,9.322 5.762,10.800 5.880 C 11.529 5.939,12.125 5.993,12.125 6.001 C 12.125 6.009,11.679 6.397,11.134 6.863 C 10.589 7.330,10.100 7.761,10.047 7.822 C 9.858 8.036,9.751 8.337,9.751 8.650 C 9.751 8.804,9.807 9.072,10.061 10.137 C 10.232 10.852,10.368 11.440,10.365 11.444 C 10.361 11.448,9.858 11.145,9.248 10.772 C 8.637 10.398,8.077 10.066,8.004 10.033 C 7.704 9.899,7.279 9.900,6.989 10.034 C 6.919 10.066,6.363 10.398,5.752 10.771 C 5.141 11.144,4.638 11.447,4.635 11.443 C 4.631 11.440,4.768 10.852,4.939 10.137 C 5.193 9.072,5.249 8.804,5.249 8.650 C 5.249 8.337,5.142 8.036,4.953 7.822 C 4.900 7.761,4.411 7.330,3.866 6.863 C 3.321 6.397,2.875 6.009,2.875 6.001 C 2.875 5.993,3.471 5.939,4.200 5.880 C 5.678 5.762,5.759 5.748,6.042 5.556 C 6.362 5.338,6.392 5.283,7.052 3.682 C 7.292 3.101,7.493 2.626,7.500 2.626 C 7.507 2.626,7.708 3.101,7.948 3.682 " fill="currentColor" stroke="none" fill-rule="evenodd"></path></svg>