<svg width="15" height="15" fill="none" xmlns="http://www.w3.org/2000/svg"><path d="M7.388 0.510 C 7.346 0.528,7.294 0.564,7.272 0.590 C 7.250 0.616,6.859 1.538,6.402 2.638 C 5.756 4.195,5.557 4.652,5.501 4.704 C 5.455 4.747,5.388 4.777,5.320 4.786 C 5.261 4.794,4.279 4.873,3.138 4.962 C 0.848 5.141,0.928 5.129,0.841 5.309 C 0.740 5.515,0.671 5.444,2.507 7.014 C 3.418 7.792,4.182 8.459,4.206 8.496 C 4.230 8.532,4.250 8.597,4.250 8.639 C 4.250 8.681,4.025 9.657,3.750 10.809 C 3.475 11.960,3.250 12.925,3.250 12.953 C 3.250 13.028,3.315 13.137,3.388 13.185 C 3.553 13.294,3.497 13.323,5.517 12.085 C 7.251 11.024,7.396 10.940,7.500 10.940 C 7.605 10.939,7.743 11.019,9.484 12.086 C 11.466 13.299,11.440 13.285,11.597 13.202 C 11.668 13.164,11.750 13.030,11.750 12.952 C 11.750 12.919,11.525 11.950,11.250 10.798 C 10.975 9.647,10.750 8.674,10.750 8.637 C 10.750 8.600,10.768 8.540,10.790 8.504 C 10.813 8.467,11.577 7.798,12.490 7.017 C 14.328 5.444,14.260 5.514,14.159 5.309 C 14.072 5.131,14.167 5.145,11.875 4.964 C 10.727 4.874,9.739 4.793,9.680 4.786 C 9.612 4.777,9.545 4.747,9.499 4.704 C 9.443 4.652,9.244 4.196,8.597 2.638 C 8.141 1.538,7.750 0.616,7.728 0.590 C 7.686 0.541,7.550 0.474,7.495 0.476 C 7.477 0.477,7.429 0.492,7.388 0.510 " fill="currentColor" stroke="none" fill-rule="evenodd"></path></svg>