<svg width="15" height="15" fill="none" xmlns="http://www.w3.org/2000/svg"><path d="M7.063 0.864 C 5.920 0.972,5.032 1.242,4.182 1.739 C 1.745 3.164,0.469 5.894,0.951 8.650 C 1.432 11.396,3.604 13.568,6.350 14.049 C 9.505 14.601,12.624 12.812,13.734 9.813 C 14.864 6.760,13.624 3.351,10.792 1.726 C 10.050 1.300,9.281 1.040,8.387 0.912 C 8.126 0.875,7.275 0.844,7.063 0.864 M8.223 1.895 L 8.333 1.913 5.298 3.665 C 3.628 4.629,2.258 5.414,2.252 5.409 C 2.232 5.392,2.626 4.630,2.769 4.413 C 3.106 3.897,3.602 3.365,4.085 3.002 C 4.932 2.366,5.895 1.988,6.960 1.875 C 7.175 1.852,8.037 1.866,8.223 1.895 M10.001 2.444 C 10.212 2.550,10.383 2.649,10.383 2.663 C 10.382 2.676,8.875 3.557,7.034 4.619 C 5.127 5.719,3.664 6.579,3.633 6.617 C 3.506 6.773,3.509 7.017,3.640 7.174 C 3.676 7.216,4.494 7.814,5.458 8.504 C 6.423 9.194,7.237 9.777,7.266 9.800 C 7.319 9.840,7.274 9.868,5.624 10.821 C 4.690 11.360,3.911 11.807,3.892 11.814 C 3.846 11.832,3.424 11.429,3.171 11.127 C 2.881 10.779,2.645 10.414,2.436 9.988 C 2.077 9.257,1.899 8.558,1.859 7.725 C 1.841 7.349,1.886 6.705,1.933 6.658 C 1.986 6.604,9.536 2.252,9.578 2.251 C 9.600 2.250,9.791 2.337,10.001 2.444 M11.456 3.469 C 12.399 4.388,12.999 5.657,13.127 7.000 C 13.160 7.343,13.143 7.986,13.092 8.299 L 13.063 8.486 9.825 10.355 C 8.044 11.383,6.359 12.356,6.079 12.516 C 5.572 12.808,5.571 12.809,5.479 12.777 C 5.349 12.732,4.700 12.419,4.701 12.402 C 4.701 12.394,4.929 12.257,5.207 12.098 C 7.053 11.042,11.302 8.583,11.371 8.531 C 11.464 8.462,11.549 8.301,11.549 8.193 C 11.550 8.104,11.488 7.954,11.419 7.881 C 11.390 7.850,10.574 7.238,9.608 6.521 C 8.641 5.804,7.850 5.211,7.850 5.202 C 7.850 5.186,11.175 3.256,11.209 3.252 C 11.222 3.251,11.332 3.348,11.456 3.469 M8.629 6.914 C 9.514 7.569,10.245 8.113,10.255 8.122 C 10.265 8.130,10.134 8.218,9.965 8.316 L 9.657 8.494 8.022 7.282 C 7.123 6.616,6.385 6.063,6.382 6.054 C 6.372 6.029,6.959 5.700,6.992 5.712 C 7.008 5.717,7.745 6.258,8.629 6.914 M7.163 7.765 C 8.064 8.434,8.799 8.984,8.795 8.988 C 8.791 8.992,8.651 9.074,8.483 9.170 L 8.179 9.345 6.521 8.158 C 5.609 7.506,4.854 6.964,4.844 6.954 C 4.828 6.938,5.461 6.552,5.505 6.550 C 5.515 6.550,6.261 7.097,7.163 7.765 M12.550 10.026 C 11.680 11.759,10.011 12.913,8.070 13.124 C 7.657 13.168,6.841 13.149,6.894 13.096 C 6.926 13.064,12.661 9.754,12.670 9.763 C 12.675 9.767,12.620 9.885,12.550 10.026 " fill="currentColor" stroke="none" fill-rule="evenodd"></path></svg>