<svg width="15" height="15" fill="none" xmlns="http://www.w3.org/2000/svg"><path d="M2.765 2.028 C 2.409 2.112,2.102 2.430,2.024 2.794 C 2.008 2.872,2.001 4.518,2.006 7.575 C 2.012 12.156,2.013 12.240,2.062 12.357 C 2.169 12.615,2.404 12.845,2.657 12.939 C 2.785 12.986,2.895 12.988,7.514 12.988 L 12.240 12.988 12.429 12.894 C 12.657 12.782,12.798 12.637,12.908 12.404 L 12.988 12.238 12.988 7.500 L 12.988 2.763 12.908 2.596 C 12.798 2.363,12.657 2.218,12.429 2.106 L 12.240 2.013 7.551 2.009 C 4.777 2.006,2.823 2.014,2.765 2.028 M12.000 7.500 L 12.000 12.000 7.500 12.000 L 3.000 12.000 3.000 7.500 L 3.000 3.000 7.500 3.000 L 12.000 3.000 12.000 7.500 " fill="currentColor" stroke="none" fill-rule="evenodd"></path></svg>