<svg width="15" height="15" fill="none" xmlns="http://www.w3.org/2000/svg"><path d="M5.842 0.025 C 5.651 0.083,5.500 0.295,5.500 0.504 C 5.500 0.655,5.589 0.818,5.723 0.913 L 5.829 0.988 6.415 0.995 L 7.000 1.003 7.000 1.561 L 7.000 2.119 6.844 2.135 C 5.382 2.291,4.029 2.935,2.984 3.971 C 1.430 5.512,0.784 7.722,1.253 9.896 C 1.447 10.797,1.914 11.764,2.517 12.513 C 3.532 13.771,4.975 14.591,6.613 14.841 C 7.034 14.905,7.966 14.905,8.388 14.841 C 8.764 14.783,9.364 14.632,9.689 14.513 C 10.044 14.383,10.693 14.058,11.000 13.857 C 11.516 13.518,12.072 13.016,12.462 12.538 C 13.035 11.835,13.490 10.923,13.710 10.038 C 13.941 9.110,13.959 8.107,13.761 7.175 C 13.524 6.060,12.945 4.945,12.191 4.157 L 11.967 3.923 12.405 3.480 C 12.774 3.107,12.849 3.018,12.884 2.914 C 12.965 2.672,12.912 2.436,12.738 2.262 C 12.564 2.088,12.328 2.035,12.086 2.116 C 11.981 2.151,11.890 2.229,11.472 2.643 L 10.981 3.128 10.809 3.023 C 10.061 2.563,9.075 2.233,8.156 2.135 L 8.000 2.119 8.000 1.561 L 8.000 1.003 8.583 0.995 L 9.166 0.988 9.268 0.920 C 9.424 0.817,9.488 0.695,9.488 0.500 C 9.488 0.305,9.424 0.183,9.268 0.080 L 9.166 0.013 7.539 0.008 C 6.645 0.006,5.881 0.013,5.842 0.025 M8.300 3.162 C 9.494 3.355,10.479 3.853,11.313 4.687 C 12.151 5.526,12.660 6.536,12.841 7.725 C 12.923 8.258,12.900 9.027,12.785 9.600 C 12.388 11.576,10.824 13.220,8.863 13.725 C 8.359 13.854,8.088 13.886,7.500 13.886 C 6.912 13.886,6.641 13.854,6.138 13.725 C 4.173 13.220,2.611 11.576,2.216 9.600 C 2.132 9.176,2.115 8.995,2.115 8.500 C 2.115 8.005,2.132 7.824,2.216 7.400 C 2.487 6.044,3.332 4.791,4.499 4.015 C 5.278 3.496,6.083 3.216,7.088 3.115 C 7.290 3.094,8.070 3.125,8.300 3.162 M7.342 4.024 C 7.227 4.061,7.109 4.166,7.053 4.282 C 7.000 4.390,7.000 4.399,7.000 7.004 L 7.000 9.617 7.058 9.727 C 7.090 9.788,7.164 9.871,7.223 9.913 C 7.316 9.978,7.351 9.988,7.498 9.988 C 7.639 9.988,7.683 9.977,7.767 9.920 C 7.823 9.884,7.896 9.810,7.928 9.758 L 7.988 9.663 7.988 7.000 L 7.988 4.338 7.928 4.242 C 7.843 4.106,7.708 4.024,7.546 4.012 C 7.473 4.006,7.381 4.012,7.342 4.024 " fill="currentColor" stroke="none" fill-rule="evenodd"></path></svg>