<svg width="15" height="15" fill="none" xmlns="http://www.w3.org/2000/svg"><path d="M0.342 1.024 C 0.227 1.061,0.109 1.166,0.053 1.282 L 0.000 1.391 -0.000 7.504 L -0.000 13.617 0.058 13.727 C 0.090 13.788,0.164 13.871,0.223 13.913 C 0.315 13.978,0.351 13.988,0.496 13.988 C 0.695 13.988,0.816 13.925,0.920 13.768 L 0.988 13.666 0.994 11.333 L 1.001 9.000 7.501 9.000 L 14.000 9.000 14.000 11.309 L 14.000 13.617 14.058 13.727 C 14.090 13.788,14.164 13.871,14.223 13.913 C 14.315 13.978,14.351 13.988,14.496 13.988 C 14.695 13.988,14.816 13.925,14.920 13.767 L 14.988 13.666 14.988 7.502 L 14.988 1.338 14.928 1.242 C 14.896 1.190,14.823 1.116,14.767 1.080 C 14.683 1.023,14.639 1.012,14.498 1.012 C 14.351 1.012,14.316 1.022,14.223 1.088 C 14.164 1.129,14.090 1.212,14.058 1.273 L 14.000 1.383 14.000 3.691 L 14.000 6.000 7.501 6.000 L 1.001 6.000 0.994 3.669 L 0.988 1.338 0.928 1.242 C 0.843 1.106,0.708 1.024,0.546 1.012 C 0.473 1.006,0.381 1.012,0.342 1.024 " fill="currentColor" stroke="none" fill-rule="evenodd"></path></svg>