<svg width="15" height="15" fill="none" xmlns="http://www.w3.org/2000/svg"><path d="M1.342 0.025 C 1.152 0.083,1.000 0.295,1.000 0.504 C 1.000 0.655,1.089 0.818,1.223 0.913 L 1.329 0.988 3.665 0.994 L 6.000 1.001 6.000 7.500 L 6.000 13.999 3.665 14.006 L 1.329 14.013 1.223 14.088 C 0.929 14.294,0.929 14.706,1.223 14.913 L 1.329 14.988 7.496 14.988 L 13.663 14.988 13.758 14.928 C 13.810 14.896,13.884 14.823,13.920 14.767 C 13.976 14.683,13.988 14.638,13.988 14.500 C 13.988 14.362,13.976 14.317,13.920 14.233 C 13.884 14.177,13.810 14.104,13.758 14.072 L 13.663 14.013 11.331 14.006 L 9.000 13.999 9.000 7.500 L 9.000 1.001 11.331 0.994 L 13.663 0.988 13.758 0.928 C 13.810 0.896,13.884 0.823,13.920 0.767 C 13.976 0.683,13.988 0.638,13.988 0.500 C 13.988 0.362,13.976 0.317,13.920 0.233 C 13.884 0.177,13.810 0.104,13.758 0.072 L 13.663 0.013 7.538 0.008 C 4.169 0.006,1.381 0.014,1.342 0.025 " fill="currentColor" stroke="none" fill-rule="evenodd"></path></svg>