<svg width="15" height="15" fill="none" xmlns="http://www.w3.org/2000/svg"><path d="M4.342 2.774 C 4.227 2.811,4.109 2.916,4.053 3.032 C 4.001 3.140,4.000 3.160,4.000 5.119 L 4.000 7.098 3.179 7.105 L 2.359 7.113 2.264 7.185 C 2.040 7.356,2.050 7.660,2.285 7.836 C 2.350 7.885,2.390 7.888,3.174 7.895 L 3.994 7.902 4.007 8.470 C 4.021 9.088,4.043 9.230,4.188 9.667 C 4.353 10.164,4.597 10.566,4.972 10.956 C 5.495 11.501,6.093 11.831,6.850 11.992 C 7.148 12.056,7.852 12.056,8.150 11.992 C 8.907 11.831,9.505 11.501,10.028 10.956 C 10.403 10.566,10.647 10.164,10.812 9.667 C 10.957 9.230,10.979 9.088,10.993 8.470 L 11.006 7.902 11.826 7.895 C 12.610 7.888,12.650 7.885,12.715 7.836 C 12.824 7.755,12.880 7.664,12.893 7.546 C 12.909 7.401,12.855 7.275,12.736 7.185 L 12.641 7.113 11.821 7.105 L 11.001 7.098 10.994 5.091 L 10.988 3.084 10.920 2.982 C 10.816 2.825,10.695 2.763,10.496 2.763 C 10.351 2.763,10.315 2.772,10.223 2.838 C 10.164 2.879,10.090 2.962,10.058 3.023 L 10.000 3.133 10.000 5.116 L 10.000 7.100 7.501 7.100 L 5.001 7.100 4.994 5.094 L 4.988 3.088 4.928 2.992 C 4.843 2.856,4.708 2.774,4.546 2.762 C 4.473 2.756,4.381 2.762,4.342 2.774 M9.993 8.419 C 9.978 9.023,9.939 9.222,9.765 9.589 C 9.429 10.299,8.871 10.769,8.128 10.969 C 7.918 11.026,7.839 11.034,7.500 11.034 C 7.161 11.034,7.082 11.026,6.872 10.969 C 6.129 10.769,5.571 10.299,5.235 9.589 C 5.061 9.222,5.022 9.023,5.007 8.419 L 4.994 7.900 7.500 7.900 L 10.006 7.900 9.993 8.419 " fill="currentColor" stroke="none" fill-rule="evenodd"></path></svg>