<svg width="15" height="15" fill="none" xmlns="http://www.w3.org/2000/svg"><path d="M7.342 0.024 C 7.227 0.061,7.109 0.166,7.053 0.282 C 7.002 0.388,7.000 0.424,7.000 1.504 L 7.000 2.617 7.058 2.727 C 7.090 2.788,7.164 2.871,7.223 2.913 C 7.316 2.978,7.351 2.988,7.498 2.988 C 7.639 2.988,7.683 2.977,7.767 2.920 C 7.823 2.884,7.896 2.810,7.928 2.758 L 7.988 2.663 7.988 1.500 L 7.988 0.338 7.928 0.242 C 7.843 0.106,7.708 0.024,7.546 0.012 C 7.473 0.006,7.381 0.012,7.342 0.024 M2.333 2.113 C 2.109 2.225,2.009 2.453,2.075 2.700 C 2.102 2.800,2.191 2.899,2.870 3.582 C 3.391 4.105,3.670 4.368,3.744 4.403 C 3.903 4.480,4.116 4.461,4.242 4.359 C 4.387 4.242,4.432 4.166,4.444 4.016 C 4.466 3.762,4.460 3.754,3.641 2.930 C 2.854 2.139,2.743 2.050,2.550 2.050 C 2.500 2.050,2.403 2.078,2.333 2.113 M12.250 2.090 C 12.140 2.137,10.697 3.570,10.607 3.721 C 10.497 3.906,10.537 4.193,10.691 4.328 C 10.855 4.472,11.100 4.499,11.279 4.393 C 11.439 4.298,12.864 2.859,12.911 2.745 C 12.988 2.561,12.937 2.311,12.797 2.182 C 12.658 2.055,12.423 2.015,12.250 2.090 M7.213 4.514 C 6.470 4.616,5.923 4.867,5.433 5.332 C 4.093 6.605,4.220 8.780,5.700 9.897 C 7.171 11.007,9.312 10.520,10.158 8.881 C 11.073 7.109,10.054 4.974,8.096 4.562 C 7.916 4.524,7.361 4.494,7.213 4.514 M7.850 5.536 C 8.894 5.726,9.612 6.692,9.481 7.731 C 9.379 8.538,8.860 9.159,8.075 9.415 C 7.883 9.477,7.828 9.484,7.500 9.484 C 7.172 9.484,7.117 9.477,6.925 9.415 C 6.139 9.159,5.622 8.540,5.519 7.731 C 5.352 6.416,6.539 5.298,7.850 5.536 M0.342 7.025 C 0.151 7.084,-0.000 7.295,0.000 7.504 C 0.000 7.655,0.089 7.818,0.223 7.913 L 0.329 7.988 1.496 7.988 L 2.663 7.988 2.758 7.928 C 2.810 7.896,2.884 7.823,2.920 7.767 C 2.976 7.683,2.988 7.638,2.988 7.500 C 2.988 7.362,2.976 7.317,2.920 7.233 C 2.884 7.177,2.810 7.104,2.758 7.072 L 2.663 7.013 1.538 7.008 C 0.919 7.005,0.381 7.013,0.342 7.025 M12.342 7.025 C 12.151 7.084,12.000 7.295,12.000 7.504 C 12.000 7.655,12.089 7.818,12.223 7.913 L 12.329 7.988 13.496 7.988 L 14.663 7.988 14.758 7.928 C 14.810 7.896,14.884 7.823,14.920 7.767 C 14.976 7.683,14.988 7.638,14.988 7.500 C 14.988 7.362,14.976 7.317,14.920 7.233 C 14.884 7.177,14.810 7.104,14.758 7.072 L 14.663 7.013 13.538 7.008 C 12.919 7.005,12.381 7.013,12.342 7.025 M3.822 10.559 C 3.677 10.611,3.625 10.658,2.846 11.442 C 2.077 12.216,2.050 12.249,2.050 12.450 C 2.050 12.747,2.334 12.984,2.636 12.939 C 2.793 12.915,2.874 12.845,3.702 12.009 C 4.347 11.359,4.420 11.276,4.449 11.170 C 4.502 10.972,4.447 10.793,4.289 10.655 C 4.151 10.533,3.988 10.500,3.822 10.559 M10.813 10.592 C 10.701 10.651,10.650 10.702,10.594 10.812 C 10.520 10.956,10.526 11.142,10.607 11.279 C 10.702 11.439,12.141 12.864,12.255 12.911 C 12.431 12.985,12.658 12.945,12.797 12.818 C 12.937 12.689,12.988 12.439,12.911 12.255 C 12.866 12.146,11.475 10.735,11.301 10.622 C 11.209 10.562,11.164 10.550,11.039 10.551 C 10.951 10.552,10.856 10.569,10.813 10.592 M7.342 12.024 C 7.227 12.061,7.109 12.166,7.053 12.282 C 7.002 12.388,7.000 12.424,7.000 13.504 L 7.000 14.617 7.058 14.727 C 7.090 14.788,7.164 14.871,7.223 14.913 C 7.316 14.978,7.351 14.988,7.498 14.988 C 7.639 14.988,7.683 14.977,7.767 14.920 C 7.823 14.884,7.896 14.810,7.928 14.758 L 7.988 14.663 7.988 13.500 L 7.988 12.338 7.928 12.242 C 7.843 12.106,7.708 12.024,7.546 12.012 C 7.473 12.006,7.381 12.012,7.342 12.024 " fill="currentColor" stroke="none" fill-rule="evenodd"></path></svg>