<svg width="15" height="15" fill="none" xmlns="http://www.w3.org/2000/svg"><path d="M4.028 3.029 C 3.510 3.083,3.036 3.218,2.555 3.450 C 1.264 4.072,0.385 5.200,0.081 6.624 C 0.021 6.907,0.014 6.989,0.014 7.463 C 0.013 8.024,0.030 8.172,0.151 8.644 C 0.601 10.399,2.113 11.725,3.933 11.962 C 4.382 12.020,10.625 12.019,11.077 11.960 C 12.654 11.756,14.029 10.713,14.641 9.256 C 15.573 7.040,14.620 4.506,12.463 3.459 C 11.958 3.214,11.517 3.089,10.945 3.026 C 10.647 2.994,4.340 2.996,4.028 3.029 M7.477 4.169 C 6.491 5.063,5.953 6.351,6.009 7.688 C 6.057 8.870,6.559 9.967,7.420 10.775 L 7.662 11.002 5.837 10.993 C 3.817 10.983,3.922 10.991,3.376 10.810 C 2.841 10.632,2.390 10.342,1.974 9.908 C 1.504 9.417,1.216 8.869,1.071 8.192 C 0.993 7.828,0.993 7.172,1.071 6.808 C 1.215 6.132,1.504 5.583,1.972 5.094 C 2.240 4.815,2.465 4.638,2.787 4.453 C 3.165 4.236,3.647 4.077,4.071 4.028 C 4.176 4.016,5.027 4.005,5.963 4.004 L 7.663 4.001 7.477 4.169 M11.150 4.063 C 11.607 4.151,12.069 4.342,12.475 4.612 C 12.716 4.772,13.228 5.284,13.388 5.525 C 13.659 5.933,13.847 6.388,13.941 6.863 C 14.002 7.173,14.002 7.827,13.941 8.137 C 13.804 8.827,13.504 9.408,13.026 9.908 C 12.506 10.450,11.906 10.781,11.150 10.942 C 10.852 11.006,10.148 11.006,9.850 10.942 C 9.094 10.781,8.494 10.450,7.974 9.908 C 7.504 9.417,7.216 8.869,7.071 8.192 C 6.993 7.828,6.993 7.172,7.071 6.808 C 7.215 6.132,7.504 5.583,7.972 5.094 C 8.240 4.815,8.465 4.638,8.787 4.453 C 9.162 4.238,9.636 4.081,10.071 4.027 C 10.330 3.995,10.890 4.014,11.150 4.063 " fill="currentColor" stroke="none" fill-rule="evenodd"></path></svg>