<svg width="15" height="15" fill="none" xmlns="http://www.w3.org/2000/svg"><path d="M2.175 1.039 C 1.902 1.098,1.663 1.233,1.449 1.448 C 1.233 1.666,1.121 1.859,1.049 2.140 C 1.001 2.329,1.000 2.436,1.000 7.500 C 1.000 12.564,1.001 12.671,1.049 12.860 C 1.122 13.143,1.233 13.334,1.449 13.551 C 1.666 13.767,1.857 13.878,2.140 13.951 C 2.329 13.999,2.436 14.000,7.500 14.000 C 12.564 14.000,12.671 13.999,12.860 13.951 C 13.143 13.878,13.334 13.767,13.551 13.551 C 13.767 13.334,13.878 13.143,13.951 12.860 C 13.999 12.671,14.000 12.564,14.000 7.500 C 14.000 2.436,13.999 2.329,13.951 2.140 C 13.879 1.859,13.767 1.666,13.551 1.448 C 13.334 1.229,13.096 1.097,12.813 1.038 C 12.556 0.984,2.425 0.985,2.175 1.039 M7.000 3.500 L 7.000 5.000 4.500 5.000 L 2.000 5.000 2.000 3.719 C 2.000 2.894,2.010 2.404,2.027 2.342 C 2.059 2.226,2.219 2.060,2.330 2.028 C 2.379 2.014,3.342 2.004,4.706 2.002 L 7.000 2.000 7.000 3.500 M12.758 2.072 C 12.810 2.104,12.884 2.177,12.920 2.232 L 12.988 2.334 12.995 3.667 L 13.002 5.000 10.501 5.000 L 8.000 5.000 8.000 3.499 L 8.000 1.999 10.331 2.006 L 12.663 2.013 12.758 2.072 M7.000 7.500 L 7.000 9.000 4.500 9.000 L 2.000 9.000 2.000 7.500 L 2.000 6.000 4.500 6.000 L 7.000 6.000 7.000 7.500 M13.000 7.500 L 13.000 9.000 10.500 9.000 L 8.000 9.000 8.000 7.500 L 8.000 6.000 10.500 6.000 L 13.000 6.000 13.000 7.500 M7.000 11.501 L 7.000 13.001 4.667 12.994 L 2.334 12.988 2.232 12.920 C 2.177 12.884,2.104 12.810,2.072 12.758 L 2.013 12.663 2.005 11.331 L 1.998 10.000 4.499 10.000 L 7.000 10.000 7.000 11.501 M12.995 11.333 L 12.988 12.666 12.920 12.768 C 12.884 12.823,12.810 12.896,12.758 12.928 L 12.663 12.988 10.331 12.994 L 8.000 13.001 8.000 11.501 L 8.000 10.000 10.501 10.000 L 13.002 10.000 12.995 11.333 " fill="currentColor" stroke="none" fill-rule="evenodd"></path></svg>