<svg width="15" height="15" fill="none" xmlns="http://www.w3.org/2000/svg"><path d="M6.943 0.925 C 6.066 1.010,5.356 1.210,4.588 1.588 C 2.615 2.558,1.304 4.368,0.958 6.600 C 0.896 7.005,0.896 7.995,0.958 8.400 C 1.187 9.876,1.822 11.149,2.836 12.164 C 3.851 13.178,5.124 13.813,6.600 14.042 C 7.005 14.104,7.995 14.104,8.400 14.042 C 9.879 13.813,11.145 13.180,12.163 12.163 C 13.180 11.145,13.813 9.879,14.042 8.400 C 14.104 7.995,14.104 7.005,14.042 6.600 C 13.813 5.123,13.175 3.846,12.164 2.837 C 11.318 1.994,10.245 1.386,9.100 1.099 C 8.477 0.944,7.534 0.867,6.943 0.925 M8.325 1.864 C 9.546 2.042,10.646 2.596,11.525 3.475 C 12.407 4.357,12.951 5.440,13.140 6.688 C 13.203 7.102,13.203 7.898,13.140 8.313 C 12.951 9.559,12.406 10.643,11.525 11.525 C 10.650 12.401,9.562 12.951,8.325 13.142 C 7.926 13.204,7.074 13.204,6.675 13.142 C 5.002 12.883,3.569 11.943,2.662 10.510 C 2.367 10.045,2.112 9.441,1.976 8.892 C 1.851 8.383,1.815 8.070,1.815 7.500 C 1.815 7.141,1.828 6.901,1.858 6.700 C 2.048 5.441,2.590 4.360,3.475 3.475 C 4.427 2.523,5.604 1.968,6.975 1.825 C 7.277 1.794,7.987 1.814,8.325 1.864 M7.038 3.103 C 5.383 3.276,3.935 4.393,3.362 5.938 C 2.364 8.629,4.101 11.515,6.943 11.888 C 9.566 12.232,11.925 10.154,11.925 7.500 C 11.925 4.884,9.641 2.829,7.038 3.103 M8.201 3.998 C 9.628 4.282,10.737 5.406,11.014 6.850 C 11.077 7.178,11.077 7.822,11.014 8.150 C 10.734 9.610,9.626 10.722,8.157 11.017 C 7.852 11.079,7.148 11.079,6.843 11.017 C 5.374 10.722,4.266 9.610,3.986 8.150 C 3.923 7.822,3.923 7.178,3.986 6.850 C 4.203 5.717,4.935 4.766,5.969 4.272 C 6.320 4.104,6.720 3.994,7.175 3.940 C 7.361 3.918,7.971 3.952,8.201 3.998 M7.163 5.276 C 6.294 5.411,5.596 6.027,5.335 6.888 C 5.273 7.091,5.266 7.149,5.266 7.500 C 5.266 7.851,5.273 7.909,5.334 8.111 C 5.568 8.877,6.123 9.432,6.889 9.666 C 7.091 9.727,7.149 9.734,7.500 9.734 C 7.851 9.734,7.909 9.727,8.111 9.666 C 8.234 9.628,8.425 9.550,8.535 9.493 C 9.082 9.209,9.479 8.723,9.666 8.111 C 9.727 7.909,9.734 7.851,9.734 7.500 C 9.734 7.149,9.727 7.091,9.665 6.888 C 9.428 6.106,8.828 5.521,8.063 5.324 C 7.831 5.265,7.386 5.241,7.163 5.276 M7.806 6.087 C 8.376 6.207,8.845 6.711,8.930 7.294 C 9.056 8.156,8.370 8.949,7.500 8.949 C 7.107 8.949,6.777 8.808,6.487 8.515 C 6.118 8.143,5.981 7.693,6.086 7.198 C 6.145 6.918,6.261 6.712,6.487 6.487 C 6.856 6.117,7.306 5.981,7.806 6.087 " fill="currentColor" stroke="none" fill-rule="evenodd"></path></svg>