<svg width="15" height="15" fill="none" xmlns="http://www.w3.org/2000/svg"><path d="M3.338 5.138 C 3.296 5.160,3.241 5.197,3.215 5.220 C 3.096 5.327,3.100 5.196,3.100 8.980 L 3.100 12.536 2.406 11.845 C 1.824 11.265,1.696 11.150,1.613 11.128 C 1.496 11.098,1.360 11.122,1.266 11.190 C 1.189 11.246,1.100 11.415,1.101 11.502 C 1.102 11.655,1.204 11.772,2.254 12.817 C 3.180 13.739,3.324 13.874,3.406 13.889 C 3.636 13.930,3.600 13.959,4.747 12.817 C 5.883 11.685,5.920 11.641,5.887 11.444 C 5.863 11.306,5.722 11.155,5.588 11.125 C 5.373 11.076,5.349 11.093,4.594 11.845 L 3.900 12.536 3.900 8.980 C 3.900 5.995,3.894 5.410,3.865 5.340 C 3.786 5.151,3.509 5.045,3.338 5.138 M8.342 6.025 C 8.151 6.083,8.000 6.295,8.000 6.504 C 8.000 6.655,8.089 6.818,8.223 6.913 L 8.329 6.988 11.496 6.988 L 14.663 6.988 14.758 6.928 C 14.810 6.896,14.884 6.823,14.920 6.767 C 14.976 6.683,14.988 6.638,14.988 6.500 C 14.988 6.362,14.976 6.317,14.920 6.233 C 14.884 6.177,14.810 6.104,14.758 6.072 L 14.663 6.013 11.538 6.008 C 9.819 6.006,8.381 6.014,8.342 6.025 M8.342 9.025 C 8.151 9.083,8.000 9.295,8.000 9.504 C 8.000 9.655,8.089 9.818,8.223 9.913 L 8.329 9.988 11.496 9.988 L 14.663 9.988 14.758 9.928 C 14.810 9.896,14.884 9.823,14.920 9.767 C 14.976 9.683,14.988 9.638,14.988 9.500 C 14.988 9.362,14.976 9.317,14.920 9.233 C 14.884 9.177,14.810 9.104,14.758 9.072 L 14.663 9.013 11.538 9.008 C 9.819 9.006,8.381 9.014,8.342 9.025 M8.342 12.025 C 8.151 12.083,8.000 12.295,8.000 12.504 C 8.000 12.655,8.089 12.818,8.223 12.913 L 8.329 12.988 11.496 12.988 L 14.663 12.988 14.758 12.928 C 14.810 12.896,14.884 12.823,14.920 12.767 C 14.976 12.683,14.988 12.638,14.988 12.500 C 14.988 12.362,14.976 12.317,14.920 12.233 C 14.884 12.177,14.810 12.104,14.758 12.072 L 14.663 12.013 11.538 12.008 C 9.819 12.006,8.381 12.014,8.342 12.025 " fill="currentColor" stroke="none" fill-rule="evenodd"></path></svg>