<svg width="15" height="15" fill="none" xmlns="http://www.w3.org/2000/svg"><path d="M3.313 2.097 C 3.194 2.152,3.140 2.207,3.088 2.331 C 3.056 2.409,3.050 2.588,3.050 3.506 C 3.050 4.580,3.050 4.590,3.106 4.701 C 3.272 5.029,3.728 5.029,3.894 4.701 C 3.949 4.592,3.950 4.570,3.950 3.770 L 3.950 2.950 5.450 2.950 L 6.950 2.950 6.950 7.500 L 6.950 12.050 6.308 12.050 C 5.705 12.050,5.659 12.053,5.556 12.103 C 5.227 12.262,5.227 12.738,5.556 12.897 C 5.665 12.950,5.681 12.950,7.502 12.949 C 9.241 12.949,9.343 12.946,9.440 12.902 C 9.497 12.876,9.576 12.813,9.615 12.761 C 9.678 12.679,9.688 12.645,9.688 12.500 C 9.688 12.355,9.678 12.321,9.615 12.239 C 9.481 12.063,9.423 12.051,8.694 12.051 L 8.050 12.050 8.050 7.500 L 8.050 2.950 9.550 2.950 L 11.050 2.950 11.050 3.770 C 11.050 4.570,11.051 4.592,11.106 4.701 C 11.272 5.029,11.728 5.029,11.894 4.701 C 11.950 4.590,11.950 4.581,11.949 3.501 C 11.949 2.498,11.945 2.405,11.903 2.313 C 11.848 2.194,11.793 2.140,11.669 2.088 C 11.587 2.054,11.112 2.050,7.495 2.051 C 3.587 2.051,3.408 2.053,3.313 2.097 " fill="currentColor" stroke="none" fill-rule="evenodd"></path></svg>