<svg width="15" height="15" fill="none" xmlns="http://www.w3.org/2000/svg"><path d="M12.863 1.517 C 12.768 1.543,12.662 1.633,12.299 1.992 L 11.935 2.352 11.874 2.257 C 11.838 2.203,11.765 2.139,11.701 2.106 L 11.589 2.050 7.506 2.050 C 3.889 2.050,3.413 2.054,3.331 2.088 C 3.207 2.140,3.152 2.194,3.097 2.313 C 3.055 2.405,3.051 2.498,3.051 3.501 C 3.050 4.581,3.050 4.590,3.106 4.701 C 3.272 5.029,3.728 5.029,3.894 4.701 C 3.949 4.592,3.950 4.570,3.950 3.770 L 3.950 2.950 5.450 2.950 L 6.950 2.950 6.950 5.143 L 6.950 7.337 4.252 10.037 C 1.770 12.521,1.551 12.747,1.524 12.850 C 1.420 13.248,1.752 13.580,2.150 13.476 C 2.253 13.449,2.455 13.254,4.606 11.105 L 6.950 8.763 6.950 10.407 L 6.950 12.050 6.308 12.050 C 5.705 12.050,5.659 12.053,5.556 12.103 C 5.227 12.262,5.227 12.738,5.556 12.897 C 5.665 12.950,5.681 12.950,7.502 12.949 C 9.241 12.949,9.343 12.946,9.440 12.902 C 9.497 12.876,9.576 12.813,9.615 12.761 C 9.678 12.679,9.688 12.645,9.688 12.500 C 9.688 12.355,9.678 12.321,9.615 12.239 C 9.481 12.063,9.423 12.051,8.694 12.051 L 8.050 12.050 8.050 9.857 L 8.050 7.663 10.748 4.963 C 13.230 2.479,13.449 2.253,13.476 2.150 C 13.560 1.830,13.358 1.534,13.041 1.512 C 12.970 1.507,12.890 1.509,12.863 1.517 M11.050 3.094 L 11.050 3.238 9.550 4.737 L 8.050 6.237 8.050 4.594 L 8.050 2.950 9.550 2.950 L 11.050 2.950 11.050 3.094 " fill="currentColor" stroke="none" fill-rule="evenodd"></path></svg>