<svg width="15" height="15" fill="none" xmlns="http://www.w3.org/2000/svg"><path d="M3.338 0.138 C 3.296 0.160,3.241 0.197,3.215 0.220 C 3.099 0.324,3.100 0.300,3.100 2.480 L 3.100 4.536 2.406 3.845 C 1.824 3.265,1.696 3.150,1.613 3.128 C 1.332 3.055,1.071 3.285,1.112 3.570 C 1.128 3.685,1.148 3.707,2.220 4.780 C 3.179 5.738,3.324 5.874,3.406 5.889 C 3.636 5.930,3.600 5.959,4.747 4.817 C 5.883 3.685,5.920 3.641,5.887 3.444 C 5.863 3.306,5.722 3.155,5.588 3.125 C 5.373 3.076,5.349 3.093,4.594 3.845 L 3.900 4.536 3.900 2.480 C 3.900 0.778,3.894 0.409,3.865 0.340 C 3.786 0.151,3.509 0.045,3.338 0.138 M8.342 4.025 C 8.151 4.083,8.000 4.295,8.000 4.504 C 8.000 4.655,8.089 4.818,8.223 4.913 L 8.329 4.988 11.496 4.988 L 14.663 4.988 14.758 4.928 C 14.810 4.896,14.884 4.823,14.920 4.767 C 14.976 4.683,14.988 4.638,14.988 4.500 C 14.988 4.362,14.976 4.317,14.920 4.233 C 14.884 4.177,14.810 4.104,14.758 4.072 L 14.663 4.013 11.538 4.008 C 9.819 4.006,8.381 4.014,8.342 4.025 M8.342 7.025 C 8.151 7.083,8.000 7.295,8.000 7.504 C 8.000 7.655,8.089 7.818,8.223 7.913 L 8.329 7.988 11.496 7.988 L 14.663 7.988 14.758 7.928 C 14.810 7.896,14.884 7.823,14.920 7.767 C 14.976 7.683,14.988 7.638,14.988 7.500 C 14.988 7.362,14.976 7.317,14.920 7.233 C 14.884 7.177,14.810 7.104,14.758 7.072 L 14.663 7.013 11.538 7.008 C 9.819 7.006,8.381 7.014,8.342 7.025 M3.336 9.139 C 3.294 9.160,2.780 9.657,2.195 10.245 C 1.200 11.242,1.129 11.319,1.113 11.418 C 1.103 11.479,1.108 11.560,1.124 11.610 C 1.161 11.722,1.323 11.868,1.434 11.889 C 1.621 11.924,1.670 11.886,2.406 11.154 L 3.099 10.465 3.106 12.555 C 3.112 14.623,3.113 14.647,3.164 14.715 C 3.262 14.847,3.342 14.888,3.500 14.888 C 3.658 14.888,3.738 14.847,3.836 14.715 C 3.887 14.647,3.888 14.618,3.900 12.560 L 3.913 10.475 4.575 11.140 C 5.292 11.860,5.368 11.918,5.555 11.887 C 5.691 11.864,5.841 11.727,5.877 11.592 C 5.935 11.376,5.942 11.385,4.804 10.242 C 4.231 9.667,3.721 9.175,3.670 9.148 C 3.559 9.091,3.440 9.087,3.336 9.139 M8.342 10.025 C 8.151 10.083,8.000 10.295,8.000 10.504 C 8.000 10.655,8.089 10.818,8.223 10.913 L 8.329 10.988 11.496 10.988 L 14.663 10.988 14.758 10.928 C 14.810 10.896,14.884 10.823,14.920 10.767 C 14.976 10.683,14.988 10.638,14.988 10.500 C 14.988 10.362,14.976 10.317,14.920 10.233 C 14.884 10.177,14.810 10.104,14.758 10.072 L 14.663 10.013 11.538 10.008 C 9.819 10.006,8.381 10.014,8.342 10.025 " fill="currentColor" stroke="none" fill-rule="evenodd"></path></svg>