<svg width="15" height="15" fill="none" xmlns="http://www.w3.org/2000/svg"><path d="M2.342 4.025 C 2.152 4.083,2.000 4.295,2.000 4.504 C 2.000 4.655,2.089 4.818,2.223 4.913 L 2.329 4.988 7.496 4.988 L 12.663 4.988 12.758 4.928 C 12.810 4.896,12.884 4.823,12.920 4.767 C 12.976 4.683,12.988 4.638,12.988 4.500 C 12.988 4.362,12.976 4.317,12.920 4.233 C 12.884 4.177,12.810 4.104,12.758 4.072 L 12.663 4.013 7.538 4.008 C 4.719 4.006,2.381 4.014,2.342 4.025 M7.342 7.025 C 7.151 7.083,7.000 7.295,7.000 7.504 C 7.000 7.655,7.089 7.818,7.223 7.913 L 7.329 7.988 9.996 7.988 L 12.663 7.988 12.758 7.928 C 12.810 7.896,12.884 7.823,12.920 7.767 C 12.976 7.683,12.988 7.638,12.988 7.500 C 12.988 7.362,12.976 7.317,12.920 7.233 C 12.884 7.177,12.810 7.104,12.758 7.072 L 12.663 7.013 10.038 7.008 C 8.594 7.006,7.381 7.013,7.342 7.025 M4.342 10.025 C 4.152 10.083,4.000 10.295,4.000 10.504 C 4.000 10.655,4.089 10.818,4.223 10.913 L 4.329 10.988 8.496 10.988 L 12.663 10.988 12.758 10.928 C 12.810 10.896,12.884 10.823,12.920 10.767 C 12.976 10.683,12.988 10.638,12.988 10.500 C 12.988 10.362,12.976 10.317,12.920 10.233 C 12.884 10.177,12.810 10.104,12.758 10.072 L 12.663 10.013 8.537 10.008 C 6.269 10.006,4.381 10.014,4.342 10.025 " fill="currentColor" stroke="none" fill-rule="evenodd"></path></svg>