<svg width="15" height="15" fill="none" xmlns="http://www.w3.org/2000/svg"><path d="M3.337 1.139 C 3.295 1.159,2.781 1.657,2.195 2.244 C 1.149 3.292,1.128 3.315,1.112 3.430 C 1.081 3.644,1.228 3.847,1.444 3.890 C 1.618 3.925,1.677 3.879,2.406 3.154 L 3.099 2.464 3.106 6.055 C 3.112 9.638,3.113 9.646,3.164 9.715 C 3.262 9.847,3.342 9.888,3.500 9.888 C 3.658 9.888,3.738 9.847,3.836 9.715 C 3.887 9.646,3.888 9.638,3.894 6.056 L 3.901 2.465 4.607 3.167 C 5.215 3.772,5.325 3.871,5.406 3.885 C 5.711 3.940,5.977 3.634,5.863 3.359 C 5.814 3.241,3.812 1.222,3.670 1.148 C 3.559 1.091,3.441 1.087,3.337 1.139 M8.342 2.025 C 8.151 2.083,8.000 2.295,8.000 2.504 C 8.000 2.655,8.089 2.818,8.223 2.913 L 8.329 2.988 11.496 2.988 L 14.663 2.988 14.758 2.928 C 14.810 2.896,14.884 2.823,14.920 2.767 C 14.976 2.683,14.988 2.638,14.988 2.500 C 14.988 2.362,14.976 2.317,14.920 2.233 C 14.884 2.177,14.810 2.104,14.758 2.072 L 14.663 2.013 11.538 2.008 C 9.819 2.006,8.381 2.014,8.342 2.025 M8.342 5.025 C 8.151 5.083,8.000 5.295,8.000 5.504 C 8.000 5.655,8.089 5.818,8.223 5.913 L 8.329 5.988 11.496 5.988 L 14.663 5.988 14.758 5.928 C 14.810 5.896,14.884 5.823,14.920 5.767 C 14.976 5.683,14.988 5.638,14.988 5.500 C 14.988 5.362,14.976 5.317,14.920 5.233 C 14.884 5.177,14.810 5.104,14.758 5.072 L 14.663 5.013 11.538 5.008 C 9.819 5.006,8.381 5.014,8.342 5.025 M8.342 8.025 C 8.151 8.083,8.000 8.295,8.000 8.504 C 8.000 8.655,8.089 8.818,8.223 8.912 L 8.329 8.988 11.496 8.988 L 14.663 8.988 14.758 8.928 C 14.810 8.896,14.884 8.823,14.920 8.767 C 14.976 8.683,14.988 8.638,14.988 8.500 C 14.988 8.362,14.976 8.317,14.920 8.233 C 14.884 8.177,14.810 8.104,14.758 8.072 L 14.663 8.013 11.538 8.008 C 9.819 8.006,8.381 8.014,8.342 8.025 " fill="currentColor" stroke="none" fill-rule="evenodd"></path></svg>