<svg width="15" height="15" fill="none" xmlns="http://www.w3.org/2000/svg"><path d="M7.338 1.032 C 7.296 1.049,7.237 1.077,7.207 1.094 C 7.176 1.112,5.998 2.740,4.590 4.712 C 1.842 8.558,1.965 8.374,2.012 8.604 C 2.037 8.726,2.133 8.860,2.242 8.928 L 2.337 8.988 3.669 8.995 L 5.000 9.002 5.000 10.309 L 5.000 11.617 5.058 11.727 C 5.090 11.788,5.164 11.871,5.223 11.913 L 5.329 11.988 7.498 11.988 L 9.666 11.988 9.767 11.920 C 9.823 11.884,9.896 11.810,9.928 11.758 L 9.988 11.663 9.995 10.332 L 10.002 9.002 11.332 8.995 L 12.663 8.988 12.758 8.928 C 12.945 8.812,13.037 8.575,12.977 8.362 C 12.959 8.296,12.085 7.054,10.393 4.689 C 7.614 0.803,7.789 1.027,7.528 1.009 C 7.465 1.005,7.379 1.015,7.338 1.032 M9.515 5.182 L 11.518 7.988 10.424 8.000 L 9.329 8.013 9.223 8.088 C 9.164 8.129,9.090 8.212,9.058 8.273 L 9.000 8.383 9.000 9.691 L 9.000 11.000 7.501 11.000 L 6.002 11.000 5.995 9.669 L 5.988 8.338 5.928 8.242 C 5.896 8.190,5.823 8.116,5.768 8.080 L 5.666 8.013 4.574 8.000 L 3.482 7.988 5.485 5.182 C 6.586 3.639,7.493 2.376,7.500 2.376 C 7.507 2.376,8.414 3.639,9.515 5.182 " fill="currentColor" stroke="none" fill-rule="evenodd"></path></svg>