<svg width="15" height="15" fill="none" xmlns="http://www.w3.org/2000/svg"><path d="M5.342 3.025 C 5.228 3.060,5.109 3.166,5.053 3.282 C 5.001 3.388,5.000 3.421,5.000 4.695 L 5.000 6.000 3.706 6.000 L 2.413 6.000 2.283 6.061 C 2.077 6.157,1.976 6.354,2.012 6.591 C 2.026 6.687,2.366 7.174,4.588 10.286 C 6.579 13.073,7.169 13.883,7.243 13.929 C 7.377 14.012,7.623 14.012,7.757 13.929 C 7.831 13.883,8.421 13.073,10.412 10.286 C 12.634 7.174,12.974 6.687,12.988 6.591 C 13.024 6.354,12.923 6.157,12.717 6.061 L 12.588 6.000 11.295 6.000 L 10.002 6.000 9.995 4.669 L 9.988 3.338 9.928 3.242 C 9.896 3.190,9.823 3.116,9.768 3.080 L 9.666 3.013 7.539 3.008 C 6.370 3.006,5.381 3.013,5.342 3.025 M9.000 5.309 L 9.000 6.617 9.058 6.727 C 9.090 6.788,9.164 6.871,9.223 6.913 L 9.329 6.988 10.424 7.000 L 11.518 7.013 9.515 9.818 C 8.414 11.361,7.507 12.624,7.500 12.624 C 7.493 12.624,6.586 11.361,5.485 9.818 L 3.482 7.013 4.574 7.000 L 5.666 6.988 5.768 6.920 C 5.823 6.884,5.896 6.810,5.928 6.758 L 5.988 6.663 5.995 5.331 L 6.002 4.000 7.501 4.000 L 9.000 4.000 9.000 5.309 " fill="currentColor" stroke="none" fill-rule="evenodd"></path></svg>