<svg width="15" height="15" fill="none" xmlns="http://www.w3.org/2000/svg"><path d="M6.326 2.033 C 6.210 2.070,6.059 2.225,6.027 2.342 C 6.010 2.404,6.000 2.894,6.000 3.718 L 6.000 4.998 4.665 5.005 L 3.329 5.013 3.223 5.088 C 3.164 5.129,3.090 5.212,3.058 5.273 L 3.000 5.383 3.000 7.500 L 3.000 9.617 3.058 9.727 C 3.090 9.788,3.164 9.871,3.223 9.913 L 3.329 9.988 4.664 9.995 L 5.998 10.002 6.005 11.332 L 6.013 12.663 6.072 12.758 C 6.189 12.947,6.435 13.041,6.641 12.975 C 6.696 12.957,8.277 11.845,10.304 10.398 C 13.076 8.418,13.883 7.831,13.929 7.757 C 14.011 7.625,14.012 7.377,13.930 7.246 C 13.887 7.176,13.021 6.545,10.347 4.633 C 8.407 3.247,6.767 2.087,6.704 2.057 C 6.579 1.996,6.463 1.989,6.326 2.033 M9.909 5.550 C 11.402 6.616,12.621 7.495,12.618 7.505 C 12.615 7.514,11.353 8.422,9.813 9.522 L 7.013 11.521 7.000 10.429 L 6.988 9.338 6.928 9.242 C 6.896 9.190,6.823 9.116,6.768 9.080 L 6.666 9.013 5.333 9.005 L 4.000 8.998 4.000 7.500 L 4.000 6.002 5.333 5.995 L 6.666 5.988 6.768 5.920 C 6.823 5.884,6.896 5.810,6.928 5.758 L 6.988 5.663 6.995 4.567 L 7.002 3.472 7.098 3.542 C 7.151 3.581,8.416 4.484,9.909 5.550 " fill="currentColor" stroke="none" fill-rule="evenodd"></path></svg>