<svg width="15" height="15" fill="none" xmlns="http://www.w3.org/2000/svg"><path d="M8.296 2.055 C 8.233 2.087,6.593 3.247,4.653 4.633 C 1.979 6.545,1.113 7.176,1.070 7.246 C 0.988 7.377,0.989 7.625,1.071 7.757 C 1.117 7.831,1.924 8.418,4.696 10.398 C 6.723 11.845,8.304 12.957,8.359 12.975 C 8.565 13.041,8.811 12.947,8.928 12.758 L 8.988 12.663 8.995 11.332 L 9.002 10.002 10.334 9.995 L 11.666 9.988 11.768 9.920 C 11.823 9.884,11.896 9.810,11.928 9.758 L 11.988 9.663 11.988 7.500 L 11.988 5.338 11.928 5.242 C 11.896 5.190,11.823 5.116,11.768 5.080 L 11.666 5.013 10.334 5.005 L 9.002 4.998 8.995 3.664 L 8.988 2.329 8.912 2.223 C 8.770 2.021,8.510 1.950,8.296 2.055 M8.072 5.758 C 8.104 5.810,8.177 5.884,8.232 5.920 L 8.334 5.988 9.667 5.995 L 11.000 6.002 11.000 7.500 L 11.000 8.998 9.667 9.005 L 8.334 9.013 8.232 9.080 C 8.177 9.116,8.104 9.190,8.072 9.242 L 8.013 9.338 8.000 10.429 L 7.988 11.521 5.188 9.522 C 3.648 8.422,2.385 7.514,2.382 7.505 C 2.379 7.495,3.639 6.586,5.182 5.485 L 7.988 3.482 8.000 4.572 L 8.013 5.663 8.072 5.758 " fill="currentColor" stroke="none" fill-rule="evenodd"></path></svg>