<svg width="15" height="15" fill="none" xmlns="http://www.w3.org/2000/svg"><path d="M7.342 0.874 C 7.226 0.911,7.108 1.017,7.052 1.134 C 6.999 1.243,6.998 1.262,7.005 2.470 L 7.013 3.696 7.088 3.802 C 7.269 4.058,7.631 4.094,7.849 3.876 C 7.993 3.732,8.000 3.677,8.000 2.727 L 8.000 1.871 8.144 1.888 C 10.211 2.129,11.996 3.503,12.758 5.438 C 13.341 6.917,13.260 8.612,12.539 10.038 C 11.967 11.167,11.112 12.013,9.988 12.564 C 8.764 13.163,7.433 13.305,6.125 12.975 C 5.700 12.868,5.431 12.769,5.013 12.564 C 3.857 11.997,2.968 11.100,2.410 9.938 C 2.154 9.405,2.001 8.905,1.909 8.300 C 1.848 7.904,1.848 7.096,1.909 6.700 C 2.063 5.691,2.446 4.797,3.063 4.006 C 3.306 3.694,3.351 3.582,3.303 3.403 C 3.235 3.149,3.047 3.013,2.786 3.030 C 2.586 3.042,2.512 3.094,2.289 3.371 C 1.376 4.511,0.850 6.017,0.850 7.486 C 0.851 10.699,3.138 13.454,6.288 14.036 C 7.386 14.239,8.536 14.162,9.580 13.814 C 10.581 13.480,11.456 12.941,12.199 12.200 C 13.611 10.793,14.323 8.793,14.113 6.822 C 13.871 4.540,12.518 2.583,10.475 1.560 C 9.602 1.122,8.727 0.898,7.752 0.863 C 7.565 0.856,7.381 0.861,7.342 0.874 M4.350 4.193 C 4.220 4.240,4.142 4.417,4.202 4.529 C 4.219 4.561,4.814 5.397,5.523 6.386 C 6.646 7.951,6.831 8.197,6.955 8.289 C 7.340 8.573,7.884 8.524,8.211 8.174 C 8.604 7.754,8.549 7.104,8.092 6.754 C 7.765 6.504,4.557 4.217,4.505 4.197 C 4.441 4.173,4.407 4.172,4.350 4.193 " fill="currentColor" stroke="none" fill-rule="evenodd"></path></svg>