<svg width="15" height="15" fill="none" xmlns="http://www.w3.org/2000/svg"><path d="M4.145 2.025 C 3.777 2.084,3.388 2.237,3.082 2.445 C 2.597 2.775,2.246 3.273,2.081 3.868 C 2.021 4.085,2.014 4.155,2.014 4.500 C 2.014 4.846,2.021 4.914,2.082 5.136 C 2.297 5.910,2.848 6.533,3.575 6.822 C 4.709 7.273,6.039 6.819,6.652 5.771 C 7.314 4.640,6.991 3.174,5.918 2.445 C 5.698 2.296,5.339 2.134,5.099 2.075 C 4.857 2.016,4.365 1.990,4.145 2.025 M10.145 2.025 C 9.777 2.084,9.388 2.237,9.082 2.445 C 8.597 2.775,8.246 3.273,8.081 3.868 C 8.021 4.085,8.014 4.155,8.014 4.500 C 8.014 4.846,8.021 4.914,8.082 5.136 C 8.297 5.910,8.848 6.533,9.575 6.822 C 10.709 7.273,12.039 6.819,12.652 5.771 C 13.314 4.640,12.991 3.174,11.918 2.445 C 11.698 2.296,11.339 2.134,11.099 2.075 C 10.857 2.016,10.365 1.990,10.145 2.025 M4.813 3.038 C 5.375 3.156,5.844 3.625,5.962 4.188 C 6.069 4.697,5.923 5.183,5.552 5.551 C 5.334 5.767,5.141 5.879,4.860 5.951 C 4.507 6.041,4.124 5.994,3.792 5.820 C 3.564 5.701,3.281 5.409,3.166 5.175 C 2.872 4.575,2.980 3.916,3.448 3.448 C 3.819 3.076,4.303 2.931,4.813 3.038 M10.813 3.038 C 11.375 3.156,11.844 3.625,11.962 4.188 C 12.069 4.697,11.923 5.183,11.552 5.551 C 11.334 5.767,11.141 5.879,10.860 5.951 C 10.507 6.041,10.124 5.994,9.792 5.820 C 9.564 5.701,9.281 5.409,9.166 5.175 C 8.872 4.575,8.980 3.916,9.448 3.448 C 9.819 3.076,10.303 2.931,10.813 3.038 M4.145 8.025 C 3.777 8.084,3.388 8.237,3.082 8.445 C 2.597 8.775,2.246 9.273,2.081 9.868 C 2.021 10.085,2.014 10.155,2.014 10.500 C 2.014 10.846,2.021 10.914,2.082 11.136 C 2.297 11.910,2.848 12.533,3.575 12.822 C 4.709 13.273,6.039 12.819,6.652 11.771 C 7.314 10.640,6.991 9.174,5.918 8.445 C 5.698 8.296,5.339 8.134,5.099 8.075 C 4.857 8.016,4.365 7.990,4.145 8.025 M10.145 8.025 C 9.777 8.084,9.388 8.237,9.082 8.445 C 8.597 8.775,8.246 9.273,8.081 9.868 C 8.021 10.085,8.014 10.155,8.014 10.500 C 8.014 10.846,8.021 10.914,8.082 11.136 C 8.297 11.910,8.848 12.533,9.575 12.822 C 10.709 13.273,12.039 12.819,12.652 11.771 C 13.314 10.640,12.991 9.174,11.918 8.445 C 11.698 8.296,11.339 8.134,11.099 8.075 C 10.857 8.016,10.365 7.990,10.145 8.025 M4.813 9.038 C 5.375 9.156,5.844 9.625,5.962 10.188 C 6.069 10.697,5.923 11.183,5.552 11.551 C 5.334 11.767,5.141 11.879,4.860 11.951 C 4.507 12.041,4.124 11.994,3.792 11.820 C 3.564 11.701,3.281 11.409,3.166 11.175 C 2.872 10.575,2.980 9.916,3.448 9.448 C 3.819 9.076,4.303 8.931,4.813 9.038 M10.813 9.038 C 11.375 9.156,11.844 9.625,11.962 10.188 C 12.069 10.697,11.923 11.183,11.552 11.551 C 11.334 11.767,11.141 11.879,10.860 11.951 C 10.507 12.041,10.124 11.994,9.792 11.820 C 9.564 11.701,9.281 11.409,9.166 11.175 C 8.872 10.575,8.980 9.916,9.448 9.448 C 9.819 9.076,10.303 8.931,10.813 9.038 " fill="currentColor" stroke="none" fill-rule="evenodd"></path></svg>