<svg width="15" height="15" fill="none" xmlns="http://www.w3.org/2000/svg"><path d="M2.322 2.233 C 2.173 2.289,2.083 2.368,2.015 2.505 L 1.950 2.635 1.950 7.502 L 1.950 12.369 2.020 12.503 C 2.121 12.696,2.275 12.788,2.500 12.788 C 2.725 12.788,2.879 12.696,2.980 12.503 L 3.050 12.369 3.050 10.060 L 3.050 7.750 3.144 7.841 C 3.210 7.905,4.594 8.647,7.788 10.333 C 12.327 12.729,12.338 12.734,12.488 12.736 C 12.677 12.738,12.810 12.673,12.913 12.527 L 12.988 12.421 12.988 7.502 L 12.988 2.584 12.917 2.478 C 12.799 2.299,12.547 2.210,12.354 2.277 C 12.311 2.292,10.231 3.383,7.731 4.702 C 4.333 6.495,3.170 7.120,3.119 7.180 L 3.050 7.261 3.050 4.946 L 3.050 2.631 2.980 2.497 C 2.858 2.263,2.561 2.144,2.322 2.233 M12.000 7.515 L 12.000 11.429 11.919 11.381 C 11.874 11.354,10.209 10.474,8.219 9.425 C 6.228 8.376,4.600 7.511,4.600 7.502 C 4.600 7.485,11.949 3.601,11.981 3.600 C 11.992 3.600,12.000 5.362,12.000 7.515 " fill="currentColor" stroke="none" fill-rule="evenodd"></path></svg>