<svg width="15" height="15" fill="none" xmlns="http://www.w3.org/2000/svg"><path d="M12.322 2.233 C 12.173 2.289,12.083 2.368,12.015 2.505 L 11.950 2.635 11.950 4.948 L 11.950 7.261 11.881 7.180 C 11.830 7.120,10.652 6.488,7.263 4.699 C 4.760 3.379,2.671 2.286,2.621 2.271 C 2.415 2.209,2.165 2.321,2.058 2.523 L 2.000 2.633 2.000 7.500 L 2.000 12.367 2.058 12.477 C 2.090 12.538,2.164 12.621,2.223 12.663 C 2.316 12.728,2.350 12.737,2.496 12.736 L 2.663 12.735 7.213 10.333 C 10.406 8.648,11.790 7.905,11.856 7.841 L 11.950 7.750 11.950 10.060 L 11.950 12.369 12.020 12.503 C 12.121 12.696,12.275 12.788,12.500 12.788 C 12.725 12.788,12.879 12.696,12.980 12.503 L 13.050 12.369 13.050 7.500 L 13.050 2.631 12.980 2.497 C 12.858 2.263,12.561 2.144,12.322 2.233 M6.717 5.543 C 8.743 6.612,10.400 7.493,10.400 7.502 C 10.400 7.510,8.772 8.375,6.781 9.425 C 4.791 10.474,3.126 11.354,3.081 11.381 L 3.000 11.429 3.000 7.515 C 3.000 5.362,3.008 3.600,3.017 3.600 C 3.027 3.600,4.692 4.474,6.717 5.543 " fill="currentColor" stroke="none" fill-rule="evenodd"></path></svg>