<svg width="15" height="15" fill="none" xmlns="http://www.w3.org/2000/svg"><path d="M1.544 0.876 C 1.252 0.947,0.985 1.192,0.901 1.467 C 0.854 1.618,0.850 1.698,0.850 2.500 C 0.850 3.523,0.862 3.597,1.067 3.825 C 1.280 4.062,1.490 4.150,1.842 4.150 L 2.050 4.150 2.050 7.497 L 2.050 10.843 1.794 10.855 C 1.457 10.870,1.282 10.944,1.088 11.154 C 0.860 11.400,0.850 11.457,0.850 12.500 C 0.850 13.301,0.854 13.383,0.900 13.532 C 0.955 13.710,1.110 13.908,1.276 14.013 C 1.477 14.140,1.568 14.150,2.500 14.150 C 3.545 14.150,3.602 14.140,3.859 13.902 C 4.064 13.712,4.150 13.491,4.150 13.158 L 4.150 12.950 7.500 12.950 L 10.850 12.950 10.850 13.160 C 10.850 13.454,10.916 13.657,11.067 13.825 C 11.209 13.982,11.323 14.058,11.501 14.110 C 11.698 14.169,13.303 14.169,13.500 14.110 C 13.797 14.022,14.022 13.796,14.110 13.499 C 14.169 13.303,14.169 11.697,14.110 11.501 C 14.035 11.246,13.860 11.047,13.613 10.934 C 13.491 10.878,13.418 10.864,13.207 10.855 L 12.950 10.843 12.950 7.497 L 12.950 4.150 13.158 4.150 C 13.476 4.150,13.662 4.084,13.859 3.902 C 13.986 3.784,14.062 3.662,14.110 3.499 C 14.169 3.303,14.169 1.697,14.110 1.501 C 14.035 1.246,13.862 1.049,13.613 0.933 L 13.463 0.863 12.500 0.863 L 11.538 0.863 11.380 0.935 C 11.273 0.985,11.181 1.054,11.088 1.154 C 10.916 1.340,10.850 1.530,10.850 1.840 L 10.850 2.050 7.500 2.050 L 4.150 2.050 4.150 1.842 C 4.150 1.402,3.971 1.100,3.613 0.933 L 3.463 0.863 2.550 0.858 C 2.048 0.856,1.595 0.864,1.544 0.876 M3.250 2.500 L 3.250 3.250 2.500 3.250 L 1.750 3.250 1.750 2.500 L 1.750 1.750 2.500 1.750 L 3.250 1.750 3.250 2.500 M13.250 2.500 L 13.250 3.250 12.500 3.250 L 11.750 3.250 11.750 2.500 L 11.750 1.750 12.500 1.750 L 13.250 1.750 13.250 2.500 M10.850 3.160 C 10.850 3.454,10.916 3.657,11.067 3.825 C 11.280 4.062,11.490 4.150,11.842 4.150 L 12.050 4.150 12.050 7.497 L 12.050 10.843 11.794 10.855 C 11.457 10.870,11.282 10.944,11.088 11.154 C 10.916 11.340,10.850 11.530,10.850 11.840 L 10.850 12.050 7.500 12.050 L 4.150 12.050 4.150 11.842 C 4.150 11.402,3.970 11.097,3.613 10.934 C 3.491 10.878,3.418 10.864,3.207 10.855 L 2.950 10.843 2.950 7.497 L 2.950 4.150 3.158 4.150 C 3.491 4.150,3.712 4.064,3.902 3.859 C 4.084 3.662,4.150 3.476,4.150 3.158 L 4.150 2.950 7.500 2.950 L 10.850 2.950 10.850 3.160 M5.794 5.126 C 5.502 5.198,5.235 5.442,5.151 5.717 C 5.106 5.862,5.100 5.949,5.100 6.500 C 5.100 7.244,5.123 7.359,5.317 7.575 C 5.580 7.867,5.698 7.900,6.492 7.900 L 7.100 7.900 7.100 8.510 C 7.100 9.243,7.124 9.360,7.317 9.575 C 7.581 9.868,7.697 9.900,8.500 9.900 C 9.266 9.900,9.365 9.878,9.609 9.652 C 9.736 9.534,9.812 9.412,9.860 9.249 C 9.918 9.056,9.918 7.944,9.860 7.751 C 9.785 7.496,9.612 7.299,9.363 7.183 L 9.213 7.113 8.556 7.104 L 7.900 7.096 7.900 6.490 C 7.900 6.010,7.892 5.856,7.860 5.751 C 7.785 5.496,7.612 5.299,7.363 5.183 L 7.213 5.113 6.550 5.108 C 6.186 5.105,5.845 5.114,5.794 5.126 M7.000 6.500 L 7.000 7.000 6.500 7.000 L 6.000 7.000 6.000 6.500 L 6.000 6.000 6.500 6.000 L 7.000 6.000 7.000 6.500 M9.000 8.500 L 9.000 9.000 8.500 9.000 L 8.000 9.000 8.000 8.500 L 8.000 8.000 8.500 8.000 L 9.000 8.000 9.000 8.500 M3.250 12.500 L 3.250 13.250 2.500 13.250 L 1.750 13.250 1.750 12.500 L 1.750 11.750 2.500 11.750 L 3.250 11.750 3.250 12.500 M13.250 12.500 L 13.250 13.250 12.500 13.250 L 11.750 13.250 11.750 12.500 L 11.750 11.750 12.500 11.750 L 13.250 11.750 13.250 12.500 " fill="currentColor" stroke="none" fill-rule="evenodd"></path></svg>