<svg width="15" height="15" fill="none" xmlns="http://www.w3.org/2000/svg"><path d="M5.342 1.025 C 5.151 1.083,5.000 1.295,5.000 1.504 C 5.000 1.655,5.089 1.818,5.223 1.913 L 5.329 1.988 7.498 1.988 L 9.666 1.988 9.767 1.920 C 9.924 1.817,9.988 1.695,9.988 1.500 C 9.988 1.305,9.924 1.183,9.768 1.080 L 9.666 1.012 7.539 1.008 C 6.370 1.006,5.381 1.013,5.342 1.025 M3.342 3.025 C 3.152 3.083,3.000 3.295,3.000 3.504 C 3.000 3.655,3.089 3.818,3.223 3.913 C 3.326 3.985,3.339 3.988,3.664 3.996 L 3.999 4.005 4.006 8.121 C 4.012 12.158,4.013 12.240,4.062 12.357 C 4.169 12.615,4.404 12.845,4.657 12.939 C 4.783 12.986,4.875 12.988,7.513 12.988 L 10.238 12.988 10.404 12.908 C 10.637 12.798,10.782 12.657,10.894 12.429 L 10.988 12.240 10.994 8.122 L 11.001 4.005 11.332 3.996 C 11.628 3.988,11.673 3.981,11.758 3.928 C 11.810 3.896,11.884 3.823,11.920 3.767 C 11.976 3.683,11.988 3.638,11.988 3.500 C 11.988 3.362,11.976 3.317,11.920 3.233 C 11.884 3.177,11.810 3.104,11.758 3.072 L 11.663 3.013 7.538 3.008 C 5.269 3.006,3.381 3.014,3.342 3.025 M10.000 8.000 L 10.000 12.000 7.500 12.000 L 5.000 12.000 5.000 8.000 L 5.000 4.000 7.500 4.000 L 10.000 4.000 10.000 8.000 " fill="currentColor" stroke="none" fill-rule="evenodd"></path></svg>