<svg width="15" height="15" fill="none" xmlns="http://www.w3.org/2000/svg"><path d="M9.845 1.612 C 9.725 1.632,9.523 1.682,9.397 1.725 C 8.160 2.139,7.335 3.204,7.236 4.515 L 7.219 4.743 6.978 4.699 C 5.391 4.408,4.017 3.639,2.961 2.449 C 2.606 2.048,2.492 1.996,2.182 2.088 C 2.096 2.113,2.028 2.156,1.969 2.221 C 1.703 2.515,1.549 3.206,1.583 3.950 C 1.605 4.417,1.681 4.738,1.883 5.202 L 1.922 5.291 1.838 5.322 C 1.726 5.362,1.609 5.499,1.573 5.631 C 1.536 5.770,1.578 6.206,1.660 6.529 C 1.786 7.026,2.075 7.540,2.427 7.894 C 2.594 8.063,2.604 8.079,2.567 8.120 C 2.546 8.144,2.514 8.216,2.497 8.281 C 2.469 8.382,2.471 8.417,2.510 8.543 C 2.635 8.943,2.892 9.365,3.217 9.702 C 3.470 9.965,3.684 10.129,3.973 10.284 C 4.209 10.410,4.212 10.399,3.906 10.509 C 3.277 10.734,2.548 10.829,1.836 10.777 C 1.448 10.749,1.420 10.750,1.316 10.796 C 1.049 10.914,0.923 11.270,1.057 11.527 C 1.129 11.664,1.359 11.822,1.875 12.085 C 2.736 12.526,3.542 12.778,4.525 12.916 C 4.919 12.971,6.049 12.979,6.463 12.929 C 7.790 12.771,8.911 12.370,9.938 11.687 C 10.379 11.394,10.691 11.135,11.101 10.726 C 11.527 10.300,11.769 10.004,12.113 9.488 C 12.756 8.525,13.215 7.352,13.397 6.210 C 13.491 5.621,13.523 4.982,13.478 4.619 L 13.460 4.475 13.586 4.369 C 13.885 4.120,14.088 3.927,14.271 3.714 C 14.509 3.438,14.686 3.203,14.670 3.186 C 14.663 3.179,14.606 3.196,14.544 3.222 C 14.392 3.288,13.978 3.419,13.776 3.467 C 13.600 3.508,13.225 3.572,13.225 3.561 C 13.225 3.557,13.295 3.504,13.381 3.442 C 13.787 3.149,14.114 2.726,14.298 2.256 L 14.349 2.125 14.056 2.272 C 13.894 2.353,13.689 2.447,13.600 2.482 C 13.406 2.559,12.888 2.717,12.800 2.727 C 12.750 2.733,12.682 2.679,12.449 2.448 C 12.027 2.031,11.630 1.801,11.083 1.659 C 10.772 1.579,10.185 1.556,9.845 1.612 M10.734 2.611 C 11.112 2.683,11.401 2.837,11.716 3.134 C 11.949 3.353,12.105 3.571,12.249 3.880 C 12.450 4.310,12.518 4.758,12.476 5.389 C 12.409 6.422,12.135 7.399,11.665 8.287 C 10.676 10.158,9.022 11.418,7.021 11.826 C 6.086 12.016,5.022 12.020,4.141 11.835 C 3.817 11.767,3.293 11.624,3.309 11.607 C 3.315 11.602,3.437 11.571,3.582 11.538 C 4.282 11.380,4.993 11.054,5.560 10.633 C 5.773 10.475,5.834 10.368,5.820 10.175 C 5.812 10.066,5.793 10.008,5.741 9.940 C 5.644 9.812,5.559 9.777,5.281 9.750 C 4.698 9.694,4.266 9.490,3.876 9.087 C 3.667 8.872,3.668 8.868,3.912 8.838 C 4.167 8.807,4.362 8.734,4.447 8.638 C 4.620 8.441,4.600 8.160,4.403 7.994 C 4.360 7.958,4.241 7.908,4.121 7.876 C 3.571 7.728,3.117 7.407,2.825 6.960 C 2.713 6.789,2.556 6.459,2.577 6.440 C 2.583 6.435,2.672 6.446,2.775 6.465 C 3.004 6.505,3.272 6.509,3.367 6.473 C 3.467 6.435,3.549 6.353,3.603 6.238 C 3.706 6.013,3.636 5.821,3.380 5.631 C 3.078 5.405,2.822 5.091,2.672 4.759 C 2.528 4.443,2.449 3.941,2.486 3.590 L 2.504 3.422 2.733 3.643 C 3.821 4.695,5.348 5.448,6.900 5.699 C 7.296 5.763,7.790 5.806,7.887 5.785 C 8.082 5.744,8.255 5.571,8.291 5.380 C 8.300 5.332,8.292 5.213,8.274 5.115 C 8.228 4.862,8.232 4.475,8.285 4.242 C 8.538 3.122,9.624 2.399,10.734 2.611 " fill="currentColor" stroke="none" fill-rule="evenodd"></path></svg>