<svg width="15" height="15" fill="none" xmlns="http://www.w3.org/2000/svg"><path d="M4.342 2.274 C 4.226 2.311,4.108 2.417,4.052 2.534 L 3.998 2.644 4.007 5.591 C 4.016 8.864,4.003 8.610,4.188 9.167 C 4.353 9.664,4.597 10.066,4.972 10.456 C 5.495 11.001,6.093 11.331,6.850 11.492 C 7.148 11.556,7.852 11.556,8.150 11.492 C 8.907 11.331,9.505 11.001,10.028 10.456 C 10.403 10.066,10.647 9.664,10.812 9.167 C 10.998 8.609,10.988 8.825,10.988 5.536 L 10.988 2.584 10.920 2.483 C 10.817 2.326,10.695 2.263,10.500 2.263 C 10.305 2.263,10.183 2.326,10.080 2.482 L 10.013 2.584 9.999 5.511 L 9.986 8.438 9.929 8.649 C 9.691 9.547,9.015 10.230,8.128 10.469 C 7.918 10.526,7.839 10.534,7.500 10.534 C 7.161 10.534,7.082 10.526,6.872 10.469 C 6.284 10.311,5.775 9.954,5.445 9.468 C 5.300 9.255,5.136 8.895,5.071 8.649 L 5.015 8.438 5.001 5.513 L 4.988 2.588 4.928 2.492 C 4.843 2.356,4.708 2.274,4.546 2.262 C 4.473 2.256,4.381 2.262,4.342 2.274 M3.331 13.141 C 3.089 13.261,3.027 13.562,3.204 13.763 C 3.245 13.810,3.321 13.861,3.371 13.876 C 3.434 13.894,4.733 13.900,7.554 13.895 C 11.643 13.888,11.646 13.887,11.715 13.836 C 11.824 13.755,11.880 13.665,11.893 13.546 C 11.909 13.401,11.855 13.275,11.736 13.185 L 11.641 13.113 7.527 13.107 C 3.777 13.101,3.405 13.104,3.331 13.141 " fill="currentColor" stroke="none" fill-rule="evenodd"></path></svg>