<svg width="15" height="15" fill="none" xmlns="http://www.w3.org/2000/svg"><path d="M2.413 1.048 C 2.300 1.075,2.240 1.114,2.154 1.211 C 1.960 1.433,2.002 1.764,2.248 1.938 L 2.354 2.013 3.255 2.025 L 4.156 2.038 3.747 2.366 C 3.206 2.799,2.809 3.162,2.471 3.534 C 1.137 4.997,0.663 6.484,0.938 8.338 C 1.329 10.977,3.264 13.083,5.924 13.766 C 6.514 13.917,6.700 13.905,6.884 13.700 C 7.037 13.531,7.063 13.335,6.959 13.128 C 6.868 12.944,6.774 12.891,6.388 12.803 C 5.268 12.550,4.351 12.065,3.578 11.315 C 2.672 10.436,2.126 9.330,1.946 8.013 C 1.900 7.677,1.906 6.936,1.956 6.663 C 2.206 5.311,3.012 4.228,4.763 2.892 L 5.013 2.701 5.025 3.682 C 5.037 4.615,5.040 4.667,5.090 4.763 C 5.118 4.817,5.190 4.896,5.248 4.938 C 5.342 5.004,5.374 5.013,5.535 5.013 C 5.694 5.013,5.727 5.004,5.806 4.944 C 5.856 4.906,5.923 4.839,5.955 4.794 L 6.013 4.713 6.019 3.061 L 6.026 1.410 5.967 1.299 C 5.929 1.225,5.867 1.162,5.788 1.113 L 5.666 1.038 4.077 1.033 C 3.203 1.031,2.454 1.038,2.413 1.048 M8.263 1.192 C 7.954 1.354,7.877 1.756,8.107 2.004 C 8.199 2.104,8.288 2.141,8.640 2.225 C 9.107 2.336,9.437 2.454,9.864 2.662 C 11.515 3.465,12.607 4.908,12.928 6.713 C 12.978 6.992,12.986 7.121,12.986 7.638 C 12.986 8.166,12.980 8.268,12.930 8.492 C 12.660 9.728,11.830 10.818,10.219 12.058 C 10.046 12.191,9.898 12.300,9.891 12.300 C 9.883 12.300,9.873 11.845,9.870 11.290 L 9.863 10.280 9.785 10.184 C 9.660 10.028,9.540 9.971,9.357 9.981 C 9.169 9.992,9.021 10.082,8.940 10.238 C 8.889 10.335,8.887 10.370,8.881 11.920 C 8.876 13.032,8.882 13.534,8.902 13.607 C 8.939 13.746,9.105 13.911,9.243 13.948 C 9.317 13.968,9.813 13.974,10.930 13.969 C 12.479 13.963,12.515 13.961,12.613 13.910 C 12.668 13.882,12.746 13.810,12.788 13.752 C 12.854 13.657,12.863 13.626,12.863 13.463 C 12.863 13.295,12.856 13.271,12.785 13.184 C 12.624 12.985,12.647 12.989,11.643 12.975 L 10.748 12.963 10.921 12.833 C 11.506 12.395,12.425 11.529,12.786 11.075 C 13.364 10.346,13.779 9.506,13.946 8.725 C 14.168 7.685,14.032 6.346,13.590 5.216 C 12.821 3.247,11.070 1.745,8.938 1.223 C 8.604 1.142,8.377 1.131,8.263 1.192 " fill="currentColor" stroke="none" fill-rule="evenodd"></path></svg>