<svg width="15" height="15" fill="none" xmlns="http://www.w3.org/2000/svg"><path d="M7.313 1.098 C 7.244 1.130,6.712 1.647,5.646 2.716 C 4.162 4.204,4.078 4.293,4.057 4.400 C 3.983 4.770,4.314 5.057,4.663 4.926 C 4.707 4.909,5.215 4.420,5.894 3.743 L 7.050 2.588 7.050 6.089 L 7.050 9.589 7.106 9.701 C 7.272 10.029,7.728 10.029,7.894 9.701 L 7.950 9.589 7.950 6.089 L 7.950 2.588 9.106 3.743 C 9.785 4.420,10.293 4.909,10.338 4.926 C 10.686 5.057,11.017 4.770,10.943 4.400 C 10.922 4.293,10.838 4.204,9.354 2.716 C 8.288 1.647,7.756 1.130,7.688 1.098 C 7.633 1.072,7.548 1.051,7.500 1.051 C 7.452 1.051,7.367 1.072,7.313 1.098 M2.342 10.024 C 2.226 10.061,2.108 10.167,2.051 10.286 C 1.997 10.396,1.997 10.414,2.005 11.380 L 2.014 12.363 2.084 12.575 C 2.303 13.239,2.757 13.694,3.425 13.917 L 3.638 13.988 7.500 13.988 L 11.363 13.988 11.575 13.917 C 12.243 13.694,12.695 13.241,12.916 12.575 L 12.987 12.363 12.987 11.348 L 12.988 10.334 12.920 10.233 C 12.817 10.076,12.695 10.013,12.500 10.013 C 12.305 10.013,12.183 10.076,12.080 10.232 L 12.013 10.334 12.000 11.287 L 11.988 12.240 11.893 12.431 C 11.752 12.717,11.519 12.905,11.220 12.974 C 11.152 12.990,9.788 12.999,7.486 12.999 C 3.489 13.000,3.727 13.009,3.470 12.846 C 3.307 12.743,3.183 12.598,3.091 12.403 L 3.013 12.238 3.000 11.288 C 2.988 10.341,2.987 10.337,2.928 10.242 C 2.843 10.106,2.708 10.024,2.546 10.012 C 2.473 10.006,2.381 10.012,2.342 10.024 " fill="currentColor" stroke="none" fill-rule="evenodd"></path></svg>