<svg width="15" height="15" fill="none" xmlns="http://www.w3.org/2000/svg"><path d="M6.950 0.901 C 6.373 0.952,5.740 1.093,5.209 1.288 C 4.890 1.404,4.274 1.707,3.988 1.887 C 1.725 3.310,0.533 5.947,0.965 8.575 C 1.144 9.666,1.640 10.780,2.320 11.625 L 2.472 11.813 2.024 12.263 C 1.748 12.541,1.563 12.749,1.539 12.806 C 1.402 13.132,1.640 13.500,1.987 13.500 C 2.186 13.500,2.263 13.446,2.737 12.976 L 3.188 12.528 3.375 12.680 C 4.674 13.729,6.418 14.254,8.088 14.099 C 9.611 13.958,10.989 13.329,12.084 12.275 C 13.179 11.219,13.825 9.958,14.067 8.400 C 14.130 7.996,14.130 7.007,14.066 6.600 C 13.876 5.371,13.404 4.274,12.680 3.375 L 12.529 3.188 12.987 2.725 C 13.380 2.327,13.449 2.247,13.475 2.150 C 13.536 1.923,13.460 1.714,13.269 1.585 C 13.179 1.525,13.137 1.513,13.000 1.513 C 12.787 1.513,12.729 1.554,12.216 2.070 L 11.819 2.469 11.516 2.240 C 11.116 1.937,10.871 1.787,10.388 1.549 C 9.751 1.236,9.066 1.030,8.363 0.938 C 7.987 0.889,7.295 0.871,6.950 0.901 M8.000 1.852 C 9.055 1.949,10.074 2.341,10.906 2.969 C 11.027 3.060,11.125 3.141,11.125 3.148 C 11.125 3.156,9.330 4.957,7.136 7.150 L 3.147 11.138 3.085 11.063 C 2.947 10.898,2.683 10.503,2.551 10.265 C 2.054 9.368,1.840 8.534,1.840 7.500 C 1.840 6.648,1.971 5.995,2.293 5.251 C 3.262 3.009,5.581 1.628,8.000 1.852 M12.007 4.056 C 12.477 4.681,12.844 5.450,13.013 6.163 C 13.124 6.633,13.160 6.955,13.161 7.488 C 13.162 8.156,13.089 8.650,12.908 9.211 C 12.344 10.955,11.026 12.297,9.313 12.872 C 7.586 13.452,5.724 13.183,4.245 12.142 C 4.117 12.052,3.979 11.950,3.938 11.915 L 3.863 11.853 7.850 7.864 C 10.043 5.670,11.845 3.875,11.854 3.875 C 11.863 3.875,11.932 3.957,12.007 4.056 " fill="currentColor" stroke="none" fill-rule="evenodd"></path></svg>