<svg width="15" height="15" fill="none" xmlns="http://www.w3.org/2000/svg"><path d="M4.045 7.006 L 0.606 12.988 4.053 12.994 C 5.949 12.997,9.051 12.997,10.947 12.994 L 14.394 12.988 10.955 7.006 C 9.063 3.717,7.509 1.025,7.500 1.025 C 7.491 1.025,5.936 3.717,4.045 7.006 M10.081 7.497 C 11.494 9.956,12.650 11.975,12.650 11.984 C 12.650 11.993,10.328 12.000,7.490 12.000 L 2.330 12.000 4.909 7.513 C 6.327 5.045,7.493 3.026,7.500 3.026 C 7.507 3.026,8.668 5.038,10.081 7.497 " fill="currentColor" stroke="none" fill-rule="evenodd"></path></svg>