<svg width="15" height="15" fill="none" xmlns="http://www.w3.org/2000/svg"><path d="M6.563 2.015 C 5.070 2.079,3.341 2.227,2.646 2.351 C 1.848 2.493,1.352 2.713,0.929 3.113 C 0.605 3.418,0.404 3.732,0.265 4.150 C 0.034 4.846,0.013 5.129,0.013 7.500 C 0.012 9.506,0.020 9.698,0.116 10.275 C 0.193 10.736,0.338 11.134,0.541 11.442 C 0.688 11.665,1.038 12.014,1.268 12.167 C 1.736 12.478,2.329 12.646,3.363 12.761 C 3.804 12.810,5.033 12.913,5.688 12.955 C 6.351 12.997,8.649 12.997,9.313 12.955 C 9.971 12.912,11.226 12.808,11.650 12.761 C 12.978 12.612,13.611 12.371,14.150 11.809 C 14.657 11.281,14.849 10.785,14.956 9.725 C 15.001 9.281,15.000 5.741,14.955 5.288 C 14.855 4.273,14.658 3.744,14.196 3.238 C 13.794 2.800,13.285 2.538,12.538 2.387 C 11.983 2.275,10.777 2.150,9.400 2.062 C 8.847 2.027,7.001 1.996,6.563 2.015 M8.600 3.025 C 9.966 3.081,11.615 3.228,12.270 3.353 C 12.849 3.464,13.123 3.591,13.413 3.885 C 13.811 4.286,13.919 4.658,13.975 5.820 C 14.006 6.462,14.006 8.571,13.975 9.219 C 13.921 10.326,13.793 10.763,13.414 11.137 C 12.972 11.573,12.469 11.699,10.525 11.861 C 9.202 11.971,8.833 11.987,7.500 11.987 C 6.166 11.987,5.796 11.971,4.476 11.861 C 2.520 11.697,2.023 11.573,1.585 11.136 C 1.390 10.942,1.233 10.666,1.162 10.388 C 1.042 9.924,1.001 9.183,1.001 7.513 C 1.001 5.801,1.039 5.122,1.164 4.631 C 1.246 4.307,1.349 4.125,1.587 3.885 C 2.028 3.438,2.505 3.316,4.450 3.152 C 6.148 3.009,7.310 2.973,8.600 3.025 M5.410 5.149 C 5.381 5.161,5.333 5.201,5.303 5.239 L 5.250 5.307 5.250 7.503 L 5.250 9.699 5.322 9.780 C 5.381 9.846,5.413 9.861,5.491 9.859 C 5.561 9.858,6.226 9.577,7.875 8.852 C 10.721 7.601,10.496 7.706,10.539 7.622 C 10.606 7.492,10.565 7.347,10.445 7.285 C 10.262 7.190,5.592 5.152,5.531 5.141 C 5.493 5.134,5.439 5.137,5.410 5.149 " fill="currentColor" stroke="none" fill-rule="evenodd"></path></svg>