<svg width="15" height="15" fill="none" xmlns="http://www.w3.org/2000/svg"><path d="M1.175 1.039 C 0.902 1.098,0.662 1.233,0.449 1.448 C 0.233 1.666,0.121 1.859,0.049 2.140 C 0.001 2.329,0.000 2.436,0.000 7.500 C 0.000 12.564,0.001 12.671,0.049 12.860 C 0.077 12.966,0.136 13.122,0.181 13.207 C 0.279 13.393,0.506 13.642,0.676 13.751 C 0.744 13.794,0.800 13.841,0.800 13.854 C 0.800 13.867,0.814 13.875,0.831 13.872 C 0.848 13.868,0.941 13.893,1.038 13.927 L 1.213 13.988 7.425 13.994 C 14.339 14.002,13.812 14.015,14.181 13.832 C 14.310 13.768,14.417 13.687,14.551 13.552 C 14.767 13.334,14.879 13.142,14.951 12.860 C 14.999 12.671,15.000 12.564,15.000 7.500 C 15.000 2.436,14.999 2.329,14.951 2.140 C 14.923 2.034,14.864 1.878,14.819 1.793 C 14.721 1.607,14.494 1.358,14.324 1.249 C 14.256 1.206,14.200 1.159,14.200 1.146 C 14.200 1.133,14.186 1.125,14.169 1.128 C 14.152 1.132,14.059 1.107,13.963 1.073 L 13.788 1.012 7.563 1.008 C 2.294 1.004,1.313 1.009,1.175 1.039 M13.074 2.060 C 13.040 2.093,10.313 4.434,7.013 7.262 L 1.012 12.404 1.006 7.423 C 1.002 3.989,1.008 2.413,1.026 2.345 C 1.058 2.226,1.217 2.061,1.330 2.028 C 1.381 2.014,3.661 2.004,7.274 2.002 L 13.136 2.000 13.074 2.060 M13.974 12.655 C 13.940 12.782,13.782 12.940,13.655 12.974 C 13.587 12.992,11.752 12.998,7.713 12.994 L 1.870 12.988 7.929 7.792 L 13.988 2.596 13.994 7.576 C 13.998 11.011,13.992 12.587,13.974 12.655 " fill="currentColor" stroke="none" fill-rule="evenodd"></path></svg>