<svg width="15" height="15" fill="none" xmlns="http://www.w3.org/2000/svg"><path d="M1.175 1.039 C 0.636 1.155,0.179 1.606,0.038 2.162 C 0.005 2.292,-0.000 2.945,0.000 7.489 C 0.000 12.564,0.001 12.671,0.049 12.860 C 0.122 13.143,0.233 13.334,0.449 13.551 C 0.666 13.767,0.857 13.878,1.140 13.951 C 1.330 13.999,1.440 14.000,7.500 14.000 C 13.560 14.000,13.670 13.999,13.860 13.951 C 14.143 13.878,14.334 13.767,14.551 13.551 C 14.767 13.334,14.878 13.143,14.951 12.860 C 14.999 12.671,15.000 12.564,15.000 7.500 C 15.000 2.436,14.999 2.329,14.951 2.140 C 14.879 1.859,14.767 1.666,14.551 1.448 C 14.334 1.229,14.096 1.097,13.813 1.038 C 13.556 0.984,1.425 0.985,1.175 1.039 M13.758 2.072 C 13.810 2.104,13.884 2.177,13.920 2.232 L 13.988 2.334 13.994 4.667 L 14.001 7.000 7.501 7.000 L 1.000 7.000 1.000 4.719 C 1.000 3.190,1.009 2.406,1.027 2.342 C 1.059 2.226,1.219 2.060,1.330 2.028 C 1.382 2.013,3.719 2.006,7.538 2.008 L 13.663 2.013 13.758 2.072 M13.994 10.331 L 13.988 12.663 13.928 12.758 C 13.896 12.810,13.823 12.884,13.767 12.920 L 13.666 12.988 7.500 12.988 L 1.334 12.988 1.233 12.920 C 1.177 12.884,1.104 12.810,1.072 12.758 L 1.012 12.663 1.006 10.331 L 0.999 8.000 7.500 8.000 L 14.001 8.000 13.994 10.331 " fill="currentColor" stroke="none" fill-rule="evenodd"></path></svg>