<svg width="15" height="15" fill="none" xmlns="http://www.w3.org/2000/svg"><path d="M5.950 2.038 C 4.821 2.177,3.784 2.741,3.054 3.613 C 2.253 4.569,1.878 5.841,2.037 7.057 C 2.248 8.665,3.270 10.014,4.754 10.645 C 5.044 10.768,5.340 10.856,5.713 10.931 C 5.939 10.976,6.076 10.986,6.488 10.987 C 7.008 10.988,7.164 10.970,7.605 10.860 C 8.155 10.723,8.698 10.469,9.147 10.138 L 9.307 10.020 10.772 11.483 C 12.105 12.814,12.248 12.949,12.350 12.976 C 12.748 13.081,13.081 12.748,12.976 12.350 C 12.949 12.248,12.814 12.105,11.483 10.772 L 10.020 9.307 10.138 9.147 C 10.469 8.698,10.723 8.155,10.860 7.605 C 10.969 7.169,10.987 7.007,10.987 6.500 C 10.987 5.993,10.969 5.831,10.860 5.395 C 10.605 4.371,9.988 3.469,9.104 2.831 C 8.841 2.641,8.224 2.330,7.900 2.225 C 7.278 2.024,6.596 1.958,5.950 2.038 M7.150 3.063 C 7.607 3.151,8.069 3.342,8.475 3.612 C 8.716 3.772,9.228 4.284,9.388 4.525 C 9.659 4.933,9.847 5.388,9.941 5.863 C 10.002 6.173,10.002 6.827,9.941 7.137 C 9.804 7.827,9.504 8.408,9.026 8.908 C 8.506 9.450,7.906 9.781,7.150 9.942 C 6.852 10.006,6.148 10.006,5.850 9.942 C 5.094 9.781,4.494 9.450,3.974 8.908 C 3.504 8.417,3.216 7.869,3.071 7.192 C 2.993 6.828,2.993 6.172,3.071 5.808 C 3.215 5.132,3.504 4.583,3.972 4.094 C 4.240 3.815,4.465 3.638,4.787 3.453 C 5.162 3.238,5.636 3.081,6.071 3.027 C 6.330 2.995,6.890 3.014,7.150 3.063 M4.592 6.025 C 4.401 6.083,4.250 6.295,4.250 6.504 C 4.250 6.655,4.339 6.818,4.473 6.913 L 4.579 6.988 6.498 6.988 L 8.416 6.988 8.517 6.920 C 8.674 6.817,8.738 6.695,8.738 6.500 C 8.738 6.305,8.674 6.183,8.518 6.080 L 8.416 6.013 6.539 6.008 C 5.507 6.006,4.631 6.013,4.592 6.025 " fill="currentColor" stroke="none" fill-rule="evenodd"></path></svg>