<svg width="15" height="15" fill="none" xmlns="http://www.w3.org/2000/svg"><path d="M6.028 2.029 C 5.145 2.121,4.299 2.481,3.602 3.063 C 2.295 4.152,1.718 5.943,2.139 7.605 C 2.483 8.963,3.445 10.086,4.737 10.637 C 6.177 11.252,7.848 11.069,9.116 10.159 L 9.308 10.021 10.773 11.484 C 12.105 12.814,12.248 12.949,12.350 12.976 C 12.748 13.081,13.081 12.748,12.976 12.350 C 12.949 12.248,12.814 12.105,11.483 10.772 L 10.020 9.307 10.138 9.147 C 10.469 8.698,10.723 8.155,10.860 7.605 C 10.969 7.169,10.987 7.008,10.987 6.488 C 10.987 5.951,10.952 5.702,10.813 5.222 C 10.465 4.024,9.606 3.014,8.463 2.459 C 7.691 2.085,6.872 1.940,6.028 2.029 M7.150 3.063 C 7.607 3.151,8.069 3.342,8.475 3.612 C 8.716 3.772,9.228 4.284,9.388 4.525 C 9.659 4.933,9.847 5.388,9.941 5.863 C 10.002 6.173,10.002 6.827,9.941 7.137 C 9.804 7.827,9.504 8.408,9.026 8.908 C 8.506 9.450,7.906 9.781,7.150 9.942 C 6.852 10.006,6.148 10.006,5.850 9.942 C 5.094 9.781,4.494 9.450,3.974 8.908 C 3.504 8.417,3.216 7.869,3.071 7.192 C 2.993 6.828,2.993 6.172,3.071 5.808 C 3.215 5.132,3.504 4.583,3.972 4.094 C 4.240 3.815,4.465 3.638,4.787 3.453 C 5.162 3.238,5.636 3.081,6.071 3.027 C 6.330 2.995,6.890 3.014,7.150 3.063 M6.342 4.274 C 6.227 4.311,6.109 4.416,6.053 4.532 C 6.003 4.634,6.000 4.681,6.000 5.319 L 6.000 5.997 5.290 6.005 L 4.579 6.013 4.473 6.088 C 4.179 6.294,4.179 6.706,4.473 6.913 L 4.579 6.988 5.290 6.995 L 6.000 7.003 6.000 7.685 C 6.000 8.351,6.001 8.370,6.058 8.477 C 6.090 8.538,6.164 8.621,6.223 8.662 C 6.315 8.728,6.351 8.738,6.496 8.738 C 6.695 8.738,6.816 8.675,6.920 8.518 L 6.988 8.416 6.995 7.710 L 7.003 7.003 7.710 6.995 L 8.416 6.988 8.518 6.920 C 8.674 6.817,8.738 6.695,8.738 6.498 C 8.738 6.362,8.726 6.317,8.670 6.233 C 8.634 6.177,8.560 6.104,8.508 6.072 C 8.414 6.014,8.399 6.012,7.708 6.005 L 7.003 5.997 6.995 5.292 C 6.988 4.601,6.986 4.586,6.928 4.492 C 6.843 4.356,6.708 4.274,6.546 4.262 C 6.473 4.256,6.381 4.262,6.342 4.274 " fill="currentColor" stroke="none" fill-rule="evenodd"></path></svg>