<svg width="15" height="15" fill="none" xmlns="http://www.w3.org/2000/svg"><path fill-rule="evenodd" clip-rule="evenodd" d="M12.91 12.909c.326-.327.582-.72.749-1.151.16-.414.27-.886.302-1.578.032-.693.04-.915.04-2.68 0-1.765-.008-1.987-.04-2.68-.032-.692-.142-1.164-.302-1.578a3.185 3.185 0 0 0-.75-1.151 3.187 3.187 0 0 0-1.151-.75c-.414-.16-.886-.27-1.578-.302C9.487 1.007 9.265 1 7.5 1c-1.765 0-1.987.007-2.68.04-.692.03-1.164.14-1.578.301-.433.163-.826.42-1.151.75-.33.325-.587.718-.75 1.151-.16.414-.27.886-.302 1.578C1.007 5.513 1 5.735 1 7.5c0 1.765.007 1.987.04 2.68.03.692.14 1.164.301 1.578.164.434.42.826.75 1.151.325.33.718.586 1.151.75.414.16.886.27 1.578.302.693.031.915.039 2.68.039 1.765 0 1.987-.008 2.68-.04.692-.03 1.164-.14 1.578-.301a3.323 3.323 0 0 0 1.151-.75ZM2 6.735v1.53c-.002.821-.002 1.034.02 1.5.026.586.058 1.016.156 1.34.094.312.199.63.543 1.012.344.383.675.556 1.097.684.423.127.954.154 1.415.175.522.024.73.024 1.826.024H8.24c.842.001 1.054.002 1.526-.02.585-.027 1.015-.059 1.34-.156.311-.094.629-.2 1.011-.543.383-.344.556-.676.684-1.098.127-.422.155-.953.176-1.414C13 9.247 13 9.04 13 7.947v-.89c0-1.096 0-1.303-.023-1.826-.021-.461-.049-.992-.176-1.414-.127-.423-.3-.754-.684-1.098-.383-.344-.7-.449-1.011-.543-.325-.097-.755-.13-1.34-.156A27.29 27.29 0 0 0 8.24 2H7.057c-1.096 0-1.304 0-1.826.023-.461.021-.992.049-1.415.176-.422.128-.753.301-1.097.684-.344.383-.45.7-.543 1.012-.098.324-.13.754-.156 1.34-.022.466-.022.679-.02 1.5ZM7.5 5.25a2.25 2.25 0 1 0 0 4.5 2.25 2.25 0 0 0 0-4.5ZM4.25 7.5a3.25 3.25 0 1 1 6.5 0 3.25 3.25 0 0 1-6.5 0Zm6.72-2.72a.75.75 0 1 0 0-1.5.75.75 0 0 0 0 1.5Z" fill="currentColor"/></svg>