<svg width="15" height="15" fill="none" xmlns="http://www.w3.org/2000/svg"><path fill-rule="evenodd" clip-rule="evenodd" d="M7.818.932a.45.45 0 0 0-.636 0l-1.75 1.75a.45.45 0 1 0 .636.636L7 2.386V5.5a.5.5 0 0 0 1 0V2.386l.932.932a.45.45 0 0 0 .636-.636L7.818.932ZM8 9.5a.5.5 0 0 0-1 0v3.114l-.932-.932a.45.45 0 0 0-.636.636l1.75 1.75a.45.45 0 0 0 .636 0l1.75-1.75a.45.45 0 0 0-.636-.636L8 12.614V9.5Zm1-2a.5.5 0 0 1 .5-.5h3.114l-.932-.932a.45.45 0 0 1 .636-.636l1.75 1.75a.45.45 0 0 1 0 .636l-1.75 1.75a.45.45 0 0 1-.636-.636L12.614 8H9.5a.5.5 0 0 1-.5-.5ZM3.318 6.068 2.386 7H5.5a.5.5 0 0 1 0 1H2.386l.932.932a.45.45 0 0 1-.636.636l-1.75-1.75a.45.45 0 0 1 0-.636l1.75-1.75a.45.45 0 1 1 .636.636Z" fill="currentColor"/></svg>